<svg width="1089" height="667" viewBox="0 0 1089 667" fill="none" xmlns="http://www.w3.org/2000/svg"><path d="M7.2 488.777L108 521.033v36.432l-53.856 16.272L108 590.873v36.432L7.2 659.561v-34.992l57.312-17.568L7.2 588.425v-31.248l58.032-17.568L7.2 521.033v-32.256zm20.592-92.168c0-9.696 2.928-17.472 8.784-23.328 5.856-5.952 14.688-8.928 26.496-8.928H108v32.544H68.688c-9.024 0-13.536 3.216-13.536 9.648 0 3.648 1.296 6.624 3.888 8.928 2.496 2.208 6.48 3.312 11.952 3.312H108v32.544H1.152v-32.544h34.416c-5.184-6.048-7.776-13.44-7.776-22.176zm81.648-118.212c0 8.736-1.728 16.608-5.184 23.616-3.552 6.912-8.4 12.336-14.544 16.272-6.24 3.936-13.296 5.904-21.168 5.904s-14.88-1.968-21.024-5.904c-6.24-3.936-11.088-9.36-14.544-16.272-3.456-7.008-5.184-14.88-5.184-23.616 0-8.832 1.728-16.704 5.184-23.616 3.456-7.008 8.304-12.432 14.544-16.272 6.144-3.936 13.152-5.904 21.024-5.904 7.872 0 14.928 1.968 21.168 5.904 6.144 3.84 10.992 9.264 14.544 16.272 3.456 6.912 5.184 14.784 5.184 23.616zm-25.344 0c0-3.744-1.344-6.816-4.032-9.216-2.784-2.4-6.624-3.6-11.52-3.6s-8.688 1.2-11.376 3.6c-2.688 2.4-4.032 5.472-4.032 9.216 0 3.744 1.344 6.816 4.032 9.216 2.688 2.4 6.48 3.6 11.376 3.6 4.896 0 8.736-1.2 11.52-3.6 2.688-2.4 4.032-5.472 4.032-9.216z" fill="#fff"/><path fill-rule="evenodd" clip-rule="evenodd" d="M6.2 487.407L109 520.303v37.904l-51.48 15.554 51.48 16.38v37.894L6.2 660.931v-37.102l54.986-16.855L6.2 589.152v-32.717l55.668-16.853L6.2 521.763v-34.356zm59.032 52.202L7.2 557.177v31.248l57.312 18.576L7.2 624.569v34.992L108 627.305v-36.432l-53.856-17.136L108 557.465v-36.432L7.2 488.777v32.256l58.032 18.576zM109 363.353v34.544H68.688c-4.424 0-7.562.793-9.572 2.226-1.947 1.388-2.964 3.47-2.964 6.422 0 3.378 1.185 6.076 3.55 8.179 2.228 1.97 5.915 3.061 11.29 3.061H109v34.544H.152v-34.544H33.48c-4.466-5.925-6.688-13-6.688-21.176 0-9.911 3-17.957 9.074-24.032 6.11-6.209 15.244-9.224 27.206-9.224H109zm-72.424 9.928c-5.856 5.856-8.784 13.632-8.784 23.328 0 8.26 2.317 15.319 6.952 21.176.267.337.542.67.824 1H1.152v32.544H108v-32.544H70.992c-5.472 0-9.456-1.104-11.952-3.312-2.592-2.304-3.888-5.28-3.888-8.928 0-6.432 4.512-9.648 13.536-9.648H108v-32.544H63.072c-11.808 0-20.64 2.976-26.496 8.928zm68.573-70.818l-.004.007c-3.627 7.059-8.591 12.62-14.894 16.657l-.006.004c-6.41 4.044-13.654 6.058-21.701 6.058s-15.245-2.014-21.562-6.061c-6.4-4.038-11.368-9.602-14.9-16.668l-.003-.004c-3.532-7.162-5.287-15.188-5.287-24.059 0-8.964 1.754-16.992 5.288-24.06 3.532-7.161 8.501-12.73 14.907-16.674 6.317-4.045 13.512-6.058 21.557-6.058 8.047 0 15.29 2.015 21.7 6.057 6.31 3.945 11.277 9.512 14.904 16.667l.002.005c3.535 7.069 5.29 15.098 5.29 24.063 0 8.871-1.756 16.897-5.287 24.058l-.004.008zm-15.437-63.954c-6.24-3.936-13.296-5.904-21.168-5.904s-14.88 1.968-21.024 5.904c-6.24 3.84-11.088 9.264-14.544 16.272-3.456 6.912-5.184 14.784-5.184 23.616 0 8.736 1.728 16.608 5.184 23.616 3.456 6.912 8.304 12.336 14.544 16.272 6.144 3.936 13.152 5.904 21.024 5.904 7.872 0 14.928-1.968 21.168-5.904 6.144-3.936 10.992-9.36 14.544-16.272 3.456-7.008 5.184-14.88 5.184-23.616 0-8.832-1.728-16.704-5.184-23.616-3.552-7.008-8.4-12.432-14.544-16.272zm-9.648 30.672c-2.784-2.4-6.624-3.6-11.52-3.6s-8.688 1.2-11.376 3.6c-2.688 2.4-4.032 5.472-4.032 9.216 0 3.744 1.344 6.816 4.032 9.216 2.688 2.4 6.48 3.6 11.376 3.6 4.896 0 8.736-1.2 11.52-3.6 2.688-2.4 4.032-5.472 4.032-9.216 0-3.744-1.344-6.816-4.032-9.216zm-.66 17.68c-2.549 2.195-6.127 3.352-10.86 3.352-4.74 0-8.262-1.16-10.71-3.346-2.466-2.202-3.698-4.998-3.698-8.47 0-3.472 1.232-6.268 3.698-8.47 2.448-2.185 5.97-3.346 10.71-3.346 4.733 0 8.311 1.158 10.86 3.352 2.462 2.201 3.692 4.996 3.692 8.464 0 3.469-1.23 6.263-3.692 8.464z" fill="#fff"/><path d="M436.304 615.208c0 8.352-.912 16.512-2.736 24.48-1.92 7.872-4.464 14.352-7.632 19.44l-24.768-10.944c2.784-4.8 5.04-10.176 6.768-16.128 1.632-5.952 2.448-11.664 2.448-17.136 0-4.704-.432-8.064-1.296-10.08-.96-2.016-2.352-3.024-4.176-3.024-2.112 0-3.696 1.344-4.752 4.032-1.056 2.592-2.208 6.912-3.456 12.96-1.632 7.776-3.36 14.256-5.184 19.44-1.92 5.184-4.992 9.696-9.216 13.536-4.32 3.84-10.128 5.76-17.424 5.76-6.336 0-12.096-1.776-17.28-5.328-5.184-3.552-9.264-8.832-12.24-15.84-2.976-7.104-4.464-15.696-4.464-25.776 0-6.912.768-13.68 2.304-20.304 1.44-6.72 3.6-12.624 6.48-17.712l24.624 10.224c-4.992 9.888-7.488 19.248-7.488 28.08 0 8.736 2.112 13.104 6.336 13.104 2.016 0 3.552-1.296 4.608-3.888.96-2.592 2.016-6.864 3.168-12.816 1.44-7.68 3.12-14.16 5.04-19.44 1.824-5.28 4.848-9.84 9.072-13.68 4.224-3.936 9.984-5.904 17.28-5.904 6.336 0 12.096 1.776 17.28 5.328 5.088 3.552 9.168 8.88 12.24 15.984 2.976 7.008 4.464 15.552 4.464 25.632zm-82.512-120.129c0-13.824 3.12-24.384 9.36-31.68 6.144-7.296 15.648-10.944 28.512-10.944H434v30.24h-10.368c7.872 3.744 11.808 11.184 11.808 22.32 0 6.24-1.056 11.568-3.168 15.984-2.208 4.32-5.136 7.632-8.784 9.936-3.744 2.208-7.92 3.312-12.528 3.312-7.776 0-13.68-2.976-17.712-8.928-4.032-5.952-6.048-14.976-6.048-27.072v-13.104c-6.144 1.056-9.216 6-9.216 14.832 0 3.552.576 7.152 1.728 10.8 1.056 3.648 2.544 6.768 4.464 9.36l-21.456 10.368c-2.784-4.512-4.944-9.936-6.48-16.272-1.632-6.432-2.448-12.816-2.448-19.152zm62.064.144c0-2.304-.624-4.368-1.872-6.192-1.248-1.824-3.12-3.168-5.616-4.032h-5.472v8.064c0 6.624 2.208 9.936 6.624 9.936 1.824 0 3.36-.672 4.608-2.016 1.152-1.44 1.728-3.36 1.728-5.76zm-60.624-171.922l80.352 32.4c10.272 4.128 17.472 9.264 21.6 15.408s6.192 13.68 6.192 22.608c0 4.416-.672 8.88-2.016 13.392-1.248 4.416-2.928 7.92-5.04 10.512l-22.32-10.8a21.616 21.616 0 0 0 3.024-5.472c.768-2.112 1.152-4.128 1.152-6.048 0-3.552-1.056-6.24-3.168-8.064l-79.776 33.12v-33.408l42.192-16.272-42.192-16.56v-30.816zm80.208-63.186c0 6.72-.72 13.344-2.16 19.872-1.44 6.528-3.312 11.808-5.616 15.84l-21.456-8.928c2.208-3.648 3.936-7.968 5.184-12.96 1.248-4.992 1.872-9.84 1.872-14.544 0-3.744-.288-6.336-.864-7.776-.672-1.536-1.632-2.304-2.88-2.304s-2.112.96-2.592 2.88c-.48 1.824-.96 4.848-1.44 9.072-.768 6.432-1.728 11.904-2.88 16.416-1.248 4.512-3.6 8.496-7.056 11.952-3.456 3.36-8.4 5.04-14.832 5.04-5.088 0-9.648-1.536-13.68-4.608-4.032-3.072-7.248-7.632-9.648-13.68-2.4-6.144-3.6-13.488-3.6-22.032 0-5.952.576-11.76 1.728-17.424 1.056-5.76 2.64-10.656 4.752-14.688l21.456 8.928c-3.84 6.912-5.76 14.496-5.76 22.752 0 7.104 1.248 10.656 3.744 10.656 1.248 0 2.16-.96 2.736-2.88.48-1.92.96-4.944 1.44-9.072.768-6.432 1.776-11.856 3.024-16.272 1.248-4.512 3.6-8.448 7.056-11.808 3.456-3.456 8.4-5.184 14.832-5.184 4.896 0 9.36 1.536 13.392 4.608 4.032 3.072 7.248 7.68 9.648 13.824 2.4 6.144 3.6 13.584 3.6 22.32z" fill="#fff"/><path fill-rule="evenodd" clip-rule="evenodd" d="M434.541 639.918l-.001.007c-1.937 7.941-4.515 14.528-7.755 19.732l-.459.737-26.583-11.746.56-.966c2.738-4.72 4.963-10.017 6.671-15.898 1.61-5.874 2.41-11.494 2.41-16.864 0-4.673-.434-7.85-1.207-9.668-.427-.891-.917-1.492-1.44-1.87-.514-.373-1.11-.566-1.825-.566-.823 0-1.517.255-2.125.77-.627.532-1.206 1.381-1.696 2.628l-.005.011c-1.019 2.501-2.156 6.743-3.403 12.785v.003c-1.638 7.802-3.376 14.328-5.22 19.567l-.002.008-.003.007c-1.978 5.339-5.143 9.985-9.481 13.929l-.009.007c-4.547 4.042-10.614 6.013-18.088 6.013-6.536 0-12.493-1.836-17.845-5.503-5.372-3.681-9.561-9.128-12.595-16.274l-.002-.005c-3.041-7.257-4.542-15.988-4.542-26.162 0-6.984.776-13.825 2.328-20.522 1.458-6.799 3.649-12.798 6.586-17.987l.436-.77 26.436 10.976-.485.962c-4.939 9.783-7.381 18.988-7.381 27.629 0 4.319.527 7.413 1.484 9.393.472.976 1.031 1.643 1.648 2.069.608.419 1.33.642 2.204.642a3.01 3.01 0 0 0 2.019-.736c.603-.509 1.169-1.321 1.657-2.515.928-2.51 1.969-6.707 3.117-12.639 1.446-7.71 3.137-14.243 5.08-19.588 1.88-5.437 4.997-10.134 9.338-14.082 4.454-4.148 10.48-6.168 17.957-6.168 6.536 0 12.493 1.836 17.845 5.503l.007.005c5.274 3.682 9.458 9.175 12.586 16.407l.002.006c3.043 7.165 4.544 15.85 4.544 26.023 0 8.425-.92 16.66-2.761 24.703l-.002.007zm-63.613-32.63c-1.152 5.952-2.208 10.224-3.168 12.816-1.056 2.592-2.592 3.888-4.608 3.888-4.224 0-6.336-4.368-6.336-13.104 0-8.564 2.347-17.625 7.041-27.183.147-.298.296-.597.447-.897l-24.624-10.224c-2.88 5.088-5.04 10.992-6.48 17.712a89.589 89.589 0 0 0-2.304 20.304c0 10.08 1.488 18.672 4.464 25.776 2.976 7.008 7.056 12.288 12.24 15.84 5.184 3.552 10.944 5.328 17.28 5.328 7.296 0 13.104-1.92 17.424-5.76 4.224-3.84 7.296-8.352 9.216-13.536 1.824-5.184 3.552-11.664 5.184-19.44 1.248-6.048 2.4-10.368 3.456-12.96 1.056-2.688 2.64-4.032 4.752-4.032 1.824 0 3.216 1.008 4.176 3.024.864 2.016 1.296 5.376 1.296 10.08 0 5.472-.816 11.184-2.448 17.136-1.624 5.593-3.714 10.678-6.271 15.254-.164.294-.329.585-.497.874l24.768 10.944c3.168-5.088 5.712-11.568 7.632-19.44 1.824-7.968 2.736-16.128 2.736-24.48 0-10.08-1.488-18.624-4.464-25.632-3.072-7.104-7.152-12.432-12.24-15.984-5.184-3.552-10.944-5.328-17.28-5.328-7.296 0-13.056 1.968-17.28 5.904-4.224 3.84-7.248 8.4-9.072 13.68-1.92 5.28-3.6 11.76-5.04 19.44zm-8.208-76.785c-2.784-4.512-4.944-9.936-6.48-16.272-1.632-6.432-2.448-12.816-2.448-19.152 0-13.824 3.12-24.384 9.36-31.68 6.144-7.296 15.648-10.944 28.512-10.944H434v30.24h-10.368c.648.309 1.27.642 1.864 1 6.629 3.995 9.944 11.101 9.944 21.32 0 6.24-1.056 11.568-3.168 15.984-2.208 4.32-5.136 7.632-8.784 9.936-3.744 2.208-7.92 3.312-12.528 3.312-7.776 0-13.68-2.976-17.712-8.928-4.032-5.952-6.048-14.976-6.048-27.072v-13.104c-.343.059-.676.13-1 .213-5.477 1.407-8.216 6.28-8.216 14.619 0 3.552.576 7.152 1.728 10.8.946 3.268 2.239 6.112 3.878 8.533.191.281.386.557.586.827l-21.456 10.368zm23.48-44.111c-2.22.627-3.887 1.887-5.063 3.779-1.399 2.252-2.153 5.485-2.153 9.804 0 3.443.558 6.941 1.682 10.499l.003.012.004.011c1.028 3.554 2.469 6.562 4.307 9.043l.718.97-23.355 11.286-.474-.768c-2.849-4.618-5.044-10.142-6.6-16.556-1.65-6.507-2.477-12.971-2.477-19.393 0-13.957 3.148-24.784 9.597-32.326 6.395-7.592 16.226-11.298 29.275-11.298H435v32.24h-7.677c6.123 4.341 9.117 11.531 9.117 21.32 0 6.35-1.074 11.833-3.266 16.416l-.006.012-.006.011c-2.279 4.46-5.322 7.916-9.14 10.327l-.013.008-.013.008c-3.907 2.304-8.261 3.45-13.036 3.45-8.076 0-14.305-3.115-18.54-9.367-4.197-6.196-6.22-15.459-6.22-27.633v-11.855zm28.656 8.831c0-2.111-.568-3.977-1.697-5.627-1.08-1.578-2.709-2.788-4.962-3.597h-4.301v7.064c0 3.233.544 5.482 1.488 6.898.896 1.343 2.219 2.038 4.136 2.038 1.532 0 2.795-.546 3.85-1.669.958-1.213 1.486-2.882 1.486-5.107zm-.728 5.76c-1.248 1.344-2.784 2.016-4.608 2.016-4.416 0-6.624-3.312-6.624-9.936v-8.064h5.472c2.496.864 4.368 2.208 5.616 4.032 1.248 1.824 1.872 3.888 1.872 6.192 0 2.4-.576 4.32-1.728 5.76zm-59.896-179.164l81.725 32.954c10.371 4.168 17.774 9.404 22.057 15.778 4.26 6.34 6.362 14.081 6.362 23.166 0 4.517-.687 9.074-2.056 13.671-1.272 4.498-3.002 8.136-5.225 10.865l-.499.612-24.135-11.678.745-.974a20.598 20.598 0 0 0 2.881-5.214c.733-2.017 1.089-3.915 1.089-5.698 0-3.067-.829-5.319-2.38-6.894l-80.564 33.448v-35.592l40.434-15.594-40.434-15.87v-32.98zm43.192 48.858l-42.192 16.272v33.408l79.776-33.12c2.112 1.824 3.168 4.512 3.168 8.064 0 1.92-.384 3.936-1.152 6.048a21.86 21.86 0 0 1-2.427 4.65 20 20 0 0 1-.597.822l22.32 10.8c2.112-2.592 3.792-6.096 5.04-10.512 1.344-4.512 2.016-8.976 2.016-13.392 0-8.928-2.064-16.464-6.192-22.608-4.128-6.144-11.328-11.28-21.6-15.408l-80.352-32.4v30.816l42.192 16.56zm30.67-73.588l-23.343-9.713.602-.995c2.146-3.547 3.84-7.77 5.069-12.684 1.23-4.92 1.842-9.687 1.842-14.302 0-3.732-.293-6.143-.787-7.39-.576-1.309-1.25-1.69-1.957-1.69-.329 0-.591.112-.841.389-.279.311-.561.855-.781 1.734l-.003.012c-.46 1.748-.934 4.71-1.413 8.93l-.001.006c-.771 6.46-1.738 11.977-2.904 16.545l-.003.009-.002.01c-1.296 4.686-3.74 8.82-7.313 12.392l-.01.01c-3.698 3.596-8.926 5.323-15.529 5.323-5.306 0-10.079-1.607-14.286-4.812-4.212-3.21-7.523-7.937-9.971-14.107l-.002-.005c-2.457-6.289-3.669-13.762-3.669-22.396 0-6.013.582-11.885 1.746-17.614 1.069-5.828 2.68-10.822 4.848-14.962l.425-.811 23.335 9.71-.544.979c-3.754 6.757-5.634 14.172-5.634 22.266 0 3.521.313 6.048.879 7.661.282.802.603 1.308.915 1.604.289.274.592.391.95.391.332 0 .615-.114.895-.409.304-.32.614-.869.877-1.736.461-1.856.933-4.818 1.411-8.922v-.003c.772-6.464 1.788-11.943 3.054-16.424l.001-.002.962.272m7.056-11.808c3.456-3.456 8.4-5.184 14.832-5.184 4.896 0 9.36 1.536 13.392 4.608 4.032 3.072 7.248 7.68 9.648 13.824 2.4 6.144 3.6 13.584 3.6 22.32 0 6.72-.72 13.344-2.16 19.872-1.44 6.528-3.312 11.808-5.616 15.84l-21.456-8.928c.173-.286.343-.576.511-.87 1.965-3.459 3.523-7.489 4.673-12.09 1.248-4.992 1.872-9.84 1.872-14.544 0-3.744-.288-6.336-.864-7.776-.672-1.536-1.632-2.304-2.88-2.304s-2.112.96-2.592 2.88c-.48 1.824-.96 4.848-1.44 9.072-.768 6.432-1.728 11.904-2.88 16.416-1.248 4.512-3.6 8.496-7.056 11.952-3.456 3.36-8.4 5.04-14.832 5.04-5.088 0-9.648-1.536-13.68-4.608-4.032-3.072-7.248-7.632-9.648-13.68-2.4-6.144-3.6-13.488-3.6-22.032 0-5.952.576-11.76 1.728-17.424 1.056-5.76 2.64-10.656 4.752-14.688l21.456 8.928c-.163.294-.323.588-.479.884-3.521 6.673-5.281 13.963-5.281 21.868 0 7.104 1.248 10.656 3.744 10.656 1.248 0 2.16-.96 2.736-2.88.48-1.92.96-4.944 1.44-9.072m9.378-28.792c3.697-3.694 8.927-5.472 15.534-5.472 5.123 0 9.798 1.613 13.998 4.813 4.216 3.212 7.526 7.991 9.973 14.255 2.458 6.291 3.669 13.862 3.669 22.684 0 6.792-.728 13.489-2.183 20.088-1.454 6.587-3.354 11.972-5.725 16.12l-.438.766" fill="#fff"/><path d="M723.424 592.889H760v33.984h-37.008L659.2 664.889v-35.856l34.848-20.592-34.848-20.736v-32.832l64.224 38.016zm38.016-103.161c0 8.736-1.728 16.608-5.184 23.616-3.552 6.912-8.4 12.336-14.544 16.272-6.24 3.936-13.296 5.904-21.168 5.904s-14.88-1.968-21.024-5.904c-6.24-3.936-11.088-9.36-14.544-16.272-3.456-7.008-5.184-14.88-5.184-23.616 0-8.832 1.728-16.704 5.184-23.616 3.456-7.008 8.304-12.432 14.544-16.272 6.144-3.936 13.152-5.904 21.024-5.904 7.872 0 14.928 1.968 21.168 5.904 6.144 3.84 10.992 9.264 14.544 16.272 3.456 6.912 5.184 14.784 5.184 23.616zm-25.344 0c0-3.744-1.344-6.816-4.032-9.216-2.784-2.4-6.624-3.6-11.52-3.6s-8.688 1.2-11.376 3.6c-2.688 2.4-4.032 5.472-4.032 9.216 0 3.744 1.344 6.816 4.032 9.216 2.688 2.4 6.48 3.6 11.376 3.6 4.896 0 8.736-1.2 11.52-3.6 2.688-2.4 4.032-5.472 4.032-9.216zm-54.864-170.889H760v30.96h-7.488a28.717 28.717 0 0 1 6.768 10.08c1.44 3.84 2.16 7.92 2.16 12.24 0 9.984-3.024 18-9.072 24.048-6.144 6.048-15.36 9.072-27.648 9.072h-43.488v-32.544h37.872c5.376 0 9.216-.864 11.52-2.592 2.304-1.728 3.456-4.272 3.456-7.632 0-3.168-1.248-5.808-3.744-7.92-2.592-2.112-6.624-3.168-12.096-3.168h-37.008v-32.544z" fill="#fff"/><path fill-rule="evenodd" clip-rule="evenodd" d="M723.424 592.888H760v33.984h-37.008L659.2 664.888v-35.856l34.848-20.592-34.848-20.736v-32.832l64.224 38.016zm-31.337 15.549L658.2 628.462v38.186l65.067-38.776H761v-35.984h-37.302l-65.498-38.77v35.155l33.887 20.164zm65.062-94.643l-.004.007c-3.627 7.059-8.591 12.62-14.894 16.657l-.006.004c-6.41 4.044-13.653 6.058-21.701 6.058-8.046 0-15.243-2.014-21.56-6.06-6.401-4.038-11.369-9.603-14.902-16.669l-.003-.005c-3.531-7.161-5.287-15.187-5.287-24.058 0-8.964 1.754-16.992 5.288-24.06 3.532-7.162 8.501-12.73 14.908-16.675 6.316-4.044 13.512-6.057 21.556-6.057 8.047 0 15.29 2.014 21.7 6.057 6.31 3.945 11.277 9.512 14.904 16.667l.002.005c3.535 7.069 5.29 15.098 5.29 24.063 0 8.871-1.756 16.897-5.287 24.058l-.004.008zM699.52 449.84c-6.24 3.84-11.088 9.264-14.544 16.272-3.456 6.912-5.184 14.784-5.184 23.616 0 8.736 1.728 16.608 5.184 23.616 3.456 6.912 8.304 12.336 14.544 16.272 6.144 3.936 13.152 5.904 21.024 5.904 7.872 0 14.928-1.968 21.168-5.904 6.144-3.936 10.992-9.36 14.544-16.272 3.456-7.008 5.184-14.88 5.184-23.616 0-8.832-1.728-16.704-5.184-23.616-3.552-7.008-8.4-12.432-14.544-16.272-6.24-3.936-13.296-5.904-21.168-5.904s-14.88 1.968-21.024 5.904zm32.544 30.672c-2.784-2.4-6.624-3.6-11.52-3.6s-8.688 1.2-11.376 3.6c-2.688 2.4-4.032 5.472-4.032 9.216 0 3.744 1.344 6.816 4.032 9.216 2.688 2.4 6.48 3.6 11.376 3.6 4.896 0 8.736-1.2 11.52-3.6 2.688-2.4 4.032-5.472 4.032-9.216 0-3.744-1.344-6.816-4.032-9.216zm-.66 17.68c-2.549 2.195-6.127 3.352-10.86 3.352-4.739 0-8.262-1.16-10.71-3.346-2.466-2.202-3.698-4.998-3.698-8.47 0-3.472 1.232-6.268 3.698-8.47 2.448-2.185 5.971-3.346 10.71-3.346 4.733 0 8.311 1.158 10.86 3.352 2.462 2.201 3.692 4.995 3.692 8.464 0 3.469-1.23 6.263-3.692 8.464zm-51.172-180.354H761v32.96h-6.148a29.663 29.663 0 0 1 5.356 8.709l.004.01.004.01c1.485 3.958 2.224 8.158 2.224 12.591 0 10.202-3.098 18.489-9.365 24.756l-.006.005c-6.398 6.298-15.911 9.359-28.349 9.359h-44.488v-34.544h38.872c5.322 0 8.885-.865 10.92-2.392 2.008-1.506 3.056-3.727 3.056-6.832 0-2.86-1.108-5.222-3.383-7.15-2.332-1.896-6.085-2.938-11.457-2.938h-38.008v-34.544zm73.266 32.96a30.936 30.936 0 0 0-.986-1H760v-30.96h-78.768v32.544h37.008c5.472 0 9.504 1.056 12.096 3.168 2.496 2.112 3.744 4.752 3.744 7.92 0 3.36-1.152 5.904-3.456 7.632-2.304 1.728-6.144 2.592-11.52 2.592h-37.872v32.544h43.488c12.288 0 21.504-3.024 27.648-9.072 6.048-6.048 9.072-14.064 9.072-24.048 0-4.32-.72-8.4-2.16-12.24a28.688 28.688 0 0 0-5.782-9.08z" fill="#fff"/><path d="M1087.44 611.465c0 8.928-1.73 16.944-5.18 24.048-3.46 7.008-8.31 12.528-14.55 16.56-6.24 3.936-13.29 5.904-21.17 5.904-7.87 0-14.88-1.968-21.02-5.904-6.24-4.032-11.09-9.552-14.54-16.56-3.46-7.104-5.19-15.12-5.19-24.048 0-9.6 2.07-17.808 6.19-24.624 4.13-6.816 9.84-11.52 17.14-14.112l12.38 25.2c-6.91 3.072-10.36 7.632-10.36 13.68 0 3.84 1.34 7.056 4.03 9.648 2.69 2.496 6.48 3.744 11.37 3.744 5 0 8.84-1.248 11.52-3.744 2.69-2.592 4.04-5.808 4.04-9.648 0-6.048-3.46-10.608-10.37-13.68l12.38-25.2c7.3 2.592 13.01 7.296 17.14 14.112 4.13 6.816 6.19 15.024 6.19 24.624zm-81.65-110.338c0-13.824 3.12-24.384 9.36-31.68 6.15-7.296 15.65-10.944 28.51-10.944H1086v30.24h-10.37c7.87 3.744 11.81 11.184 11.81 22.32 0 6.24-1.06 11.568-3.17 15.984-2.21 4.32-5.13 7.632-8.78 9.936-3.75 2.208-7.92 3.312-12.53 3.312-7.78 0-13.68-2.976-17.71-8.928-4.03-5.952-6.05-14.976-6.05-27.072v-13.104c-6.14 1.056-9.22 6-9.22 14.832 0 3.552.58 7.152 1.73 10.8 1.06 3.648 2.55 6.768 4.47 9.36l-21.46 10.368c-2.78-4.512-4.94-9.936-6.48-16.272-1.63-6.432-2.45-12.816-2.45-19.152zm62.07.144c0-2.304-.63-4.368-1.88-6.192-1.24-1.824-3.12-3.168-5.61-4.032h-5.47v8.064c0 6.624 2.2 9.936 6.62 9.936 1.82 0 3.36-.672 4.61-2.016 1.15-1.44 1.73-3.36 1.73-5.76zm-62.07-140.353c0-9.696 2.93-17.472 8.79-23.328 5.85-5.952 14.68-8.928 26.49-8.928H1086v32.544h-39.31c-9.03 0-13.54 3.216-13.54 9.648 0 3.648 1.3 6.624 3.89 8.928 2.5 2.208 6.48 3.312 11.95 3.312H1086v32.544h-78.77v-30.96h7.78c-3.07-3.072-5.38-6.624-6.91-10.656-1.54-4.032-2.31-8.4-2.31-13.104zm-30.238-76.341v-30.96l23.04-19.008v21.6l-23.04 28.368zm107.708-172.024c2.79 4.896 4.18 11.568 4.18 20.016 0 11.04-2.64 19.536-7.92 25.488-5.38 5.952-13.39 8.928-24.05 8.928h-20.16v10.8h-23.76v-10.8h-22.03v-32.544h22.03v-16.128h23.76v16.128h19.87c2.4 0 4.28-.624 5.62-1.872 1.34-1.248 2.02-2.88 2.02-4.896 0-2.784-.72-5.232-2.16-7.344l22.6-7.776zm-35.85-58.204c-4.51 0-8.26-1.008-11.23-3.024-3.08-2.016-6.39-4.896-9.94-8.64-2.3-2.4-4.18-4.128-5.62-5.184-1.44-1.152-2.97-1.728-4.6-1.728-2.12 0-3.75.912-4.9 2.736-1.25 1.824-1.87 4.128-1.87 6.912 0 3.072.91 5.952 2.73 8.64 1.73 2.688 4.08 4.8 7.06 6.336l-12.82 25.632c-7.292-3.84-13.004-9.504-17.132-16.992-4.128-7.584-6.192-16.896-6.192-27.936 0-11.712 2.4-21.216 7.2-28.512 4.8-7.296 11.564-10.944 20.304-10.944 4.03 0 7.58.72 10.66 2.16 2.97 1.344 5.52 2.976 7.63 4.896 2.01 1.92 4.27 4.368 6.77 7.344 2.68 3.072 4.84 5.28 6.48 6.624 1.63 1.344 3.45 2.016 5.47 2.016v29.664zm40.03-14.832c0 5.568-1.68 10.128-5.04 13.68-3.36 3.552-7.44 5.328-12.24 5.328-4.9 0-8.93-1.776-12.1-5.328-3.26-3.552-4.89-8.112-4.89-13.68s1.63-10.128 4.89-13.68c3.17-3.552 7.2-5.328 12.1-5.328 4.8 0 8.88 1.776 12.24 5.328 3.36 3.552 5.04 8.112 5.04 13.68z" fill="#fff"/><path fill-rule="evenodd" clip-rule="evenodd" d="M1083.15 635.95v.005c-3.53 7.161-8.5 12.822-14.9 16.957v.006c-6.42 4.044-13.66 6.059-21.71 6.059-8.04 0-15.24-2.015-21.56-6.062v-.003c-6.4-4.135-11.37-9.796-14.9-16.957v-.005c-3.53-7.257-5.29-15.426-5.29-24.485 0-9.746 2.1-18.141 6.34-25.142 4.24-7.007 10.13-11.865 17.65-14.537l.84-.298 13.24 26.932-.95.422c-3.35 1.489-5.79 3.306-7.39 5.415-1.58 2.095-2.38 4.532-2.38 7.352 0 3.573 1.23 6.525 3.72 8.921 2.44 2.269 5.96 3.471 10.68 3.471 4.83 0 8.39-1.205 10.84-3.471 2.48-2.396 3.72-5.348 3.72-8.921 0-2.82-.8-5.257-2.39-7.352-1.6-2.109-4.04-3.926-7.39-5.415l-.95-.422 13.24-26.932.84.298c7.52 2.672 13.41 7.53 17.65 14.537 4.24 7.001 6.34 15.396 6.34 25.142 0 9.059-1.75 17.228-5.29 24.485zm-25.09-14.693c-2.68 2.496-6.52 3.744-11.52 3.744-4.89 0-8.68-1.248-11.37-3.744-2.69-2.592-4.03-5.808-4.03-9.648 0-5.778 3.15-10.197 9.46-13.259.29-.144.59-.284.9-.421l-12.38-25.2c-7.3 2.592-13.01 7.296-17.14 14.112-4.12 6.816-6.19 15.024-6.19 24.624 0 8.928 1.73 16.944 5.19 24.048 3.45 7.008 8.3 12.528 14.54 16.56 6.14 3.936 13.15 5.904 21.02 5.904 7.88 0 14.93-1.968 21.17-5.904 6.24-4.032 11.09-9.552 14.55-16.56 3.45-7.104 5.18-15.12 5.18-24.048 0-9.6-2.06-17.808-6.19-24.624-4.13-6.816-9.84-11.52-17.14-14.112l-12.38 25.199c.31.138.61.278.9.422 6.31 3.062 9.47 7.481 9.47 13.259 0 3.84-1.35 7.056-4.04 9.648zm-43.34-84.706c-2.78-4.512-4.94-9.936-6.48-16.272-1.63-6.432-2.45-12.816-2.45-19.152 0-13.824 3.12-24.384 9.36-31.68 6.15-7.296 15.65-10.944 28.51-10.944H1086v30.24h-10.37c.65.308 1.27.641 1.87 1 6.63 3.994 9.94 11.101 9.94 21.32 0 6.24-1.06 11.568-3.17 15.984-2.21 4.32-5.13 7.632-8.78 9.936-3.75 2.208-7.92 3.312-12.53 3.312-7.78 0-13.68-2.976-17.71-8.928-4.03-5.952-6.05-14.976-6.05-27.072v-13.104c-.34.059-.68.13-1 .213-5.48 1.407-8.22 6.28-8.22 14.619 0 3.552.58 7.152 1.73 10.8.95 3.268 2.24 6.112 3.88 8.532.19.282.39.558.59.828l-21.46 10.368zm23.48-44.112c-2.22.628-3.89 1.888-5.06 3.78-1.4 2.251-2.16 5.485-2.16 9.804 0 3.442.56 6.941 1.69 10.499v.023c1.03 3.553 2.47 6.561 4.31 9.043l.72.97-23.36 11.286-.47-.768c-2.85-4.618-5.05-10.143-6.6-16.556-1.65-6.507-2.48-12.972-2.48-19.393 0-13.958 3.15-24.785 9.6-32.327 6.39-7.592 16.23-11.297 29.27-11.297H1087v32.24h-7.68c6.13 4.341 9.12 11.53 9.12 21.32 0 6.349-1.07 11.833-3.27 16.415v.012l-.01.012c-2.28 4.459-5.32 7.915-9.14 10.326l-.01.008-.01.008c-3.91 2.304-8.26 3.451-13.04 3.451-8.08 0-14.3-3.115-18.54-9.367-4.2-6.196-6.22-15.46-6.22-27.633v-11.856zm28.66 8.832c0-2.112-.57-3.977-1.7-5.628-1.08-1.578-2.71-2.788-4.96-3.596h-4.3v7.064c0 3.232.54 5.482 1.48 6.897.9 1.344 2.22 2.039 4.14 2.039 1.53 0 2.79-.546 3.85-1.67.96-1.213 1.49-2.882 1.49-5.106zm-.73 5.76c-1.25 1.344-2.79 2.016-4.61 2.016-4.42 0-6.62-3.312-6.62-9.936v-8.064h5.47c2.49.864 4.37 2.208 5.61 4.032 1.25 1.824 1.88 3.888 1.88 6.192 0 2.4-.58 4.32-1.73 5.76zM1087 327.662v34.544h-40.31c-4.43 0-7.56.794-9.57 2.226-1.95 1.389-2.97 3.47-2.97 6.422 0 3.378 1.19 6.076 3.55 8.179 2.23 1.97 5.92 3.061 11.29 3.061H1087v34.544h-80.77v-32.96h6.48a30.932 30.932 0 0 1-5.55-9.3c-1.58-4.155-2.37-8.645-2.37-13.46 0-9.911 3-17.957 9.08-24.032 6.11-6.209 15.24-9.224 27.2-9.224H1087zm-72.42 9.928c-5.86 5.856-8.79 13.632-8.79 23.328 0 4.704.77 9.072 2.31 13.104a29.865 29.865 0 0 0 6.91 10.656h-7.78v30.96H1086v-32.544h-37.01c-5.47 0-9.45-1.104-11.95-3.312-2.59-2.304-3.89-5.28-3.89-8.928 0-6.432 4.51-9.648 13.54-9.648H1086v-32.544h-44.93c-11.81 0-20.64 2.976-26.49 8.928zm-40.028-50.196v-34.249l25.04-20.658v24.077l-25.04 30.83zm1-2.817l23.04-28.368v-21.6l-23.04 19.008v30.96zm108.168-173.24l.41.722c2.91 5.103 4.31 11.969 4.31 20.51 0 11.19-2.68 19.956-8.17 26.152l-.01.006c-5.62 6.225-13.95 9.258-24.79 9.258h-19.16v10.8h-25.76v-10.8h-22.03v-34.544h22.03v-16.128h25.76v16.128h18.87c2.23 0 3.83-.576 4.94-1.605 1.12-1.039 1.7-2.394 1.7-4.163 0-2.602-.67-4.85-1.99-6.781l-.74-1.082 24.63-8.473zm-48.41 23.104v-16.128h-23.76v16.128h-22.03v32.544h22.03v10.8h23.76v-10.8h20.16c10.66 0 18.67-2.976 24.05-8.928 5.28-5.952 7.92-14.448 7.92-25.488 0-8.448-1.39-15.12-4.18-20.016l-22.6 7.776c.19.284.37.575.54.871 1.08 1.906 1.62 4.064 1.62 6.473 0 2.016-.68 3.648-2.02 4.896-1.34 1.248-3.22 1.872-5.62 1.872h-19.87zm13.1-79.092h-1c-4.66 0-8.61-1.041-11.79-3.193-3.15-2.07-6.52-5.005-10.1-8.78-2.29-2.387-4.12-4.065-5.49-5.069l-.01-.012-.02-.013c-1.29-1.03-2.61-1.51-3.98-1.51-1.76 0-3.08.73-4.05 2.27l-.01.016-.01.016c-1.11 1.619-1.7 3.712-1.7 6.347 0 2.86.84 5.546 2.56 8.078l.01.01v.011c1.63 2.533 3.85 4.529 6.68 5.988l.88.453-13.72 27.428-.9-.475c-7.478-3.935-13.329-9.742-17.548-17.394l-.003-.005c-4.227-7.766-6.313-17.253-6.313-28.414 0-11.842 2.426-21.556 7.364-29.062C994.245 4.462 1001.33.645 1010.4.645c4.15 0 7.85.74 11.07 2.251 3.06 1.38 5.69 3.066 7.89 5.065l.01.008.01.008c2.05 1.952 4.33 4.427 6.84 7.418 2.67 3.057 4.79 5.212 6.35 6.502 1.46 1.204 3.07 1.788 4.84 1.788h1v31.664zm-12.95-39.304c-2.5-2.976-4.76-5.424-6.77-7.344-2.11-1.92-4.66-3.552-7.63-4.896-3.08-1.44-6.63-2.16-10.66-2.16-8.74 0-15.504 3.648-20.304 10.944-4.8 7.296-7.2 16.8-7.2 28.512 0 11.04 2.064 20.352 6.192 27.936 3.96 7.184 9.379 12.69 16.252 16.516.29.161.59.32.88.476l12.82-25.632c-2.98-1.536-5.33-3.648-7.06-6.336-1.82-2.688-2.73-5.568-2.73-8.64 0-2.784.62-5.088 1.87-6.912 1.15-1.824 2.78-2.736 4.9-2.736 1.63 0 3.16.576 4.6 1.728 1.44 1.056 3.32 2.784 5.62 5.184 3.55 3.744 6.86 6.624 9.94 8.64 2.75 1.865 6.16 2.867 10.23 3.007.33.011.66.017 1 .017V24.685c-2.02 0-3.84-.672-5.47-2.016-1.64-1.344-3.8-3.552-6.48-6.624zm52.98 23.472c0 5.785-1.75 10.603-5.31 14.367-3.55 3.748-7.89 5.64-12.97 5.64-5.17 0-9.48-1.889-12.84-5.657-3.45-3.764-5.15-8.576-5.15-14.35 0-5.775 1.7-10.588 5.15-14.353 3.37-3.767 7.67-5.655 12.84-5.655 5.08 0 9.42 1.893 12.97 5.64 3.56 3.764 5.31 8.582 5.31 14.368zm-30.38-13.68c-3.26 3.552-4.89 8.112-4.89 13.68s1.63 10.128 4.89 13.68c3.17 3.552 7.2 5.328 12.1 5.328 4.8 0 8.88-1.776 12.24-5.328 3.36-3.552 5.04-8.112 5.04-13.68s-1.68-10.128-5.04-13.68c-3.36-3.552-7.44-5.328-12.24-5.328-4.9 0-8.93 1.776-12.1 5.328z" fill="#fff"/></svg>