<svg width="315" height="313" viewBox="0 0 315 313" fill="none" xmlns="http://www.w3.org/2000/svg"><path fill-rule="evenodd" clip-rule="evenodd" d="M288.882 154.941s-27.099 26.877-48.111 19.226l-2.946-1.177c-19.637-8.828-21.208-28.839-21.208-28.839v-12.948s7.462 19.618 19.441 28.25c3.142 2.354 6.677 3.924 10.604 4.12 17.87.785 36.329-17.852 36.329-17.852s6.677-.589 5.891 9.22z" fill="url(#a)"/><path opacity=".74" fill-rule="evenodd" clip-rule="evenodd" d="M238.022 172.99c-19.638-8.828-21.209-28.839-21.209-28.839v-12.948s7.463 19.618 19.441 28.25c-.196.196 0 6.082 1.768 13.537z" fill="url(#b)"/><path fill-rule="evenodd" clip-rule="evenodd" d="M95.259 248.715H64.232s-3.928-100.837 8.444-222.274c0 0 41.238-18.441 74.622-18.441l-52.04 240.715z" fill="url(#c)"/><path fill-rule="evenodd" clip-rule="evenodd" d="M95.259 248.716s-6.873-131.835 4.124-224.432c0 0 45.951-38.06 108.005 2.158 0 0 23.761 116.532 17.084 220.508 0 0-56.752 25.896-129.213 1.766z" fill="url(#d)"/><path fill-rule="evenodd" clip-rule="evenodd" d="M178.128 142.778s4.124-12.752 16.103-14.518c13.549-1.962 18.262 13.34 18.066 20.403-.196.196-17.281-10.594-34.169-5.885z" fill="url(#e)"/><path fill-rule="evenodd" clip-rule="evenodd" d="M106.845 152.587s-1.768-18.245 9.229-22.954c9.623-4.119 20.816 2.551 24.351 11.967l-33.58 10.987z" fill="url(#f)"/><path fill-rule="evenodd" clip-rule="evenodd" d="M224.472 246.95s-82.28 36.294-160.24 1.766h31.027s39.667 10.986 60.875 9.809c38.097-1.962 68.338-11.575 68.338-11.575z" fill="#24000A"/><path fill-rule="evenodd" clip-rule="evenodd" d="M115.878 262.251s-7.855 44.73 17.674 43.356l-9.426-44.533-8.248 1.177z" fill="url(#g)"/><path fill-rule="evenodd" clip-rule="evenodd" d="M124.125 261.271s-8.64 40.609 9.426 44.533c18.067 3.728 36.329-44.533 36.329-44.533s-12.371-.981-45.755 0z" fill="url(#h)"/><path fill-rule="evenodd" clip-rule="evenodd" d="M72.676 26.442l26.707-2.158S116.467 9.178 147.298 8c0 0-32.991-.393-74.622 18.44z" fill="url(#i)"/><path d="M124.715 173.971c9.977 0 18.066-9.574 18.066-21.384s-8.089-21.384-18.066-21.384c-9.978 0-18.067 9.574-18.067 21.384s8.089 21.384 18.067 21.384z" fill="url(#j)"/><path fill-rule="evenodd" clip-rule="evenodd" d="M130.999 154.352c0 6.474-4.32 11.771-9.819 11.771-5.498 0-9.818-5.297-9.818-11.771 0-6.474 4.32-11.771 9.818-11.771 5.499.196 9.819 5.297 9.819 11.771z" fill="url(#k)"/><path d="M194.034 173.971c9.978 0 18.067-9.574 18.067-21.384s-8.089-21.384-18.067-21.384c-9.977 0-18.066 9.574-18.066 21.384s8.089 21.384 18.066 21.384z" fill="url(#l)"/><path fill-rule="evenodd" clip-rule="evenodd" d="M200.907 154.352c0 6.474-4.32 11.771-9.818 11.771-5.499 0-9.819-5.297-9.819-11.771 0-6.474 4.32-11.771 9.819-11.771 5.302.196 9.818 5.297 9.818 11.771z" fill="url(#m)"/><path fill-rule="evenodd" clip-rule="evenodd" d="M175.183 189.861c-3.535 5.101-9.033 9.613-17.281 9.613s-14.532-6.867-17.477-13.341c-2.357-5.493-2.357-10.593.982-11.574 4.32-.981 10.015 1.765 19.637 1.765s15.317-6.474 17.87-1.765c1.374 2.746.196 9.416-3.731 15.302z" fill="url(#n)"/><path fill-rule="evenodd" clip-rule="evenodd" d="M175.183 189.861c-13.943-9.417-34.758-3.531-34.758-3.531-2.357-5.493-2.357-10.594.982-11.575 4.32-.981 10.015 1.766 19.637 1.766s15.317-6.474 17.87-1.766c1.374 2.55.196 9.221-3.731 15.106z" fill="url(#o)"/><path fill-rule="evenodd" clip-rule="evenodd" d="M145.923 174.755s9.818 7.259 19.441 5.886c0 0 4.516-1.962 7.266-6.67 0 0-4.321 2.55-11.586 2.55-7.07.196-15.121-1.766-15.121-1.766z" fill="url(#p)"/><path fill-rule="evenodd" clip-rule="evenodd" d="M148.672 196.531s14.139 1.766 21.798-1.373c0 0-6.873 5.689-12.568 4.512-5.695-1.373-9.23-3.139-9.23-3.139z" fill="url(#q)"/><path d="M200.318 161.022a2.944 2.944 0 0 0 2.946-2.943 2.944 2.944 0 0 0-2.946-2.942 2.944 2.944 0 1 0 0 5.885zm-70.694 1.373a2.944 2.944 0 0 0 2.946-2.943 2.944 2.944 0 0 0-2.946-2.942 2.943 2.943 0 1 0 0 5.885z" fill="#fff"/><path fill-rule="evenodd" clip-rule="evenodd" d="M278.867 142.777c-1.374-4.12.197-10.005-5.302-16.479 0 0-1.178-4.316 3.731-5.886 0 0 5.106 3.532 7.463 9.025 0 0 3.534-9.809 7.462-20.403 0 0 3.338-.981 5.891 1.177l-2.749 12.163 8.247-12.163s5.892-1.177 7.855 5.297l-4.516 11.575 4.516-5.297s4.32.196 3.339 4.708l-6.677 10.398s-7.069 15.694-19.245 18.048c0 0-8.836-8.435-10.015-12.163z" fill="url(#r)"/><path fill-rule="evenodd" clip-rule="evenodd" d="M178.128 162.199s13.943 4.512 32.205 0c0 0-2.945 13.341-16.888 13.341-14.139 0-15.317-13.341-15.317-13.341z" fill="url(#s)"/><path fill-rule="evenodd" clip-rule="evenodd" d="M107.63 160.826s16.299 5.689 32.991 1.962c0 0-4.91 12.948-17.674 12.752-12.764-.196-15.317-14.714-15.317-14.714z" fill="url(#t)"/><path fill-rule="evenodd" clip-rule="evenodd" d="M93.295 142.777s1.964-88.87 12.175-114.766c0 0 12.568-16.676 41.828-20.011 0 0-28.278 0-47.915 16.283 0 0-9.819 54.931-6.088 118.494z" fill="url(#u)"/><path opacity=".74" fill-rule="evenodd" clip-rule="evenodd" d="M114.7 275.004l7.855-3.728 41.042 3.728 6.087-13.733c-15.317-.589-27.885-.393-45.755 0l-8.247.981-.982 12.752z" fill="url(#v)"/><path fill-rule="evenodd" clip-rule="evenodd" d="M110.183 106.68s7.659-11.771 21.994-12.36v6.278s-9.622.589-18.263 7.259l-3.731-1.177z" fill="url(#w)"/><path fill-rule="evenodd" clip-rule="evenodd" d="M203.264 104.522s-4.909-8.24-19.245-9.024v6.278s10.015-.785 16.692 4.708l2.553-1.962z" fill="url(#x)"/><path fill-rule="evenodd" clip-rule="evenodd" d="M99.383 24.284l-1.767 10.79 19.637-20.6c-8.052 1.962-17.87 9.81-17.87 9.81z" fill="#fff"/><path fill-rule="evenodd" clip-rule="evenodd" d="M151.225 8s32.794 0 52.039 21.972c0 0 16.692 54.931 19.441 110.254 0 0-4.91-71.017-15.317-113.981 0 .196-21.798-16.872-56.163-18.245z" fill="url(#y)"/><path fill-rule="evenodd" clip-rule="evenodd" d="M64.232 248.715s-2.946-127.911 8.444-222.274l12.568-.785s-8.64 102.799-5.695 222.47l-15.317.589z" fill="url(#z)"/><path opacity=".5" fill-rule="evenodd" clip-rule="evenodd" d="M172.63 11.532l8.444 103.977h39.471s-6.088-61.21-13.157-89.067c0 0-13.354-11.379-34.758-14.91zM93.688 197.315l131.57 36.686-.59 12.948s-60.875 28.251-129.213 1.766c-.196 0-3.338-23.934-1.767-51.4z" fill="#81282D"/><path opacity=".5" fill-rule="evenodd" clip-rule="evenodd" d="M284.562 129.436s5.499 4.709 6.873 10.987c0 0 5.302 2.158 9.23 2.354 3.927 0 5.695-6.67 5.695-6.67s-3.339-9.417-17.478-10.398l-4.32 3.727z" fill="url(#A)"/><path fill-rule="evenodd" clip-rule="evenodd" d="M76.014 152.586c-9.033 10.594-15.71 23.934-20.619 36.882-10.408 27.662-13.157 54.343-13.157 54.343-8.247 5.1-15.317.392-15.317.392 6.284-26.877 15.906-50.026 24.547-67.683 11.193-22.561 21.012-36.097 21.012-36.097 5.694 3.139 3.534 12.163 3.534 12.163z" fill="url(#B)"/><path fill-rule="evenodd" clip-rule="evenodd" d="M42.63 241.849s-1.177 9.809 12.962 16.675c0 0 0 7.259-7.659 5.493 0 0-4.713-3.531-9.819-5.101 0 0-4.32 13.733-13.746 19.226 0 0-3.927.196-5.89-4.512 0 0 3.337-5.101 5.89-10.005 0 0-5.89 7.259-11.586 9.809 0 0-4.713 1.177-6.873-3.139l2.75-4.12-2.75 1.177S.804 266.568 1 260.29c0 0 15.514-1.374 26.118-16.087 0 0 10.801 1.765 15.514-2.354z" fill="url(#C)"/><path opacity=".74" fill-rule="evenodd" clip-rule="evenodd" d="M76.014 152.586c-9.033 10.594-15.71 23.934-20.619 36.882-.393-6.474-2.16-10.594-3.73-12.948 11.192-22.561 21.01-36.097 21.01-36.097 5.5 3.139 3.34 12.163 3.34 12.163z" fill="url(#D)"/><path fill-rule="evenodd" clip-rule="evenodd" d="M141.603 188.292s5.695 14.517 18.066 14.714c12.372.196 17.477-16.676 17.477-16.676s-6.284 12.948-17.87 13.34c-11.586.393-17.673-11.378-17.673-11.378z" fill="url(#E)"/><path fill-rule="evenodd" clip-rule="evenodd" d="M63.643 208.695s8.837-2.943 15.317 10.005 15.513 11.378 18.066 8.828c2.75-2.747 2.357-6.082 4.713-8.632 2.357-2.55 17.477 10.594 49.486 21.188 32.009 10.593 39.667.981 43.791 0 4.124-.981 1.571 10.201 9.819 10.593 8.248.393 4.713-9.416 7.266-11.378 2.552-1.962 12.371 7.455 12.371 7.455s-32.794 16.283-82.28 16.675c-49.486.393-77.96-14.91-77.96-14.91l-.59-39.824z" fill="url(#F)"/><path opacity=".74" fill-rule="evenodd" clip-rule="evenodd" d="M94.473 228.902l.786 19.814s53.413 26.485 129.213-1.765c0 0-29.259 16.675-86.208 16.675-56.948 0-74.032-14.91-74.032-14.91l-.59-40.021s7.07-2.746 12.176 5.101c5.302 8.043 8.64 14.321 18.655 15.106z" fill="url(#G)"/><path opacity=".74" fill-rule="evenodd" clip-rule="evenodd" d="M64.035 208.694s8.052-.196 12.372 9.024c4.32 9.221 6.873 16.872 14.532 17.068 7.658.196 9.818-13.733 12.764-14.321 2.945-.589 30.634 20.795 53.02 26.288 22.387 5.493 35.74-5.493 38.293-4.904 2.553.588 2.357 8.632 7.069 10.201 5.303 1.766 8.837-.589 9.819-3.335.982-2.943-.785-7.063.982-8.043 1.767-1.178 11.586 6.277 11.586 6.277v-1.765s-8.64-8.632-12.568-7.259c-3.927 1.373-.196 9.024-4.516 10.005-4.321.981-7.266-4.904-9.23-9.613-2.16-4.708-11.193 5.69-25.332 3.532-28.278-4.12-65.981-28.839-70.694-28.643-4.713.196-1.375 12.163-12.175 11.575-6.677-.393-12.765-21.58-25.922-16.087z" fill="url(#H)"/><path fill-rule="evenodd" clip-rule="evenodd" d="M159.669 238.907s11.39 3.924 19.834 3.139c8.444-.785 12.371-3.728 12.371-3.728s-3.535 1.177-14.139 1.962c-10.408.589-18.066-1.373-18.066-1.373zm-16.888-6.475s10.408-.392 11.586 4.512c0 .197-8.837-3.335-11.586-4.512z" fill="#fff"/><path opacity=".74" fill-rule="evenodd" clip-rule="evenodd" d="M64.232 248.716h31.027s17.281 10.397 59.108 11.182c41.827.785 70.105-12.948 70.105-12.948s-32.598 16.087-78.942 16.676c-58.912.588-81.298-14.91-81.298-14.91z" fill="url(#I)"/><path fill-rule="evenodd" clip-rule="evenodd" d="M77.978 212.814s5.302 9.025 10.015 11.183c-.196 0-1.767-8.436-10.015-11.183z" fill="#fff"/><defs><linearGradient id="a" x1="252.879" y1="175.519" x2="252.879" y2="131.093" gradientUnits="userSpaceOnUse"><stop offset=".006" stop-color="#E4798B"/><stop offset=".247" stop-color="#ED877F"/><stop offset=".702" stop-color="#FA9C6D"/><stop offset="1" stop-color="#FFA466"/></linearGradient><linearGradient id="b" x1="227.345" y1="172.916" x2="227.345" y2="131.093" gradientUnits="userSpaceOnUse"><stop stop-color="#CA528D"/><stop offset="1" stop-color="#B3757C"/></linearGradient><linearGradient id="c" x1="63.682" y1="128.328" x2="107.462" y2="128.328" gradientUnits="userSpaceOnUse"><stop stop-color="#1C0013"/><stop offset=".994" stop-color="#400A13"/></linearGradient><radialGradient id="d" cx="0" cy="0" r="1" gradientUnits="userSpaceOnUse" gradientTransform="matrix(130.712 0 0 162.946 198.576 62.65)"><stop offset=".006" stop-color="#842A2C"/><stop offset=".317" stop-color="#81282D"/><stop offset=".559" stop-color="#77232F"/><stop offset=".778" stop-color="#671B32"/><stop offset=".982" stop-color="#4F0E36"/><stop offset="1" stop-color="#4D0D37"/></radialGradient><radialGradient id="e" cx="0" cy="0" r="1" gradientUnits="userSpaceOnUse" gradientTransform="matrix(14.1035 0 0 14.0898 195.093 138.497)"><stop offset=".006" stop-color="#3B1400"/><stop offset=".375" stop-color="#391203"/><stop offset=".662" stop-color="#340D0D"/><stop offset=".921" stop-color="#2B041D"/><stop offset="1" stop-color="#270024"/></radialGradient><radialGradient id="f" cx="0" cy="0" r="1" gradientUnits="userSpaceOnUse" gradientTransform="matrix(14.6512 0 0 14.6369 123.425 140.387)"><stop offset=".006" stop-color="#3B1400"/><stop offset=".375" stop-color="#391203"/><stop offset=".662" stop-color="#340D0D"/><stop offset=".921" stop-color="#2B041D"/><stop offset="1" stop-color="#270024"/></radialGradient><linearGradient id="g" x1="124.07" y1="305.758" x2="124.07" y2="261.289" gradientUnits="userSpaceOnUse"><stop stop-color="#C9635C"/><stop offset=".971" stop-color="#C95B57"/><stop offset=".994" stop-color="#C95B57"/></linearGradient><linearGradient id="h" x1="145.88" y1="305.934" x2="145.88" y2="260.878" gradientUnits="userSpaceOnUse"><stop stop-color="#FFA466"/><stop offset=".298" stop-color="#FA9C6D"/><stop offset=".753" stop-color="#ED877F"/><stop offset=".994" stop-color="#E4798B"/></linearGradient><linearGradient id="i" x1="110.038" y1="26.44" x2="110.038" y2="8.001" gradientUnits="userSpaceOnUse"><stop stop-color="#934A38"/><stop offset=".254" stop-color="#9B4C3C"/><stop offset=".642" stop-color="#B05349"/><stop offset=".994" stop-color="#C95B57"/></linearGradient><radialGradient id="j" cx="0" cy="0" r="1" gradientUnits="userSpaceOnUse" gradientTransform="matrix(33.1952 0 0 34.3488 124.783 139.795)"><stop offset=".006" stop-color="#fff"/><stop offset=".241" stop-color="#FDFCFC"/><stop offset=".443" stop-color="#F6F1F3"/><stop offset=".631" stop-color="#ECE0E5"/><stop offset=".811" stop-color="#DCC7D0"/><stop offset=".985" stop-color="#C9A7B6"/><stop offset="1" stop-color="#C7A4B3"/></radialGradient><radialGradient id="k" cx="0" cy="0" r="1" gradientUnits="userSpaceOnUse" gradientTransform="matrix(10.6086 0 0 10.9773 121.193 154.414)"><stop offset=".006" stop-color="#3B1400"/><stop offset=".375" stop-color="#391203"/><stop offset=".662" stop-color="#340D0D"/><stop offset=".921" stop-color="#2B041D"/><stop offset="1" stop-color="#270024"/></radialGradient><radialGradient id="l" cx="0" cy="0" r="1" gradientUnits="userSpaceOnUse" gradientTransform="matrix(33.1952 0 0 34.3488 194.109 139.795)"><stop offset=".006" stop-color="#fff"/><stop offset=".241" stop-color="#FDFCFC"/><stop offset=".443" stop-color="#F6F1F3"/><stop offset=".631" stop-color="#ECE0E5"/><stop offset=".811" stop-color="#DCC7D0"/><stop offset=".985" stop-color="#C9A7B6"/><stop offset="1" stop-color="#C7A4B3"/></radialGradient><radialGradient id="m" cx="0" cy="0" r="1" gradientUnits="userSpaceOnUse" gradientTransform="matrix(10.6086 0 0 10.9773 191.028 154.414)"><stop offset=".006" stop-color="#3B1400"/><stop offset=".375" stop-color="#391203"/><stop offset=".662" stop-color="#340D0D"/><stop offset=".921" stop-color="#2B041D"/><stop offset="1" stop-color="#270024"/></radialGradient><linearGradient id="n" x1="159.118" y1="199.528" x2="159.118" y2="173.027" gradientUnits="userSpaceOnUse"><stop offset=".006" stop-color="#CE2E13"/><stop offset=".364" stop-color="#CB2E15"/><stop offset=".642" stop-color="#C1301C"/><stop offset=".892" stop-color="#B13227"/><stop offset="1" stop-color="#A7332D"/></linearGradient><linearGradient id="o" x1="138.781" y1="181.465" x2="179.456" y2="181.465" gradientUnits="userSpaceOnUse"><stop stop-color="#CA528D"/><stop offset="1" stop-color="#B3757C"/></linearGradient><radialGradient id="p" cx="0" cy="0" r="1" gradientUnits="userSpaceOnUse" gradientTransform="matrix(9.77033 0 0 9.7608 159.291 177.32)"><stop offset=".006" stop-color="#fff"/><stop offset=".241" stop-color="#FDFCFC"/><stop offset=".443" stop-color="#F6F1F3"/><stop offset=".631" stop-color="#ECE0E5"/><stop offset=".811" stop-color="#DCC7D0"/><stop offset=".985" stop-color="#C9A7B6"/><stop offset="1" stop-color="#C7A4B3"/></radialGradient><radialGradient id="q" cx="0" cy="0" r="1" gradientUnits="userSpaceOnUse" gradientTransform="matrix(7.90557 0 0 7.8978 159.68 197.35)"><stop offset=".006" stop-color="#fff"/><stop offset=".241" stop-color="#FDFCFC"/><stop offset=".443" stop-color="#F6F1F3"/><stop offset=".631" stop-color="#ECE0E5"/><stop offset=".811" stop-color="#DCC7D0"/><stop offset=".985" stop-color="#C9A7B6"/><stop offset="1" stop-color="#C7A4B3"/></radialGradient><linearGradient id="r" x1="294.209" y1="154.906" x2="294.209" y2="108.869" gradientUnits="userSpaceOnUse"><stop stop-color="#FFA466"/><stop offset=".298" stop-color="#FA9C6D"/><stop offset=".753" stop-color="#ED877F"/><stop offset=".994" stop-color="#E4798B"/></linearGradient><radialGradient id="s" cx="0" cy="0" r="1" gradientUnits="userSpaceOnUse" gradientTransform="matrix(13.0851 0 0 13.0724 193.077 163.425)"><stop offset=".006" stop-color="#86392C"/><stop offset=".353" stop-color="#83362D"/><stop offset=".623" stop-color="#792E2F"/><stop offset=".866" stop-color="#692034"/><stop offset="1" stop-color="#5C1537"/></radialGradient><radialGradient id="t" cx="0" cy="0" r="1" gradientUnits="userSpaceOnUse" gradientTransform="matrix(16.4812 0 0 16.4652 124.832 160.327)"><stop offset=".006" stop-color="#86392C"/><stop offset=".353" stop-color="#83362D"/><stop offset=".623" stop-color="#792E2F"/><stop offset=".866" stop-color="#692034"/><stop offset="1" stop-color="#5C1537"/></radialGradient><radialGradient id="u" cx="0" cy="0" r="1" gradientUnits="userSpaceOnUse" gradientTransform="matrix(63.7929 0 0 63.7308 96.887 23.781)"><stop offset=".006" stop-color="#95452C"/><stop offset=".36" stop-color="#92422D"/><stop offset=".635" stop-color="#883A30"/><stop offset=".883" stop-color="#782B34"/><stop offset="1" stop-color="#6D2237"/></radialGradient><linearGradient id="v" x1="114.695" y1="267.979" x2="169.748" y2="267.979" gradientUnits="userSpaceOnUse"><stop stop-color="#CA528D"/><stop offset="1" stop-color="#B3757C"/></linearGradient><linearGradient id="w" x1="110.206" y1="100.934" x2="132.179" y2="100.934" gradientUnits="userSpaceOnUse"><stop offset=".006" stop-color="#430900"/><stop offset=".375" stop-color="#410803"/><stop offset=".662" stop-color="#39060D"/><stop offset=".921" stop-color="#2C021D"/><stop offset="1" stop-color="#270024"/></linearGradient><linearGradient id="x" x1="203.281" y1="100.934" x2="184.106" y2="100.934" gradientUnits="userSpaceOnUse"><stop offset=".006" stop-color="#430900"/><stop offset=".375" stop-color="#410803"/><stop offset=".662" stop-color="#39060D"/><stop offset=".921" stop-color="#2C021D"/><stop offset="1" stop-color="#270024"/></linearGradient><radialGradient id="y" cx="0" cy="0" r="1" gradientUnits="userSpaceOnUse" gradientTransform="matrix(66.1855 0 0 66.1211 157.053 23.547)"><stop offset=".006" stop-color="#A95C2C"/><stop offset=".404" stop-color="#A9592D"/><stop offset=".712" stop-color="#A84F31"/><stop offset=".991" stop-color="#A73F37"/><stop offset="1" stop-color="#A73E37"/></radialGradient><linearGradient id="z" x1="63.922" y1="137.134" x2="85.181" y2="137.134" gradientUnits="userSpaceOnUse"><stop stop-color="#512C2C"/><stop offset=".171" stop-color="#3D2121"/><stop offset=".59" stop-color="#110909"/><stop offset=".802"/></linearGradient><linearGradient id="A" x1="295.535" y1="142.707" x2="295.535" y2="125.629" gradientUnits="userSpaceOnUse"><stop stop-color="#CA528D"/><stop offset="1" stop-color="#B3757C"/></linearGradient><linearGradient id="B" x1="51.816" y1="246.195" x2="51.816" y2="140.408" gradientUnits="userSpaceOnUse"><stop stop-color="#FFA466"/><stop offset=".298" stop-color="#FA9C6D"/><stop offset=".753" stop-color="#ED877F"/><stop offset=".994" stop-color="#E4798B"/></linearGradient><linearGradient id="C" x1="28.325" y1="278.147" x2="28.325" y2="241.88" gradientUnits="userSpaceOnUse"><stop offset=".006" stop-color="#E4798B"/><stop offset=".247" stop-color="#ED877F"/><stop offset=".702" stop-color="#FA9C6D"/><stop offset="1" stop-color="#FFA466"/></linearGradient><linearGradient id="D" x1="64.107" y1="189.48" x2="64.107" y2="140.408" gradientUnits="userSpaceOnUse"><stop stop-color="#CA528D"/><stop offset="1" stop-color="#B3757C"/></linearGradient><radialGradient id="E" cx="0" cy="0" r="1" gradientUnits="userSpaceOnUse" gradientTransform="matrix(17.7458 0 0 17.7286 144.398 188.23)"><stop offset=".006" stop-color="#95452C"/><stop offset=".36" stop-color="#92422D"/><stop offset=".635" stop-color="#883A30"/><stop offset=".883" stop-color="#782B34"/><stop offset="1" stop-color="#6D2237"/></radialGradient><radialGradient id="F" cx="0" cy="0" r="1" gradientUnits="userSpaceOnUse" gradientTransform="matrix(85.6941 0 0 85.6107 114.876 226.414)"><stop offset=".006" stop-color="#fff"/><stop offset=".199" stop-color="#FDFCFC"/><stop offset=".363" stop-color="#F6F1F3"/><stop offset=".517" stop-color="#ECE0E5"/><stop offset=".664" stop-color="#DCC7D0"/><stop offset=".806" stop-color="#C9A7B6"/><stop offset=".818" stop-color="#C7A4B3"/><stop offset=".863" stop-color="#CEA4B4"/><stop offset=".927" stop-color="#E1A3B8"/><stop offset="1" stop-color="#FFA2BD"/></radialGradient><linearGradient id="G" x1="63.682" y1="235.896" x2="224.513" y2="235.896" gradientUnits="userSpaceOnUse"><stop stop-color="#CA528D"/><stop offset="1" stop-color="#DDC2C5"/></linearGradient><linearGradient id="H" x1="64.107" y1="230.233" x2="224.513" y2="230.233" gradientUnits="userSpaceOnUse"><stop stop-color="#CA528D"/><stop offset="1" stop-color="#B3757C"/></linearGradient><linearGradient id="I" x1="64.27" y1="255.222" x2="224.513" y2="255.222" gradientUnits="userSpaceOnUse"><stop stop-color="#CA528D"/><stop offset="1" stop-color="#DDC2C5"/></linearGradient></defs></svg>