<svg width="464" height="493" viewBox="0 0 464 493" fill="none" xmlns="http://www.w3.org/2000/svg"><g clip-path="url(#a)"><path fill-rule="evenodd" clip-rule="evenodd" d="M425.476 243.959s-40.051 39.682-71.105 28.385l-4.353-1.737c-29.023-13.034-31.344-42.578-31.344-42.578v-19.117s11.028 28.965 28.732 41.709c4.643 3.476 9.867 5.793 15.672 6.083 26.41 1.158 53.691-26.358 53.691-26.358s9.868-.869 8.707 13.613z" fill="url(#b)"/><path opacity=".74" fill-rule="evenodd" clip-rule="evenodd" d="M350.308 270.607c-29.022-13.034-31.344-42.578-31.344-42.578v-19.117s11.028 28.965 28.732 41.709c-.29.29 0 8.979 2.612 19.986z" fill="url(#c)"/><path fill-rule="evenodd" clip-rule="evenodd" d="M139.315 382.411H93.46s-5.804-148.878 12.48-328.169c0 0 60.947-27.226 110.285-27.226l-76.91 355.395z" fill="url(#d)"/><path fill-rule="evenodd" clip-rule="evenodd" d="M139.315 382.41s-10.157-194.641 6.095-331.354c0 0 67.912-56.191 159.623 3.186 0 0 35.117 172.049 25.25 325.562 0 0-83.875 38.233-190.968 2.606z" fill="url(#e)"/><path fill-rule="evenodd" clip-rule="evenodd" d="M261.79 226.002s6.094-18.826 23.798-21.433c20.025-2.897 26.991 19.696 26.701 30.123-.291.289-25.54-15.641-50.499-8.69z" fill="url(#f)"/><path fill-rule="evenodd" clip-rule="evenodd" d="M156.439 240.484s-2.612-26.937 13.64-33.888c14.221-6.083 30.764 3.765 35.988 17.668l-49.628 16.22z" fill="url(#g)"/><path fill-rule="evenodd" clip-rule="evenodd" d="M330.282 379.806S208.679 433.39 93.46 382.412h45.855s58.625 16.221 89.97 14.483c56.303-2.897 100.997-17.089 100.997-17.089z" fill="#24000A"/><path fill-rule="evenodd" clip-rule="evenodd" d="M169.789 402.394s-11.609 66.039 26.12 64.012l-13.931-65.75-12.189 1.738z" fill="url(#h)"/><path fill-rule="evenodd" clip-rule="evenodd" d="M181.978 400.947s-12.77 59.957 13.931 65.75c26.701 5.503 53.691-65.75 53.691-65.75s-18.284-1.448-67.622 0z" fill="url(#i)"/><path fill-rule="evenodd" clip-rule="evenodd" d="M105.94 54.242l39.47-3.186s25.25-22.303 70.815-24.04c0 0-48.758-.58-110.285 27.226z" fill="url(#j)"/><path d="M182.849 272.055c14.746 0 26.701-14.135 26.701-31.572 0-17.436-11.955-31.571-26.701-31.571s-26.701 14.135-26.701 31.571c0 17.437 11.955 31.572 26.701 31.572z" fill="url(#k)"/><path fill-rule="evenodd" clip-rule="evenodd" d="M192.136 243.091c0 9.558-6.385 17.378-14.511 17.378s-14.511-7.82-14.511-17.378c0-9.559 6.385-17.379 14.511-17.379 8.126.29 14.511 7.82 14.511 17.379z" fill="url(#l)"/><path d="M285.298 272.055c14.746 0 26.7-14.135 26.7-31.572 0-17.436-11.954-31.571-26.7-31.571-14.746 0-26.701 14.135-26.701 31.571 0 17.437 11.955 31.572 26.701 31.572z" fill="url(#m)"/><path fill-rule="evenodd" clip-rule="evenodd" d="M295.456 243.091c0 9.558-6.385 17.378-14.511 17.378s-14.511-7.82-14.511-17.378c0-9.559 6.385-17.379 14.511-17.379 7.836.29 14.511 7.82 14.511 17.379z" fill="url(#n)"/><path fill-rule="evenodd" clip-rule="evenodd" d="M257.436 295.516c-5.224 7.531-13.35 14.193-25.539 14.193-12.19 0-21.477-10.138-25.83-19.696-3.483-8.11-3.483-15.641 1.451-17.089 6.385-1.448 14.801 2.607 29.022 2.607 14.221 0 22.638-9.558 26.411-2.607 2.031 4.055.29 13.903-5.515 22.592z" fill="url(#o)"/><path fill-rule="evenodd" clip-rule="evenodd" d="M257.436 295.518c-20.605-13.903-51.369-5.214-51.369-5.214-3.483-8.11-3.483-15.641 1.451-17.089 6.385-1.448 14.801 2.607 29.022 2.607 14.221 0 22.638-9.558 26.411-2.607 2.031 3.765.29 13.613-5.515 22.303z" fill="url(#p)"/><path fill-rule="evenodd" clip-rule="evenodd" d="M214.193 273.215s14.511 10.718 28.732 8.69c0 0 6.676-2.896 10.739-9.848 0 0-6.385 3.765-17.124 3.765-10.448.29-22.347-2.607-22.347-2.607z" fill="url(#q)"/><path fill-rule="evenodd" clip-rule="evenodd" d="M218.256 305.366s20.896 2.607 32.215-2.028c0 0-10.158 8.4-18.574 6.662-8.417-2.027-13.641-4.634-13.641-4.634z" fill="url(#r)"/><path d="M294.585 252.939a4.35 4.35 0 0 0 4.354-4.345 4.35 4.35 0 0 0-4.354-4.345 4.349 4.349 0 0 0-4.353 4.345c0 2.4 1.949 4.345 4.353 4.345zm-104.48 2.028a4.349 4.349 0 0 0 4.353-4.345 4.35 4.35 0 0 0-4.353-4.345 4.35 4.35 0 0 0-4.354 4.345 4.35 4.35 0 0 0 4.354 4.345z" fill="#fff"/><path fill-rule="evenodd" clip-rule="evenodd" d="M410.675 226.001c-2.032-6.083.29-14.772-7.836-24.33 0 0-1.742-6.372 5.514-8.69 0 0 7.546 5.214 11.028 13.324 0 0 5.224-14.482 11.029-30.123 0 0 4.934-1.448 8.707 1.738l-4.064 17.958 12.19-17.958s8.706-1.738 11.609 7.82l-6.675 17.089 6.675-7.82s6.385.29 4.934 6.951l-9.868 15.352s-10.448 23.171-28.442 26.647c0 0-13.06-12.455-14.801-17.958z" fill="url(#s)"/><path fill-rule="evenodd" clip-rule="evenodd" d="M261.79 254.677s20.606 6.662 47.596 0c0 0-4.353 19.696-24.959 19.696-20.896 0-22.637-19.696-22.637-19.696z" fill="url(#t)"/><path fill-rule="evenodd" clip-rule="evenodd" d="M157.6 252.649s24.088 8.4 48.757 2.897c0 0-7.255 19.116-26.12 18.827-18.864-.29-22.637-21.724-22.637-21.724z" fill="url(#u)"/><path fill-rule="evenodd" clip-rule="evenodd" d="M136.413 226.002s2.902-131.21 17.994-169.442c0 0 18.574-24.62 61.818-29.544 0 0-41.793 0-70.815 24.04 0 0-14.511 81.101-8.997 174.946z" fill="url(#v)"/><path opacity=".74" fill-rule="evenodd" clip-rule="evenodd" d="M168.048 421.223l11.609-5.503 60.656 5.503 8.997-20.275c-22.637-.869-41.212-.579-67.622 0l-12.189 1.448-1.451 18.827z" fill="url(#w)"/><path fill-rule="evenodd" clip-rule="evenodd" d="M161.372 172.706s11.319-17.379 32.505-18.248v9.269s-14.221.869-26.99 10.717l-5.515-1.738z" fill="url(#x)"/><path fill-rule="evenodd" clip-rule="evenodd" d="M298.938 169.521s-7.255-12.165-28.442-13.324v9.269s14.802-1.159 24.669 6.951l3.773-2.896z" fill="url(#y)"/><path fill-rule="evenodd" clip-rule="evenodd" d="M145.41 51.056l-2.612 15.931 29.022-30.413c-11.899 2.897-26.41 14.483-26.41 14.483z" fill="#fff"/><path fill-rule="evenodd" clip-rule="evenodd" d="M222.029 27.016s48.467 0 76.909 32.44c0 0 24.669 81.101 28.732 162.781 0 0-7.255-104.852-22.637-168.284 0 .29-32.215-24.91-83.004-26.937z" fill="url(#z)"/><path fill-rule="evenodd" clip-rule="evenodd" d="M93.46 382.41s-4.353-188.849 12.48-328.168l18.574-1.159s-12.77 151.774-8.416 328.458l-22.638.869z" fill="url(#A)"/><path opacity=".5" fill-rule="evenodd" clip-rule="evenodd" d="M253.664 32.23l12.479 153.512h58.335s-8.997-90.37-19.445-131.5c0 0-19.735-16.799-51.369-22.012zm-116.67 274.292l194.449 54.164-.87 19.117s-89.97 41.709-190.967 2.607c-.291 0-4.934-35.337-2.612-75.888z" fill="#81282D"/><path opacity=".5" fill-rule="evenodd" clip-rule="evenodd" d="M419.091 206.305s8.126 6.952 10.158 16.22c0 0 7.836 3.186 13.64 3.476 5.805 0 8.417-9.848 8.417-9.848s-4.934-13.903-25.83-15.351l-6.385 5.503z" fill="url(#B)"/><path fill-rule="evenodd" clip-rule="evenodd" d="M110.873 240.483c-13.35 15.641-23.218 35.337-30.473 54.454-15.382 40.84-19.445 80.232-19.445 80.232-12.19 7.53-22.637.579-22.637.579 9.287-39.682 23.508-73.86 36.277-99.928 16.543-33.309 31.054-53.295 31.054-53.295 8.417 4.635 5.224 17.958 5.224 17.958z" fill="url(#C)"/><path fill-rule="evenodd" clip-rule="evenodd" d="M61.536 372.272s-1.742 14.483 19.154 24.62c0 0 0 10.717-11.318 8.11 0 0-6.966-5.213-14.512-7.53 0 0-6.385 20.275-20.315 28.385 0 0-5.805.29-8.707-6.662 0 0 4.934-7.531 8.707-14.772 0 0-8.707 10.717-17.123 14.482 0 0-6.966 1.738-10.158-4.634l4.063-6.082-4.063 1.737s-7.546-1.158-7.256-10.427c0 0 22.928-2.027 38.6-23.751 0 0 15.962 2.607 22.928-3.476z" fill="url(#D)"/><path opacity=".74" fill-rule="evenodd" clip-rule="evenodd" d="M110.874 240.483c-13.35 15.641-23.218 35.337-30.474 54.454-.58-9.559-3.192-15.641-5.514-19.117 16.543-33.309 31.054-53.295 31.054-53.295 8.126 4.635 4.934 17.958 4.934 17.958z" fill="url(#E)"/><path fill-rule="evenodd" clip-rule="evenodd" d="M207.808 293.199s8.417 21.434 26.701 21.724c18.284.289 25.83-24.62 25.83-24.62s-9.288 19.116-26.411 19.696c-17.123.579-26.12-16.8-26.12-16.8z" fill="url(#F)"/><path fill-rule="evenodd" clip-rule="evenodd" d="M92.59 323.324s13.06-4.345 22.637 14.772c9.577 19.116 22.928 16.799 26.7 13.034 4.064-4.055 3.483-8.979 6.966-12.745 3.483-3.765 25.83 15.641 73.136 31.282 47.307 15.641 58.625 1.448 64.72 0 6.095-1.448 2.322 15.061 14.511 15.641 12.19.579 6.966-13.903 10.738-16.8 3.773-2.896 18.285 11.007 18.285 11.007s-48.468 24.04-121.604 24.62c-73.136.579-115.219-22.013-115.219-22.013l-.87-58.798z" fill="url(#G)"/><path opacity=".74" fill-rule="evenodd" clip-rule="evenodd" d="M138.155 353.157l1.16 29.254s78.941 39.102 190.968-2.607c0 0-43.244 24.62-127.409 24.62-84.164 0-109.414-22.013-109.414-22.013l-.87-59.088s10.448-4.055 17.993 7.531c7.836 11.876 12.77 21.144 27.572 22.303z" fill="url(#H)"/><path opacity=".74" fill-rule="evenodd" clip-rule="evenodd" d="M93.17 323.323s11.899-.289 18.284 13.324 10.158 24.909 21.476 25.199c11.319.29 14.512-20.275 18.865-21.144 4.353-.869 45.275 30.702 78.36 38.812 33.086 8.11 52.821-8.11 56.594-7.241 3.773.869 3.483 12.745 10.448 15.062 7.836 2.607 13.06-.869 14.511-4.924 1.451-4.345-1.161-10.427 1.451-11.876 2.612-1.738 17.123 9.269 17.123 9.269v-2.607s-12.769-12.744-18.574-10.717c-5.804 2.028-.29 13.324-6.675 14.772-6.385 1.448-10.738-7.241-13.64-14.192-3.193-6.952-16.543 8.399-37.439 5.213-41.793-6.082-97.515-42.578-104.481-42.288-6.965.29-2.031 17.958-17.994 17.089-9.867-.579-18.864-31.861-38.31-23.751z" fill="url(#I)"/><path fill-rule="evenodd" clip-rule="evenodd" d="M234.509 367.928s16.833 5.793 29.312 4.634c12.48-1.158 18.284-5.503 18.284-5.503s-5.224 1.738-20.896 2.896c-15.381.869-26.7-2.027-26.7-2.027zm-24.96-9.558s15.382-.579 17.124 6.663c0 .289-13.06-4.925-17.124-6.663z" fill="#fff"/><path opacity=".74" fill-rule="evenodd" clip-rule="evenodd" d="M93.46 382.412h45.855s25.54 15.352 87.358 16.51c61.817 1.159 103.609-19.116 103.609-19.116s-48.177 23.751-116.669 24.62c-87.068.868-120.153-22.014-120.153-22.014z" fill="url(#J)"/><path fill-rule="evenodd" clip-rule="evenodd" d="M113.776 329.405s7.836 13.324 14.801 16.51c-.29 0-2.612-12.455-14.801-16.51z" fill="#fff"/></g><defs><linearGradient id="b" x1="372.265" y1="274.341" x2="372.265" y2="208.75" gradientUnits="userSpaceOnUse"><stop offset=".006" stop-color="#E4798B"/><stop offset=".247" stop-color="#ED877F"/><stop offset=".702" stop-color="#FA9C6D"/><stop offset="1" stop-color="#FFA466"/></linearGradient><linearGradient id="c" x1="334.529" y1="270.497" x2="334.529" y2="208.75" gradientUnits="userSpaceOnUse"><stop stop-color="#CA528D"/><stop offset="1" stop-color="#B3757C"/></linearGradient><linearGradient id="d" x1="92.648" y1="204.67" x2="157.351" y2="204.67" gradientUnits="userSpaceOnUse"><stop stop-color="#1C0013"/><stop offset=".994" stop-color="#400A13"/></linearGradient><radialGradient id="e" cx="0" cy="0" r="1" gradientUnits="userSpaceOnUse" gradientTransform="matrix(193.182 0 0 240.575 292.01 107.7)"><stop offset=".006" stop-color="#842A2C"/><stop offset=".317" stop-color="#81282D"/><stop offset=".559" stop-color="#77232F"/><stop offset=".778" stop-color="#671B32"/><stop offset=".982" stop-color="#4F0E36"/><stop offset="1" stop-color="#4D0D37"/></radialGradient><radialGradient id="f" cx="0" cy="0" r="1" gradientUnits="userSpaceOnUse" gradientTransform="matrix(20.8439 0 0 20.8023 286.862 219.683)"><stop offset=".006" stop-color="#3B1400"/><stop offset=".375" stop-color="#391203"/><stop offset=".662" stop-color="#340D0D"/><stop offset=".921" stop-color="#2B041D"/><stop offset="1" stop-color="#270024"/></radialGradient><radialGradient id="g" cx="0" cy="0" r="1" gradientUnits="userSpaceOnUse" gradientTransform="matrix(21.6533 0 0 21.6102 180.943 222.473)"><stop offset=".006" stop-color="#3B1400"/><stop offset=".375" stop-color="#391203"/><stop offset=".662" stop-color="#340D0D"/><stop offset=".921" stop-color="#2B041D"/><stop offset="1" stop-color="#270024"/></radialGradient><linearGradient id="h" x1="181.896" y1="466.629" x2="181.896" y2="400.973" gradientUnits="userSpaceOnUse"><stop stop-color="#C9635C"/><stop offset=".971" stop-color="#C95B57"/><stop offset=".994" stop-color="#C95B57"/></linearGradient><linearGradient id="i" x1="214.13" y1="466.889" x2="214.13" y2="400.368" gradientUnits="userSpaceOnUse"><stop stop-color="#FFA466"/><stop offset=".298" stop-color="#FA9C6D"/><stop offset=".753" stop-color="#ED877F"/><stop offset=".994" stop-color="#E4798B"/></linearGradient><linearGradient id="j" x1="161.157" y1="54.239" x2="161.157" y2="27.016" gradientUnits="userSpaceOnUse"><stop stop-color="#934A38"/><stop offset=".254" stop-color="#9B4C3C"/><stop offset=".642" stop-color="#B05349"/><stop offset=".994" stop-color="#C95B57"/></linearGradient><radialGradient id="k" cx="0" cy="0" r="1" gradientUnits="userSpaceOnUse" gradientTransform="matrix(49.0599 0 0 50.7131 182.95 221.597)"><stop offset=".006" stop-color="#fff"/><stop offset=".241" stop-color="#FDFCFC"/><stop offset=".443" stop-color="#F6F1F3"/><stop offset=".631" stop-color="#ECE0E5"/><stop offset=".811" stop-color="#DCC7D0"/><stop offset=".985" stop-color="#C9A7B6"/><stop offset="1" stop-color="#C7A4B3"/></radialGradient><radialGradient id="l" cx="0" cy="0" r="1" gradientUnits="userSpaceOnUse" gradientTransform="matrix(15.6787 0 0 16.207 177.644 243.182)"><stop offset=".006" stop-color="#3B1400"/><stop offset=".375" stop-color="#391203"/><stop offset=".662" stop-color="#340D0D"/><stop offset=".921" stop-color="#2B041D"/><stop offset="1" stop-color="#270024"/></radialGradient><radialGradient id="m" cx="0" cy="0" r="1" gradientUnits="userSpaceOnUse" gradientTransform="matrix(49.0599 0 0 50.7131 285.409 221.597)"><stop offset=".006" stop-color="#fff"/><stop offset=".241" stop-color="#FDFCFC"/><stop offset=".443" stop-color="#F6F1F3"/><stop offset=".631" stop-color="#ECE0E5"/><stop offset=".811" stop-color="#DCC7D0"/><stop offset=".985" stop-color="#C9A7B6"/><stop offset="1" stop-color="#C7A4B3"/></radialGradient><radialGradient id="n" cx="0" cy="0" r="1" gradientUnits="userSpaceOnUse" gradientTransform="matrix(15.6787 0 0 16.207 280.855 243.182)"><stop offset=".006" stop-color="#3B1400"/><stop offset=".375" stop-color="#391203"/><stop offset=".662" stop-color="#340D0D"/><stop offset=".921" stop-color="#2B041D"/><stop offset="1" stop-color="#270024"/></radialGradient><linearGradient id="o" x1="233.694" y1="309.789" x2="233.694" y2="270.662" gradientUnits="userSpaceOnUse"><stop offset=".006" stop-color="#CE2E13"/><stop offset=".364" stop-color="#CB2E15"/><stop offset=".642" stop-color="#C1301C"/><stop offset=".892" stop-color="#B13227"/><stop offset="1" stop-color="#A7332D"/></linearGradient><linearGradient id="p" x1="203.637" y1="283.122" x2="263.752" y2="283.122" gradientUnits="userSpaceOnUse"><stop stop-color="#CA528D"/><stop offset="1" stop-color="#B3757C"/></linearGradient><radialGradient id="q" cx="0" cy="0" r="1" gradientUnits="userSpaceOnUse" gradientTransform="matrix(14.4398 0 0 14.4119 233.95 277.001)"><stop offset=".006" stop-color="#fff"/><stop offset=".241" stop-color="#FDFCFC"/><stop offset=".443" stop-color="#F6F1F3"/><stop offset=".631" stop-color="#ECE0E5"/><stop offset=".811" stop-color="#DCC7D0"/><stop offset=".985" stop-color="#C9A7B6"/><stop offset="1" stop-color="#C7A4B3"/></radialGradient><radialGradient id="r" cx="0" cy="0" r="1" gradientUnits="userSpaceOnUse" gradientTransform="matrix(11.6838 0 0 11.6613 234.524 306.575)"><stop offset=".006" stop-color="#fff"/><stop offset=".241" stop-color="#FDFCFC"/><stop offset=".443" stop-color="#F6F1F3"/><stop offset=".631" stop-color="#ECE0E5"/><stop offset=".811" stop-color="#DCC7D0"/><stop offset=".985" stop-color="#C9A7B6"/><stop offset="1" stop-color="#C7A4B3"/></radialGradient><linearGradient id="s" x1="433.349" y1="243.907" x2="433.349" y2="175.939" gradientUnits="userSpaceOnUse"><stop stop-color="#FFA466"/><stop offset=".298" stop-color="#FA9C6D"/><stop offset=".753" stop-color="#ED877F"/><stop offset=".994" stop-color="#E4798B"/></linearGradient><radialGradient id="t" cx="0" cy="0" r="1" gradientUnits="userSpaceOnUse" gradientTransform="matrix(19.3388 0 0 19.3002 283.882 256.486)"><stop offset=".006" stop-color="#86392C"/><stop offset=".353" stop-color="#83362D"/><stop offset=".623" stop-color="#792E2F"/><stop offset=".866" stop-color="#692034"/><stop offset="1" stop-color="#5C1537"/></radialGradient><radialGradient id="u" cx="0" cy="0" r="1" gradientUnits="userSpaceOnUse" gradientTransform="matrix(24.3579 0 0 24.3094 183.023 251.913)"><stop offset=".006" stop-color="#86392C"/><stop offset=".353" stop-color="#83362D"/><stop offset=".623" stop-color="#792E2F"/><stop offset=".866" stop-color="#692034"/><stop offset="1" stop-color="#5C1537"/></radialGradient><radialGradient id="v" cx="0" cy="0" r="1" gradientUnits="userSpaceOnUse" gradientTransform="matrix(94.2808 0 0 94.0931 141.722 50.315)"><stop offset=".006" stop-color="#95452C"/><stop offset=".36" stop-color="#92422D"/><stop offset=".635" stop-color="#883A30"/><stop offset=".883" stop-color="#782B34"/><stop offset="1" stop-color="#6D2237"/></radialGradient><linearGradient id="w" x1="168.041" y1="410.851" x2="249.405" y2="410.851" gradientUnits="userSpaceOnUse"><stop stop-color="#CA528D"/><stop offset="1" stop-color="#B3757C"/></linearGradient><linearGradient id="x" x1="161.406" y1="164.222" x2="193.881" y2="164.222" gradientUnits="userSpaceOnUse"><stop offset=".006" stop-color="#430900"/><stop offset=".375" stop-color="#410803"/><stop offset=".662" stop-color="#39060D"/><stop offset=".921" stop-color="#2C021D"/><stop offset="1" stop-color="#270024"/></linearGradient><linearGradient id="y" x1="298.964" y1="164.223" x2="270.625" y2="164.223" gradientUnits="userSpaceOnUse"><stop offset=".006" stop-color="#430900"/><stop offset=".375" stop-color="#410803"/><stop offset=".662" stop-color="#39060D"/><stop offset=".921" stop-color="#2C021D"/><stop offset="1" stop-color="#270024"/></linearGradient><radialGradient id="z" cx="0" cy="0" r="1" gradientUnits="userSpaceOnUse" gradientTransform="matrix(97.8169 0 0 97.6221 230.642 49.97)"><stop offset=".006" stop-color="#A95C2C"/><stop offset=".404" stop-color="#A9592D"/><stop offset=".712" stop-color="#A84F31"/><stop offset=".991" stop-color="#A73F37"/><stop offset="1" stop-color="#A73E37"/></radialGradient><linearGradient id="A" x1="93.002" y1="217.67" x2="124.422" y2="217.67" gradientUnits="userSpaceOnUse"><stop stop-color="#512C2C"/><stop offset=".171" stop-color="#3D2121"/><stop offset=".59" stop-color="#110909"/><stop offset=".802"/></linearGradient><linearGradient id="B" x1="435.308" y1="225.898" x2="435.308" y2="200.683" gradientUnits="userSpaceOnUse"><stop stop-color="#CA528D"/><stop offset="1" stop-color="#B3757C"/></linearGradient><linearGradient id="C" x1="75.109" y1="378.689" x2="75.109" y2="222.504" gradientUnits="userSpaceOnUse"><stop stop-color="#FFA466"/><stop offset=".298" stop-color="#FA9C6D"/><stop offset=".753" stop-color="#ED877F"/><stop offset=".994" stop-color="#E4798B"/></linearGradient><linearGradient id="D" x1="40.392" y1="425.864" x2="40.392" y2="372.319" gradientUnits="userSpaceOnUse"><stop offset=".006" stop-color="#E4798B"/><stop offset=".247" stop-color="#ED877F"/><stop offset=".702" stop-color="#FA9C6D"/><stop offset="1" stop-color="#FFA466"/></linearGradient><linearGradient id="E" x1="93.275" y1="294.954" x2="93.275" y2="222.504" gradientUnits="userSpaceOnUse"><stop stop-color="#CA528D"/><stop offset="1" stop-color="#B3757C"/></linearGradient><radialGradient id="F" cx="0" cy="0" r="1" gradientUnits="userSpaceOnUse" gradientTransform="matrix(26.2269 0 0 26.1747 211.939 293.108)"><stop offset=".006" stop-color="#95452C"/><stop offset=".36" stop-color="#92422D"/><stop offset=".635" stop-color="#883A30"/><stop offset=".883" stop-color="#782B34"/><stop offset="1" stop-color="#6D2237"/></radialGradient><radialGradient id="G" cx="0" cy="0" r="1" gradientUnits="userSpaceOnUse" gradientTransform="matrix(126.649 0 0 126.397 168.309 349.485)"><stop offset=".006" stop-color="#fff"/><stop offset=".199" stop-color="#FDFCFC"/><stop offset=".363" stop-color="#F6F1F3"/><stop offset=".517" stop-color="#ECE0E5"/><stop offset=".664" stop-color="#DCC7D0"/><stop offset=".806" stop-color="#C9A7B6"/><stop offset=".818" stop-color="#C7A4B3"/><stop offset=".863" stop-color="#CEA4B4"/><stop offset=".927" stop-color="#E1A3B8"/><stop offset="1" stop-color="#FFA2BD"/></radialGradient><linearGradient id="H" x1="92.648" y1="363.483" x2="330.343" y2="363.483" gradientUnits="userSpaceOnUse"><stop stop-color="#CA528D"/><stop offset="1" stop-color="#DDC2C5"/></linearGradient><linearGradient id="I" x1="93.275" y1="355.124" x2="330.343" y2="355.124" gradientUnits="userSpaceOnUse"><stop stop-color="#CA528D"/><stop offset="1" stop-color="#B3757C"/></linearGradient><linearGradient id="J" x1="93.517" y1="392.018" x2="330.342" y2="392.018" gradientUnits="userSpaceOnUse"><stop stop-color="#CA528D"/><stop offset="1" stop-color="#DDC2C5"/></linearGradient><clipPath id="a"><path fill="#fff" d="M0 0h464v493H0z"/></clipPath></defs></svg>