<svg width="261" height="266" viewBox="0 0 261 266" fill="none" xmlns="http://www.w3.org/2000/svg"><g clip-path="url(#a)" fill-rule="evenodd" clip-rule="evenodd"><path d="M224.201 149.161s-20.934 20.824-37.165 14.896l-2.275-.912c-15.169-6.84-16.383-22.344-16.383-22.344v-10.032s5.765 15.2 15.018 21.888c2.427 1.824 5.157 3.04 8.191 3.192 13.804.608 28.063-13.832 28.063-13.832s5.158-.456 4.551 7.144z" fill="url(#b)"/><path opacity=".74" d="M184.761 163.145c-15.169-6.84-16.383-22.344-16.383-22.344v-10.032s5.764 15.2 15.018 21.888c0 .152 0 4.712 1.365 10.488z" fill="url(#c)"/><path d="M235.123 153.113s-6.675 2.128-13.652-1.672l1.516-16.72 11.226-1.368.91 19.76z" fill="url(#d)"/><path d="M73.571 217.409H49.604s-3.034-78.128 6.522-172.217c0 0 31.856-14.288 57.643-14.288L73.571 217.41z" fill="url(#e)"/><path d="M73.57 217.408S68.263 115.264 76.757 43.52c0 0 35.496-29.489 83.431 1.672 0 0 18.354 90.288 13.197 170.848-.152 0-43.991 20.216-99.813 1.368z" fill="url(#f)"/><path d="M173.232 216.04s-63.559 28.12-123.78 1.368h23.967s30.642 8.512 47.024 7.6c29.429-1.368 52.789-8.968 52.789-8.968z" fill="#24000A"/><path d="M92.532 228.352s4.854 39.824 23.361 32.832l-17.142-32.832h-6.219z" fill="url(#g)"/><path d="M98.6 226.224s3.034 36.328 17.141 34.808c14.107-1.368 16.534-41.192 16.534-41.192s-9.253-1.976-33.675 6.384z" fill="url(#h)"/><path d="M55.975 45.343l20.63-1.672s13.197-11.704 37.012-12.616c.152 0-25.484-.456-57.642 14.288z" fill="url(#i)"/><path d="M24.27 123.473c1.82-2.888 1.67-7.6 6.978-11.4 0 0 1.669-3.04-1.668-5.168 0 0-4.4 1.824-7.281 5.472 0 0-.91-8.056-1.973-16.72 0 0-2.275-1.368-4.702-.152l-.152 9.728-4.095-10.64s-4.248-1.976-6.826 2.432l1.213 9.576-2.427-4.864S0 101.129 0 104.625l3.185 8.968s2.427 13.072 11.226 17.176c0 0 8.19-4.712 9.86-7.296z" fill="url(#j)"/><path d="M71.902 135.329s1.517-68.857 9.405-88.92c0 0 9.708-12.92 32.31-15.505 0 0-21.843 0-37.012 12.616 0 .152-7.585 42.56-4.703 91.809z" fill="url(#k)"/><path opacity=".5" d="M133.337 33.792l6.523 80.56h30.49s-4.703-47.424-10.164-69.008c-.151 0-10.466-8.968-26.849-11.552z" fill="#81282D"/><path opacity=".74" d="M94.96 240.361l4.854-2.28 31.248-6.688 1.365-11.552c-11.528 3.04-20.63 3.952-33.675 8.512h-6.22l2.427 12.008z" fill="url(#l)"/><path d="M84.948 107.512s5.916-9.12 16.989-9.576v4.864s-7.433.456-14.107 5.624l-2.882-.912z" fill="url(#m)"/><path d="M155.484 120.736s-7.433-1.52-14.865-6.992v4.864s5.005 3.04 12.893 3.648l1.972-1.52z" fill="url(#n)"/><path d="M76.605 43.672l-1.365 8.36 15.169-15.96c-6.22 1.52-13.804 7.6-13.804 7.6z" fill="#fff"/><path d="M116.803 31.056s25.332 0 40.198 17.024c0 0 12.894 42.56 15.018 85.424 0 0-3.793-55.024-11.832-88.312-.152.152-16.99-13.224-43.384-14.136z" fill="url(#o)"/><path d="M49.452 217.408s-2.276-99.104 6.522-172.216l9.709-.608s-6.675 79.648-4.4 172.368l-11.831.456z" fill="url(#p)"/><path opacity=".5" d="M72.205 177.735l101.634 28.424-.455 10.032s-47.025 21.888-99.813 1.368c0-.152-2.58-18.544-1.366-39.824z" fill="#81282D"/><path opacity=".5" d="M22.45 112.377s-4.853 2.584-7.28 6.992c0 0-4.4.76-7.433 0-3.034-.608-3.034-6.08-3.034-6.08s4.247-6.536 15.017-4.712l2.73 3.8z" fill="url(#q)"/><path d="M48.996 186.553s6.827-2.28 11.832 7.752c5.006 10.032 11.984 8.816 13.956 6.84 2.124-2.128 1.82-4.712 3.64-6.688 1.821-1.976 13.501 8.208 38.227 16.416s30.642.76 33.827 0c3.186-.76 1.214 7.904 7.585 8.208 6.371.304 3.641-7.296 5.613-8.816 1.972-1.52 9.556 5.776 9.556 5.776s-25.332 12.616-63.559 12.92c-38.226.304-60.221-11.552-60.221-11.552l-.456-30.856z" fill="url(#r)"/><path opacity=".74" d="M72.964 202.208l.607 15.352s41.26 20.52 99.813-1.368c0 0-22.602 12.92-66.593 12.92-43.99 0-57.188-11.552-57.188-11.552l-.455-31.008s5.461-2.128 9.405 3.952c3.944 6.08 6.523 10.944 14.411 11.704z" fill="url(#s)"/><path opacity=".74" d="M49.452 186.552s6.22-.152 9.556 6.992c3.338 7.144 5.31 13.072 11.226 13.224 5.916.152 7.584-10.64 9.86-11.096 2.275-.456 23.663 16.112 40.956 20.368 17.293 4.256 27.608-4.256 29.58-3.8 1.972.456 1.821 6.688 5.461 7.904 4.096 1.368 6.826-.456 7.585-2.584.758-2.28-.607-5.472.758-6.232 1.365-.912 8.95 4.864 8.95 4.864v-1.368s-6.674-6.688-9.708-5.624-.152 6.992-3.489 7.752c-3.337.76-5.613-3.8-7.13-7.448-1.668-3.648-8.646 4.408-19.568 2.736-21.844-3.192-50.968-22.344-54.609-22.192-3.64.152-1.062 9.424-9.405 8.968-5.31-.304-9.86-16.72-20.023-12.464z" fill="url(#t)"/><path d="M123.174 209.808s8.798 3.04 15.321 2.432c6.522-.608 9.556-2.888 9.556-2.888s-2.73.912-10.922 1.52c-8.039.608-13.955-1.064-13.955-1.064zm-13.045-4.863s8.039-.304 8.949 3.496c.152 0-6.826-2.584-8.949-3.496z" fill="#fff"/><path opacity=".74" d="M49.452 217.408h23.967s13.349 8.056 45.659 8.664c32.311.608 54.154-10.032 54.154-10.032s-25.181 12.464-60.98 12.92c-45.507.608-62.8-11.552-62.8-11.552z" fill="url(#u)"/><path d="M60.07 189.744s4.096 6.992 7.736 8.664c0 0-1.365-6.688-7.736-8.664z" fill="#fff"/><path d="M163.676 142.929s-14.108-5.624-27.912 0v-1.824s14.715-10.184 27.76.456l.152 1.368z" fill="url(#v)"/><path d="M112.555 142.929s-14.107-5.624-27.91 0v-1.824s14.713-10.184 27.759.456l.151 1.368z" fill="url(#w)"/><path d="M138.495 151.896c2.73 2.736-3.944 15.048-13.349 15.048-10.618 0-14.562-11.248-13.956-15.048.607-3.8 9.557-.152 14.866-.152 5.309 0 10.012-2.28 12.439.152z" fill="url(#x)"/><path d="M138.646 156.151c-1.82 1.52-3.792 2.28-6.371 2.736 2.124.152 3.489.152 5.31-.456.455-.76.758-1.368 1.061-2.28z" fill="url(#y)"/><path d="M119.078 158.887s-4.247-.304-7.433-2.736c0 0 .152 1.064.911 2.432 2.275.304 3.792.456 6.522.304z" fill="url(#z)"/><path d="M135.916 161.168s-4.247 7.904-10.77 8.208c-6.523.304-11.832-9.424-11.832-9.424s5.006 7.752 11.832 6.992c6.674-.76 10.77-5.776 10.77-5.776z" fill="url(#A)"/><path d="M63.256 138.823s4.399-1.368 2.427 6.84c0 0-10.467 15.048-23.816 15.048-15.776 0-27.304-29.792-27.304-29.792l6.826-5.168s6.674 21.28 20.023 24.472c11.68 2.736 21.844-11.4 21.844-11.4z" fill="url(#B)"/><path d="M219.801 72.704l-5.157-10.488h15.776l15.776.76-5.613 10.184s6.978 27.816 4.551 38.76c-2.427 10.944-16.079 15.808-16.079 15.808s-13.501-5.472-15.473-16.568c-1.82-10.944 6.219-38.456 6.219-38.456z" fill="url(#C)"/><path d="M227.234 151.137l-1.82-25.08 7.281.152-4.095 24.928 9.708 3.344-.152 1.976-21.085-.456v-2.584l10.163-2.28z" fill="url(#D)"/><path d="M243.466 108.426s-1.366 15.2-14.259 15.048c-10.316-.152-16.687-12.92-12.894-28.12 0 0 2.275 4.255 10.618 7.296a3519.986 3519.986 0 0 1 16.535 5.776z" fill="url(#E)"/><path d="M243.466 108.425s-14.563-11.704-27.153-13.224c0 0 1.213 4.864 7.129 8.056 5.916 3.344 12.439 2.432 20.024 5.168z" fill="#F64A13"/><path d="M238.915 72.097s8.191 27.816 4.702 41.04l-8.343 1.672s2.124-31.16-2.124-42.56l5.765-.152zm-18.507 42.256s-1.516-4.104-2.123-11.552l-4.096-1.216s-.758 10.336 2.579 14.44l3.64-1.672z" fill="#fff"/><path d="M217.526 143.688l1.365-9.728s9.102-1.976 12.894-5.624c0 0 2.731 2.584 1.365 5.928 0 0-3.488 3.8-6.826 4.256 0 0 1.062 4.56-2.123 8.36 0 0-4.703 1.824-6.675-3.192z" fill="url(#F)"/><path d="M241.493 132.744c1.517 1.824 1.366 2.888.759 4.56l-1.972 1.672-1.365 10.488 1.668.912s.759 2.28-.758 4.56c0 0-4.703.456-8.647-1.52 0 0-.303-2.128.911-5.016l-2.731-.76s-1.062-4.104 1.972-10.488l1.365-.304s-1.972-3.192.152-5.776l8.646 1.672z" fill="url(#G)"/><path opacity=".74" d="M240.28 139.128l-7.736-2.28 8.646 1.368-.91.912z" fill="url(#H)"/><path opacity=".74" d="M231.786 148.857l7.129.608-9.708-1.824 2.579 1.216z" fill="url(#I)"/><path opacity=".55" d="M157.457 164.513c11.831 1.368 17.596-8.208 20.023-18.088 2.275-9.12 1.668-18.848.455-20.824-2.124-3.496-21.692-5.168-32.766-3.648-3.185.456-5.612 1.216-6.826 2.28-5.309 4.56-3.489 37.848 19.114 40.28z" fill="url(#J)"/><path opacity=".55" d="M93.442 164.514c10.164 1.064 16.231-4.712 19.72-12.008 5.006-10.488 4.399-24.32 2.731-26.904-2.427-3.496-24.12-5.32-36.255-3.648-3.337.456-5.916 1.216-7.13 2.128-5.612 4.712-3.64 38 20.934 40.432z" fill="url(#K)"/><path d="M71.295 125.754s-22.147 5.168-24.877 7.752c-2.882 2.584-2.73 9.424-2.73 9.424h2.275s-.759-5.624 1.669-7.6c2.275-1.976 6.522 0 6.522 0l15.776-3.344c0 .152.152-4.408 1.365-6.232z" fill="url(#L)"/><path d="M157.456 164.514s-9.86.912-18.354-10.792c-8.495-11.552-5.31-27.056-4.703-28.12.455-1.064 7.433-3.04 7.433-3.04s-3.337.912-3.944 2.28c-.758 1.216-3.337 16.416 2.427 27.512 5.613 10.792 17.141 12.16 17.141 12.16z" fill="url(#M)"/><path d="M93.442 164.514s-9.86.912-18.355-10.792c-8.494-11.552-5.309-27.664-4.702-28.728.455-1.064 6.826-2.736 6.826-2.736s-3.034.608-3.792 1.976c-.759 1.216-2.73 16.872 2.73 27.968 6.22 12.312 17.293 12.312 17.293 12.312z" fill="url(#N)"/><path d="M145.169 121.954l32.462 24.472c2.276-9.12 1.669-18.848.456-20.824-2.276-3.496-21.844-5.32-32.918-3.648zm-65.531 0l33.524 30.552c5.006-10.488 4.399-24.32 2.731-26.904-2.427-3.496-24.12-5.32-36.255-3.648z" fill="#fff"/><path d="M139.557 128.642s-12.287-3.496-24.119 0v2.432s9.86-3.192 23.816 0l.303-2.432z" fill="url(#O)"/><path d="M231.785 100.976l7.13-76.912 2.579-4.104L260 8.712 258.483 4l-18.506 13.68-4.399 5.016-6.371 77.064 2.578 1.216z" fill="url(#P)"/><path d="M225.566 57.2l9.557 39.823v4.56l-2.579-3.952-9.708-39.672 2.73-.76z" fill="url(#Q)"/><path d="M213.583 35.768c-12.743 8.056-18.204 22.192-12.288 31.312 5.916 9.272 20.934 10.032 33.524 1.976 12.742-8.056 18.203-22.192 12.287-31.312-5.764-9.12-20.781-10.032-33.523-1.976z" fill="url(#R)"/><path d="M244.831 59.632l-25.029-14.288 27.456-7.6s6.371 8.056-2.427 21.888z" fill="#fff"/><path d="M234.819 30.447l-15.017 14.896 27.456-7.6s-3.337-5.928-12.439-7.296z" fill="#C2A9A9"/><path opacity=".74" d="M202.661 68.903l17.141-23.408-19.872 8.664s-2.882 7.296 2.731 14.744z" fill="#D4A998"/><path d="M218.133 44.28c-1.213.76-1.82 2.128-1.213 3.04.606.912 1.972.912 3.185.152 1.214-.76 1.82-2.128 1.214-3.04-.455-.912-1.972-.912-3.186-.152z" fill="url(#S)"/></g><defs><linearGradient id="b" x1="196.302" y1="165.107" x2="196.302" y2="130.686" gradientUnits="userSpaceOnUse"><stop offset=".006" stop-color="#E4798B"/><stop offset=".247" stop-color="#ED877F"/><stop offset=".702" stop-color="#FA9C6D"/><stop offset="1" stop-color="#FFA466"/></linearGradient><linearGradient id="c" x1="176.578" y1="163.09" x2="176.578" y2="130.686" gradientUnits="userSpaceOnUse"><stop stop-color="#CA528D"/><stop offset="1" stop-color="#B3757C"/></linearGradient><linearGradient id="d" x1="226.058" y1="153.314" x2="232.405" y2="132.716" gradientUnits="userSpaceOnUse"><stop offset=".006" stop-color="#E4798B"/><stop offset=".247" stop-color="#ED877F"/><stop offset=".702" stop-color="#FA9C6D"/><stop offset="1" stop-color="#FFA466"/></linearGradient><linearGradient id="e" x1="49.066" y1="124.246" x2="82.884" y2="124.246" gradientUnits="userSpaceOnUse"><stop stop-color="#1C0013"/><stop offset=".994" stop-color="#400A13"/></linearGradient><radialGradient id="f" cx="0" cy="0" r="1" gradientUnits="userSpaceOnUse" gradientTransform="matrix(100.971 0 0 126.249 153.267 73.358)"><stop offset=".006" stop-color="#842A2C"/><stop offset=".317" stop-color="#81282D"/><stop offset=".559" stop-color="#77232F"/><stop offset=".778" stop-color="#671B32"/><stop offset=".982" stop-color="#4F0E36"/><stop offset="1" stop-color="#4D0D37"/></radialGradient><linearGradient id="g" x1="109.275" y1="263.19" x2="97.8" y2="226.645" gradientUnits="userSpaceOnUse"><stop stop-color="#C9635C"/><stop offset=".971" stop-color="#C95B57"/><stop offset=".994" stop-color="#C95B57"/></linearGradient><linearGradient id="h" x1="125.339" y1="258.292" x2="113.758" y2="221.409" gradientUnits="userSpaceOnUse"><stop stop-color="#FFA466"/><stop offset=".298" stop-color="#FA9C6D"/><stop offset=".753" stop-color="#ED877F"/><stop offset=".994" stop-color="#E4798B"/></linearGradient><linearGradient id="i" x1="84.874" y1="45.302" x2="84.874" y2="31.015" gradientUnits="userSpaceOnUse"><stop stop-color="#934A38"/><stop offset=".254" stop-color="#9B4C3C"/><stop offset=".642" stop-color="#B05349"/><stop offset=".994" stop-color="#C95B57"/></linearGradient><linearGradient id="j" x1="10.54" y1="129.811" x2="18.955" y2="95.153" gradientUnits="userSpaceOnUse"><stop stop-color="#FFA466"/><stop offset=".298" stop-color="#FA9C6D"/><stop offset=".753" stop-color="#ED877F"/><stop offset=".994" stop-color="#E4798B"/></linearGradient><radialGradient id="k" cx="0" cy="0" r="1" gradientUnits="userSpaceOnUse" gradientTransform="matrix(49.278 0 0 49.3782 74.715 43.243)"><stop offset=".006" stop-color="#95452C"/><stop offset=".36" stop-color="#92422D"/><stop offset=".635" stop-color="#883A30"/><stop offset=".883" stop-color="#782B34"/><stop offset="1" stop-color="#6D2237"/></radialGradient><linearGradient id="l" x1="93.494" y1="235.619" x2="133.355" y2="223.153" gradientUnits="userSpaceOnUse"><stop stop-color="#CA528D"/><stop offset="1" stop-color="#B3757C"/></linearGradient><linearGradient id="m" x1="85.004" y1="103.02" x2="101.977" y2="103.02" gradientUnits="userSpaceOnUse"><stop offset=".006" stop-color="#430900"/><stop offset=".375" stop-color="#410803"/><stop offset=".662" stop-color="#39060D"/><stop offset=".921" stop-color="#2C021D"/><stop offset="1" stop-color="#270024"/></linearGradient><linearGradient id="n" x1="155.524" y1="117.96" x2="140.712" y2="117.96" gradientUnits="userSpaceOnUse"><stop offset=".006" stop-color="#430900"/><stop offset=".375" stop-color="#410803"/><stop offset=".662" stop-color="#39060D"/><stop offset=".921" stop-color="#2C021D"/><stop offset="1" stop-color="#270024"/></linearGradient><radialGradient id="o" cx="0" cy="0" r="1" gradientUnits="userSpaceOnUse" gradientTransform="matrix(51.1262 0 0 51.2302 121.191 43.062)"><stop offset=".006" stop-color="#A95C2C"/><stop offset=".404" stop-color="#A9592D"/><stop offset=".712" stop-color="#A84F31"/><stop offset=".991" stop-color="#A73F37"/><stop offset="1" stop-color="#A73E37"/></radialGradient><linearGradient id="p" x1="49.251" y1="131.068" x2="65.673" y2="131.068" gradientUnits="userSpaceOnUse"><stop stop-color="#512C2C"/><stop offset=".171" stop-color="#3D2121"/><stop offset=".59" stop-color="#110909"/><stop offset=".802"/></linearGradient><linearGradient id="q" x1="11.766" y1="120.384" x2="14.888" y2="107.527" gradientUnits="userSpaceOnUse"><stop stop-color="#CA528D"/><stop offset="1" stop-color="#B3757C"/></linearGradient><radialGradient id="r" cx="0" cy="0" r="1" gradientUnits="userSpaceOnUse" gradientTransform="matrix(66.1961 0 0 66.3307 88.611 200.242)"><stop offset=".006" stop-color="#fff"/><stop offset=".199" stop-color="#FDFCFC"/><stop offset=".363" stop-color="#F6F1F3"/><stop offset=".517" stop-color="#ECE0E5"/><stop offset=".664" stop-color="#DCC7D0"/><stop offset=".806" stop-color="#C9A7B6"/><stop offset=".818" stop-color="#C7A4B3"/><stop offset=".863" stop-color="#CEA4B4"/><stop offset=".927" stop-color="#E1A3B8"/><stop offset="1" stop-color="#FFA2BD"/></radialGradient><linearGradient id="s" x1="49.066" y1="207.587" x2="173.302" y2="207.587" gradientUnits="userSpaceOnUse"><stop stop-color="#CA528D"/><stop offset="1" stop-color="#DDC2C5"/></linearGradient><linearGradient id="t" x1="49.394" y1="203.201" x2="173.302" y2="203.201" gradientUnits="userSpaceOnUse"><stop stop-color="#CA528D"/><stop offset="1" stop-color="#B3757C"/></linearGradient><linearGradient id="u" x1="49.52" y1="222.561" x2="173.302" y2="222.561" gradientUnits="userSpaceOnUse"><stop stop-color="#CA528D"/><stop offset="1" stop-color="#DDC2C5"/></linearGradient><radialGradient id="v" cx="0" cy="0" r="1" gradientUnits="userSpaceOnUse" gradientTransform="matrix(-10.0843 0 0 -10.1048 149.816 139.919)"><stop offset=".006" stop-color="#3B1400"/><stop offset=".375" stop-color="#391203"/><stop offset=".662" stop-color="#340D0D"/><stop offset=".921" stop-color="#2B041D"/><stop offset="1" stop-color="#270024"/></radialGradient><radialGradient id="w" cx="0" cy="0" r="1" gradientUnits="userSpaceOnUse" gradientTransform="matrix(-10.0843 0 0 -10.1048 98.666 139.919)"><stop offset=".006" stop-color="#3B1400"/><stop offset=".375" stop-color="#391203"/><stop offset=".662" stop-color="#340D0D"/><stop offset=".921" stop-color="#2B041D"/><stop offset="1" stop-color="#270024"/></radialGradient><radialGradient id="x" cx="0" cy="0" r="1" gradientUnits="userSpaceOnUse" gradientTransform="matrix(-11.3936 0 0 -12.0735 125.116 158.571)"><stop offset=".006" stop-color="#fff"/><stop offset=".241" stop-color="#FDFCFC"/><stop offset=".443" stop-color="#F6F1F3"/><stop offset=".631" stop-color="#ECE0E5"/><stop offset=".811" stop-color="#DCC7D0"/><stop offset=".985" stop-color="#C9A7B6"/><stop offset="1" stop-color="#C7A4B3"/></radialGradient><radialGradient id="y" cx="0" cy="0" r="1" gradientUnits="userSpaceOnUse" gradientTransform="matrix(-2.47379 0 0 -2.47883 135.508 157.604)"><stop offset=".006" stop-color="#3B1400"/><stop offset=".375" stop-color="#391203"/><stop offset=".662" stop-color="#340D0D"/><stop offset=".921" stop-color="#2B041D"/><stop offset="1" stop-color="#270024"/></radialGradient><radialGradient id="z" cx="0" cy="0" r="1" gradientUnits="userSpaceOnUse" gradientTransform="matrix(-2.78324 0 0 -2.78893 115.329 157.554)"><stop offset=".006" stop-color="#3B1400"/><stop offset=".375" stop-color="#391203"/><stop offset=".662" stop-color="#340D0D"/><stop offset=".921" stop-color="#2B041D"/><stop offset="1" stop-color="#270024"/></radialGradient><radialGradient id="A" cx="0" cy="0" r="1" gradientUnits="userSpaceOnUse" gradientTransform="matrix(-8.64325 0 0 -8.66082 124.608 164.685)"><stop offset=".006" stop-color="#95452C"/><stop offset=".36" stop-color="#92422D"/><stop offset=".635" stop-color="#883A30"/><stop offset=".883" stop-color="#782B34"/><stop offset="1" stop-color="#6D2237"/></radialGradient><linearGradient id="B" x1="40.348" y1="160.63" x2="40.348" y2="125.636" gradientUnits="userSpaceOnUse"><stop offset=".006" stop-color="#E4798B"/><stop offset=".247" stop-color="#ED877F"/><stop offset=".702" stop-color="#FA9C6D"/><stop offset="1" stop-color="#FFA466"/></linearGradient><radialGradient id="C" cx="0" cy="0" r="1" gradientUnits="userSpaceOnUse" gradientTransform="rotate(-178.777 115.369 46.31) scale(25.8178 25.8702)"><stop offset=".006" stop-color="#E0E6FF"/><stop offset=".261" stop-color="#DFE3FC"/><stop offset=".478" stop-color="#DBDAF1"/><stop offset=".682" stop-color="#D6CBE0"/><stop offset=".876" stop-color="#CEB5C7"/><stop offset="1" stop-color="#C7A4B3"/></radialGradient><radialGradient id="D" cx="0" cy="0" r="1" gradientUnits="userSpaceOnUse" gradientTransform="matrix(-12.99874 -.2775 .27807 -13.02513 227.926 141.177)"><stop offset=".006" stop-color="#E0E6FF"/><stop offset=".261" stop-color="#DFE3FC"/><stop offset=".478" stop-color="#DBDAF1"/><stop offset=".682" stop-color="#D6CBE0"/><stop offset=".876" stop-color="#CEB5C7"/><stop offset="1" stop-color="#C7A4B3"/></radialGradient><linearGradient id="E" x1="228.927" y1="123.34" x2="229.521" y2="95.49" gradientUnits="userSpaceOnUse"><stop offset=".006" stop-color="#CE2E13"/><stop offset=".364" stop-color="#CB2E15"/><stop offset=".642" stop-color="#C1301C"/><stop offset=".892" stop-color="#B13227"/><stop offset="1" stop-color="#A7332D"/></linearGradient><linearGradient id="F" x1="221.944" y1="147.367" x2="228.143" y2="127.25" gradientUnits="userSpaceOnUse"><stop stop-color="#FFA466"/><stop offset=".298" stop-color="#FA9C6D"/><stop offset=".753" stop-color="#ED877F"/><stop offset=".994" stop-color="#E4798B"/></linearGradient><linearGradient id="G" x1="242.702" y1="143.06" x2="229.043" y2="143.06" gradientUnits="userSpaceOnUse"><stop offset=".006" stop-color="#E4798B"/><stop offset=".247" stop-color="#ED877F"/><stop offset=".702" stop-color="#FA9C6D"/><stop offset="1" stop-color="#FFA466"/></linearGradient><linearGradient id="H" x1="236.669" y1="138.181" x2="237.053" y2="136.934" gradientUnits="userSpaceOnUse"><stop stop-color="#CA528D"/><stop offset="1" stop-color="#B3757C"/></linearGradient><linearGradient id="I" x1="233.761" y1="149.454" x2="234.188" y2="148.067" gradientUnits="userSpaceOnUse"><stop stop-color="#CA528D"/><stop offset="1" stop-color="#B3757C"/></linearGradient><radialGradient id="J" cx="0" cy="0" r="1" gradientUnits="userSpaceOnUse" gradientTransform="matrix(-28.8978 0 0 -28.9565 157.942 132.168)"><stop offset=".006" stop-color="#FFD700"/><stop offset=".2" stop-color="#FED400"/><stop offset=".365" stop-color="#FBC900"/><stop offset=".52" stop-color="#F6B800"/><stop offset=".669" stop-color="#EF9F00"/><stop offset=".812" stop-color="#E67F00"/><stop offset=".824" stop-color="#E57C00"/><stop offset=".853" stop-color="#E27504"/><stop offset=".896" stop-color="#DA620E"/><stop offset=".946" stop-color="#CE431F"/><stop offset=".959" stop-color="#CA3924"/></radialGradient><radialGradient id="K" cx="0" cy="0" r="1" gradientUnits="userSpaceOnUse" gradientTransform="matrix(-29.7645 0 0 -29.825 93.968 132.15)"><stop offset=".006" stop-color="#FFD700"/><stop offset=".2" stop-color="#FED400"/><stop offset=".365" stop-color="#FBC900"/><stop offset=".52" stop-color="#F6B800"/><stop offset=".669" stop-color="#EF9F00"/><stop offset=".812" stop-color="#E67F00"/><stop offset=".824" stop-color="#E57C00"/><stop offset=".853" stop-color="#E27504"/><stop offset=".896" stop-color="#DA620E"/><stop offset=".946" stop-color="#CE431F"/><stop offset=".959" stop-color="#CA3924"/></radialGradient><linearGradient id="L" x1="71.293" y1="134.401" x2="43.69" y2="134.401" gradientUnits="userSpaceOnUse"><stop offset=".034" stop-color="#DFCCDC"/><stop offset=".272" stop-color="#9680B7"/><stop offset="1" stop-color="#CFCFCF"/></linearGradient><radialGradient id="M" cx="0" cy="0" r="1" gradientUnits="userSpaceOnUse" gradientTransform="matrix(-24.8861 0 0 -24.9367 145.663 133.044)"><stop offset=".006" stop-color="#FFD700"/><stop offset=".2" stop-color="#FED400"/><stop offset=".365" stop-color="#FBC900"/><stop offset=".52" stop-color="#F6B800"/><stop offset=".669" stop-color="#EF9F00"/><stop offset=".812" stop-color="#E67F00"/><stop offset=".824" stop-color="#E57C00"/><stop offset=".853" stop-color="#E27504"/><stop offset=".896" stop-color="#DA620E"/><stop offset=".946" stop-color="#CE431F"/><stop offset=".959" stop-color="#CA3924"/></radialGradient><radialGradient id="N" cx="0" cy="0" r="1" gradientUnits="userSpaceOnUse" gradientTransform="matrix(-24.9829 0 0 -25.0337 81.634 132.902)"><stop offset=".006" stop-color="#FFD700"/><stop offset=".2" stop-color="#FED400"/><stop offset=".365" stop-color="#FBC900"/><stop offset=".52" stop-color="#F6B800"/><stop offset=".669" stop-color="#EF9F00"/><stop offset=".812" stop-color="#E67F00"/><stop offset=".824" stop-color="#E57C00"/><stop offset=".853" stop-color="#E27504"/><stop offset=".896" stop-color="#DA620E"/><stop offset=".946" stop-color="#CE431F"/><stop offset=".959" stop-color="#CA3924"/></radialGradient><linearGradient id="O" x1="139.497" y1="129.099" x2="115.329" y2="129.099" gradientUnits="userSpaceOnUse"><stop offset=".034" stop-color="#DFCCDC"/><stop offset=".272" stop-color="#9680B7"/><stop offset="1" stop-color="#CFCFCF"/></linearGradient><radialGradient id="P" cx="0" cy="0" r="1" gradientUnits="userSpaceOnUse" gradientTransform="matrix(-50.7054 0 0 -50.8085 250.176 35.618)"><stop offset=".006" stop-color="#DBE0FF"/><stop offset=".261" stop-color="#DADDFC"/><stop offset=".478" stop-color="#D7D5F1"/><stop offset=".682" stop-color="#D3C7E0"/><stop offset=".876" stop-color="#CCB4C7"/><stop offset="1" stop-color="#C7A4B3"/></radialGradient><linearGradient id="Q" x1="235.051" y1="79.369" x2="222.908" y2="79.369" gradientUnits="userSpaceOnUse"><stop stop-color="#934A38"/><stop offset=".254" stop-color="#9B4C3C"/><stop offset=".642" stop-color="#B05349"/><stop offset=".994" stop-color="#C95B57"/></linearGradient><radialGradient id="R" cx="0" cy="0" r="1" gradientUnits="userSpaceOnUse" gradientTransform="rotate(-122.48 121.284 -39.54) scale(23.8176 23.7972)"><stop offset=".006" stop-color="#FFD700"/><stop offset=".258" stop-color="#FCD500"/><stop offset=".473" stop-color="#F1CE00"/><stop offset=".674" stop-color="#E0C200"/><stop offset=".866" stop-color="#C7B100"/><stop offset="1" stop-color="#B1A200"/></radialGradient><radialGradient id="S" cx="0" cy="0" r="1" gradientUnits="userSpaceOnUse" gradientTransform="rotate(-122.48 122.173 -37.214) scale(2.29422 2.29225)"><stop offset=".006" stop-color="#842A2C"/><stop offset=".317" stop-color="#81282D"/><stop offset=".559" stop-color="#77232F"/><stop offset=".778" stop-color="#671B32"/><stop offset=".982" stop-color="#4F0E36"/><stop offset="1" stop-color="#4D0D37"/></radialGradient><clipPath id="a"><path fill="#fff" transform="matrix(-1 0 0 1 261 0)" d="M0 0h261v266H0z"/></clipPath></defs></svg>