<svg width="475" height="446" viewBox="0 0 475 446" fill="none" xmlns="http://www.w3.org/2000/svg"><path fill-rule="evenodd" clip-rule="evenodd" d="M133.146 141.842s-33.537 25.798-35.83 47.584a31.959 31.959 0 0 0 2.866 16.625c5.733 12.899 17.485 21.499 17.485 21.499l-3.439 15.479s-19.492-13.759-28.092-33.825c-2.006-4.586-3.44-9.459-4.013-14.332-2.866-27.518 45.29-66.216 45.29-66.216s8.313 4.587 5.733 13.186z" fill="url(#a)"/><path opacity=".74" fill-rule="evenodd" clip-rule="evenodd" d="M117.954 227.835l-3.44 15.479s-19.492-13.76-28.091-33.825c3.44-.86 8.313-2.006 13.759-3.153 6.02 12.899 17.772 21.499 17.772 21.499z" fill="url(#b)"/><path fill-rule="evenodd" clip-rule="evenodd" d="M121.107 140.691s-.286-16.912-9.459-28.665c0 0 6.02-8.312 12.039-5.733.287 0-2.006 29.525-2.58 34.398z" fill="url(#c)"/><path fill-rule="evenodd" clip-rule="evenodd" d="M357.305 355.393l-45.004-2.007L203.088 41.8 189.903 4.822c10.606-2.293 20.925-3.726 30.671-4.3h3.153c4.3-.286 8.313-.286 12.326 0h3.44s1.146 2.58 2.58 6.02c3.153 7.453 8.312 18.919 10.319 20.066 2.866 1.72 15.479 2.58 15.479 2.58s1.433 20.925 12.326 38.124c2.866 4.586 10.032 9.459 18.345 14.045 19.779 10.606 47.011 19.492 47.011 19.492 27.231 141.605 11.752 254.544 11.752 254.544z" fill="url(#d)"/><path fill-rule="evenodd" clip-rule="evenodd" d="M272.744 382.05s-15.193 63.349-48.444 63.349l36.405-65.069 12.039 1.72z" fill="url(#e)"/><path fill-rule="evenodd" clip-rule="evenodd" d="M260.705 380.33s-13.759 65.069-36.404 65.069c-26.945 0-30.385-65.069-30.385-65.069s18.059-1.147 66.789 0z" fill="url(#f)"/><path opacity=".74" fill-rule="evenodd" clip-rule="evenodd" d="M268.157 397.532l-5.159-2.293-67.649-4.586-1.147-10.033c22.359-.86 40.704-.573 66.789 0l12.039 1.433-4.873 15.479z" fill="url(#g)"/><path fill-rule="evenodd" clip-rule="evenodd" d="M312.015 353.103s-98.607 59.337-196.927-1.146c0 0-6.02-152.497 10.319-301.84 5.733-16.913 27.805-35.832 57.616-43.571l6.88-1.72c16.052-3.153 33.824-3.153 52.457 2.006 3.153 7.453 8.312 18.92 10.319 20.066 2.866 1.72 15.479 2.58 15.479 2.58s1.433 20.925 12.326 38.124c2.866 4.586 10.032 9.46 18.345 14.046 1.433 9.746 3.153 20.638 4.873 32.677 7.74 59.337 10.893 148.771 8.313 238.778z" fill="url(#h)"/><path fill-rule="evenodd" clip-rule="evenodd" d="M115.088 351.956s75.102 75.102 242.218 3.44l-45.004-2.007s-44.431 20.926-111.22 20.926c-54.176 0-85.994-22.359-85.994-22.359z" fill="url(#i)"/><path fill-rule="evenodd" clip-rule="evenodd" d="M241.499 196.301s6.02-18.632 23.505-21.212c19.779-2.866 26.659 19.493 26.372 29.812-.287 0-25.225-15.479-49.877-8.6z" fill="url(#j)"/><path fill-rule="evenodd" clip-rule="evenodd" d="M137.447 210.349s-2.58-26.659 13.472-33.538c14.046-6.02 30.385 3.726 35.544 17.485l-49.016 16.053z" fill="url(#k)"/><path d="M163.818 241.594c14.565 0 26.372-13.989 26.372-31.245s-11.807-31.245-26.372-31.245-26.372 13.989-26.372 31.245 11.807 31.245 26.372 31.245z" fill="url(#l)"/><path fill-rule="evenodd" clip-rule="evenodd" d="M183.023 199.171c0 9.459-6.306 17.198-14.332 17.198s-14.333-7.739-14.333-17.198c0-9.46 6.307-17.199 14.333-17.199s14.332 7.739 14.332 17.199z" fill="url(#m)"/><path d="M265.004 241.594c14.565 0 26.372-13.989 26.372-31.245s-11.807-31.245-26.372-31.245c-14.564 0-26.371 13.989-26.371 31.245s11.807 31.245 26.371 31.245z" fill="url(#n)"/><path fill-rule="evenodd" clip-rule="evenodd" d="M283.35 198.598c0 9.46-6.306 17.199-14.333 17.199-8.026 0-14.332-7.739-14.332-17.199 0-9.459 6.306-17.199 14.332-17.199 8.027.287 14.333 7.74 14.333 17.199z" fill="url(#o)"/><path d="M277.33 217.231a4.3 4.3 0 1 0 0-8.6 4.3 4.3 0 0 0 0 8.6z" fill="#fff"/><path fill-rule="evenodd" clip-rule="evenodd" d="M188.469 248.475s1.433 2.293 5.447 2.293c4.299 0 8.312-1.433 15.479-1.433 7.166 0 12.039 1.433 16.052 1.433s5.733-4.013 5.733-4.013-34.685-.286-42.711 1.72z" fill="url(#p)"/><path d="M170.697 220.384a4.3 4.3 0 1 0 0-8.6 4.3 4.3 0 0 0 0 8.6z" fill="#fff"/><path fill-rule="evenodd" clip-rule="evenodd" d="M145.186 158.466s12.039-5.447 21.785-17.773l3.727 8.886s-10.033 11.753-25.512 14.046v-5.159z" fill="url(#q)"/><path fill-rule="evenodd" clip-rule="evenodd" d="M283.35 158.753s-14.906-5.446-27.232-19.778l-3.439 10.319s12.326 13.186 30.958 14.906l-.287-5.447z" fill="url(#r)"/><path fill-rule="evenodd" clip-rule="evenodd" d="M231.466 246.751c-.286 5.16-11.179-.287-22.072 0-10.319.287-20.638 6.306-22.071 0-.287-.573 0-1.72.286-2.866 2.007-6.307 10.893-18.346 21.499-19.492 12.899-.86 22.645 12.325 22.358 22.358z" fill="url(#s)"/><path fill-rule="evenodd" clip-rule="evenodd" d="M231.467 246.751s-3.44-10.319-22.072-9.746c-18.632.573-22.072 9.746-22.072 9.746l.286-2.866c2.007-6.307 10.893-18.346 21.499-19.492 12.899-.86 22.645 12.325 22.359 22.358z" fill="url(#t)"/><path fill-rule="evenodd" clip-rule="evenodd" d="M345.84 100.848l-42.138 13.186s-33.251 3.153-49.017-13.759c-14.332-15.479-30.958-50.737-30.958-50.737s-14.332-3.44-20.638-7.74l-2.007-1.72c-6.019-4.299-23.218-31.244-23.505-32.104l5.733-1.72C193.916 2.241 209.108.808 220.861.521h18.919s1.146 2.58 2.58 6.02c3.153 7.453 8.312 18.919 10.319 20.066 2.866 1.72 15.479 2.58 15.479 2.58s1.433 20.925 12.326 38.123c2.866 4.587 10.033 9.46 18.345 14.046 19.779 10.606 47.011 19.492 47.011 19.492z" fill="url(#u)"/><path fill-rule="evenodd" clip-rule="evenodd" d="M223.727 49.542l9.173-6.02 35.544-14.332s-9.459.86-15.479-2.58l-49.59 14.906c-.287.287 11.752 6.593 20.352 8.026zm42.711 59.048l32.678-27.232s34.684 16.34 47.01 19.492l-42.137 13.186c-.287 0-18.632 2.007-37.551-5.446z" fill="#FFD19F"/><path fill-rule="evenodd" clip-rule="evenodd" d="M335.52 100.563l-30.958 10.892s-16.339 1.147-32.678-7.453a26.076 26.076 0 0 1-3.726-2.293c-1.434-.86-3.154-2.293-4.587-3.726-15.479-14.906-30.385-52.744-30.671-53.89 0 0-13.759-1.147-22.932-5.446-1.147-.574-2.007-1.147-3.153-1.72-6.88-5.16-16.912-32.678-16.912-32.678 21.498-6.306 45.29-3.727 45.29-3.727s9.746 26.945 13.472 29.239c3.727 2.293 15.766 3.153 15.766 3.153.287 1.433 4.873 23.218 14.046 37.55 3.44 5.16 9.746 9.747 16.912 14.046 17.486 9.746 40.131 16.053 40.131 16.053z" fill="url(#v)"/><path opacity=".3" fill-rule="evenodd" clip-rule="evenodd" d="M295.389 84.223l-23.505 19.492-8.313-6.02c-15.479-14.905-30.385-52.743-30.671-53.89l31.818-10.892c.286 1.433 4.873 23.219 14.045 37.551 3.153 5.16 9.46 9.746 16.626 13.76zM248.665 29.76l-38.984 8.6c-1.146-.573-2.006-1.147-3.153-1.72-6.593-4.873-16.625-32.391-16.625-32.391 21.498-6.306 45.29-3.727 45.29-3.727s9.746 26.945 13.472 29.239z" fill="#8863A9"/><path fill-rule="evenodd" clip-rule="evenodd" d="M291.089 114.324s24.652 93.447 21.786 187.468c0 0 2.293-120.106-9.173-187.755l-12.613.287z" fill="url(#w)"/><path fill-rule="evenodd" clip-rule="evenodd" d="M345.84 100.848s28.091 166.542 11.466 254.543l-36.405-1.72s15.766-117.525 0-244.797l24.939-8.026z" fill="url(#x)"/><path fill-rule="evenodd" clip-rule="evenodd" d="M352.719 329.594s8.599-30.958 1.72-82.841l-1.72 82.841z" fill="#fff"/><path fill-rule="evenodd" clip-rule="evenodd" d="M198.502 229.554s3.726 2.006 12.326 2.293c8.313.286 12.326-2.293 12.326-2.293s-12.899-10.606-24.652 0z" fill="url(#y)"/><path opacity=".5" fill-rule="evenodd" clip-rule="evenodd" d="M117.954 141.842l59.623-9.746 10.033-108.64-10.033-15.192s-32.965 4.3-51.883 41.85l-7.74 91.728z" fill="#671B32"/><path opacity=".5" fill-rule="evenodd" clip-rule="evenodd" d="M113.941 301.788l199.22-18.919-1.146 70.516s-45.291 20.925-105.2 20.925c-59.91 0-91.728-22.359-91.728-22.359l-1.146-50.163z" fill="#81282D"/><path fill-rule="evenodd" clip-rule="evenodd" d="M120.248 111.457l12.039-61.63s14.046-30.67 45.29-41.563c0 0-39.271 10.892-51.883 41.85l-5.446 61.343z" fill="url(#z)"/><path fill-rule="evenodd" clip-rule="evenodd" d="M345.839 153.305s-10.319-2.006-14.619-7.453c-6.306-8.026-6.306-21.785-6.306-21.785s0-5.733 5.16-4.586l2.58 6.592-2.007-12.325s4.873-8.313 14.046-5.16l4.873 14.906-1.72-12.613s6.02-1.72 8.886 1.433c0 0-.287 11.753 0 16.053.287 4.299 2.866 7.453 2.866 7.453s-.573-6.02.287-9.46c.573-3.44 3.153-4.586 3.153-4.586s5.733.573 6.593 3.153c0 0-4.013 3.726-4.3 7.166-.286 3.44.574 11.179.574 11.179s-5.733 4.587-8.026 5.447c-2.58 1.146-12.04 4.586-12.04 4.586z" fill="url(#A)"/><path fill-rule="evenodd" clip-rule="evenodd" d="M392.849 192.579c-2.006 9.746-11.465 19.778-21.498 28.091-14.046 11.466-29.525 19.492-29.525 19.492-12.612-4.586-5.16-17.485-5.16-17.485s5.733-2.58 12.9-6.593c13.185-7.453 31.818-19.492 31.531-29.238-.287-22.646-34.971-33.252-34.971-33.252 3.153-14.332 10.319-11.752 10.319-11.752s42.424 22.072 36.404 50.737z" fill="url(#B)"/><path opacity=".74" fill-rule="evenodd" clip-rule="evenodd" d="M371.351 220.666c-14.046 11.466-29.525 19.493-29.525 19.493-12.612-4.587-5.16-17.486-5.16-17.486s5.733-2.58 12.9-6.593c-.287-.287 8.886 4.013 21.785 4.586z" fill="url(#C)"/><defs><linearGradient id="a" x1="108.058" y1="243.193" x2="108.058" y2="128.591" gradientUnits="userSpaceOnUse"><stop offset=".006" stop-color="#E4798B"/><stop offset=".247" stop-color="#ED877F"/><stop offset=".702" stop-color="#FA9C6D"/><stop offset="1" stop-color="#FFA466"/></linearGradient><linearGradient id="b" x1="102.209" y1="243.191" x2="102.209" y2="206.197" gradientUnits="userSpaceOnUse"><stop stop-color="#CA528D"/><stop offset="1" stop-color="#B3757C"/></linearGradient><linearGradient id="c" x1="117.957" y1="140.664" x2="117.957" y2="105.912" gradientUnits="userSpaceOnUse"><stop stop-color="#FFA466"/><stop offset=".298" stop-color="#FA9C6D"/><stop offset=".753" stop-color="#ED877F"/><stop offset=".994" stop-color="#E4798B"/></linearGradient><linearGradient id="d" x1="189.997" y1="177.857" x2="279.838" y2="177.857" gradientUnits="userSpaceOnUse"><stop stop-color="#1C0013"/><stop offset=".994" stop-color="#400A13"/></linearGradient><linearGradient id="e" x1="248.68" y1="445.369" x2="248.68" y2="380.392" gradientUnits="userSpaceOnUse"><stop stop-color="#C9635C"/><stop offset=".971" stop-color="#C95B57"/><stop offset=".994" stop-color="#C95B57"/></linearGradient><linearGradient id="f" x1="227.477" y1="445.368" x2="227.477" y2="379.792" gradientUnits="userSpaceOnUse"><stop stop-color="#FFA466"/><stop offset=".298" stop-color="#FA9C6D"/><stop offset=".753" stop-color="#ED877F"/><stop offset=".994" stop-color="#E4798B"/></linearGradient><linearGradient id="g" x1="272.834" y1="388.596" x2="194.153" y2="388.596" gradientUnits="userSpaceOnUse"><stop stop-color="#CA528D"/><stop offset="1" stop-color="#B3757C"/></linearGradient><radialGradient id="h" cx="0" cy="0" r="1" gradientUnits="userSpaceOnUse" gradientTransform="translate(272.256 84.71) scale(243.147)"><stop offset=".006" stop-color="#842A2C"/><stop offset=".317" stop-color="#81282D"/><stop offset=".559" stop-color="#77232F"/><stop offset=".778" stop-color="#671B32"/><stop offset=".982" stop-color="#4F0E36"/><stop offset="1" stop-color="#4D0D37"/></radialGradient><linearGradient id="i" x1="115.166" y1="369.115" x2="241.809" y2="369.115" gradientUnits="userSpaceOnUse"><stop stop-color="#1C0013"/><stop offset=".994" stop-color="#400A13"/></linearGradient><radialGradient id="j" cx="0" cy="0" r="1" gradientUnits="userSpaceOnUse" gradientTransform="translate(266.314 189.909) scale(20.5871)"><stop offset=".006" stop-color="#3B1400"/><stop offset=".375" stop-color="#391203"/><stop offset=".662" stop-color="#340D0D"/><stop offset=".921" stop-color="#2B041D"/><stop offset="1" stop-color="#270024"/></radialGradient><radialGradient id="k" cx="0" cy="0" r="1" gradientUnits="userSpaceOnUse" gradientTransform="translate(161.7 192.672) scale(21.3862)"><stop offset=".006" stop-color="#3B1400"/><stop offset=".375" stop-color="#391203"/><stop offset=".662" stop-color="#340D0D"/><stop offset=".921" stop-color="#2B041D"/><stop offset="1" stop-color="#270024"/></radialGradient><radialGradient id="l" cx="0" cy="0" r="1" gradientUnits="userSpaceOnUse" gradientTransform="matrix(48.4555 0 0 50.1883 163.682 191.806)"><stop offset=".006" stop-color="#fff"/><stop offset=".241" stop-color="#FDFCFC"/><stop offset=".443" stop-color="#F6F1F3"/><stop offset=".631" stop-color="#ECE0E5"/><stop offset=".811" stop-color="#DCC7D0"/><stop offset=".985" stop-color="#C9A7B6"/><stop offset="1" stop-color="#C7A4B3"/></radialGradient><radialGradient id="m" cx="0" cy="0" r="1" gradientUnits="userSpaceOnUse" gradientTransform="matrix(15.4856 0 0 16.0393 168.711 199.088)"><stop offset=".006" stop-color="#3B1400"/><stop offset=".375" stop-color="#391203"/><stop offset=".662" stop-color="#340D0D"/><stop offset=".921" stop-color="#2B041D"/><stop offset="1" stop-color="#270024"/></radialGradient><radialGradient id="n" cx="0" cy="0" r="1" gradientUnits="userSpaceOnUse" gradientTransform="matrix(48.4555 0 0 50.1883 264.878 191.806)"><stop offset=".006" stop-color="#fff"/><stop offset=".241" stop-color="#FDFCFC"/><stop offset=".443" stop-color="#F6F1F3"/><stop offset=".631" stop-color="#ECE0E5"/><stop offset=".811" stop-color="#DCC7D0"/><stop offset=".985" stop-color="#C9A7B6"/><stop offset="1" stop-color="#C7A4B3"/></radialGradient><radialGradient id="o" cx="0" cy="0" r="1" gradientUnits="userSpaceOnUse" gradientTransform="matrix(15.4856 0 0 16.0393 269.041 198.705)"><stop offset=".006" stop-color="#3B1400"/><stop offset=".375" stop-color="#391203"/><stop offset=".662" stop-color="#340D0D"/><stop offset=".921" stop-color="#2B041D"/><stop offset="1" stop-color="#270024"/></radialGradient><radialGradient id="p" cx="0" cy="0" r="1" gradientUnits="userSpaceOnUse" gradientTransform="translate(191.882 247.268) scale(19.6133)"><stop offset=".006" stop-color="#95452C"/><stop offset=".602" stop-color="#95422F"/><stop offset="1" stop-color="#953B37"/></radialGradient><linearGradient id="q" x1="145.145" y1="152.075" x2="170.679" y2="152.075" gradientUnits="userSpaceOnUse"><stop offset=".006" stop-color="#430900"/><stop offset=".375" stop-color="#410803"/><stop offset=".662" stop-color="#39060D"/><stop offset=".921" stop-color="#2C021D"/><stop offset="1" stop-color="#270024"/></linearGradient><linearGradient id="r" x1="282.991" y1="150.766" x2="252.834" y2="152.449" gradientUnits="userSpaceOnUse"><stop offset=".006" stop-color="#430900"/><stop offset=".375" stop-color="#410803"/><stop offset=".662" stop-color="#39060D"/><stop offset=".921" stop-color="#2C021D"/><stop offset="1" stop-color="#270024"/></linearGradient><linearGradient id="s" x1="209.479" y1="249.634" x2="209.479" y2="224.511" gradientUnits="userSpaceOnUse"><stop offset=".006" stop-color="#CE2E13"/><stop offset=".364" stop-color="#CB2E15"/><stop offset=".642" stop-color="#C1301C"/><stop offset=".892" stop-color="#B13227"/><stop offset="1" stop-color="#A7332D"/></linearGradient><linearGradient id="t" x1="187.539" y1="235.656" x2="231.479" y2="235.656" gradientUnits="userSpaceOnUse"><stop stop-color="#CA528D"/><stop offset="1" stop-color="#B3757C"/></linearGradient><linearGradient id="u" x1="177.439" y1="57.389" x2="345.923" y2="57.389" gradientUnits="userSpaceOnUse"><stop stop-color="#9F3438"/><stop offset=".303" stop-color="#A73B3E"/><stop offset=".766" stop-color="#BC4F4D"/><stop offset=".994" stop-color="#C95B57"/></linearGradient><radialGradient id="v" cx="0" cy="0" r="1" gradientUnits="userSpaceOnUse" gradientTransform="translate(236.329 36.303) scale(92.1144)"><stop offset=".006" stop-color="#fff"/><stop offset=".287" stop-color="#FDFCFC"/><stop offset=".526" stop-color="#F6F1F3"/><stop offset=".75" stop-color="#EBE0E5"/><stop offset=".964" stop-color="#DCC7D0"/><stop offset="1" stop-color="#D9C2CC"/></radialGradient><radialGradient id="w" cx="0" cy="0" r="1" gradientUnits="userSpaceOnUse" gradientTransform="translate(292.97 136.043) scale(82.3663)"><stop offset=".006" stop-color="#9D452C"/><stop offset=".335" stop-color="#9A432D"/><stop offset=".591" stop-color="#903C2F"/><stop offset=".821" stop-color="#803033"/><stop offset="1" stop-color="#6D2237"/></radialGradient><linearGradient id="x" x1="320.9" y1="228.103" x2="362.57" y2="228.103" gradientUnits="userSpaceOnUse"><stop offset=".198"/><stop offset=".41" stop-color="#110909"/><stop offset=".829" stop-color="#3D2121"/><stop offset="1" stop-color="#512C2C"/></linearGradient><radialGradient id="y" cx="0" cy="0" r="1" gradientUnits="userSpaceOnUse" gradientTransform="translate(210.755 228.205) scale(9.05779)"><stop offset=".006" stop-color="#fff"/><stop offset=".241" stop-color="#FDFCFC"/><stop offset=".443" stop-color="#F6F1F3"/><stop offset=".631" stop-color="#ECE0E5"/><stop offset=".811" stop-color="#DCC7D0"/><stop offset=".985" stop-color="#C9A7B6"/><stop offset="1" stop-color="#C7A4B3"/></radialGradient><radialGradient id="z" cx="0" cy="0" r="1" gradientUnits="userSpaceOnUse" gradientTransform="translate(124.911 20.242) scale(51.9105)"><stop offset=".006" stop-color="#A95C2C"/><stop offset=".404" stop-color="#A9592D"/><stop offset=".712" stop-color="#A84F31"/><stop offset=".991" stop-color="#A73F37"/><stop offset="1" stop-color="#A73E37"/></radialGradient><linearGradient id="A" x1="346.985" y1="153.422" x2="346.985" y2="108.498" gradientUnits="userSpaceOnUse"><stop stop-color="#FFA466"/><stop offset=".298" stop-color="#FA9C6D"/><stop offset=".753" stop-color="#ED877F"/><stop offset=".994" stop-color="#E4798B"/></linearGradient><linearGradient id="B" x1="363.878" y1="240.106" x2="363.878" y2="141.418" gradientUnits="userSpaceOnUse"><stop offset=".006" stop-color="#E4798B"/><stop offset=".247" stop-color="#ED877F"/><stop offset=".702" stop-color="#FA9C6D"/><stop offset="1" stop-color="#FFA466"/></linearGradient><linearGradient id="C" x1="352.789" y1="240.102" x2="352.789" y2="215.81" gradientUnits="userSpaceOnUse"><stop stop-color="#CA528D"/><stop offset="1" stop-color="#B3757C"/></linearGradient></defs></svg>