<svg width="226" height="269" viewBox="0 0 226 269" fill="none" xmlns="http://www.w3.org/2000/svg"><path fill-rule="evenodd" clip-rule="evenodd" d="M194.882 148.178s-18.196 18.101-32.304 12.948l-1.978-.792c-13.185-5.946-14.24-19.422-14.24-19.422v-8.721s5.01 13.213 13.053 19.026c2.11 1.586 4.483 2.643 7.121 2.775 11.998.528 24.393-12.023 24.393-12.023s4.483-.397 3.955 6.209z" fill="url(#a)"/><path opacity=".74" fill-rule="evenodd" clip-rule="evenodd" d="M160.6 160.334c-13.186-5.946-14.241-19.422-14.241-19.422v-8.721s5.011 13.213 13.054 19.026c0 .132 0 4.096 1.187 9.117z" fill="url(#b)"/><path fill-rule="evenodd" clip-rule="evenodd" d="M204.376 151.613s-5.802 1.85-11.867-1.453l1.319-14.533 9.757-1.189.791 17.175z" fill="url(#c)"/><path fill-rule="evenodd" clip-rule="evenodd" d="M63.95 207.502H43.117s-2.637-67.911 5.67-149.696c0 0 27.69-12.42 50.105-12.42L63.95 207.503z" fill="url(#d)"/><path fill-rule="evenodd" clip-rule="evenodd" d="M63.95 207.501s-4.615-88.787 2.769-151.149c0 0 30.854-25.632 72.52 1.454 0 0 15.955 78.481 11.472 148.506-.132 0-38.238 17.572-86.76 1.189z" fill="url(#e)"/><path fill-rule="evenodd" clip-rule="evenodd" d="M150.579 206.312s-55.248 24.443-107.594 1.19h20.833s26.635 7.399 40.875 6.606c25.58-1.189 45.886-7.796 45.886-7.796z" fill="#24000A"/><path fill-rule="evenodd" clip-rule="evenodd" d="M80.432 217.014s4.22 34.616 20.306 28.538l-14.9-28.538h-5.406z" fill="url(#f)"/><path fill-rule="evenodd" clip-rule="evenodd" d="M85.706 215.164s2.637 31.577 14.9 30.256c12.262-1.189 14.372-35.806 14.372-35.806s-8.043-1.717-29.272 5.55z" fill="url(#g)"/><path fill-rule="evenodd" clip-rule="evenodd" d="M48.655 57.937l17.932-1.454S78.06 46.31 98.76 45.517c.132 0-22.152-.396-50.105 12.42z" fill="url(#h)"/><path fill-rule="evenodd" clip-rule="evenodd" d="M21.097 125.849c1.582-2.511 1.45-6.607 6.065-9.91 0 0 1.45-2.642-1.45-4.492 0 0-3.824 1.586-6.33 4.757 0 0-.79-7.003-1.713-14.534 0 0-1.978-1.189-4.088-.132l-.132 8.456-3.56-9.249s-3.692-1.717-5.933 2.114l1.055 8.324-2.11-4.228s-2.9-.529-2.9 2.51l2.768 7.796s2.11 11.362 9.757 14.929c0 0 7.12-4.095 8.571-6.341z" fill="url(#i)"/><path fill-rule="evenodd" clip-rule="evenodd" d="M62.5 136.155s1.318-59.851 8.175-77.292c0 0 8.439-11.23 28.085-13.476 0 0-18.987 0-32.173 10.966 0 .132-6.592 36.994-4.087 79.802z" fill="url(#j)"/><path opacity=".5" fill-rule="evenodd" clip-rule="evenodd" d="M115.901 47.895l5.669 70.025h26.503s-4.087-41.223-8.834-59.984c-.132 0-9.098-7.795-23.338-10.041z" fill="#81282D"/><path opacity=".74" fill-rule="evenodd" clip-rule="evenodd" d="M82.542 227.452l4.22-1.982 27.161-5.813 1.187-10.042c-10.021 2.643-17.932 3.435-29.272 7.399h-5.406l2.11 10.438z" fill="url(#k)"/><path fill-rule="evenodd" clip-rule="evenodd" d="M73.84 111.976s5.142-7.927 14.767-8.324v4.228s-6.46.397-12.262 4.889l-2.506-.793z" fill="url(#l)"/><path fill-rule="evenodd" clip-rule="evenodd" d="M135.152 123.472s-6.461-1.321-12.922-6.077v4.227s4.351 2.643 11.208 3.171l1.714-1.321z" fill="url(#m)"/><path fill-rule="evenodd" clip-rule="evenodd" d="M66.587 56.485l-1.186 7.267 13.185-13.873c-5.406 1.321-11.999 6.606-11.999 6.606z" fill="#fff"/><path fill-rule="evenodd" clip-rule="evenodd" d="M101.528 45.518s22.02 0 34.942 14.797c0 0 11.208 36.995 13.054 74.254 0 0-3.297-47.829-10.285-76.764-.132.132-14.768-11.495-37.711-12.287z" fill="url(#n)"/><path fill-rule="evenodd" clip-rule="evenodd" d="M42.985 207.501s-1.978-86.144 5.67-149.695l8.438-.529s-5.801 69.233-3.823 149.828l-10.285.396z" fill="url(#o)"/><path opacity=".5" fill-rule="evenodd" clip-rule="evenodd" d="M62.763 173.018l88.343 24.707-.396 8.72s-40.875 19.025-86.76 1.189c0-.132-2.242-16.119-1.187-34.616z" fill="#81282D"/><path opacity=".5" fill-rule="evenodd" clip-rule="evenodd" d="M19.515 116.205s-4.22 2.247-6.329 6.078c0 0-3.824.661-6.46 0-2.638-.528-2.638-5.285-2.638-5.285s3.692-5.681 13.054-4.096l2.373 3.303z" fill="url(#p)"/><path fill-rule="evenodd" clip-rule="evenodd" d="M42.59 180.68s5.933-1.982 10.284 6.738c4.351 8.72 10.417 7.663 12.13 5.946 1.847-1.85 1.583-4.096 3.165-5.814 1.583-1.717 11.736 7.135 33.228 14.27 21.492 7.134 26.635.66 29.404 0 2.769-.661 1.054 6.87 6.592 7.134 5.538.265 3.165-6.342 4.879-7.663 1.714-1.321 8.307 5.021 8.307 5.021s-22.02 10.966-55.247 11.23c-33.228.265-52.347-10.041-52.347-10.041l-.395-26.821z" fill="url(#q)"/><path opacity=".74" fill-rule="evenodd" clip-rule="evenodd" d="M63.423 194.289l.527 13.345s35.865 17.837 86.761-1.189c0 0-19.646 11.23-57.885 11.23-38.237 0-49.709-10.041-49.709-10.041l-.395-26.953s4.746-1.85 8.175 3.435c3.428 5.285 5.67 9.513 12.526 10.173z" fill="url(#r)"/><path opacity=".74" fill-rule="evenodd" clip-rule="evenodd" d="M42.985 180.68s5.406-.132 8.307 6.078c2.901 6.21 4.615 11.363 9.757 11.495 5.143.132 6.593-9.249 8.571-9.645 1.978-.397 20.57 14.005 35.601 17.704 15.031 3.7 23.998-3.699 25.712-3.303 1.714.397 1.582 5.814 4.746 6.871 3.561 1.189 5.934-.397 6.593-2.246.659-1.982-.527-4.757.659-5.418 1.187-.792 7.78 4.228 7.78 4.228v-1.189s-5.802-5.813-8.439-4.888c-2.637.925-.132 6.077-3.032 6.738-2.901.661-4.879-3.303-6.198-6.474-1.45-3.171-7.515 3.832-17.009 2.378-18.987-2.774-44.303-19.422-47.468-19.29-3.164.132-.923 8.192-8.175 7.796-4.615-.265-8.57-14.534-17.405-10.835z" fill="url(#s)"/><path fill-rule="evenodd" clip-rule="evenodd" d="M107.066 200.894s7.648 2.643 13.318 2.114c5.67-.528 8.307-2.51 8.307-2.51s-2.374.793-9.494 1.321c-6.988.529-12.131-.925-12.131-.925zm-11.339-4.227s6.989-.264 7.78 3.039c.132 0-5.934-2.246-7.78-3.039z" fill="#fff"/><path opacity=".74" fill-rule="evenodd" clip-rule="evenodd" d="M42.985 207.502h20.833s11.603 7.002 39.689 7.531c28.085.528 47.072-8.721 47.072-8.721s-21.888 10.835-53.006 11.231c-39.556.528-54.588-10.041-54.588-10.041z" fill="url(#t)"/><path fill-rule="evenodd" clip-rule="evenodd" d="M52.215 183.455s3.56 6.078 6.724 7.531c0 0-1.186-5.813-6.724-7.531z" fill="#fff"/><path fill-rule="evenodd" clip-rule="evenodd" d="M142.272 142.762s-12.262-4.888-24.261 0v-1.585s12.79-8.852 24.129.396l.132 1.189z" fill="url(#u)"/><path fill-rule="evenodd" clip-rule="evenodd" d="M97.837 142.762s-12.263-4.888-24.262 0v-1.585s12.79-8.852 24.13.396l.132 1.189z" fill="url(#v)"/><path fill-rule="evenodd" clip-rule="evenodd" d="M120.384 150.554c2.373 2.378-3.428 13.08-11.603 13.08-9.23 0-12.658-9.777-12.13-13.08.527-3.303 8.306-.132 12.921-.132s8.702-1.982 10.812.132z" fill="url(#w)"/><path fill-rule="evenodd" clip-rule="evenodd" d="M120.516 154.256c-1.582 1.321-3.297 1.982-5.538 2.378 1.846.132 3.033.132 4.615-.396a9.16 9.16 0 0 0 .923-1.982z" fill="url(#x)"/><path fill-rule="evenodd" clip-rule="evenodd" d="M103.507 156.634s-3.692-.264-6.461-2.378c0 0 .132.925.791 2.114 1.978.264 3.296.396 5.67.264z" fill="url(#y)"/><path fill-rule="evenodd" clip-rule="evenodd" d="M118.143 158.618s-3.692 6.87-9.362 7.134c-5.67.264-10.285-8.191-10.285-8.191s4.351 6.738 10.285 6.077c5.801-.66 9.362-5.02 9.362-5.02z" fill="url(#z)"/><path fill-rule="evenodd" clip-rule="evenodd" d="M54.984 139.195s3.824-1.189 2.11 5.945c0 0-9.098 13.08-20.702 13.08-13.713 0-23.734-25.896-23.734-25.896l5.934-4.492s5.802 18.497 17.405 21.272c10.153 2.378 18.987-9.909 18.987-9.909z" fill="url(#A)"/><path fill-rule="evenodd" clip-rule="evenodd" d="M191.058 81.72l-4.483-9.117h13.713l13.713.661-4.879 8.852s6.066 24.179 3.956 33.692c-2.11 9.513-13.977 13.741-13.977 13.741s-11.735-4.757-13.449-14.402c-1.582-9.513 5.406-33.427 5.406-33.427z" fill="url(#B)"/><path fill-rule="evenodd" clip-rule="evenodd" d="M197.519 149.898l-1.582-21.8 6.329.132-3.56 21.668 8.439 2.907-.132 1.717-18.328-.396v-2.246l8.834-1.982z" fill="url(#C)"/><path fill-rule="evenodd" clip-rule="evenodd" d="M211.628 112.769s-1.187 13.212-12.395 13.08c-8.966-.132-14.504-11.23-11.207-24.443 0 0 1.977 3.7 9.229 6.342a3085.817 3085.817 0 0 1 14.373 5.021z" fill="url(#D)"/><path fill-rule="evenodd" clip-rule="evenodd" d="M211.628 112.77s-12.658-10.173-23.602-11.495c0 0 1.054 4.228 6.197 7.003 5.142 2.907 10.812 2.114 17.405 4.492z" fill="#F64A13"/><path fill-rule="evenodd" clip-rule="evenodd" d="M207.672 81.193s7.12 24.179 4.087 35.674l-7.252 1.453s1.846-27.085-1.846-36.994l5.011-.133zm-16.086 36.732s-1.319-3.568-1.846-10.042l-3.56-1.057s-.66 8.985 2.241 12.552l3.165-1.453z" fill="#fff"/><path fill-rule="evenodd" clip-rule="evenodd" d="M189.081 143.421l1.186-8.456s7.912-1.718 11.208-4.889c0 0 2.373 2.246 1.187 5.153 0 0-3.033 3.303-5.934 3.699 0 0 .923 3.964-1.846 7.267 0 0-4.087 1.586-5.801-2.774z" fill="url(#E)"/><path fill-rule="evenodd" clip-rule="evenodd" d="M209.914 133.908c1.318 1.586 1.186 2.511.659 3.964l-1.714 1.453-1.187 9.117 1.45.793s.66 1.982-.659 3.963c0 0-4.087.397-7.516-1.321 0 0-.263-1.85.792-4.36l-2.374-.66s-.923-3.568 1.714-9.117l1.187-.264s-1.714-2.775.132-5.021l7.516 1.453z" fill="url(#F)"/><path opacity=".74" fill-rule="evenodd" clip-rule="evenodd" d="M208.859 139.456l-6.725-1.981 7.516 1.189-.791.792z" fill="url(#G)"/><path opacity=".74" fill-rule="evenodd" clip-rule="evenodd" d="M201.475 147.912l6.197.529-8.438-1.586 2.241 1.057z" fill="url(#H)"/><path opacity=".55" fill-rule="evenodd" clip-rule="evenodd" d="M136.866 161.525c10.285 1.189 15.295-7.135 17.405-15.723 1.978-7.927 1.451-16.383.396-18.101-1.846-3.039-18.856-4.492-28.481-3.171-2.769.397-4.879 1.057-5.934 1.982-4.614 3.964-3.032 32.899 16.614 35.013z" fill="url(#I)"/><path opacity=".55" fill-rule="evenodd" clip-rule="evenodd" d="M81.223 161.524c8.834.925 14.109-4.096 17.141-10.438 4.351-9.116 3.824-21.139 2.374-23.385-2.11-3.039-20.965-4.625-31.514-3.171-2.9.396-5.142 1.057-6.197 1.849-4.879 4.096-3.165 33.031 18.196 35.145z" fill="url(#J)"/><path fill-rule="evenodd" clip-rule="evenodd" d="M61.972 127.834s-19.25 4.492-21.624 6.738c-2.505 2.246-2.373 8.192-2.373 8.192h1.977s-.659-4.889 1.45-6.606c1.979-1.718 5.67 0 5.67 0l13.713-2.907c0 .132.132-3.832 1.187-5.417z" fill="url(#K)"/><path fill-rule="evenodd" clip-rule="evenodd" d="M136.866 161.527s-8.571.792-15.955-9.381c-7.383-10.042-4.614-23.518-4.087-24.443.396-.925 6.461-2.642 6.461-2.642s-2.901.792-3.428 1.981c-.66 1.057-2.901 14.27 2.109 23.915 4.879 9.38 14.9 10.57 14.9 10.57z" fill="url(#L)"/><path fill-rule="evenodd" clip-rule="evenodd" d="M81.223 161.523s-8.57.793-15.955-9.381c-7.383-10.041-4.614-24.046-4.087-24.971.396-.925 5.933-2.378 5.933-2.378s-2.637.528-3.296 1.718c-.66 1.057-2.373 14.665 2.373 24.31 5.406 10.702 15.032 10.702 15.032 10.702z" fill="url(#M)"/><path fill-rule="evenodd" clip-rule="evenodd" d="M126.186 124.53l28.217 21.272c1.978-7.928 1.45-16.384.395-18.101-1.978-3.039-18.987-4.625-28.612-3.171zm-56.962 0l29.14 26.556c4.351-9.116 3.824-21.139 2.374-23.385-2.11-3.039-20.965-4.625-31.514-3.171z" fill="#fff"/><path fill-rule="evenodd" clip-rule="evenodd" d="M121.307 130.343s-10.68-3.039-20.965 0v2.114s8.571-2.775 20.702 0l.263-2.114z" fill="url(#N)"/><path fill-rule="evenodd" clip-rule="evenodd" d="M201.475 106.295l6.197-66.855 2.242-3.567L226 26.096 224.681 22l-16.086 11.891-3.824 4.36-5.538 66.987 2.242 1.057z" fill="url(#O)"/><path fill-rule="evenodd" clip-rule="evenodd" d="M196.069 68.242l8.307 34.616v3.964l-2.242-3.435-8.438-34.484 2.373-.66z" fill="url(#P)"/><path fill-rule="evenodd" clip-rule="evenodd" d="M185.653 49.613c-11.076 7.003-15.823 19.29-10.681 27.218 5.143 8.06 18.196 8.72 29.14 1.717 11.076-7.002 15.823-19.29 10.681-27.217-5.011-7.927-18.065-8.72-29.14-1.718z" fill="url(#Q)"/><path fill-rule="evenodd" clip-rule="evenodd" d="M212.815 70.356l-21.756-12.42 23.865-6.606s5.538 7.003-2.109 19.026z" fill="#fff"/><path fill-rule="evenodd" clip-rule="evenodd" d="M204.112 44.988l-13.054 12.948 23.866-6.606s-2.901-5.153-10.812-6.342z" fill="#C2A9A9"/><path opacity=".74" fill-rule="evenodd" clip-rule="evenodd" d="M176.159 78.415l14.9-20.347-17.273 7.531s-2.506 6.342 2.373 12.816z" fill="#D4A998"/><path fill-rule="evenodd" clip-rule="evenodd" d="M189.608 57.01c-1.055.66-1.582 1.85-1.055 2.642.528.793 1.714.793 2.769.132 1.055-.66 1.582-1.85 1.055-2.642-.395-.793-1.714-.793-2.769-.133z" fill="url(#R)"/><defs><linearGradient id="a" x1="170.632" y1="162.04" x2="170.632" y2="132.12" gradientUnits="userSpaceOnUse"><stop offset=".006" stop-color="#E4798B"/><stop offset=".247" stop-color="#ED877F"/><stop offset=".702" stop-color="#FA9C6D"/><stop offset="1" stop-color="#FFA466"/></linearGradient><linearGradient id="b" x1="153.487" y1="160.287" x2="153.487" y2="132.12" gradientUnits="userSpaceOnUse"><stop stop-color="#CA528D"/><stop offset="1" stop-color="#B3757C"/></linearGradient><linearGradient id="c" x1="196.497" y1="151.788" x2="202.013" y2="133.884" gradientUnits="userSpaceOnUse"><stop offset=".006" stop-color="#E4798B"/><stop offset=".247" stop-color="#ED877F"/><stop offset=".702" stop-color="#FA9C6D"/><stop offset="1" stop-color="#FFA466"/></linearGradient><linearGradient id="d" x1="42.65" y1="126.522" x2="72.046" y2="126.522" gradientUnits="userSpaceOnUse"><stop stop-color="#1C0013"/><stop offset=".994" stop-color="#400A13"/></linearGradient><radialGradient id="e" cx="0" cy="0" r="1" gradientUnits="userSpaceOnUse" gradientTransform="matrix(87.7669 0 0 109.74 133.224 82.288)"><stop offset=".006" stop-color="#842A2C"/><stop offset=".317" stop-color="#81282D"/><stop offset=".559" stop-color="#77232F"/><stop offset=".778" stop-color="#671B32"/><stop offset=".982" stop-color="#4F0E36"/><stop offset="1" stop-color="#4D0D37"/></radialGradient><linearGradient id="f" x1="94.985" y1="247.296" x2="85.011" y2="215.531" gradientUnits="userSpaceOnUse"><stop stop-color="#C9635C"/><stop offset=".971" stop-color="#C95B57"/><stop offset=".994" stop-color="#C95B57"/></linearGradient><linearGradient id="g" x1="108.948" y1="243.038" x2="98.882" y2="210.978" gradientUnits="userSpaceOnUse"><stop stop-color="#FFA466"/><stop offset=".298" stop-color="#FA9C6D"/><stop offset=".753" stop-color="#ED877F"/><stop offset=".994" stop-color="#E4798B"/></linearGradient><linearGradient id="h" x1="73.775" y1="57.9" x2="73.775" y2="45.482" gradientUnits="userSpaceOnUse"><stop stop-color="#934A38"/><stop offset=".254" stop-color="#9B4C3C"/><stop offset=".642" stop-color="#B05349"/><stop offset=".994" stop-color="#C95B57"/></linearGradient><linearGradient id="i" x1="9.162" y1="131.357" x2="16.476" y2="101.232" gradientUnits="userSpaceOnUse"><stop stop-color="#FFA466"/><stop offset=".298" stop-color="#FA9C6D"/><stop offset=".753" stop-color="#ED877F"/><stop offset=".994" stop-color="#E4798B"/></linearGradient><radialGradient id="j" cx="0" cy="0" r="1" gradientUnits="userSpaceOnUse" gradientTransform="matrix(42.8339 0 0 42.921 64.945 56.112)"><stop offset=".006" stop-color="#95452C"/><stop offset=".36" stop-color="#92422D"/><stop offset=".635" stop-color="#883A30"/><stop offset=".883" stop-color="#782B34"/><stop offset="1" stop-color="#6D2237"/></radialGradient><linearGradient id="k" x1="81.268" y1="223.33" x2="115.917" y2="212.495" gradientUnits="userSpaceOnUse"><stop stop-color="#CA528D"/><stop offset="1" stop-color="#B3757C"/></linearGradient><linearGradient id="l" x1="73.888" y1="108.072" x2="88.642" y2="108.072" gradientUnits="userSpaceOnUse"><stop offset=".006" stop-color="#430900"/><stop offset=".375" stop-color="#410803"/><stop offset=".662" stop-color="#39060D"/><stop offset=".921" stop-color="#2C021D"/><stop offset="1" stop-color="#270024"/></linearGradient><linearGradient id="m" x1="135.186" y1="121.059" x2="122.311" y2="121.059" gradientUnits="userSpaceOnUse"><stop offset=".006" stop-color="#430900"/><stop offset=".375" stop-color="#410803"/><stop offset=".662" stop-color="#39060D"/><stop offset=".921" stop-color="#2C021D"/><stop offset="1" stop-color="#270024"/></linearGradient><radialGradient id="n" cx="0" cy="0" r="1" gradientUnits="userSpaceOnUse" gradientTransform="matrix(44.4405 0 0 44.5308 105.343 55.954)"><stop offset=".006" stop-color="#A95C2C"/><stop offset=".404" stop-color="#A9592D"/><stop offset=".712" stop-color="#A84F31"/><stop offset=".991" stop-color="#A73F37"/><stop offset="1" stop-color="#A73E37"/></radialGradient><linearGradient id="o" x1="42.81" y1="132.452" x2="57.085" y2="132.452" gradientUnits="userSpaceOnUse"><stop stop-color="#512C2C"/><stop offset=".171" stop-color="#3D2121"/><stop offset=".59" stop-color="#110909"/><stop offset=".802"/></linearGradient><linearGradient id="p" x1="10.228" y1="123.165" x2="12.941" y2="111.989" gradientUnits="userSpaceOnUse"><stop stop-color="#CA528D"/><stop offset="1" stop-color="#B3757C"/></linearGradient><radialGradient id="q" cx="0" cy="0" r="1" gradientUnits="userSpaceOnUse" gradientTransform="matrix(57.5396 0 0 57.6566 77.024 192.579)"><stop offset=".006" stop-color="#fff"/><stop offset=".199" stop-color="#FDFCFC"/><stop offset=".363" stop-color="#F6F1F3"/><stop offset=".517" stop-color="#ECE0E5"/><stop offset=".664" stop-color="#DCC7D0"/><stop offset=".806" stop-color="#C9A7B6"/><stop offset=".818" stop-color="#C7A4B3"/><stop offset=".863" stop-color="#CEA4B4"/><stop offset=".927" stop-color="#E1A3B8"/><stop offset="1" stop-color="#FFA2BD"/></radialGradient><linearGradient id="r" x1="42.65" y1="198.965" x2="150.64" y2="198.965" gradientUnits="userSpaceOnUse"><stop stop-color="#CA528D"/><stop offset="1" stop-color="#DDC2C5"/></linearGradient><linearGradient id="s" x1="42.935" y1="195.152" x2="150.64" y2="195.152" gradientUnits="userSpaceOnUse"><stop stop-color="#CA528D"/><stop offset="1" stop-color="#B3757C"/></linearGradient><linearGradient id="t" x1="43.044" y1="211.981" x2="150.64" y2="211.981" gradientUnits="userSpaceOnUse"><stop stop-color="#CA528D"/><stop offset="1" stop-color="#DDC2C5"/></linearGradient><radialGradient id="u" cx="0" cy="0" r="1" gradientUnits="userSpaceOnUse" gradientTransform="matrix(-8.7656 0 0 -8.78342 130.225 140.146)"><stop offset=".006" stop-color="#3B1400"/><stop offset=".375" stop-color="#391203"/><stop offset=".662" stop-color="#340D0D"/><stop offset=".921" stop-color="#2B041D"/><stop offset="1" stop-color="#270024"/></radialGradient><radialGradient id="v" cx="0" cy="0" r="1" gradientUnits="userSpaceOnUse" gradientTransform="matrix(-8.76559 0 0 -8.78342 85.764 140.146)"><stop offset=".006" stop-color="#3B1400"/><stop offset=".375" stop-color="#391203"/><stop offset=".662" stop-color="#340D0D"/><stop offset=".921" stop-color="#2B041D"/><stop offset="1" stop-color="#270024"/></radialGradient><radialGradient id="w" cx="0" cy="0" r="1" gradientUnits="userSpaceOnUse" gradientTransform="matrix(-9.90364 0 0 -10.4947 108.755 156.356)"><stop offset=".006" stop-color="#fff"/><stop offset=".241" stop-color="#FDFCFC"/><stop offset=".443" stop-color="#F6F1F3"/><stop offset=".631" stop-color="#ECE0E5"/><stop offset=".811" stop-color="#DCC7D0"/><stop offset=".985" stop-color="#C9A7B6"/><stop offset="1" stop-color="#C7A4B3"/></radialGradient><radialGradient id="x" cx="0" cy="0" r="1" gradientUnits="userSpaceOnUse" gradientTransform="matrix(-2.1503 0 0 -2.15467 117.788 155.518)"><stop offset=".006" stop-color="#3B1400"/><stop offset=".375" stop-color="#391203"/><stop offset=".662" stop-color="#340D0D"/><stop offset=".921" stop-color="#2B041D"/><stop offset="1" stop-color="#270024"/></radialGradient><radialGradient id="y" cx="0" cy="0" r="1" gradientUnits="userSpaceOnUse" gradientTransform="matrix(-2.41928 0 0 -2.42422 100.248 155.475)"><stop offset=".006" stop-color="#3B1400"/><stop offset=".375" stop-color="#391203"/><stop offset=".662" stop-color="#340D0D"/><stop offset=".921" stop-color="#2B041D"/><stop offset="1" stop-color="#270024"/></radialGradient><radialGradient id="z" cx="0" cy="0" r="1" gradientUnits="userSpaceOnUse" gradientTransform="matrix(-7.51297 0 0 -7.52824 108.313 161.674)"><stop offset=".006" stop-color="#95452C"/><stop offset=".36" stop-color="#92422D"/><stop offset=".635" stop-color="#883A30"/><stop offset=".883" stop-color="#782B34"/><stop offset="1" stop-color="#6D2237"/></radialGradient><linearGradient id="A" x1="35.072" y1="158.15" x2="35.072" y2="127.732" gradientUnits="userSpaceOnUse"><stop offset=".006" stop-color="#E4798B"/><stop offset=".247" stop-color="#ED877F"/><stop offset=".702" stop-color="#FA9C6D"/><stop offset="1" stop-color="#FFA466"/></linearGradient><radialGradient id="B" cx="0" cy="0" r="1" gradientUnits="userSpaceOnUse" gradientTransform="matrix(-22.43649 -.47899 .47996 -22.48208 199.683 101.163)"><stop offset=".006" stop-color="#E0E6FF"/><stop offset=".261" stop-color="#DFE3FC"/><stop offset=".478" stop-color="#DBDAF1"/><stop offset=".682" stop-color="#D6CBE0"/><stop offset=".876" stop-color="#CEB5C7"/><stop offset="1" stop-color="#C7A4B3"/></radialGradient><radialGradient id="C" cx="0" cy="0" r="1" gradientUnits="userSpaceOnUse" gradientTransform="matrix(-11.29893 -.24122 .2417 -11.32182 198.121 141.24)"><stop offset=".006" stop-color="#E0E6FF"/><stop offset=".261" stop-color="#DFE3FC"/><stop offset=".478" stop-color="#DBDAF1"/><stop offset=".682" stop-color="#D6CBE0"/><stop offset=".876" stop-color="#CEB5C7"/><stop offset="1" stop-color="#C7A4B3"/></radialGradient><linearGradient id="D" x1="198.99" y1="125.733" x2="199.507" y2="101.525" gradientUnits="userSpaceOnUse"><stop offset=".006" stop-color="#CE2E13"/><stop offset=".364" stop-color="#CB2E15"/><stop offset=".642" stop-color="#C1301C"/><stop offset=".892" stop-color="#B13227"/><stop offset="1" stop-color="#A7332D"/></linearGradient><linearGradient id="E" x1="192.921" y1="146.619" x2="198.309" y2="129.132" gradientUnits="userSpaceOnUse"><stop stop-color="#FFA466"/><stop offset=".298" stop-color="#FA9C6D"/><stop offset=".753" stop-color="#ED877F"/><stop offset=".994" stop-color="#E4798B"/></linearGradient><linearGradient id="F" x1="210.964" y1="142.875" x2="199.091" y2="142.875" gradientUnits="userSpaceOnUse"><stop offset=".006" stop-color="#E4798B"/><stop offset=".247" stop-color="#ED877F"/><stop offset=".702" stop-color="#FA9C6D"/><stop offset="1" stop-color="#FFA466"/></linearGradient><linearGradient id="G" x1="205.72" y1="138.633" x2="206.054" y2="137.55" gradientUnits="userSpaceOnUse"><stop stop-color="#CA528D"/><stop offset="1" stop-color="#B3757C"/></linearGradient><linearGradient id="H" x1="203.192" y1="148.431" x2="203.564" y2="147.226" gradientUnits="userSpaceOnUse"><stop stop-color="#CA528D"/><stop offset="1" stop-color="#B3757C"/></linearGradient><radialGradient id="I" cx="0" cy="0" r="1" gradientUnits="userSpaceOnUse" gradientTransform="matrix(-25.1188 0 0 -25.1699 137.288 133.41)"><stop offset=".006" stop-color="#FFD700"/><stop offset=".2" stop-color="#FED400"/><stop offset=".365" stop-color="#FBC900"/><stop offset=".52" stop-color="#F6B800"/><stop offset=".669" stop-color="#EF9F00"/><stop offset=".812" stop-color="#E67F00"/><stop offset=".824" stop-color="#E57C00"/><stop offset=".853" stop-color="#E27504"/><stop offset=".896" stop-color="#DA620E"/><stop offset=".946" stop-color="#CE431F"/><stop offset=".959" stop-color="#CA3924"/></radialGradient><radialGradient id="J" cx="0" cy="0" r="1" gradientUnits="userSpaceOnUse" gradientTransform="matrix(-25.8722 0 0 -25.9248 81.68 133.393)"><stop offset=".006" stop-color="#FFD700"/><stop offset=".2" stop-color="#FED400"/><stop offset=".365" stop-color="#FBC900"/><stop offset=".52" stop-color="#F6B800"/><stop offset=".669" stop-color="#EF9F00"/><stop offset=".812" stop-color="#E67F00"/><stop offset=".824" stop-color="#E57C00"/><stop offset=".853" stop-color="#E27504"/><stop offset=".896" stop-color="#DA620E"/><stop offset=".946" stop-color="#CE431F"/><stop offset=".959" stop-color="#CA3924"/></radialGradient><linearGradient id="K" x1="61.97" y1="135.35" x2="37.977" y2="135.35" gradientUnits="userSpaceOnUse"><stop offset=".034" stop-color="#DFCCDC"/><stop offset=".272" stop-color="#9680B7"/><stop offset="1" stop-color="#CFCFCF"/></linearGradient><radialGradient id="L" cx="0" cy="0" r="1" gradientUnits="userSpaceOnUse" gradientTransform="matrix(-21.6318 0 0 -21.6757 126.614 134.172)"><stop offset=".006" stop-color="#FFD700"/><stop offset=".2" stop-color="#FED400"/><stop offset=".365" stop-color="#FBC900"/><stop offset=".52" stop-color="#F6B800"/><stop offset=".669" stop-color="#EF9F00"/><stop offset=".812" stop-color="#E67F00"/><stop offset=".824" stop-color="#E57C00"/><stop offset=".853" stop-color="#E27504"/><stop offset=".896" stop-color="#DA620E"/><stop offset=".946" stop-color="#CE431F"/><stop offset=".959" stop-color="#CA3924"/></radialGradient><radialGradient id="M" cx="0" cy="0" r="1" gradientUnits="userSpaceOnUse" gradientTransform="matrix(-21.7159 0 0 -21.76 70.96 134.045)"><stop offset=".006" stop-color="#FFD700"/><stop offset=".2" stop-color="#FED400"/><stop offset=".365" stop-color="#FBC900"/><stop offset=".52" stop-color="#F6B800"/><stop offset=".669" stop-color="#EF9F00"/><stop offset=".812" stop-color="#E67F00"/><stop offset=".824" stop-color="#E57C00"/><stop offset=".853" stop-color="#E27504"/><stop offset=".896" stop-color="#DA620E"/><stop offset=".946" stop-color="#CE431F"/><stop offset=".959" stop-color="#CA3924"/></radialGradient><linearGradient id="N" x1="121.255" y1="130.74" x2="100.248" y2="130.74" gradientUnits="userSpaceOnUse"><stop offset=".034" stop-color="#DFCCDC"/><stop offset=".272" stop-color="#9680B7"/><stop offset="1" stop-color="#CFCFCF"/></linearGradient><radialGradient id="O" cx="0" cy="0" r="1" gradientUnits="userSpaceOnUse" gradientTransform="matrix(-44.0747 0 0 -44.1643 217.461 49.483)"><stop offset=".006" stop-color="#DBE0FF"/><stop offset=".261" stop-color="#DADDFC"/><stop offset=".478" stop-color="#D7D5F1"/><stop offset=".682" stop-color="#D3C7E0"/><stop offset=".876" stop-color="#CCB4C7"/><stop offset="1" stop-color="#C7A4B3"/></radialGradient><linearGradient id="P" x1="204.314" y1="87.513" x2="193.758" y2="87.513" gradientUnits="userSpaceOnUse"><stop stop-color="#934A38"/><stop offset=".254" stop-color="#9B4C3C"/><stop offset=".642" stop-color="#B05349"/><stop offset=".994" stop-color="#C95B57"/></linearGradient><radialGradient id="Q" cx="0" cy="0" r="1" gradientUnits="userSpaceOnUse" gradientTransform="matrix(-11.11762 -17.46461 17.44968 -11.10811 191.031 54.629)"><stop offset=".006" stop-color="#FFD700"/><stop offset=".258" stop-color="#FCD500"/><stop offset=".473" stop-color="#F1CE00"/><stop offset=".674" stop-color="#E0C200"/><stop offset=".866" stop-color="#C7B100"/><stop offset="1" stop-color="#B1A200"/></radialGradient><radialGradient id="R" cx="0" cy="0" r="1" gradientUnits="userSpaceOnUse" gradientTransform="matrix(-1.0709 -1.68227 1.68082 -1.06998 190.512 58.386)"><stop offset=".006" stop-color="#842A2C"/><stop offset=".317" stop-color="#81282D"/><stop offset=".559" stop-color="#77232F"/><stop offset=".778" stop-color="#671B32"/><stop offset=".982" stop-color="#4F0E36"/><stop offset="1" stop-color="#4D0D37"/></radialGradient></defs></svg>