<svg width="353" height="315" viewBox="0 0 353 315" fill="none" xmlns="http://www.w3.org/2000/svg"><g clip-path="url(#a)"><path fill-rule="evenodd" clip-rule="evenodd" d="M102.333 99.76s-23.824 18.325-25.453 33.8a22.707 22.707 0 0 0 2.036 11.811c4.072 9.163 12.421 15.272 12.421 15.272l-2.443 10.996s-13.847-9.774-19.956-24.028c-1.425-3.258-2.443-6.72-2.85-10.182C64.05 117.882 98.26 90.393 98.26 90.393s5.906 3.258 4.073 9.366z" fill="url(#b)"/><path opacity=".74" fill-rule="evenodd" clip-rule="evenodd" d="M91.54 160.848l-2.443 10.996s-13.846-9.774-19.955-24.028a277.16 277.16 0 0 1 9.774-2.24c4.276 9.163 12.625 15.272 12.625 15.272z" fill="url(#c)"/><path fill-rule="evenodd" clip-rule="evenodd" d="M93.78 98.942s-.203-12.014-6.719-20.362c0 0 4.276-5.906 8.552-4.073.204 0-1.425 20.974-1.832 24.435z" fill="url(#d)"/><path fill-rule="evenodd" clip-rule="evenodd" d="M261.569 251.461l-31.97-1.425-77.581-221.342-9.367-26.268c7.534-1.63 14.865-2.647 21.788-3.055h2.24a62.809 62.809 0 0 1 8.756 0h2.443s.815 1.833 1.833 4.277c2.24 5.294 5.905 13.439 7.331 14.253 2.036 1.222 10.995 1.833 10.995 1.833s1.018 14.865 8.756 27.082c2.037 3.258 7.127 6.72 13.032 9.978 14.051 7.534 33.395 13.847 33.395 13.847 19.345 100.591 8.349 180.82 8.349 180.82z" fill="url(#e)"/><path fill-rule="evenodd" clip-rule="evenodd" d="M201.499 270.398s-10.792 45.001-34.413 45.001l25.861-46.223 8.552 1.222z" fill="url(#f)"/><path fill-rule="evenodd" clip-rule="evenodd" d="M192.947 269.175s-9.774 46.223-25.861 46.223c-19.141 0-21.584-46.223-21.584-46.223s12.828-.815 47.445 0z" fill="url(#g)"/><path opacity=".74" fill-rule="evenodd" clip-rule="evenodd" d="M198.241 281.396l-3.665-1.629-48.056-3.258-.815-7.127c15.883-.611 28.915-.408 47.445 0l8.553 1.018-3.462 10.996z" fill="url(#h)"/><path fill-rule="evenodd" clip-rule="evenodd" d="M229.396 249.833s-70.047 42.151-139.891-.814c0 0-4.276-108.33 7.33-214.42 4.073-12.013 19.752-25.452 40.929-30.95l4.887-1.222c11.403-2.24 24.028-2.24 37.264 1.425 2.24 5.295 5.905 13.44 7.331 14.254 2.036 1.222 10.995 1.833 10.995 1.833s1.019 14.865 8.756 27.082c2.037 3.258 7.127 6.72 13.032 9.978 1.019 6.923 2.24 14.661 3.462 23.213 5.498 42.151 7.738 105.683 5.905 169.621z" fill="url(#i)"/><path fill-rule="evenodd" clip-rule="evenodd" d="M89.505 249.02s53.35 53.35 172.064 2.443l-31.969-1.425s-31.562 14.864-79.007 14.864c-38.486 0-61.088-15.882-61.088-15.882z" fill="url(#j)"/><path fill-rule="evenodd" clip-rule="evenodd" d="M179.304 138.448s4.276-13.235 16.697-15.068c14.05-2.036 18.937 13.847 18.734 21.177-.204 0-17.919-10.996-35.431-6.109z" fill="url(#k)"/><path fill-rule="evenodd" clip-rule="evenodd" d="M105.388 148.427s-1.833-18.938 9.57-23.825c9.978-4.276 21.585 2.648 25.25 12.422l-34.82 11.403z" fill="url(#l)"/><path d="M124.121 170.621c10.346 0 18.734-9.937 18.734-22.195 0-12.258-8.388-22.196-18.734-22.196-10.346 0-18.734 9.938-18.734 22.196 0 12.258 8.388 22.195 18.734 22.195z" fill="url(#m)"/><path fill-rule="evenodd" clip-rule="evenodd" d="M137.764 140.485c0 6.72-4.48 12.218-10.181 12.218-5.702 0-10.182-5.498-10.182-12.218 0-6.719 4.48-12.217 10.182-12.217 5.701 0 10.181 5.498 10.181 12.217z" fill="url(#n)"/><path d="M196.001 170.621c10.346 0 18.734-9.937 18.734-22.195 0-12.258-8.388-22.196-18.734-22.196-10.346 0-18.734 9.938-18.734 22.196 0 12.258 8.388 22.195 18.734 22.195z" fill="url(#o)"/><path fill-rule="evenodd" clip-rule="evenodd" d="M209.033 140.079c0 6.72-4.479 12.218-10.181 12.218-5.702 0-10.181-5.498-10.181-12.218s4.479-12.218 10.181-12.218c5.702.204 10.181 5.498 10.181 12.218z" fill="url(#p)"/><path d="M204.757 153.316a3.054 3.054 0 1 0 0-6.109 3.054 3.054 0 0 0 0 6.109z" fill="#fff"/><path fill-rule="evenodd" clip-rule="evenodd" d="M141.633 175.509s1.018 1.629 3.869 1.629c3.054 0 5.905-1.018 10.996-1.018 5.09 0 8.552 1.018 11.403 1.018 2.85 0 4.072-2.851 4.072-2.851s-24.639-.203-30.34 1.222z" fill="url(#q)"/><path d="M129.008 155.554a3.054 3.054 0 1 0 0-6.109 3.054 3.054 0 0 0 0 6.109z" fill="#fff"/><path fill-rule="evenodd" clip-rule="evenodd" d="M110.885 111.568s8.553-3.869 15.476-12.625l2.647 6.313s-7.127 8.348-18.123 9.977v-3.665z" fill="url(#r)"/><path fill-rule="evenodd" clip-rule="evenodd" d="M209.033 111.773s-10.588-3.869-19.344-14.05l-2.444 7.33s8.756 9.367 21.992 10.589l-.204-3.869z" fill="url(#s)"/><path fill-rule="evenodd" clip-rule="evenodd" d="M172.177 174.284c-.204 3.666-7.942-.203-15.68 0-7.33.204-14.661 4.48-15.679 0-.203-.407 0-1.221.204-2.036 1.425-4.48 7.738-13.032 15.272-13.847 9.163-.61 16.086 8.756 15.883 15.883z" fill="url(#t)"/><path fill-rule="evenodd" clip-rule="evenodd" d="M172.177 174.284s-2.444-7.33-15.679-6.923c-13.236.407-15.68 6.923-15.68 6.923l.204-2.036c1.425-4.48 7.738-13.032 15.272-13.847 9.163-.61 16.087 8.756 15.883 15.883z" fill="url(#u)"/><path fill-rule="evenodd" clip-rule="evenodd" d="M253.424 70.638l-29.933 9.367s-23.621 2.24-34.82-9.774C178.49 59.235 166.679 34.19 166.679 34.19s-10.181-2.443-14.661-5.498l-1.425-1.221c-4.277-3.055-16.494-22.196-16.698-22.807l4.073-1.221c7.534-2.851 18.326-3.87 26.675-4.073h13.439s.815 1.833 1.833 4.276c2.24 5.295 5.905 13.44 7.33 14.254 2.037 1.222 10.996 1.833 10.996 1.833s1.018 14.865 8.756 27.082c2.037 3.258 7.127 6.72 13.032 9.978 14.051 7.534 33.395 13.846 33.395 13.846z" fill="url(#v)"/><path fill-rule="evenodd" clip-rule="evenodd" d="M166.679 34.193l6.516-4.277 25.25-10.181s-6.72.61-10.996-1.833l-35.228 10.589c-.203.204 8.349 4.683 14.458 5.702zM197.02 76.14l23.213-19.345s24.639 11.607 33.395 13.846l-29.933 9.367c-.204 0-13.236 1.426-26.675-3.868z" fill="#FFD19F"/><path fill-rule="evenodd" clip-rule="evenodd" d="M246.093 70.437l-21.991 7.738s-11.607.814-23.214-5.295a18.6 18.6 0 0 1-2.647-1.629c-1.018-.61-2.24-1.629-3.258-2.647-10.996-10.588-21.584-37.467-21.788-38.282 0 0-9.774-.814-16.29-3.869-.815-.407-1.426-.814-2.24-1.221-4.887-3.666-12.014-23.214-12.014-23.214 15.272-4.48 32.173-2.647 32.173-2.647s6.923 19.141 9.57 20.77c2.648 1.63 11.2 2.24 11.2 2.24.203 1.018 3.461 16.494 9.978 26.675 2.443 3.665 6.923 6.923 12.014 9.978 12.421 6.923 28.507 11.403 28.507 11.403z" fill="url(#w)"/><path opacity=".3" fill-rule="evenodd" clip-rule="evenodd" d="M217.585 58.83l-16.697 13.847-5.905-4.277c-10.996-10.588-21.585-37.467-21.788-38.281l22.602-7.738c.204 1.018 3.462 16.494 9.978 26.675 2.24 3.665 6.72 6.923 11.81 9.774zm-33.191-38.689l-27.693 6.109c-.814-.407-1.425-.815-2.24-1.222-4.683-3.462-11.81-23.01-11.81-23.01 15.272-4.48 32.173-2.647 32.173-2.647s6.923 19.141 9.57 20.77z" fill="#8863A9"/><path fill-rule="evenodd" clip-rule="evenodd" d="M214.531 80.213s17.512 66.383 15.476 133.172c0 0 1.629-85.319-6.516-133.375l-8.96.203z" fill="url(#x)"/><path fill-rule="evenodd" clip-rule="evenodd" d="M253.424 70.639s19.956 118.307 8.145 180.82l-25.86-1.222s11.199-83.486 0-173.897l17.715-5.701z" fill="url(#y)"/><path fill-rule="evenodd" clip-rule="evenodd" d="M258.311 233.133s6.109-21.991 1.222-58.848l-1.222 58.848z" fill="#fff"/><path fill-rule="evenodd" clip-rule="evenodd" d="M148.76 162.069s2.647 1.426 8.756 1.629c5.905.204 8.756-1.629 8.756-1.629s-9.164-7.534-17.512 0z" fill="url(#z)"/><path opacity=".5" fill-rule="evenodd" clip-rule="evenodd" d="M91.54 99.761l42.355-6.923 7.127-77.175-7.127-10.792s-23.417 3.054-36.856 29.73L91.54 99.76zm-2.85 113.62l141.52-13.44-.814 50.093s-32.173 14.864-74.731 14.864c-42.558 0-65.16-15.883-65.16-15.883l-.815-35.634z" fill="#81282D"/><path fill-rule="evenodd" clip-rule="evenodd" d="M93.17 78.177l8.552-43.78s9.978-21.788 32.173-29.526c0 0-27.897 7.738-36.856 29.73l-3.87 43.576z" fill="url(#A)"/><path fill-rule="evenodd" clip-rule="evenodd" d="M253.424 107.904s-7.33-1.426-10.385-5.294c-4.48-5.702-4.48-15.476-4.48-15.476s0-4.073 3.666-3.258l1.832 4.683-1.425-8.756s3.462-5.905 9.978-3.665l3.461 10.589-1.222-8.96s4.277-1.222 6.313 1.018c0 0-.204 8.349 0 11.403.204 3.055 2.036 5.295 2.036 5.295s-.407-4.277.204-6.72c.407-2.444 2.24-3.258 2.24-3.258s4.072.407 4.683 2.24c0 0-2.851 2.647-3.054 5.09-.204 2.444.407 7.942.407 7.942s-4.073 3.258-5.702 3.869c-1.832.814-8.552 3.258-8.552 3.258z" fill="url(#B)"/><path fill-rule="evenodd" clip-rule="evenodd" d="M286.819 135.803c-1.426 6.923-8.145 14.05-15.272 19.956-9.978 8.145-20.974 13.846-20.974 13.846-8.959-3.258-3.665-12.421-3.665-12.421s4.072-1.833 9.163-4.683c9.367-5.295 22.603-13.847 22.399-20.77-.204-16.087-24.842-23.621-24.842-23.621 2.239-10.181 7.33-8.349 7.33-8.349s30.137 15.679 25.861 36.042z" fill="url(#C)"/><path opacity=".74" fill-rule="evenodd" clip-rule="evenodd" d="M271.547 155.756c-9.978 8.145-20.974 13.847-20.974 13.847-8.959-3.258-3.665-12.422-3.665-12.422s4.072-1.832 9.163-4.683c-.204-.204 6.312 2.851 15.476 3.258z" fill="url(#D)"/></g><defs><linearGradient id="b" x1="84.511" y1="171.756" x2="84.511" y2="90.347" gradientUnits="userSpaceOnUse"><stop offset=".006" stop-color="#E4798B"/><stop offset=".247" stop-color="#ED877F"/><stop offset=".702" stop-color="#FA9C6D"/><stop offset="1" stop-color="#FFA466"/></linearGradient><linearGradient id="c" x1="80.356" y1="171.757" x2="80.356" y2="145.477" gradientUnits="userSpaceOnUse"><stop stop-color="#CA528D"/><stop offset="1" stop-color="#B3757C"/></linearGradient><linearGradient id="d" x1="91.543" y1="98.923" x2="91.543" y2="74.236" gradientUnits="userSpaceOnUse"><stop stop-color="#FFA466"/><stop offset=".298" stop-color="#FA9C6D"/><stop offset=".753" stop-color="#ED877F"/><stop offset=".994" stop-color="#E4798B"/></linearGradient><linearGradient id="e" x1="142.718" y1="125.345" x2="206.539" y2="125.345" gradientUnits="userSpaceOnUse"><stop stop-color="#1C0013"/><stop offset=".994" stop-color="#400A13"/></linearGradient><linearGradient id="f" x1="184.405" y1="315.377" x2="184.405" y2="269.22" gradientUnits="userSpaceOnUse"><stop stop-color="#C9635C"/><stop offset=".971" stop-color="#C95B57"/><stop offset=".994" stop-color="#C95B57"/></linearGradient><linearGradient id="g" x1="169.343" y1="315.376" x2="169.343" y2="268.792" gradientUnits="userSpaceOnUse"><stop stop-color="#FFA466"/><stop offset=".298" stop-color="#FA9C6D"/><stop offset=".753" stop-color="#ED877F"/><stop offset=".994" stop-color="#E4798B"/></linearGradient><linearGradient id="h" x1="201.563" y1="275.047" x2="145.671" y2="275.047" gradientUnits="userSpaceOnUse"><stop stop-color="#CA528D"/><stop offset="1" stop-color="#B3757C"/></linearGradient><radialGradient id="i" cx="0" cy="0" r="1" gradientUnits="userSpaceOnUse" gradientTransform="translate(201.152 59.174) scale(172.725)"><stop offset=".006" stop-color="#842A2C"/><stop offset=".317" stop-color="#81282D"/><stop offset=".559" stop-color="#77232F"/><stop offset=".778" stop-color="#671B32"/><stop offset=".982" stop-color="#4F0E36"/><stop offset="1" stop-color="#4D0D37"/></radialGradient><linearGradient id="j" x1="89.56" y1="261.208" x2="179.524" y2="261.208" gradientUnits="userSpaceOnUse"><stop stop-color="#1C0013"/><stop offset=".994" stop-color="#400A13"/></linearGradient><radialGradient id="k" cx="0" cy="0" r="1" gradientUnits="userSpaceOnUse" gradientTransform="translate(196.931 133.907) scale(14.6245)"><stop offset=".006" stop-color="#3B1400"/><stop offset=".375" stop-color="#391203"/><stop offset=".662" stop-color="#340D0D"/><stop offset=".921" stop-color="#2B041D"/><stop offset="1" stop-color="#270024"/></radialGradient><radialGradient id="l" cx="0" cy="0" r="1" gradientUnits="userSpaceOnUse" gradientTransform="translate(122.617 135.87) scale(15.1922)"><stop offset=".006" stop-color="#3B1400"/><stop offset=".375" stop-color="#391203"/><stop offset=".662" stop-color="#340D0D"/><stop offset=".921" stop-color="#2B041D"/><stop offset="1" stop-color="#270024"/></radialGradient><radialGradient id="m" cx="0" cy="0" r="1" gradientUnits="userSpaceOnUse" gradientTransform="matrix(34.4214 0 0 35.6524 124.025 135.253)"><stop offset=".006" stop-color="#fff"/><stop offset=".241" stop-color="#FDFCFC"/><stop offset=".443" stop-color="#F6F1F3"/><stop offset=".631" stop-color="#ECE0E5"/><stop offset=".811" stop-color="#DCC7D0"/><stop offset=".985" stop-color="#C9A7B6"/><stop offset="1" stop-color="#C7A4B3"/></radialGradient><radialGradient id="n" cx="0" cy="0" r="1" gradientUnits="userSpaceOnUse" gradientTransform="matrix(11.0005 0 0 11.3939 127.597 140.427)"><stop offset=".006" stop-color="#3B1400"/><stop offset=".375" stop-color="#391203"/><stop offset=".662" stop-color="#340D0D"/><stop offset=".921" stop-color="#2B041D"/><stop offset="1" stop-color="#270024"/></radialGradient><radialGradient id="o" cx="0" cy="0" r="1" gradientUnits="userSpaceOnUse" gradientTransform="matrix(34.4214 0 0 35.6524 195.911 135.253)"><stop offset=".006" stop-color="#fff"/><stop offset=".241" stop-color="#FDFCFC"/><stop offset=".443" stop-color="#F6F1F3"/><stop offset=".631" stop-color="#ECE0E5"/><stop offset=".811" stop-color="#DCC7D0"/><stop offset=".985" stop-color="#C9A7B6"/><stop offset="1" stop-color="#C7A4B3"/></radialGradient><radialGradient id="p" cx="0" cy="0" r="1" gradientUnits="userSpaceOnUse" gradientTransform="matrix(11.0005 0 0 11.3939 198.868 140.155)"><stop offset=".006" stop-color="#3B1400"/><stop offset=".375" stop-color="#391203"/><stop offset=".662" stop-color="#340D0D"/><stop offset=".921" stop-color="#2B041D"/><stop offset="1" stop-color="#270024"/></radialGradient><radialGradient id="q" cx="0" cy="0" r="1" gradientUnits="userSpaceOnUse" gradientTransform="translate(144.057 174.651) scale(13.9328)"><stop offset=".006" stop-color="#95452C"/><stop offset=".602" stop-color="#95422F"/><stop offset="1" stop-color="#953B37"/></radialGradient><linearGradient id="r" x1="110.856" y1="107.028" x2="128.995" y2="107.028" gradientUnits="userSpaceOnUse"><stop offset=".006" stop-color="#430900"/><stop offset=".375" stop-color="#410803"/><stop offset=".662" stop-color="#39060D"/><stop offset=".921" stop-color="#2C021D"/><stop offset="1" stop-color="#270024"/></linearGradient><linearGradient id="s" x1="208.778" y1="106.099" x2="187.355" y2="107.294" gradientUnits="userSpaceOnUse"><stop offset=".006" stop-color="#430900"/><stop offset=".375" stop-color="#410803"/><stop offset=".662" stop-color="#39060D"/><stop offset=".921" stop-color="#2C021D"/><stop offset="1" stop-color="#270024"/></linearGradient><linearGradient id="t" x1="156.558" y1="176.332" x2="156.558" y2="158.486" gradientUnits="userSpaceOnUse"><stop offset=".006" stop-color="#CE2E13"/><stop offset=".364" stop-color="#CB2E15"/><stop offset=".642" stop-color="#C1301C"/><stop offset=".892" stop-color="#B13227"/><stop offset="1" stop-color="#A7332D"/></linearGradient><linearGradient id="u" x1="140.972" y1="166.403" x2="172.186" y2="166.403" gradientUnits="userSpaceOnUse"><stop stop-color="#CA528D"/><stop offset="1" stop-color="#B3757C"/></linearGradient><linearGradient id="v" x1="133.797" y1="39.766" x2="253.483" y2="39.766" gradientUnits="userSpaceOnUse"><stop stop-color="#9F3438"/><stop offset=".303" stop-color="#A73B3E"/><stop offset=".766" stop-color="#BC4F4D"/><stop offset=".994" stop-color="#C95B57"/></linearGradient><radialGradient id="w" cx="0" cy="0" r="1" gradientUnits="userSpaceOnUse" gradientTransform="translate(175.631 24.788) scale(65.4355)"><stop offset=".006" stop-color="#fff"/><stop offset=".287" stop-color="#FDFCFC"/><stop offset=".526" stop-color="#F6F1F3"/><stop offset=".75" stop-color="#EBE0E5"/><stop offset=".964" stop-color="#DCC7D0"/><stop offset="1" stop-color="#D9C2CC"/></radialGradient><radialGradient id="x" cx="0" cy="0" r="1" gradientUnits="userSpaceOnUse" gradientTransform="translate(215.867 95.642) scale(58.5107)"><stop offset=".006" stop-color="#9D452C"/><stop offset=".335" stop-color="#9A432D"/><stop offset=".591" stop-color="#903C2F"/><stop offset=".821" stop-color="#803033"/><stop offset="1" stop-color="#6D2237"/></radialGradient><linearGradient id="y" x1="235.708" y1="161.038" x2="265.309" y2="161.038" gradientUnits="userSpaceOnUse"><stop offset=".198"/><stop offset=".41" stop-color="#110909"/><stop offset=".829" stop-color="#3D2121"/><stop offset="1" stop-color="#512C2C"/></linearGradient><radialGradient id="z" cx="0" cy="0" r="1" gradientUnits="userSpaceOnUse" gradientTransform="translate(157.464 161.111) scale(6.4344)"><stop offset=".006" stop-color="#fff"/><stop offset=".241" stop-color="#FDFCFC"/><stop offset=".443" stop-color="#F6F1F3"/><stop offset=".631" stop-color="#ECE0E5"/><stop offset=".811" stop-color="#DCC7D0"/><stop offset=".985" stop-color="#C9A7B6"/><stop offset="1" stop-color="#C7A4B3"/></radialGradient><radialGradient id="A" cx="0" cy="0" r="1" gradientUnits="userSpaceOnUse" gradientTransform="translate(96.483 13.38) scale(36.8758)"><stop offset=".006" stop-color="#A95C2C"/><stop offset=".404" stop-color="#A9592D"/><stop offset=".712" stop-color="#A84F31"/><stop offset=".991" stop-color="#A73F37"/><stop offset="1" stop-color="#A73E37"/></radialGradient><linearGradient id="B" x1="254.238" y1="107.987" x2="254.238" y2="76.074" gradientUnits="userSpaceOnUse"><stop stop-color="#FFA466"/><stop offset=".298" stop-color="#FA9C6D"/><stop offset=".753" stop-color="#ED877F"/><stop offset=".994" stop-color="#E4798B"/></linearGradient><linearGradient id="C" x1="266.238" y1="169.565" x2="266.238" y2="99.46" gradientUnits="userSpaceOnUse"><stop offset=".006" stop-color="#E4798B"/><stop offset=".247" stop-color="#ED877F"/><stop offset=".702" stop-color="#FA9C6D"/><stop offset="1" stop-color="#FFA466"/></linearGradient><linearGradient id="D" x1="258.361" y1="169.563" x2="258.361" y2="152.306" gradientUnits="userSpaceOnUse"><stop stop-color="#CA528D"/><stop offset="1" stop-color="#B3757C"/></linearGradient><clipPath id="a"><path fill="#fff" d="M0 0h353v315H0z"/></clipPath></defs></svg>