<svg width="1089" height="667" viewBox="0 0 1089 667" fill="none" xmlns="http://www.w3.org/2000/svg">
<path d="M7.19986 488.777L108 521.033L108 557.465L54.1439 573.737L108 590.873V627.305L7.19986 659.561L7.19986 624.569L64.5119 607.001L7.19986 588.425L7.19986 557.177L65.2319 539.609L7.19986 521.033L7.19986 488.777Z" fill="white"/>
<path d="M27.7919 396.609C27.7919 386.913 30.7199 379.137 36.5759 373.281C42.4319 367.329 51.2639 364.353 63.0719 364.353H108V396.897H68.6879C59.6639 396.897 55.1519 400.113 55.1519 406.545C55.1519 410.193 56.4479 413.169 59.0399 415.473C61.5359 417.681 65.5199 418.785 70.9919 418.785H108V451.329H1.15186L1.15186 418.785H35.5679C30.3839 412.737 27.7919 405.345 27.7919 396.609Z" fill="white"/>
<path d="M109.44 278.397C109.44 287.133 107.712 295.005 104.256 302.013C100.704 308.925 95.8559 314.349 89.7119 318.285C83.4719 322.221 76.4159 324.189 68.5439 324.189C60.6719 324.189 53.6639 322.221 47.5199 318.285C41.2799 314.349 36.4319 308.925 32.9759 302.013C29.5199 295.005 27.7919 287.133 27.7919 278.397C27.7919 269.565 29.5199 261.693 32.9759 254.781C36.4319 247.773 41.2799 242.349 47.5199 238.509C53.6639 234.573 60.6719 232.605 68.5439 232.605C76.4159 232.605 83.4719 234.573 89.7119 238.509C95.8559 242.349 100.704 247.773 104.256 254.781C107.712 261.693 109.44 269.565 109.44 278.397ZM84.0959 278.397C84.0959 274.653 82.7519 271.581 80.0639 269.181C77.2799 266.781 73.4399 265.581 68.5439 265.581C63.6479 265.581 59.8559 266.781 57.1679 269.181C54.4799 271.581 53.1359 274.653 53.1359 278.397C53.1359 282.141 54.4799 285.213 57.1679 287.613C59.8559 290.013 63.6479 291.213 68.5439 291.213C73.4399 291.213 77.2799 290.013 80.0639 287.613C82.7519 285.213 84.0959 282.141 84.0959 278.397Z" fill="white"/>
<path fill-rule="evenodd" clip-rule="evenodd" d="M6.19986 487.407L109 520.303L109 558.207L57.5196 573.761L109 590.141V628.035L6.19986 660.931L6.19986 623.829L61.1865 606.974L6.19986 589.152L6.19986 556.435L61.8685 539.582L6.19986 521.763L6.19986 487.407ZM65.2319 539.609L7.19986 557.177L7.19986 588.425L64.5119 607.001L7.19986 624.569L7.19986 659.561L108 627.305V590.873L54.1439 573.737L108 557.465L108 521.033L7.19986 488.777L7.19986 521.033L65.2319 539.609ZM109 363.353V397.897H68.6879C64.2644 397.897 61.1263 398.69 59.1163 400.123C57.1686 401.511 56.1519 403.593 56.1519 406.545C56.1519 409.923 57.3373 412.621 59.7024 414.724C61.9296 416.694 65.6174 417.785 70.9919 417.785H109V452.329H0.151855L0.151855 417.785H33.4805C29.0136 411.86 26.7919 404.785 26.7919 396.609C26.7919 386.698 29.7923 378.652 35.8658 372.577C41.9763 366.368 51.1102 363.353 63.0719 363.353H109ZM36.5759 373.281C30.7199 379.137 27.7919 386.913 27.7919 396.609C27.7919 404.869 30.1092 411.928 34.744 417.785C35.0109 418.122 35.2856 418.455 35.5679 418.785H1.15186L1.15186 451.329H108V418.785H70.9919C65.5199 418.785 61.5359 417.681 59.0399 415.473C56.4479 413.169 55.1519 410.193 55.1519 406.545C55.1519 400.113 59.6639 396.897 68.6879 396.897H108V364.353H63.0719C51.2639 364.353 42.4319 367.329 36.5759 373.281ZM105.149 302.463L105.145 302.47C101.518 309.529 96.5536 315.09 90.2513 319.127L90.2454 319.131C83.8348 323.175 76.5915 325.189 68.5439 325.189C60.4969 325.189 53.2992 323.175 46.9817 319.128C40.5819 315.09 35.6142 309.526 32.0814 302.46L32.079 302.456C28.5475 295.294 26.7919 287.268 26.7919 278.397C26.7919 269.433 28.5463 261.405 32.0801 254.337C35.612 247.176 40.581 241.607 46.9875 237.663C53.3036 233.618 60.4993 231.605 68.5439 231.605C76.5909 231.605 83.8337 233.62 90.2439 237.662C96.5544 241.607 101.521 247.174 105.148 254.329L105.15 254.334C108.685 261.403 110.44 269.432 110.44 278.397C110.44 287.268 108.684 295.294 105.153 302.455L105.149 302.463ZM89.7119 238.509C83.4719 234.573 76.4159 232.605 68.5439 232.605C60.6719 232.605 53.6639 234.573 47.5199 238.509C41.2799 242.349 36.4319 247.773 32.9759 254.781C29.5199 261.693 27.7919 269.565 27.7919 278.397C27.7919 287.133 29.5199 295.005 32.9759 302.013C36.4319 308.925 41.2799 314.349 47.5199 318.285C53.6639 322.221 60.6719 324.189 68.5439 324.189C76.4159 324.189 83.4719 322.221 89.7119 318.285C95.8559 314.349 100.704 308.925 104.256 302.013C107.712 295.005 109.44 287.133 109.44 278.397C109.44 269.565 107.712 261.693 104.256 254.781C100.704 247.773 95.8559 242.349 89.7119 238.509ZM80.0639 269.181C77.2799 266.781 73.4399 265.581 68.5439 265.581C63.6479 265.581 59.8559 266.781 57.1679 269.181C54.4799 271.581 53.1359 274.653 53.1359 278.397C53.1359 282.141 54.4799 285.213 57.1679 287.613C59.8559 290.013 63.6479 291.213 68.5439 291.213C73.4399 291.213 77.2799 290.013 80.0639 287.613C82.7519 285.213 84.0959 282.141 84.0959 278.397C84.0959 274.653 82.7519 271.581 80.0639 269.181ZM79.4044 286.861C76.8552 289.056 73.2766 290.213 68.5439 290.213C63.8046 290.213 60.2817 289.053 57.8339 286.867C55.3676 284.665 54.1359 281.869 54.1359 278.397C54.1359 274.925 55.3676 272.129 57.8339 269.927C60.2817 267.742 63.8046 266.581 68.5439 266.581C73.2766 266.581 76.8552 267.739 79.4044 269.933C81.8663 272.134 83.0959 274.929 83.0959 278.397C83.0959 281.866 81.8663 284.66 79.4044 286.861Z" fill="white"/>
<path d="M436.304 615.208C436.304 623.56 435.392 631.72 433.568 639.688C431.648 647.56 429.104 654.04 425.936 659.128L401.168 648.184C403.952 643.384 406.208 638.008 407.936 632.056C409.568 626.104 410.384 620.392 410.384 614.92C410.384 610.216 409.952 606.856 409.088 604.84C408.128 602.824 406.736 601.816 404.912 601.816C402.8 601.816 401.216 603.16 400.16 605.848C399.104 608.44 397.952 612.76 396.704 618.808C395.072 626.584 393.344 633.064 391.52 638.248C389.6 643.432 386.528 647.944 382.304 651.784C377.984 655.624 372.176 657.544 364.88 657.544C358.544 657.544 352.784 655.768 347.6 652.216C342.416 648.664 338.336 643.384 335.36 636.376C332.384 629.272 330.896 620.68 330.896 610.6C330.896 603.688 331.664 596.92 333.2 590.296C334.64 583.576 336.8 577.672 339.68 572.584L364.304 582.808C359.312 592.696 356.816 602.056 356.816 610.888C356.816 619.624 358.928 623.992 363.152 623.992C365.168 623.992 366.704 622.696 367.76 620.104C368.72 617.512 369.776 613.24 370.928 607.288C372.368 599.608 374.048 593.128 375.968 587.848C377.792 582.568 380.816 578.008 385.04 574.168C389.264 570.232 395.024 568.264 402.32 568.264C408.656 568.264 414.416 570.04 419.6 573.592C424.688 577.144 428.768 582.472 431.84 589.576C434.816 596.584 436.304 605.128 436.304 615.208Z" fill="white"/>
<path d="M353.792 495.079C353.792 481.255 356.912 470.695 363.152 463.399C369.296 456.103 378.8 452.455 391.664 452.455H434V482.695H423.632C431.504 486.439 435.44 493.879 435.44 505.015C435.44 511.255 434.384 516.583 432.272 520.999C430.064 525.319 427.136 528.631 423.488 530.935C419.744 533.143 415.568 534.247 410.96 534.247C403.184 534.247 397.28 531.271 393.248 525.319C389.216 519.367 387.2 510.343 387.2 498.247V485.143C381.056 486.199 377.984 491.143 377.984 499.975C377.984 503.527 378.56 507.127 379.712 510.775C380.768 514.423 382.256 517.543 384.176 520.135L362.72 530.503C359.936 525.991 357.776 520.567 356.24 514.231C354.608 507.799 353.792 501.415 353.792 495.079ZM415.856 495.223C415.856 492.919 415.232 490.855 413.984 489.031C412.736 487.207 410.864 485.863 408.368 484.999H402.896V493.063C402.896 499.687 405.104 502.999 409.52 502.999C411.344 502.999 412.88 502.327 414.128 500.983C415.28 499.543 415.856 497.623 415.856 495.223Z" fill="white"/>
<path d="M355.232 323.301L435.584 355.701C445.856 359.829 453.056 364.965 457.184 371.109C461.312 377.253 463.376 384.789 463.376 393.717C463.376 398.133 462.704 402.597 461.36 407.109C460.112 411.525 458.432 415.029 456.32 417.621L434 406.821C435.248 405.189 436.256 403.365 437.024 401.349C437.792 399.237 438.176 397.221 438.176 395.301C438.176 391.749 437.12 389.061 435.008 387.237L355.232 420.357V386.949L397.424 370.677L355.232 354.117V323.301Z" fill="white"/>
<path d="M435.44 260.115C435.44 266.835 434.72 273.459 433.28 279.987C431.84 286.515 429.968 291.795 427.664 295.827L406.208 286.899C408.416 283.251 410.144 278.931 411.392 273.939C412.64 268.947 413.264 264.099 413.264 259.395C413.264 255.651 412.976 253.059 412.4 251.619C411.728 250.083 410.768 249.315 409.52 249.315C408.272 249.315 407.408 250.275 406.928 252.195C406.448 254.019 405.968 257.043 405.488 261.267C404.72 267.699 403.76 273.171 402.608 277.683C401.36 282.195 399.008 286.179 395.552 289.635C392.096 292.995 387.152 294.675 380.72 294.675C375.632 294.675 371.072 293.139 367.04 290.067C363.008 286.995 359.792 282.435 357.392 276.387C354.992 270.243 353.792 262.899 353.792 254.355C353.792 248.403 354.368 242.595 355.52 236.931C356.576 231.171 358.16 226.275 360.272 222.243L381.728 231.171C377.888 238.083 375.968 245.667 375.968 253.923C375.968 261.027 377.216 264.579 379.712 264.579C380.96 264.579 381.872 263.619 382.448 261.699C382.928 259.779 383.408 256.755 383.888 252.627C384.656 246.195 385.664 240.771 386.912 236.355C388.16 231.843 390.512 227.907 393.968 224.547C397.424 221.091 402.368 219.363 408.8 219.363C413.696 219.363 418.16 220.899 422.192 223.971C426.224 227.043 429.44 231.651 431.84 237.795C434.24 243.939 435.44 251.379 435.44 260.115Z" fill="white"/>
<path fill-rule="evenodd" clip-rule="evenodd" d="M434.541 639.918L434.54 639.925C432.603 647.866 430.025 654.453 426.785 659.657L426.326 660.394L399.743 648.648L400.303 647.682C403.041 642.962 405.266 637.665 406.974 631.784C408.584 625.91 409.384 620.29 409.384 614.92C409.384 610.247 408.95 607.07 408.177 605.252C407.75 604.361 407.26 603.76 406.737 603.382C406.223 603.009 405.627 602.816 404.912 602.816C404.089 602.816 403.395 603.071 402.787 603.586C402.16 604.118 401.581 604.967 401.091 606.214L401.086 606.225C400.067 608.726 398.93 612.968 397.683 619.01L397.683 619.013C396.045 626.815 394.307 633.341 392.463 638.58L392.461 638.588L392.458 638.595C390.48 643.934 387.315 648.58 382.977 652.524L382.968 652.531C378.421 656.573 372.354 658.544 364.88 658.544C358.344 658.544 352.387 656.708 347.035 653.041C341.663 649.36 337.474 643.913 334.44 636.767L334.438 636.762C331.397 629.505 329.896 620.774 329.896 610.6C329.896 603.616 330.672 596.775 332.224 590.078C333.682 583.279 335.873 577.28 338.81 572.091L339.246 571.321L365.682 582.297L365.197 583.259C360.258 593.042 357.816 602.247 357.816 610.888C357.816 615.207 358.343 618.301 359.3 620.281C359.772 621.257 360.331 621.924 360.948 622.35C361.556 622.769 362.278 622.992 363.152 622.992C363.925 622.992 364.584 622.751 365.171 622.256C365.774 621.747 366.34 620.935 366.828 619.741C367.756 617.231 368.797 613.034 369.945 607.102C371.391 599.392 373.082 592.859 375.025 587.514C376.905 582.077 380.022 577.38 384.363 573.432C388.817 569.284 394.843 567.264 402.32 567.264C408.856 567.264 414.813 569.1 420.165 572.767L420.172 572.772C425.446 576.454 429.63 581.947 432.758 589.179L432.76 589.185C435.803 596.35 437.304 605.035 437.304 615.208C437.304 623.633 436.384 631.868 434.543 639.911L434.541 639.918ZM370.928 607.288C369.776 613.24 368.72 617.512 367.76 620.104C366.704 622.696 365.168 623.992 363.152 623.992C358.928 623.992 356.816 619.624 356.816 610.888C356.816 602.324 359.163 593.263 363.857 583.705C364.004 583.407 364.153 583.108 364.304 582.808L339.68 572.584C336.8 577.672 334.64 583.576 333.2 590.296C331.664 596.92 330.896 603.688 330.896 610.6C330.896 620.68 332.384 629.272 335.36 636.376C338.336 643.384 342.416 648.664 347.6 652.216C352.784 655.768 358.544 657.544 364.88 657.544C372.176 657.544 377.984 655.624 382.304 651.784C386.528 647.944 389.6 643.432 391.52 638.248C393.344 633.064 395.072 626.584 396.704 618.808C397.952 612.76 399.104 608.44 400.16 605.848C401.216 603.16 402.8 601.816 404.912 601.816C406.736 601.816 408.128 602.824 409.088 604.84C409.952 606.856 410.384 610.216 410.384 614.92C410.384 620.392 409.568 626.104 407.936 632.056C406.312 637.649 404.222 642.734 401.665 647.31C401.501 647.604 401.336 647.895 401.168 648.184L425.936 659.128C429.104 654.04 431.648 647.56 433.568 639.688C435.392 631.72 436.304 623.56 436.304 615.208C436.304 605.128 434.816 596.584 431.84 589.576C428.768 582.472 424.688 577.144 419.6 573.592C414.416 570.04 408.656 568.264 402.32 568.264C395.024 568.264 389.264 570.232 385.04 574.168C380.816 578.008 377.792 582.568 375.968 587.848C374.048 593.128 372.368 599.608 370.928 607.288ZM362.72 530.503C359.936 525.991 357.776 520.567 356.24 514.231C354.608 507.799 353.792 501.415 353.792 495.079C353.792 481.255 356.912 470.695 363.152 463.399C369.296 456.103 378.8 452.455 391.664 452.455H434V482.695H423.632C424.28 483.004 424.902 483.337 425.496 483.695C432.125 487.69 435.44 494.796 435.44 505.015C435.44 511.255 434.384 516.583 432.272 520.999C430.064 525.319 427.136 528.631 423.488 530.935C419.744 533.143 415.568 534.247 410.96 534.247C403.184 534.247 397.28 531.271 393.248 525.319C389.216 519.367 387.2 510.343 387.2 498.247V485.143C386.857 485.202 386.524 485.273 386.2 485.356C380.723 486.763 377.984 491.636 377.984 499.975C377.984 503.527 378.56 507.127 379.712 510.775C380.658 514.043 381.951 516.887 383.59 519.308C383.781 519.589 383.976 519.865 384.176 520.135L362.72 530.503ZM386.2 486.392C383.98 487.019 382.313 488.279 381.137 490.171C379.738 492.423 378.984 495.656 378.984 499.975C378.984 503.418 379.542 506.916 380.666 510.474L380.669 510.486L380.673 510.497C381.701 514.051 383.142 517.059 384.98 519.54L385.698 520.51L362.343 531.796L361.869 531.028C359.02 526.41 356.825 520.886 355.269 514.472C353.619 507.965 352.792 501.501 352.792 495.079C352.792 481.122 355.94 470.295 362.389 462.753C368.784 455.161 378.615 451.455 391.664 451.455H435V483.695H427.323C433.446 488.036 436.44 495.226 436.44 505.015C436.44 511.365 435.366 516.848 433.174 521.431L433.168 521.443L433.162 521.454C430.883 525.914 427.84 529.37 424.022 531.781L424.009 531.789L423.996 531.797C420.089 534.101 415.735 535.247 410.96 535.247C402.884 535.247 396.655 532.132 392.42 525.88C388.223 519.684 386.2 510.421 386.2 498.247V486.392ZM414.856 495.223C414.856 493.112 414.288 491.246 413.159 489.596C412.079 488.018 410.45 486.808 408.197 485.999H403.896V493.063C403.896 496.296 404.44 498.545 405.384 499.961C406.28 501.304 407.603 501.999 409.52 501.999C411.052 501.999 412.315 501.453 413.37 500.33C414.328 499.117 414.856 497.448 414.856 495.223ZM414.128 500.983C412.88 502.327 411.344 502.999 409.52 502.999C405.104 502.999 402.896 499.687 402.896 493.063V484.999H408.368C410.864 485.863 412.736 487.207 413.984 489.031C415.232 490.855 415.856 492.919 415.856 495.223C415.856 497.623 415.28 499.543 414.128 500.983ZM354.232 321.819L435.957 354.773C446.328 358.941 453.731 364.177 458.014 370.551C462.274 376.891 464.376 384.632 464.376 393.717C464.376 398.234 463.689 402.791 462.32 407.388C461.048 411.886 459.318 415.524 457.095 418.253L456.596 418.865L432.461 407.187L433.206 406.213C434.391 404.664 435.352 402.927 436.087 400.999C436.82 398.982 437.176 397.084 437.176 395.301C437.176 392.234 436.347 389.982 434.796 388.407L354.232 421.855V386.263L394.666 370.669L354.232 354.799V321.819ZM397.424 370.677L355.232 386.949V420.357L435.008 387.237C437.12 389.061 438.176 391.749 438.176 395.301C438.176 397.221 437.792 399.237 437.024 401.349C436.382 403.033 435.574 404.583 434.597 405.999C434.405 406.278 434.206 406.552 434 406.821L456.32 417.621C458.432 415.029 460.112 411.525 461.36 407.109C462.704 402.597 463.376 398.133 463.376 393.717C463.376 384.789 461.312 377.253 457.184 371.109C453.056 364.965 445.856 359.829 435.584 355.701L355.232 323.301V354.117L397.424 370.677ZM428.094 297.089L404.751 287.376L405.353 286.381C407.499 282.834 409.193 278.611 410.422 273.697C411.652 268.777 412.264 264.01 412.264 259.395C412.264 255.663 411.971 253.252 411.477 252.005C410.901 250.696 410.227 250.315 409.52 250.315C409.191 250.315 408.929 250.427 408.679 250.704C408.4 251.015 408.118 251.559 407.898 252.438L407.895 252.45C407.435 254.198 406.961 257.16 406.482 261.38L406.481 261.386C405.71 267.846 404.743 273.363 403.577 277.931L403.574 277.94L403.572 277.95C402.276 282.636 399.832 286.77 396.259 290.342L396.249 290.352C392.551 293.948 387.323 295.675 380.72 295.675C375.414 295.675 370.641 294.068 366.434 290.863C362.222 287.653 358.911 282.926 356.463 276.756L356.461 276.751C354.004 270.462 352.792 262.989 352.792 254.355C352.792 248.342 353.374 242.47 354.538 236.741C355.607 230.913 357.218 225.919 359.386 221.779L359.811 220.968L383.146 230.678L382.602 231.657C378.848 238.414 376.968 245.829 376.968 253.923C376.968 257.444 377.281 259.971 377.847 261.584C378.129 262.386 378.45 262.892 378.762 263.188C379.051 263.462 379.354 263.579 379.712 263.579C380.044 263.579 380.327 263.465 380.607 263.17C380.911 262.85 381.221 262.301 381.484 261.434C381.945 259.578 382.417 256.616 382.895 252.512L382.895 252.509C383.667 246.045 384.683 240.566 385.949 236.085C385.949 236.084 385.95 236.084 385.95 236.083L386.912 236.355M393.968 224.547C397.424 221.091 402.368 219.363 408.8 219.363C413.696 219.363 418.16 220.899 422.192 223.971C426.224 227.043 429.44 231.651 431.84 237.795C434.24 243.939 435.44 251.379 435.44 260.115C435.44 266.835 434.72 273.459 433.28 279.987C431.84 286.515 429.968 291.795 427.664 295.827L406.208 286.899C406.381 286.613 406.551 286.323 406.719 286.029C408.684 282.57 410.242 278.54 411.392 273.939C412.64 268.947 413.264 264.099 413.264 259.395C413.264 255.651 412.976 253.059 412.4 251.619C411.728 250.083 410.768 249.315 409.52 249.315C408.272 249.315 407.408 250.275 406.928 252.195C406.448 254.019 405.968 257.043 405.488 261.267C404.72 267.699 403.76 273.171 402.608 277.683C401.36 282.195 399.008 286.179 395.552 289.635C392.096 292.995 387.152 294.675 380.72 294.675C375.632 294.675 371.072 293.139 367.04 290.067C363.008 286.995 359.792 282.435 357.392 276.387C354.992 270.243 353.792 262.899 353.792 254.355C353.792 248.403 354.368 242.595 355.52 236.931C356.576 231.171 358.16 226.275 360.272 222.243L381.728 231.171C381.565 231.465 381.405 231.759 381.249 232.055C377.728 238.728 375.968 246.018 375.968 253.923C375.968 261.027 377.216 264.579 379.712 264.579C380.96 264.579 381.872 263.619 382.448 261.699C382.928 259.779 383.408 256.755 383.888 252.627M393.266 223.835C396.963 220.141 402.193 218.363 408.8 218.363C413.923 218.363 418.598 219.976 422.798 223.176C427.014 226.388 430.324 231.167 432.771 237.431C435.229 243.722 436.44 251.293 436.44 260.115C436.44 266.907 435.712 273.604 434.257 280.203C432.803 286.79 430.903 292.175 428.532 296.323L428.094 297.089" fill="white"/>
<path d="M723.424 592.889H760V626.873H722.992L659.2 664.889V629.033L694.048 608.441L659.2 587.705V554.873L723.424 592.889Z" fill="white"/>
<path d="M761.44 489.728C761.44 498.464 759.712 506.336 756.256 513.344C752.704 520.256 747.856 525.68 741.712 529.616C735.472 533.552 728.416 535.52 720.544 535.52C712.672 535.52 705.664 533.552 699.52 529.616C693.28 525.68 688.432 520.256 684.976 513.344C681.52 506.336 679.792 498.464 679.792 489.728C679.792 480.896 681.52 473.024 684.976 466.112C688.432 459.104 693.28 453.68 699.52 449.84C705.664 445.904 712.672 443.936 720.544 443.936C728.416 443.936 735.472 445.904 741.712 449.84C747.856 453.68 752.704 459.104 756.256 466.112C759.712 473.024 761.44 480.896 761.44 489.728ZM736.096 489.728C736.096 485.984 734.752 482.912 732.064 480.512C729.28 478.112 725.44 476.912 720.544 476.912C715.648 476.912 711.856 478.112 709.168 480.512C706.48 482.912 705.136 485.984 705.136 489.728C705.136 493.472 706.48 496.544 709.168 498.944C711.856 501.344 715.648 502.544 720.544 502.544C725.44 502.544 729.28 501.344 732.064 498.944C734.752 496.544 736.096 493.472 736.096 489.728Z" fill="white"/>
<path d="M681.232 318.839H760V349.799H752.512C755.488 352.679 757.744 356.039 759.28 359.879C760.72 363.719 761.44 367.799 761.44 372.119C761.44 382.103 758.416 390.119 752.368 396.167C746.224 402.215 737.008 405.239 724.72 405.239H681.232V372.695H719.104C724.48 372.695 728.32 371.831 730.624 370.103C732.928 368.375 734.08 365.831 734.08 362.471C734.08 359.303 732.832 356.663 730.336 354.551C727.744 352.439 723.712 351.383 718.24 351.383H681.232V318.839Z" fill="white"/>
<path fill-rule="evenodd" clip-rule="evenodd" d="M723.424 592.888H760V626.872H722.992L659.2 664.888V629.032L694.048 608.44L659.2 587.704V554.872L723.424 592.888ZM692.087 608.437L658.2 628.462V666.648L723.267 627.872H761V591.888H723.698L658.2 553.118V588.273L692.087 608.437ZM757.149 513.794L757.145 513.801C753.518 520.86 748.554 526.421 742.251 530.458L742.245 530.462C735.835 534.506 728.592 536.52 720.544 536.52C712.498 536.52 705.301 534.506 698.984 530.46C692.583 526.422 687.615 520.857 684.082 513.791L684.079 513.786C680.548 506.625 678.792 498.599 678.792 489.728C678.792 480.764 680.546 472.736 684.08 465.668C687.612 458.506 692.581 452.938 698.988 448.993C705.304 444.949 712.5 442.936 720.544 442.936C728.591 442.936 735.834 444.95 742.244 448.993C748.554 452.938 753.521 458.505 757.148 465.66L757.15 465.665C760.685 472.734 762.44 480.763 762.44 489.728C762.44 498.599 760.684 506.625 757.153 513.786L757.149 513.794ZM699.52 449.84C693.28 453.68 688.432 459.104 684.976 466.112C681.52 473.024 679.792 480.896 679.792 489.728C679.792 498.464 681.52 506.336 684.976 513.344C688.432 520.256 693.28 525.68 699.52 529.616C705.664 533.552 712.672 535.52 720.544 535.52C728.416 535.52 735.472 533.552 741.712 529.616C747.856 525.68 752.704 520.256 756.256 513.344C759.712 506.336 761.44 498.464 761.44 489.728C761.44 480.896 759.712 473.024 756.256 466.112C752.704 459.104 747.856 453.68 741.712 449.84C735.472 445.904 728.416 443.936 720.544 443.936C712.672 443.936 705.664 445.904 699.52 449.84ZM732.064 480.512C729.28 478.112 725.44 476.912 720.544 476.912C715.648 476.912 711.856 478.112 709.168 480.512C706.48 482.912 705.136 485.984 705.136 489.728C705.136 493.472 706.48 496.544 709.168 498.944C711.856 501.344 715.648 502.544 720.544 502.544C725.44 502.544 729.28 501.344 732.064 498.944C734.752 496.544 736.096 493.472 736.096 489.728C736.096 485.984 734.752 482.912 732.064 480.512ZM731.404 498.192C728.855 500.387 725.277 501.544 720.544 501.544C715.805 501.544 712.282 500.384 709.834 498.198C707.368 495.996 706.136 493.2 706.136 489.728C706.136 486.256 707.368 483.46 709.834 481.258C712.282 479.073 715.805 477.912 720.544 477.912C725.277 477.912 728.855 479.07 731.404 481.264C733.866 483.465 735.096 486.259 735.096 489.728C735.096 493.197 733.866 495.991 731.404 498.192ZM680.232 317.838H761V350.798H754.852C757.13 353.372 758.916 356.277 760.208 359.507L760.212 359.517L760.216 359.527C761.701 363.485 762.44 367.685 762.44 372.118C762.44 382.32 759.342 390.607 753.075 396.874L753.069 396.879C746.671 403.177 737.158 406.238 724.72 406.238H680.232V371.694H719.104C724.426 371.694 727.989 370.829 730.024 369.302C732.032 367.796 733.08 365.575 733.08 362.47C733.08 359.61 731.972 357.248 729.697 355.32C727.365 353.424 723.612 352.382 718.24 352.382H680.232V317.838ZM753.498 350.798C753.179 350.459 752.85 350.126 752.512 349.798H760V318.838H681.232V351.382H718.24C723.712 351.382 727.744 352.438 730.336 354.55C732.832 356.662 734.08 359.302 734.08 362.47C734.08 365.83 732.928 368.374 730.624 370.102C728.32 371.83 724.48 372.694 719.104 372.694H681.232V405.238H724.72C737.008 405.238 746.224 402.214 752.368 396.166C758.416 390.118 761.44 382.102 761.44 372.118C761.44 367.798 760.72 363.718 759.28 359.878C757.918 356.475 755.991 353.448 753.498 350.798Z" fill="white"/>
<path d="M1087.44 611.465C1087.44 620.393 1085.71 628.409 1082.26 635.513C1078.8 642.521 1073.95 648.041 1067.71 652.073C1061.47 656.009 1054.42 657.977 1046.54 657.977C1038.67 657.977 1031.66 656.009 1025.52 652.073C1019.28 648.041 1014.43 642.521 1010.98 635.513C1007.52 628.409 1005.79 620.393 1005.79 611.465C1005.79 601.865 1007.86 593.657 1011.98 586.841C1016.11 580.025 1021.82 575.321 1029.12 572.729L1041.5 597.929C1034.59 601.001 1031.14 605.561 1031.14 611.609C1031.14 615.449 1032.48 618.665 1035.17 621.257C1037.86 623.753 1041.65 625.001 1046.54 625.001C1051.54 625.001 1055.38 623.753 1058.06 621.257C1060.75 618.665 1062.1 615.449 1062.1 611.609C1062.1 605.561 1058.64 601.001 1051.73 597.929L1064.11 572.729C1071.41 575.321 1077.12 580.025 1081.25 586.841C1085.38 593.657 1087.44 601.865 1087.44 611.465Z" fill="white"/>
<path d="M1005.79 501.127C1005.79 487.303 1008.91 476.743 1015.15 469.447C1021.3 462.151 1030.8 458.503 1043.66 458.503H1086V488.743H1075.63C1083.5 492.487 1087.44 499.927 1087.44 511.063C1087.44 517.303 1086.38 522.631 1084.27 527.047C1082.06 531.367 1079.14 534.679 1075.49 536.983C1071.74 539.191 1067.57 540.295 1062.96 540.295C1055.18 540.295 1049.28 537.319 1045.25 531.367C1041.22 525.415 1039.2 516.391 1039.2 504.295V491.191C1033.06 492.247 1029.98 497.191 1029.98 506.023C1029.98 509.575 1030.56 513.175 1031.71 516.823C1032.77 520.471 1034.26 523.591 1036.18 526.183L1014.72 536.551C1011.94 532.039 1009.78 526.615 1008.24 520.279C1006.61 513.847 1005.79 507.463 1005.79 501.127ZM1067.86 501.271C1067.86 498.967 1067.23 496.903 1065.98 495.079C1064.74 493.255 1062.86 491.911 1060.37 491.047H1054.9V499.111C1054.9 505.735 1057.1 509.047 1061.52 509.047C1063.34 509.047 1064.88 508.375 1066.13 507.031C1067.28 505.591 1067.86 503.671 1067.86 501.271Z" fill="white"/>
<path d="M1005.79 360.918C1005.79 351.222 1008.72 343.446 1014.58 337.59C1020.43 331.638 1029.26 328.662 1041.07 328.662H1086V361.206H1046.69C1037.66 361.206 1033.15 364.422 1033.15 370.854C1033.15 374.502 1034.45 377.478 1037.04 379.782C1039.54 381.99 1043.52 383.094 1048.99 383.094H1086V415.638H1007.23V384.678H1015.01C1011.94 381.606 1009.63 378.054 1008.1 374.022C1006.56 369.99 1005.79 365.622 1005.79 360.918Z" fill="white"/>
<path d="M975.552 284.577V253.617L998.592 234.609V256.209L975.552 284.577Z" fill="white"/>
<path d="M1083.26 112.553C1086.05 117.449 1087.44 124.121 1087.44 132.569C1087.44 143.609 1084.8 152.105 1079.52 158.057C1074.14 164.009 1066.13 166.985 1055.47 166.985H1035.31V177.785H1011.55V166.985H989.52V134.441H1011.55V118.313H1035.31V134.441H1055.18C1057.58 134.441 1059.46 133.817 1060.8 132.569C1062.14 131.321 1062.82 129.689 1062.82 127.673C1062.82 124.889 1062.1 122.441 1060.66 120.329L1083.26 112.553Z" fill="white"/>
<path d="M1047.41 54.3488C1042.9 54.3488 1039.15 53.3408 1036.18 51.3248C1033.1 49.3088 1029.79 46.4288 1026.24 42.6848C1023.94 40.2848 1022.06 38.5568 1020.62 37.5008C1019.18 36.3488 1017.65 35.7728 1016.02 35.7728C1013.9 35.7728 1012.27 36.6848 1011.12 38.5088C1009.87 40.3328 1009.25 42.6368 1009.25 45.4208C1009.25 48.4928 1010.16 51.3728 1011.98 54.0608C1013.71 56.7488 1016.06 58.8608 1019.04 60.3968L1006.22 86.0288C998.928 82.1888 993.216 76.5248 989.088 69.0368C984.96 61.4528 982.896 52.1407 982.896 41.1008C982.896 29.3888 985.296 19.8848 990.096 12.5888C994.896 5.29279 1001.66 1.64478 1010.4 1.64478C1014.43 1.64478 1017.98 2.36481 1021.06 3.80481C1024.03 5.1488 1026.58 6.78082 1028.69 8.70081C1030.7 10.6208 1032.96 13.0688 1035.46 16.0448C1038.14 19.1168 1040.3 21.3248 1041.94 22.6688C1043.57 24.0128 1045.39 24.6848 1047.41 24.6848V54.3488ZM1087.44 39.5168C1087.44 45.0848 1085.76 49.6448 1082.4 53.1968C1079.04 56.7488 1074.96 58.5248 1070.16 58.5248C1065.26 58.5248 1061.23 56.7488 1058.06 53.1968C1054.8 49.6448 1053.17 45.0848 1053.17 39.5168C1053.17 33.9488 1054.8 29.3888 1058.06 25.8368C1061.23 22.2848 1065.26 20.5088 1070.16 20.5088C1074.96 20.5088 1079.04 22.2848 1082.4 25.8368C1085.76 29.3888 1087.44 33.9488 1087.44 39.5168Z" fill="white"/>
<path fill-rule="evenodd" clip-rule="evenodd" d="M1083.15 635.95L1083.15 635.955C1079.62 643.116 1074.65 648.777 1068.25 652.912L1068.25 652.918C1061.83 656.962 1054.59 658.977 1046.54 658.977C1038.5 658.977 1031.3 656.962 1024.98 652.915L1024.98 652.912C1018.58 648.777 1013.61 643.116 1010.08 635.955L1010.08 635.95C1006.55 628.693 1004.79 620.524 1004.79 611.465C1004.79 601.719 1006.89 593.324 1011.13 586.323C1015.37 579.316 1021.26 574.458 1028.78 571.786L1029.62 571.488L1042.86 598.42L1041.91 598.842C1038.56 600.331 1036.12 602.148 1034.52 604.257C1032.94 606.352 1032.14 608.789 1032.14 611.609C1032.14 615.182 1033.37 618.134 1035.86 620.53C1038.3 622.799 1041.82 624.001 1046.54 624.001C1051.37 624.001 1054.93 622.796 1057.38 620.53C1059.86 618.134 1061.1 615.182 1061.1 611.609C1061.1 608.789 1060.3 606.352 1058.71 604.257C1057.11 602.148 1054.67 600.331 1051.32 598.842L1050.37 598.42L1063.61 571.488L1064.45 571.786C1071.97 574.458 1077.86 579.316 1082.1 586.323C1086.34 593.324 1088.44 601.719 1088.44 611.465C1088.44 620.524 1086.69 628.693 1083.15 635.95ZM1058.06 621.257C1055.38 623.753 1051.54 625.001 1046.54 625.001C1041.65 625.001 1037.86 623.753 1035.17 621.257C1032.48 618.665 1031.14 615.449 1031.14 611.609C1031.14 605.831 1034.29 601.412 1040.6 598.35C1040.89 598.206 1041.19 598.066 1041.5 597.929L1029.12 572.729C1021.82 575.321 1016.11 580.025 1011.98 586.841C1007.86 593.657 1005.79 601.865 1005.79 611.465C1005.79 620.393 1007.52 628.409 1010.98 635.513C1014.43 642.521 1019.28 648.041 1025.52 652.073C1031.66 656.009 1038.67 657.977 1046.54 657.977C1054.42 657.977 1061.47 656.009 1067.71 652.073C1073.95 648.041 1078.8 642.521 1082.26 635.513C1085.71 628.409 1087.44 620.393 1087.44 611.465C1087.44 601.865 1085.38 593.657 1081.25 586.841C1077.12 580.025 1071.41 575.321 1064.11 572.729L1051.73 597.928C1052.04 598.066 1052.34 598.206 1052.63 598.35C1058.94 601.412 1062.1 605.831 1062.1 611.609C1062.1 615.449 1060.75 618.665 1058.06 621.257ZM1014.72 536.551C1011.94 532.039 1009.78 526.615 1008.24 520.279C1006.61 513.847 1005.79 507.463 1005.79 501.127C1005.79 487.303 1008.91 476.743 1015.15 469.447C1021.3 462.151 1030.8 458.503 1043.66 458.503H1086V488.743H1075.63C1076.28 489.051 1076.9 489.384 1077.5 489.743C1084.13 493.737 1087.44 500.844 1087.44 511.063C1087.44 517.303 1086.38 522.631 1084.27 527.047C1082.06 531.367 1079.14 534.679 1075.49 536.983C1071.74 539.191 1067.57 540.295 1062.96 540.295C1055.18 540.295 1049.28 537.319 1045.25 531.367C1041.22 525.415 1039.2 516.391 1039.2 504.295V491.191C1038.86 491.25 1038.52 491.321 1038.2 491.404C1032.72 492.811 1029.98 497.684 1029.98 506.023C1029.98 509.575 1030.56 513.175 1031.71 516.823C1032.66 520.091 1033.95 522.935 1035.59 525.355C1035.78 525.637 1035.98 525.913 1036.18 526.183L1014.72 536.551ZM1038.2 492.439C1035.98 493.067 1034.31 494.327 1033.14 496.219C1031.74 498.47 1030.98 501.704 1030.98 506.023C1030.98 509.465 1031.54 512.964 1032.67 516.522L1032.67 516.533L1032.67 516.545C1033.7 520.098 1035.14 523.106 1036.98 525.588L1037.7 526.558L1014.34 537.844L1013.87 537.076C1011.02 532.458 1008.82 526.933 1007.27 520.52C1005.62 514.013 1004.79 507.548 1004.79 501.127C1004.79 487.169 1007.94 476.342 1014.39 468.8C1020.78 461.208 1030.62 457.503 1043.66 457.503H1087V489.743H1079.32C1085.45 494.084 1088.44 501.273 1088.44 511.063C1088.44 517.412 1087.37 522.896 1085.17 527.478L1085.17 527.49L1085.16 527.502C1082.88 531.961 1079.84 535.417 1076.02 537.828L1076.01 537.836L1076 537.844C1072.09 540.148 1067.74 541.295 1062.96 541.295C1054.88 541.295 1048.66 538.18 1044.42 531.928C1040.22 525.732 1038.2 516.468 1038.2 504.295V492.439ZM1066.86 501.271C1066.86 499.159 1066.29 497.294 1065.16 495.643C1064.08 494.065 1062.45 492.855 1060.2 492.047H1055.9V499.111C1055.9 502.343 1056.44 504.593 1057.38 506.008C1058.28 507.352 1059.6 508.047 1061.52 508.047C1063.05 508.047 1064.31 507.501 1065.37 506.377C1066.33 505.164 1066.86 503.495 1066.86 501.271ZM1066.13 507.031C1064.88 508.375 1063.34 509.047 1061.52 509.047C1057.1 509.047 1054.9 505.735 1054.9 499.111V491.047H1060.37C1062.86 491.911 1064.74 493.255 1065.98 495.079C1067.23 496.903 1067.86 498.967 1067.86 501.271C1067.86 503.671 1067.28 505.591 1066.13 507.031ZM1087 327.662V362.206H1046.69C1042.26 362.206 1039.13 363 1037.12 364.432C1035.17 365.821 1034.15 367.902 1034.15 370.854C1034.15 374.232 1035.34 376.93 1037.7 379.033C1039.93 381.003 1043.62 382.094 1048.99 382.094H1087V416.638H1006.23V383.678H1012.71C1010.32 380.917 1008.47 377.815 1007.16 374.378C1005.58 370.223 1004.79 365.733 1004.79 360.918C1004.79 351.007 1007.79 342.961 1013.87 336.886C1019.98 330.677 1029.11 327.662 1041.07 327.662H1087ZM1014.58 337.59C1008.72 343.446 1005.79 351.222 1005.79 360.918C1005.79 365.622 1006.56 369.99 1008.1 374.022C1009.47 377.624 1011.45 380.842 1014.05 383.678C1014.36 384.017 1014.68 384.35 1015.01 384.678H1007.23V415.638H1086V383.094H1048.99C1043.52 383.094 1039.54 381.99 1037.04 379.782C1034.45 377.478 1033.15 374.502 1033.15 370.854C1033.15 364.422 1037.66 361.206 1046.69 361.206H1086V328.662H1041.07C1029.26 328.662 1020.43 331.638 1014.58 337.59ZM974.552 287.394V253.145L999.592 232.487V256.564L974.552 287.394ZM975.552 284.577L998.592 256.209V234.609L975.552 253.617V284.577ZM1083.72 111.337L1084.13 112.059C1087.04 117.162 1088.44 124.028 1088.44 132.569C1088.44 143.759 1085.76 152.525 1080.27 158.721L1080.26 158.727C1074.64 164.952 1066.31 167.985 1055.47 167.985H1036.31V178.785H1010.55V167.985H988.52V133.441H1010.55V117.313H1036.31V133.441H1055.18C1057.41 133.441 1059.01 132.865 1060.12 131.836C1061.24 130.797 1061.82 129.442 1061.82 127.673C1061.82 125.071 1061.15 122.823 1059.83 120.892L1059.09 119.81L1083.72 111.337ZM1035.31 134.441V118.313H1011.55V134.441H989.52V166.985H1011.55V177.785H1035.31V166.985H1055.47C1066.13 166.985 1074.14 164.009 1079.52 158.057C1084.8 152.105 1087.44 143.609 1087.44 132.569C1087.44 124.121 1086.05 117.449 1083.26 112.553L1060.66 120.329C1060.85 120.613 1061.03 120.904 1061.2 121.2C1062.28 123.106 1062.82 125.264 1062.82 127.673C1062.82 129.689 1062.14 131.321 1060.8 132.569C1059.46 133.817 1057.58 134.441 1055.18 134.441H1035.31ZM1048.41 55.3488H1047.41C1042.75 55.3488 1038.8 54.3077 1035.62 52.1564C1032.47 50.0857 1029.1 47.1511 1025.52 43.3755C1023.23 40.9891 1021.4 39.3113 1020.03 38.3072L1020.02 38.2948L1020 38.2817C1018.71 37.2521 1017.39 36.7728 1016.02 36.7728C1014.26 36.7728 1012.94 37.5013 1011.97 39.0428L1011.96 39.0583L1011.95 39.0735C1010.84 40.6926 1010.25 42.7859 1010.25 45.4208C1010.25 48.2808 1011.09 50.9669 1012.81 53.4993L1012.82 53.5096L1012.82 53.52C1014.45 56.0533 1016.67 58.0486 1019.5 59.5082L1020.38 59.961L1006.66 87.3893L1005.76 86.9137C998.282 82.9791 992.431 77.1721 988.212 69.5196L988.209 69.5149C983.982 61.7489 981.896 52.2624 981.896 41.1008C981.896 29.2585 984.322 19.5453 989.26 12.0392C994.245 4.46198 1001.33 0.644775 1010.4 0.644775C1014.55 0.644775 1018.25 1.38538 1021.47 2.89612C1024.53 4.27661 1027.16 5.96234 1029.36 7.96088L1029.37 7.96863L1029.38 7.97668C1031.43 9.92859 1033.71 12.4037 1036.22 15.3948C1038.89 18.4517 1041.01 20.6072 1042.57 21.8969C1044.03 23.1012 1045.64 23.6848 1047.41 23.6848H1048.41V55.3488ZM1035.46 16.0448C1032.96 13.0688 1030.7 10.6208 1028.69 8.70081C1026.58 6.78082 1024.03 5.1488 1021.06 3.80481C1017.98 2.36481 1014.43 1.64478 1010.4 1.64478C1001.66 1.64478 994.896 5.29279 990.096 12.5888C985.296 19.8848 982.896 29.3888 982.896 41.1008C982.896 52.1408 984.96 61.4528 989.088 69.0368C993.048 76.2211 998.467 81.7263 1005.34 85.5526C1005.63 85.7143 1005.93 85.873 1006.22 86.0288L1019.04 60.3968C1016.06 58.8608 1013.71 56.7488 1011.98 54.0608C1010.16 51.3728 1009.25 48.4928 1009.25 45.4208C1009.25 42.6368 1009.87 40.3328 1011.12 38.5088C1012.27 36.6848 1013.9 35.7728 1016.02 35.7728C1017.65 35.7728 1019.18 36.3488 1020.62 37.5008C1022.06 38.5568 1023.94 40.2848 1026.24 42.6848C1029.79 46.4288 1033.1 49.3088 1036.18 51.3248C1038.93 53.1899 1042.34 54.1923 1046.41 54.3319C1046.74 54.3432 1047.07 54.3488 1047.41 54.3488V24.6848C1045.39 24.6848 1043.57 24.0128 1041.94 22.6688C1040.3 21.3248 1038.14 19.1168 1035.46 16.0448ZM1088.44 39.5168C1088.44 45.3021 1086.69 50.1202 1083.13 53.884C1079.58 57.6315 1075.24 59.5248 1070.16 59.5248C1064.99 59.5248 1060.68 57.6355 1057.32 53.8669C1053.87 50.103 1052.17 45.2908 1052.17 39.5168C1052.17 33.7417 1053.87 28.9287 1057.32 25.1644C1060.69 21.3972 1064.99 19.5088 1070.16 19.5088C1075.24 19.5088 1079.58 21.4022 1083.13 25.1496C1086.69 28.9133 1088.44 33.7314 1088.44 39.5168ZM1058.06 25.8368C1054.8 29.3888 1053.17 33.9488 1053.17 39.5168C1053.17 45.0848 1054.8 49.6448 1058.06 53.1968C1061.23 56.7488 1065.26 58.5248 1070.16 58.5248C1074.96 58.5248 1079.04 56.7488 1082.4 53.1968C1085.76 49.6448 1087.44 45.0848 1087.44 39.5168C1087.44 33.9488 1085.76 29.3888 1082.4 25.8368C1079.04 22.2848 1074.96 20.5088 1070.16 20.5088C1065.26 20.5088 1061.23 22.2848 1058.06 25.8368Z" fill="white"/>
</svg>
