<svg width="261" height="266" viewBox="0 0 261 266" fill="none" xmlns="http://www.w3.org/2000/svg">
<g clip-path="url(#clip0)">
<path fill-rule="evenodd" clip-rule="evenodd" d="M224.201 149.161C224.201 149.161 203.267 169.985 187.036 164.057C186.278 163.753 185.519 163.449 184.761 163.145C169.592 156.305 168.378 140.801 168.378 140.801V130.769C168.378 130.769 174.143 145.969 183.396 152.657C185.823 154.481 188.553 155.697 191.587 155.849C205.391 156.457 219.65 142.017 219.65 142.017C219.65 142.017 224.808 141.561 224.201 149.161Z" fill="url(#paint0_linear)"/>
<path opacity="0.74" fill-rule="evenodd" clip-rule="evenodd" d="M184.761 163.145C169.592 156.305 168.378 140.801 168.378 140.801V130.769C168.378 130.769 174.142 145.969 183.396 152.657C183.396 152.809 183.396 157.369 184.761 163.145Z" fill="url(#paint1_linear)"/>
<path fill-rule="evenodd" clip-rule="evenodd" d="M235.123 153.113C235.123 153.113 228.448 155.241 221.471 151.441L222.987 134.721L234.213 133.353L235.123 153.113Z" fill="url(#paint2_linear)"/>
<path fill-rule="evenodd" clip-rule="evenodd" d="M73.571 217.409H49.6037C49.6037 217.409 46.5698 139.281 56.1264 45.1923C56.1264 45.1923 87.9817 30.9043 113.769 30.9043L73.571 217.409Z" fill="url(#paint3_linear)"/>
<path fill-rule="evenodd" clip-rule="evenodd" d="M73.5707 217.408C73.5707 217.408 68.2615 115.264 76.7563 43.5196C76.7563 43.5196 112.252 14.0315 160.187 45.1916C160.187 45.1916 178.541 135.48 173.384 216.04C173.232 216.04 129.393 236.256 73.5707 217.408Z" fill="url(#paint4_radial)"/>
<path fill-rule="evenodd" clip-rule="evenodd" d="M173.232 216.04C173.232 216.04 109.673 244.16 49.4516 217.408H73.4189C73.4189 217.408 104.061 225.92 120.443 225.008C149.872 223.64 173.232 216.04 173.232 216.04Z" fill="#24000A"/>
<path fill-rule="evenodd" clip-rule="evenodd" d="M92.532 228.352C92.532 228.352 97.3862 268.176 115.893 261.184L98.7514 228.352H92.532Z" fill="url(#paint5_linear)"/>
<path fill-rule="evenodd" clip-rule="evenodd" d="M98.5998 226.224C98.5998 226.224 101.634 262.552 115.741 261.032C129.848 259.664 132.275 219.84 132.275 219.84C132.275 219.84 123.022 217.864 98.5998 226.224Z" fill="url(#paint6_linear)"/>
<path fill-rule="evenodd" clip-rule="evenodd" d="M55.9746 45.3433L76.6047 43.6713C76.6047 43.6713 89.8019 31.9673 113.617 31.0553C113.769 31.0553 88.1333 30.5993 55.9746 45.3433Z" fill="url(#paint7_linear)"/>
<path fill-rule="evenodd" clip-rule="evenodd" d="M24.2705 123.473C26.0909 120.585 25.9391 115.873 31.2484 112.073C31.2484 112.073 32.917 109.033 29.5798 106.905C29.5798 106.905 25.1807 108.729 22.2985 112.377C22.2985 112.377 21.3884 104.321 20.3265 95.6569C20.3265 95.6569 18.0512 94.2889 15.6241 95.5049L15.4724 105.233L11.3767 94.5929C11.3767 94.5929 7.12935 92.6169 4.55059 97.025L5.7641 106.601L3.33705 101.737C3.33705 101.737 -0.000173569 101.129 -0.000173569 104.625L3.18534 113.593C3.18534 113.593 5.61243 126.665 14.4106 130.769C14.4106 130.769 22.6019 126.057 24.2705 123.473Z" fill="url(#paint8_linear)"/>
<path fill-rule="evenodd" clip-rule="evenodd" d="M71.9022 135.329C71.9022 135.329 73.4191 66.4724 81.3071 46.4083C81.3071 46.4083 91.0154 33.4883 113.617 30.9043C113.617 30.9043 91.7738 30.9043 76.6046 43.5203C76.6046 43.6723 69.02 86.0804 71.9022 135.329Z" fill="url(#paint9_radial)"/>
<path opacity="0.5" fill-rule="evenodd" clip-rule="evenodd" d="M133.337 33.792L139.86 114.352H170.35C170.35 114.352 165.647 66.9281 160.186 45.344C160.035 45.344 149.72 36.376 133.337 33.792Z" fill="#81282D"/>
<path opacity="0.74" fill-rule="evenodd" clip-rule="evenodd" d="M94.9594 240.361L99.8135 238.081L131.062 231.393L132.427 219.841C120.899 222.881 111.797 223.793 98.7516 228.353H92.5323L94.9594 240.361Z" fill="url(#paint10_linear)"/>
<path fill-rule="evenodd" clip-rule="evenodd" d="M84.9478 107.512C84.9478 107.512 90.8637 98.3915 101.937 97.9355V102.8C101.937 102.8 94.5043 103.256 87.8299 108.424L84.9478 107.512Z" fill="url(#paint11_linear)"/>
<path fill-rule="evenodd" clip-rule="evenodd" d="M155.484 120.736C155.484 120.736 148.051 119.216 140.619 113.744V118.608C140.619 118.608 145.624 121.648 153.512 122.256L155.484 120.736Z" fill="url(#paint12_linear)"/>
<path fill-rule="evenodd" clip-rule="evenodd" d="M76.6047 43.6723L75.2395 52.0323L90.4087 36.0723C84.1893 37.5923 76.6047 43.6723 76.6047 43.6723Z" fill="white"/>
<path fill-rule="evenodd" clip-rule="evenodd" d="M116.803 31.0557C116.803 31.0557 142.135 31.0557 157.001 48.0797C157.001 48.0797 169.895 90.6398 172.019 133.504C172.019 133.504 168.226 78.4798 160.187 45.1917C160.035 45.3437 143.197 31.9677 116.803 31.0557Z" fill="url(#paint13_radial)"/>
<path fill-rule="evenodd" clip-rule="evenodd" d="M49.4516 217.408C49.4516 217.408 47.1762 118.304 55.9744 45.192L65.6826 44.584C65.6826 44.584 59.0082 124.232 61.2836 216.952L49.4516 217.408Z" fill="url(#paint14_linear)"/>
<path opacity="0.5" fill-rule="evenodd" clip-rule="evenodd" d="M72.2053 177.735L173.839 206.159L173.384 216.191C173.384 216.191 126.359 238.079 73.5705 217.559C73.5705 217.407 70.9918 199.015 72.2053 177.735Z" fill="#81282D"/>
<path opacity="0.5" fill-rule="evenodd" clip-rule="evenodd" d="M22.4507 112.377C22.4507 112.377 17.5966 114.961 15.1695 119.369C15.1695 119.369 10.7704 120.129 7.73659 119.369C4.70276 118.761 4.70276 113.289 4.70276 113.289C4.70276 113.289 8.95014 106.753 19.7203 108.577L22.4507 112.377Z" fill="url(#paint15_linear)"/>
<path fill-rule="evenodd" clip-rule="evenodd" d="M48.9965 186.553C48.9965 186.553 55.8227 184.273 60.8285 194.305C65.8343 204.337 72.8122 203.121 74.7842 201.145C76.9079 199.017 76.6045 196.433 78.4248 194.457C80.2451 192.481 91.9253 202.665 116.651 210.873C141.377 219.081 147.293 211.633 150.478 210.873C153.664 210.113 151.692 218.777 158.063 219.081C164.434 219.385 161.704 211.785 163.676 210.265C165.648 208.745 173.232 216.041 173.232 216.041C173.232 216.041 147.9 228.657 109.673 228.961C71.4469 229.265 49.4516 217.409 49.4516 217.409L48.9965 186.553Z" fill="url(#paint16_radial)"/>
<path opacity="0.74" fill-rule="evenodd" clip-rule="evenodd" d="M72.964 202.208L73.5708 217.56C73.5708 217.56 114.831 238.08 173.384 216.192C173.384 216.192 150.782 229.112 106.791 229.112C62.8007 229.112 49.6035 217.56 49.6035 217.56L49.1484 186.552C49.1484 186.552 54.6093 184.424 58.5533 190.504C62.4973 196.584 65.076 201.448 72.964 202.208Z" fill="url(#paint17_linear)"/>
<path opacity="0.74" fill-rule="evenodd" clip-rule="evenodd" d="M49.4518 186.552C49.4518 186.552 55.6711 186.4 59.0084 193.544C62.3456 200.688 64.3176 206.616 70.2336 206.768C76.1495 206.92 77.8182 196.128 80.0935 195.672C82.3689 195.216 103.757 211.784 121.05 216.04C138.343 220.296 148.658 211.784 150.63 212.24C152.602 212.696 152.451 218.928 156.091 220.144C160.187 221.512 162.917 219.688 163.676 217.56C164.434 215.28 163.069 212.088 164.434 211.328C165.799 210.416 173.384 216.192 173.384 216.192V214.824C173.384 214.824 166.71 208.136 163.676 209.2C160.642 210.264 163.524 216.192 160.187 216.952C156.85 217.712 154.574 213.152 153.057 209.504C151.389 205.856 144.411 213.912 133.489 212.24C111.645 209.048 82.5206 189.896 78.88 190.048C75.2394 190.2 77.8182 199.472 69.4751 199.016C64.1659 198.712 59.6151 182.296 49.4518 186.552Z" fill="url(#paint18_linear)"/>
<path fill-rule="evenodd" clip-rule="evenodd" d="M123.174 209.808C123.174 209.808 131.972 212.848 138.495 212.24C145.017 211.632 148.051 209.352 148.051 209.352C148.051 209.352 145.321 210.264 137.129 210.872C129.09 211.48 123.174 209.808 123.174 209.808Z" fill="white"/>
<path fill-rule="evenodd" clip-rule="evenodd" d="M110.129 204.945C110.129 204.945 118.168 204.641 119.078 208.441C119.23 208.441 112.252 205.857 110.129 204.945Z" fill="white"/>
<path opacity="0.74" fill-rule="evenodd" clip-rule="evenodd" d="M49.4516 217.408H73.4189C73.4189 217.408 86.7678 225.464 119.078 226.072C151.389 226.68 173.232 216.04 173.232 216.04C173.232 216.04 148.051 228.504 112.252 228.96C66.7445 229.568 49.4516 217.408 49.4516 217.408Z" fill="url(#paint19_linear)"/>
<path fill-rule="evenodd" clip-rule="evenodd" d="M60.0701 189.744C60.0701 189.744 64.1658 196.736 67.8064 198.408C67.8064 198.408 66.4412 191.72 60.0701 189.744Z" fill="white"/>
<path fill-rule="evenodd" clip-rule="evenodd" d="M163.676 142.929C163.676 142.929 149.568 137.305 135.764 142.929V141.105C135.764 141.105 150.479 130.921 163.524 141.561L163.676 142.929Z" fill="url(#paint20_radial)"/>
<path fill-rule="evenodd" clip-rule="evenodd" d="M112.555 142.929C112.555 142.929 98.4481 137.305 84.6441 142.929V141.105C84.6441 141.105 99.3582 130.921 112.404 141.561L112.555 142.929Z" fill="url(#paint21_radial)"/>
<path fill-rule="evenodd" clip-rule="evenodd" d="M138.495 151.896C141.225 154.632 134.551 166.944 125.146 166.944C114.528 166.944 110.584 155.696 111.19 151.896C111.797 148.096 120.747 151.744 126.056 151.744C131.365 151.744 136.068 149.464 138.495 151.896Z" fill="url(#paint22_radial)"/>
<path fill-rule="evenodd" clip-rule="evenodd" d="M138.646 156.151C136.826 157.671 134.854 158.431 132.275 158.887C134.399 159.039 135.764 159.039 137.585 158.431C138.04 157.671 138.343 157.063 138.646 156.151Z" fill="url(#paint23_radial)"/>
<path fill-rule="evenodd" clip-rule="evenodd" d="M119.078 158.887C119.078 158.887 114.831 158.583 111.645 156.151C111.645 156.151 111.797 157.215 112.556 158.583C114.831 158.887 116.348 159.039 119.078 158.887Z" fill="url(#paint24_radial)"/>
<path fill-rule="evenodd" clip-rule="evenodd" d="M135.916 161.168C135.916 161.168 131.669 169.072 125.146 169.376C118.623 169.68 113.314 159.952 113.314 159.952C113.314 159.952 118.32 167.704 125.146 166.944C131.82 166.184 135.916 161.168 135.916 161.168Z" fill="url(#paint25_radial)"/>
<path fill-rule="evenodd" clip-rule="evenodd" d="M63.2558 138.823C63.2558 138.823 67.6549 137.455 65.6829 145.663C65.6829 145.663 55.2161 160.711 41.8672 160.711C26.0913 160.711 14.5627 130.919 14.5627 130.919L21.3888 125.751C21.3888 125.751 28.0633 147.031 41.4122 150.223C53.0924 152.959 63.2558 138.823 63.2558 138.823Z" fill="url(#paint26_linear)"/>
<path fill-rule="evenodd" clip-rule="evenodd" d="M219.801 72.7038L214.644 62.2158H230.42L246.196 62.9758L240.583 73.1598C240.583 73.1598 247.561 100.976 245.134 111.92C242.707 122.864 229.055 127.728 229.055 127.728C229.055 127.728 215.554 122.256 213.582 111.16C211.762 100.216 219.801 72.7038 219.801 72.7038Z" fill="url(#paint27_radial)"/>
<path fill-rule="evenodd" clip-rule="evenodd" d="M227.234 151.137L225.414 126.057L232.695 126.209L228.6 151.137L238.308 154.481L238.156 156.457L217.071 156.001V153.417L227.234 151.137Z" fill="url(#paint28_radial)"/>
<path fill-rule="evenodd" clip-rule="evenodd" d="M243.466 108.426C243.466 108.426 242.1 123.626 229.207 123.474C218.891 123.322 212.52 110.554 216.313 95.3535C216.313 95.3535 218.588 99.6095 226.931 102.65C235.274 105.538 243.466 108.426 243.466 108.426Z" fill="url(#paint29_linear)"/>
<path fill-rule="evenodd" clip-rule="evenodd" d="M243.466 108.425C243.466 108.425 228.903 96.7212 216.313 95.2012C216.313 95.2012 217.526 100.065 223.442 103.257C229.358 106.601 235.881 105.689 243.466 108.425Z" fill="#F64A13"/>
<path fill-rule="evenodd" clip-rule="evenodd" d="M238.915 72.0967C238.915 72.0967 247.106 99.9127 243.617 113.137L235.274 114.809C235.274 114.809 237.398 83.6487 233.15 72.2487L238.915 72.0967Z" fill="white"/>
<path fill-rule="evenodd" clip-rule="evenodd" d="M220.408 114.353C220.408 114.353 218.892 110.249 218.285 102.801L214.189 101.585C214.189 101.585 213.431 111.921 216.768 116.025L220.408 114.353Z" fill="white"/>
<path fill-rule="evenodd" clip-rule="evenodd" d="M217.526 143.688L218.891 133.96C218.891 133.96 227.993 131.984 231.785 128.336C231.785 128.336 234.516 130.92 233.15 134.264C233.15 134.264 229.662 138.064 226.324 138.52C226.324 138.52 227.386 143.08 224.201 146.88C224.201 146.88 219.498 148.704 217.526 143.688Z" fill="url(#paint30_linear)"/>
<path fill-rule="evenodd" clip-rule="evenodd" d="M241.493 132.744C243.01 134.568 242.859 135.632 242.252 137.304L240.28 138.976L238.915 149.464L240.583 150.376C240.583 150.376 241.342 152.656 239.825 154.936C239.825 154.936 235.122 155.392 231.178 153.416C231.178 153.416 230.875 151.288 232.089 148.4L229.358 147.64C229.358 147.64 228.296 143.536 231.33 137.152L232.695 136.848C232.695 136.848 230.723 133.656 232.847 131.072L241.493 132.744Z" fill="url(#paint31_linear)"/>
<path opacity="0.74" fill-rule="evenodd" clip-rule="evenodd" d="M240.28 139.128L232.544 136.848L241.19 138.216L240.28 139.128Z" fill="url(#paint32_linear)"/>
<path opacity="0.74" fill-rule="evenodd" clip-rule="evenodd" d="M231.786 148.857L238.915 149.465L229.207 147.641L231.786 148.857Z" fill="url(#paint33_linear)"/>
<path opacity="0.55" fill-rule="evenodd" clip-rule="evenodd" d="M157.457 164.513C169.288 165.881 175.053 156.305 177.48 146.425C179.755 137.305 179.148 127.577 177.935 125.601C175.811 122.105 156.243 120.433 145.169 121.953C141.984 122.409 139.557 123.169 138.343 124.233C133.034 128.793 134.854 162.081 157.457 164.513Z" fill="url(#paint34_radial)"/>
<path opacity="0.55" fill-rule="evenodd" clip-rule="evenodd" d="M93.4422 164.514C103.606 165.578 109.673 159.802 113.162 152.506C118.168 142.018 117.561 128.186 115.893 125.602C113.466 122.106 91.7736 120.282 79.6383 121.954C76.3011 122.41 73.7223 123.17 72.5088 124.082C66.8962 128.794 68.8682 162.082 93.4422 164.514Z" fill="url(#paint35_radial)"/>
<path fill-rule="evenodd" clip-rule="evenodd" d="M71.2954 125.754C71.2954 125.754 49.1484 130.922 46.418 133.506C43.5358 136.09 43.6875 142.93 43.6875 142.93H45.9629C45.9629 142.93 45.2044 137.306 47.6315 135.33C49.9069 133.354 54.1542 135.33 54.1542 135.33L69.9302 131.986C69.9302 132.138 70.0819 127.578 71.2954 125.754Z" fill="url(#paint36_linear)"/>
<path fill-rule="evenodd" clip-rule="evenodd" d="M157.456 164.514C157.456 164.514 147.596 165.426 139.102 153.722C130.607 142.17 133.792 126.666 134.399 125.602C134.854 124.538 141.832 122.562 141.832 122.562C141.832 122.562 138.495 123.474 137.888 124.842C137.13 126.058 134.551 141.258 140.315 152.354C145.928 163.146 157.456 164.514 157.456 164.514Z" fill="url(#paint37_radial)"/>
<path fill-rule="evenodd" clip-rule="evenodd" d="M93.4421 164.514C93.4421 164.514 83.5822 165.426 75.0874 153.722C66.5927 142.17 69.7782 126.058 70.385 124.994C70.8401 123.93 77.2111 122.258 77.2111 122.258C77.2111 122.258 74.1773 122.866 73.4188 124.234C72.6604 125.45 70.6884 141.106 76.1493 152.202C82.3686 164.514 93.4421 164.514 93.4421 164.514Z" fill="url(#paint38_radial)"/>
<path fill-rule="evenodd" clip-rule="evenodd" d="M145.169 121.954L177.631 146.426C179.907 137.306 179.3 127.578 178.087 125.602C175.811 122.106 156.243 120.282 145.169 121.954Z" fill="white"/>
<path fill-rule="evenodd" clip-rule="evenodd" d="M79.6383 121.954L113.162 152.506C118.168 142.018 117.561 128.186 115.893 125.602C113.466 122.106 91.7737 120.282 79.6383 121.954Z" fill="white"/>
<path fill-rule="evenodd" clip-rule="evenodd" d="M139.557 128.642C139.557 128.642 127.27 125.146 115.438 128.642V131.074C115.438 131.074 125.298 127.882 139.254 131.074L139.557 128.642Z" fill="url(#paint39_linear)"/>
<path fill-rule="evenodd" clip-rule="evenodd" d="M231.785 100.976L238.915 24.064L241.494 19.96L260 8.71201L258.483 4L239.977 17.68L235.578 22.696L229.207 99.7602L231.785 100.976Z" fill="url(#paint40_radial)"/>
<path fill-rule="evenodd" clip-rule="evenodd" d="M225.566 57.1992L235.123 97.0233V101.583L232.544 97.6313L222.836 57.9592L225.566 57.1992Z" fill="url(#paint41_linear)"/>
<path fill-rule="evenodd" clip-rule="evenodd" d="M213.583 35.768C200.84 43.824 195.379 57.9601 201.295 67.0801C207.211 76.3521 222.229 77.1121 234.819 69.0561C247.561 61.0001 253.022 46.864 247.106 37.744C241.342 28.624 226.325 27.712 213.583 35.768Z" fill="url(#paint42_radial)"/>
<path fill-rule="evenodd" clip-rule="evenodd" d="M244.831 59.6322L219.802 45.3442L247.258 37.7441C247.258 37.7441 253.629 45.8002 244.831 59.6322Z" fill="white"/>
<path fill-rule="evenodd" clip-rule="evenodd" d="M234.819 30.4473L219.802 45.3433L247.258 37.7433C247.258 37.7433 243.921 31.8153 234.819 30.4473Z" fill="#C2A9A9"/>
<path opacity="0.74" fill-rule="evenodd" clip-rule="evenodd" d="M202.661 68.9032L219.802 45.4951L199.93 54.1591C199.93 54.1591 197.048 61.4551 202.661 68.9032Z" fill="#D4A998"/>
<path fill-rule="evenodd" clip-rule="evenodd" d="M218.133 44.2798C216.92 45.0398 216.313 46.4078 216.92 47.3198C217.526 48.2318 218.892 48.2318 220.105 47.4718C221.319 46.7118 221.925 45.3438 221.319 44.4318C220.864 43.5198 219.347 43.5198 218.133 44.2798Z" fill="url(#paint43_radial)"/>
</g>
<defs>
<linearGradient id="paint0_linear" x1="196.302" y1="165.107" x2="196.302" y2="130.686" gradientUnits="userSpaceOnUse">
<stop offset="0.00558659" stop-color="#E4798B"/>
<stop offset="0.2466" stop-color="#ED877F"/>
<stop offset="0.7018" stop-color="#FA9C6D"/>
<stop offset="1" stop-color="#FFA466"/>
</linearGradient>
<linearGradient id="paint1_linear" x1="176.578" y1="163.09" x2="176.578" y2="130.686" gradientUnits="userSpaceOnUse">
<stop stop-color="#CA528D"/>
<stop offset="1" stop-color="#B3757C"/>
</linearGradient>
<linearGradient id="paint2_linear" x1="226.058" y1="153.314" x2="232.405" y2="132.716" gradientUnits="userSpaceOnUse">
<stop offset="0.00558659" stop-color="#E4798B"/>
<stop offset="0.2466" stop-color="#ED877F"/>
<stop offset="0.7018" stop-color="#FA9C6D"/>
<stop offset="1" stop-color="#FFA466"/>
</linearGradient>
<linearGradient id="paint3_linear" x1="49.0659" y1="124.246" x2="82.8844" y2="124.246" gradientUnits="userSpaceOnUse">
<stop stop-color="#1C0013"/>
<stop offset="0.9944" stop-color="#400A13"/>
</linearGradient>
<radialGradient id="paint4_radial" cx="0" cy="0" r="1" gradientUnits="userSpaceOnUse" gradientTransform="translate(153.267 73.3577) scale(100.971 126.249)">
<stop offset="0.00558659" stop-color="#842A2C"/>
<stop offset="0.3173" stop-color="#81282D"/>
<stop offset="0.5593" stop-color="#77232F"/>
<stop offset="0.7779" stop-color="#671B32"/>
<stop offset="0.9816" stop-color="#4F0E36"/>
<stop offset="1" stop-color="#4D0D37"/>
</radialGradient>
<linearGradient id="paint5_linear" x1="109.275" y1="263.19" x2="97.8003" y2="226.645" gradientUnits="userSpaceOnUse">
<stop stop-color="#C9635C"/>
<stop offset="0.9707" stop-color="#C95B57"/>
<stop offset="0.9944" stop-color="#C95B57"/>
</linearGradient>
<linearGradient id="paint6_linear" x1="125.339" y1="258.292" x2="113.758" y2="221.409" gradientUnits="userSpaceOnUse">
<stop stop-color="#FFA466"/>
<stop offset="0.2982" stop-color="#FA9C6D"/>
<stop offset="0.7534" stop-color="#ED877F"/>
<stop offset="0.9944" stop-color="#E4798B"/>
</linearGradient>
<linearGradient id="paint7_linear" x1="84.8736" y1="45.3016" x2="84.8736" y2="31.0153" gradientUnits="userSpaceOnUse">
<stop stop-color="#934A38"/>
<stop offset="0.2541" stop-color="#9B4C3C"/>
<stop offset="0.6419" stop-color="#B05349"/>
<stop offset="0.9944" stop-color="#C95B57"/>
</linearGradient>
<linearGradient id="paint8_linear" x1="10.54" y1="129.811" x2="18.9549" y2="95.153" gradientUnits="userSpaceOnUse">
<stop stop-color="#FFA466"/>
<stop offset="0.2982" stop-color="#FA9C6D"/>
<stop offset="0.7534" stop-color="#ED877F"/>
<stop offset="0.9944" stop-color="#E4798B"/>
</linearGradient>
<radialGradient id="paint9_radial" cx="0" cy="0" r="1" gradientUnits="userSpaceOnUse" gradientTransform="translate(74.7152 43.2435) scale(49.278 49.3782)">
<stop offset="0.00558659" stop-color="#95452C"/>
<stop offset="0.36" stop-color="#92422D"/>
<stop offset="0.6352" stop-color="#883A30"/>
<stop offset="0.883" stop-color="#782B34"/>
<stop offset="1" stop-color="#6D2237"/>
</radialGradient>
<linearGradient id="paint10_linear" x1="93.4936" y1="235.619" x2="133.355" y2="223.153" gradientUnits="userSpaceOnUse">
<stop stop-color="#CA528D"/>
<stop offset="1" stop-color="#B3757C"/>
</linearGradient>
<linearGradient id="paint11_linear" x1="85.0037" y1="103.02" x2="101.977" y2="103.02" gradientUnits="userSpaceOnUse">
<stop offset="0.00558659" stop-color="#430900"/>
<stop offset="0.3754" stop-color="#410803"/>
<stop offset="0.6625" stop-color="#39060D"/>
<stop offset="0.921" stop-color="#2C021D"/>
<stop offset="1" stop-color="#270024"/>
</linearGradient>
<linearGradient id="paint12_linear" x1="155.524" y1="117.96" x2="140.712" y2="117.96" gradientUnits="userSpaceOnUse">
<stop offset="0.00558659" stop-color="#430900"/>
<stop offset="0.3754" stop-color="#410803"/>
<stop offset="0.6625" stop-color="#39060D"/>
<stop offset="0.921" stop-color="#2C021D"/>
<stop offset="1" stop-color="#270024"/>
</linearGradient>
<radialGradient id="paint13_radial" cx="0" cy="0" r="1" gradientUnits="userSpaceOnUse" gradientTransform="translate(121.191 43.0617) scale(51.1262 51.2302)">
<stop offset="0.00558659" stop-color="#A95C2C"/>
<stop offset="0.4036" stop-color="#A9592D"/>
<stop offset="0.7122" stop-color="#A84F31"/>
<stop offset="0.9905" stop-color="#A73F37"/>
<stop offset="1" stop-color="#A73E37"/>
</radialGradient>
<linearGradient id="paint14_linear" x1="49.2506" y1="131.068" x2="65.6728" y2="131.068" gradientUnits="userSpaceOnUse">
<stop stop-color="#512C2C"/>
<stop offset="0.1713" stop-color="#3D2121"/>
<stop offset="0.5899" stop-color="#110909"/>
<stop offset="0.8021"/>
</linearGradient>
<linearGradient id="paint15_linear" x1="11.7661" y1="120.384" x2="14.8879" y2="107.527" gradientUnits="userSpaceOnUse">
<stop stop-color="#CA528D"/>
<stop offset="1" stop-color="#B3757C"/>
</linearGradient>
<radialGradient id="paint16_radial" cx="0" cy="0" r="1" gradientUnits="userSpaceOnUse" gradientTransform="translate(88.6112 200.242) scale(66.1961 66.3307)">
<stop offset="0.00558659" stop-color="white"/>
<stop offset="0.1985" stop-color="#FDFCFC"/>
<stop offset="0.3629" stop-color="#F6F1F3"/>
<stop offset="0.5168" stop-color="#ECE0E5"/>
<stop offset="0.6643" stop-color="#DCC7D0"/>
<stop offset="0.8062" stop-color="#C9A7B6"/>
<stop offset="0.8184" stop-color="#C7A4B3"/>
<stop offset="0.8629" stop-color="#CEA4B4"/>
<stop offset="0.9271" stop-color="#E1A3B8"/>
<stop offset="1" stop-color="#FFA2BD"/>
</radialGradient>
<linearGradient id="paint17_linear" x1="49.0657" y1="207.587" x2="173.302" y2="207.587" gradientUnits="userSpaceOnUse">
<stop stop-color="#CA528D"/>
<stop offset="1" stop-color="#DDC2C5"/>
</linearGradient>
<linearGradient id="paint18_linear" x1="49.3935" y1="203.201" x2="173.302" y2="203.201" gradientUnits="userSpaceOnUse">
<stop stop-color="#CA528D"/>
<stop offset="1" stop-color="#B3757C"/>
</linearGradient>
<linearGradient id="paint19_linear" x1="49.5196" y1="222.561" x2="173.302" y2="222.561" gradientUnits="userSpaceOnUse">
<stop stop-color="#CA528D"/>
<stop offset="1" stop-color="#DDC2C5"/>
</linearGradient>
<radialGradient id="paint20_radial" cx="0" cy="0" r="1" gradientUnits="userSpaceOnUse" gradientTransform="translate(149.816 139.919) rotate(180) scale(10.0843 10.1048)">
<stop offset="0.00558659" stop-color="#3B1400"/>
<stop offset="0.3754" stop-color="#391203"/>
<stop offset="0.6625" stop-color="#340D0D"/>
<stop offset="0.921" stop-color="#2B041D"/>
<stop offset="1" stop-color="#270024"/>
</radialGradient>
<radialGradient id="paint21_radial" cx="0" cy="0" r="1" gradientUnits="userSpaceOnUse" gradientTransform="translate(98.6665 139.919) rotate(180) scale(10.0843 10.1048)">
<stop offset="0.00558659" stop-color="#3B1400"/>
<stop offset="0.3754" stop-color="#391203"/>
<stop offset="0.6625" stop-color="#340D0D"/>
<stop offset="0.921" stop-color="#2B041D"/>
<stop offset="1" stop-color="#270024"/>
</radialGradient>
<radialGradient id="paint22_radial" cx="0" cy="0" r="1" gradientUnits="userSpaceOnUse" gradientTransform="translate(125.116 158.571) rotate(180) scale(11.3936 12.0735)">
<stop offset="0.00558659" stop-color="white"/>
<stop offset="0.2415" stop-color="#FDFCFC"/>
<stop offset="0.4427" stop-color="#F6F1F3"/>
<stop offset="0.631" stop-color="#ECE0E5"/>
<stop offset="0.8115" stop-color="#DCC7D0"/>
<stop offset="0.985" stop-color="#C9A7B6"/>
<stop offset="1" stop-color="#C7A4B3"/>
</radialGradient>
<radialGradient id="paint23_radial" cx="0" cy="0" r="1" gradientUnits="userSpaceOnUse" gradientTransform="translate(135.508 157.604) rotate(180) scale(2.47379 2.47883)">
<stop offset="0.00558659" stop-color="#3B1400"/>
<stop offset="0.3754" stop-color="#391203"/>
<stop offset="0.6625" stop-color="#340D0D"/>
<stop offset="0.921" stop-color="#2B041D"/>
<stop offset="1" stop-color="#270024"/>
</radialGradient>
<radialGradient id="paint24_radial" cx="0" cy="0" r="1" gradientUnits="userSpaceOnUse" gradientTransform="translate(115.329 157.554) rotate(180) scale(2.78324 2.78893)">
<stop offset="0.00558659" stop-color="#3B1400"/>
<stop offset="0.3754" stop-color="#391203"/>
<stop offset="0.6625" stop-color="#340D0D"/>
<stop offset="0.921" stop-color="#2B041D"/>
<stop offset="1" stop-color="#270024"/>
</radialGradient>
<radialGradient id="paint25_radial" cx="0" cy="0" r="1" gradientUnits="userSpaceOnUse" gradientTransform="translate(124.608 164.685) rotate(180) scale(8.64325 8.66082)">
<stop offset="0.00558659" stop-color="#95452C"/>
<stop offset="0.36" stop-color="#92422D"/>
<stop offset="0.6352" stop-color="#883A30"/>
<stop offset="0.883" stop-color="#782B34"/>
<stop offset="1" stop-color="#6D2237"/>
</radialGradient>
<linearGradient id="paint26_linear" x1="40.3483" y1="160.63" x2="40.3483" y2="125.636" gradientUnits="userSpaceOnUse">
<stop offset="0.00558659" stop-color="#E4798B"/>
<stop offset="0.2466" stop-color="#ED877F"/>
<stop offset="0.7018" stop-color="#FA9C6D"/>
<stop offset="1" stop-color="#FFA466"/>
</linearGradient>
<radialGradient id="paint27_radial" cx="0" cy="0" r="1" gradientUnits="userSpaceOnUse" gradientTransform="translate(229.723 95.0713) rotate(-178.777) scale(25.8178 25.8702)">
<stop offset="0.00558659" stop-color="#E0E6FF"/>
<stop offset="0.2609" stop-color="#DFE3FC"/>
<stop offset="0.4784" stop-color="#DBDAF1"/>
<stop offset="0.6821" stop-color="#D6CBE0"/>
<stop offset="0.8762" stop-color="#CEB5C7"/>
<stop offset="1" stop-color="#C7A4B3"/>
</radialGradient>
<radialGradient id="paint28_radial" cx="0" cy="0" r="1" gradientUnits="userSpaceOnUse" gradientTransform="translate(227.926 141.177) rotate(-178.777) scale(13.0017 13.0281)">
<stop offset="0.00558659" stop-color="#E0E6FF"/>
<stop offset="0.2609" stop-color="#DFE3FC"/>
<stop offset="0.4784" stop-color="#DBDAF1"/>
<stop offset="0.6821" stop-color="#D6CBE0"/>
<stop offset="0.8762" stop-color="#CEB5C7"/>
<stop offset="1" stop-color="#C7A4B3"/>
</radialGradient>
<linearGradient id="paint29_linear" x1="228.927" y1="123.34" x2="229.521" y2="95.4898" gradientUnits="userSpaceOnUse">
<stop offset="0.00558659" stop-color="#CE2E13"/>
<stop offset="0.3636" stop-color="#CB2E15"/>
<stop offset="0.6416" stop-color="#C1301C"/>
<stop offset="0.8919" stop-color="#B13227"/>
<stop offset="1" stop-color="#A7332D"/>
</linearGradient>
<linearGradient id="paint30_linear" x1="221.944" y1="147.367" x2="228.143" y2="127.25" gradientUnits="userSpaceOnUse">
<stop stop-color="#FFA466"/>
<stop offset="0.2982" stop-color="#FA9C6D"/>
<stop offset="0.7534" stop-color="#ED877F"/>
<stop offset="0.9944" stop-color="#E4798B"/>
</linearGradient>
<linearGradient id="paint31_linear" x1="242.702" y1="143.06" x2="229.043" y2="143.06" gradientUnits="userSpaceOnUse">
<stop offset="0.00558659" stop-color="#E4798B"/>
<stop offset="0.2466" stop-color="#ED877F"/>
<stop offset="0.7018" stop-color="#FA9C6D"/>
<stop offset="1" stop-color="#FFA466"/>
</linearGradient>
<linearGradient id="paint32_linear" x1="236.669" y1="138.181" x2="237.053" y2="136.934" gradientUnits="userSpaceOnUse">
<stop stop-color="#CA528D"/>
<stop offset="1" stop-color="#B3757C"/>
</linearGradient>
<linearGradient id="paint33_linear" x1="233.761" y1="149.454" x2="234.188" y2="148.067" gradientUnits="userSpaceOnUse">
<stop stop-color="#CA528D"/>
<stop offset="1" stop-color="#B3757C"/>
</linearGradient>
<radialGradient id="paint34_radial" cx="0" cy="0" r="1" gradientUnits="userSpaceOnUse" gradientTransform="translate(157.942 132.168) rotate(180) scale(28.8978 28.9565)">
<stop offset="0.00558659" stop-color="#FFD700"/>
<stop offset="0.1998" stop-color="#FED400"/>
<stop offset="0.3653" stop-color="#FBC900"/>
<stop offset="0.5203" stop-color="#F6B800"/>
<stop offset="0.6688" stop-color="#EF9F00"/>
<stop offset="0.8117" stop-color="#E67F00"/>
<stop offset="0.824" stop-color="#E57C00"/>
<stop offset="0.8533" stop-color="#E27504"/>
<stop offset="0.8956" stop-color="#DA620E"/>
<stop offset="0.9456" stop-color="#CE431F"/>
<stop offset="0.9589" stop-color="#CA3924"/>
</radialGradient>
<radialGradient id="paint35_radial" cx="0" cy="0" r="1" gradientUnits="userSpaceOnUse" gradientTransform="translate(93.9677 132.15) rotate(180) scale(29.7645 29.825)">
<stop offset="0.00558659" stop-color="#FFD700"/>
<stop offset="0.1998" stop-color="#FED400"/>
<stop offset="0.3653" stop-color="#FBC900"/>
<stop offset="0.5203" stop-color="#F6B800"/>
<stop offset="0.6688" stop-color="#EF9F00"/>
<stop offset="0.8117" stop-color="#E67F00"/>
<stop offset="0.824" stop-color="#E57C00"/>
<stop offset="0.8533" stop-color="#E27504"/>
<stop offset="0.8956" stop-color="#DA620E"/>
<stop offset="0.9456" stop-color="#CE431F"/>
<stop offset="0.9589" stop-color="#CA3924"/>
</radialGradient>
<linearGradient id="paint36_linear" x1="71.293" y1="134.401" x2="43.6901" y2="134.401" gradientUnits="userSpaceOnUse">
<stop offset="0.0337302" stop-color="#DFCCDC"/>
<stop offset="0.2718" stop-color="#9680B7"/>
<stop offset="1" stop-color="#CFCFCF"/>
</linearGradient>
<radialGradient id="paint37_radial" cx="0" cy="0" r="1" gradientUnits="userSpaceOnUse" gradientTransform="translate(145.663 133.044) rotate(180) scale(24.8861 24.9367)">
<stop offset="0.00558659" stop-color="#FFD700"/>
<stop offset="0.1998" stop-color="#FED400"/>
<stop offset="0.3653" stop-color="#FBC900"/>
<stop offset="0.5203" stop-color="#F6B800"/>
<stop offset="0.6688" stop-color="#EF9F00"/>
<stop offset="0.8117" stop-color="#E67F00"/>
<stop offset="0.824" stop-color="#E57C00"/>
<stop offset="0.8533" stop-color="#E27504"/>
<stop offset="0.8956" stop-color="#DA620E"/>
<stop offset="0.9456" stop-color="#CE431F"/>
<stop offset="0.9589" stop-color="#CA3924"/>
</radialGradient>
<radialGradient id="paint38_radial" cx="0" cy="0" r="1" gradientUnits="userSpaceOnUse" gradientTransform="translate(81.6344 132.902) rotate(180) scale(24.9829 25.0337)">
<stop offset="0.00558659" stop-color="#FFD700"/>
<stop offset="0.1998" stop-color="#FED400"/>
<stop offset="0.3653" stop-color="#FBC900"/>
<stop offset="0.5203" stop-color="#F6B800"/>
<stop offset="0.6688" stop-color="#EF9F00"/>
<stop offset="0.8117" stop-color="#E67F00"/>
<stop offset="0.824" stop-color="#E57C00"/>
<stop offset="0.8533" stop-color="#E27504"/>
<stop offset="0.8956" stop-color="#DA620E"/>
<stop offset="0.9456" stop-color="#CE431F"/>
<stop offset="0.9589" stop-color="#CA3924"/>
</radialGradient>
<linearGradient id="paint39_linear" x1="139.497" y1="129.099" x2="115.329" y2="129.099" gradientUnits="userSpaceOnUse">
<stop offset="0.0337302" stop-color="#DFCCDC"/>
<stop offset="0.2718" stop-color="#9680B7"/>
<stop offset="1" stop-color="#CFCFCF"/>
</linearGradient>
<radialGradient id="paint40_radial" cx="0" cy="0" r="1" gradientUnits="userSpaceOnUse" gradientTransform="translate(250.176 35.6182) rotate(180) scale(50.7054 50.8085)">
<stop offset="0.00558659" stop-color="#DBE0FF"/>
<stop offset="0.2609" stop-color="#DADDFC"/>
<stop offset="0.4784" stop-color="#D7D5F1"/>
<stop offset="0.6821" stop-color="#D3C7E0"/>
<stop offset="0.8762" stop-color="#CCB4C7"/>
<stop offset="1" stop-color="#C7A4B3"/>
</radialGradient>
<linearGradient id="paint41_linear" x1="235.051" y1="79.3694" x2="222.908" y2="79.3694" gradientUnits="userSpaceOnUse">
<stop stop-color="#934A38"/>
<stop offset="0.2541" stop-color="#9B4C3C"/>
<stop offset="0.6419" stop-color="#B05349"/>
<stop offset="0.9944" stop-color="#C95B57"/>
</linearGradient>
<radialGradient id="paint42_radial" cx="0" cy="0" r="1" gradientUnits="userSpaceOnUse" gradientTransform="translate(219.77 41.538) rotate(-122.48) scale(23.8176 23.7972)">
<stop offset="0.00558659" stop-color="#FFD700"/>
<stop offset="0.258" stop-color="#FCD500"/>
<stop offset="0.4731" stop-color="#F1CE00"/>
<stop offset="0.6745" stop-color="#E0C200"/>
<stop offset="0.8664" stop-color="#C7B100"/>
<stop offset="1" stop-color="#B1A200"/>
</radialGradient>
<radialGradient id="paint43_radial" cx="0" cy="0" r="1" gradientUnits="userSpaceOnUse" gradientTransform="translate(219.173 45.8638) rotate(-122.48) scale(2.29422 2.29225)">
<stop offset="0.00558659" stop-color="#842A2C"/>
<stop offset="0.3173" stop-color="#81282D"/>
<stop offset="0.5593" stop-color="#77232F"/>
<stop offset="0.7779" stop-color="#671B32"/>
<stop offset="0.9816" stop-color="#4F0E36"/>
<stop offset="1" stop-color="#4D0D37"/>
</radialGradient>
<clipPath id="clip0">
<rect width="261" height="266" fill="white" transform="matrix(-1 0 0 1 261 0)"/>
</clipPath>
</defs>
</svg>
