<svg width="226" height="269" viewBox="0 0 226 269" fill="none" xmlns="http://www.w3.org/2000/svg">
<path fill-rule="evenodd" clip-rule="evenodd" d="M194.882 148.178C194.882 148.178 176.686 166.279 162.578 161.126C161.919 160.862 161.259 160.598 160.6 160.334C147.415 154.388 146.36 140.912 146.36 140.912V132.191C146.36 132.191 151.37 145.404 159.413 151.217C161.523 152.803 163.896 153.86 166.534 153.992C178.532 154.52 190.927 141.969 190.927 141.969C190.927 141.969 195.41 141.572 194.882 148.178Z" fill="url(#paint0_linear)"/>
<path opacity="0.74" fill-rule="evenodd" clip-rule="evenodd" d="M160.6 160.334C147.414 154.388 146.359 140.912 146.359 140.912V132.191C146.359 132.191 151.37 145.404 159.413 151.217C159.413 151.349 159.413 155.313 160.6 160.334Z" fill="url(#paint1_linear)"/>
<path fill-rule="evenodd" clip-rule="evenodd" d="M204.376 151.613C204.376 151.613 198.574 153.463 192.509 150.16L193.828 135.627L203.585 134.438L204.376 151.613Z" fill="url(#paint2_linear)"/>
<path fill-rule="evenodd" clip-rule="evenodd" d="M63.9502 207.502H43.1171C43.1171 207.502 40.48 139.591 48.7869 57.8063C48.7869 57.8063 76.4765 45.3867 98.8918 45.3867L63.9502 207.502Z" fill="url(#paint3_linear)"/>
<path fill-rule="evenodd" clip-rule="evenodd" d="M63.9501 207.501C63.9501 207.501 59.3351 118.714 66.719 56.3521C66.719 56.3521 97.5731 30.7202 139.239 57.8055C139.239 57.8055 155.194 136.287 150.711 206.312C150.579 206.312 112.473 223.884 63.9501 207.501Z" fill="url(#paint4_radial)"/>
<path fill-rule="evenodd" clip-rule="evenodd" d="M150.579 206.312C150.579 206.312 95.3315 230.755 42.9851 207.502H63.8182C63.8182 207.502 90.4529 214.901 104.693 214.108C130.273 212.919 150.579 206.312 150.579 206.312Z" fill="#24000A"/>
<path fill-rule="evenodd" clip-rule="evenodd" d="M80.4318 217.014C80.4318 217.014 84.6512 251.63 100.738 245.552L85.8379 217.014H80.4318Z" fill="url(#paint5_linear)"/>
<path fill-rule="evenodd" clip-rule="evenodd" d="M85.7062 215.164C85.7062 215.164 88.3433 246.741 100.606 245.42C112.868 244.231 114.978 209.614 114.978 209.614C114.978 209.614 106.935 207.897 85.7062 215.164Z" fill="url(#paint6_linear)"/>
<path fill-rule="evenodd" clip-rule="evenodd" d="M48.655 57.9366L66.5873 56.4832C66.5873 56.4832 78.0587 46.3097 98.7599 45.517C98.8918 45.517 76.6083 45.1206 48.655 57.9366Z" fill="url(#paint7_linear)"/>
<path fill-rule="evenodd" clip-rule="evenodd" d="M21.097 125.849C22.6792 123.338 22.5474 119.242 27.1623 115.939C27.1623 115.939 28.6127 113.297 25.7119 111.447C25.7119 111.447 21.8881 113.033 19.3828 116.204C19.3828 116.204 18.5917 109.201 17.6687 101.67C17.6687 101.67 15.6909 100.481 13.5812 101.538L13.4494 109.994L9.88927 100.745C9.88927 100.745 6.19732 99.0276 3.95578 102.859L5.0106 111.183L2.90093 106.955C2.90093 106.955 0.000118256 106.426 0.000118256 109.465L2.76907 117.261C2.76907 117.261 4.87877 128.623 12.5264 132.19C12.5264 132.19 19.6466 128.095 21.097 125.849Z" fill="url(#paint8_linear)"/>
<path fill-rule="evenodd" clip-rule="evenodd" d="M62.4999 136.155C62.4999 136.155 63.8184 76.3036 70.6749 58.8633C70.6749 58.8633 79.1136 47.6328 98.76 45.3867C98.76 45.3867 79.7729 45.3867 66.5874 56.3529C66.5874 56.4851 59.9946 93.3475 62.4999 136.155Z" fill="url(#paint9_radial)"/>
<path opacity="0.5" fill-rule="evenodd" clip-rule="evenodd" d="M115.901 47.8945L121.57 117.92H148.073C148.073 117.92 143.986 76.6974 139.239 57.9359C139.107 57.9359 130.141 50.1406 115.901 47.8945Z" fill="#81282D"/>
<path opacity="0.74" fill-rule="evenodd" clip-rule="evenodd" d="M82.5419 227.452L86.7613 225.47L113.923 219.657L115.11 209.615C105.089 212.258 97.1778 213.05 85.8383 217.014H80.4322L82.5419 227.452Z" fill="url(#paint10_linear)"/>
<path fill-rule="evenodd" clip-rule="evenodd" d="M73.8394 111.976C73.8394 111.976 78.9818 104.049 88.6072 103.652V107.88C88.6072 107.88 82.1463 108.277 76.3446 112.769L73.8394 111.976Z" fill="url(#paint11_linear)"/>
<path fill-rule="evenodd" clip-rule="evenodd" d="M135.152 123.472C135.152 123.472 128.691 122.151 122.23 117.395V121.622C122.23 121.622 126.581 124.265 133.438 124.793L135.152 123.472Z" fill="url(#paint12_linear)"/>
<path fill-rule="evenodd" clip-rule="evenodd" d="M66.5874 56.4851L65.4007 63.7519L78.5862 49.8789C73.1801 51.2001 66.5874 56.4851 66.5874 56.4851Z" fill="white"/>
<path fill-rule="evenodd" clip-rule="evenodd" d="M101.528 45.5176C101.528 45.5176 123.548 45.5176 136.47 60.3154C136.47 60.3154 147.678 97.3099 149.524 134.569C149.524 134.569 146.227 86.74 139.239 57.805C139.107 57.9372 124.471 46.3103 101.528 45.5176Z" fill="url(#paint13_radial)"/>
<path fill-rule="evenodd" clip-rule="evenodd" d="M42.985 207.501C42.985 207.501 41.0072 121.357 48.6548 57.8058L57.0935 57.2773C57.0935 57.2773 51.2919 126.51 53.2697 207.105L42.985 207.501Z" fill="url(#paint14_linear)"/>
<path opacity="0.5" fill-rule="evenodd" clip-rule="evenodd" d="M62.763 173.018L151.106 197.725L150.71 206.445C150.71 206.445 109.835 225.47 63.9497 207.634C63.9497 207.502 61.7082 191.515 62.763 173.018Z" fill="#81282D"/>
<path opacity="0.5" fill-rule="evenodd" clip-rule="evenodd" d="M19.5151 116.205C19.5151 116.205 15.2958 118.452 13.1861 122.283C13.1861 122.283 9.3623 122.944 6.7252 122.283C4.0881 121.755 4.0881 116.998 4.0881 116.998C4.0881 116.998 7.78006 111.317 17.1418 112.902L19.5151 116.205Z" fill="url(#paint15_linear)"/>
<path fill-rule="evenodd" clip-rule="evenodd" d="M42.5895 180.68C42.5895 180.68 48.523 178.698 52.8742 187.418C57.2254 196.138 63.2908 195.081 65.0049 193.364C66.8509 191.514 66.5871 189.268 68.1694 187.55C69.7517 185.833 79.9045 194.685 101.397 201.82C122.889 208.954 128.032 202.48 130.801 201.82C133.57 201.159 131.855 208.69 137.393 208.954C142.931 209.219 140.558 202.612 142.272 201.291C143.986 199.97 150.579 206.312 150.579 206.312C150.579 206.312 128.559 217.278 95.3316 217.542C62.1041 217.807 42.9851 207.501 42.9851 207.501L42.5895 180.68Z" fill="url(#paint16_radial)"/>
<path opacity="0.74" fill-rule="evenodd" clip-rule="evenodd" d="M63.4228 194.289L63.9503 207.634C63.9503 207.634 99.8149 225.471 150.711 206.445C150.711 206.445 131.065 217.675 92.8265 217.675C54.5885 217.675 43.1172 207.634 43.1172 207.634L42.7216 180.681C42.7216 180.681 47.4684 178.831 50.8966 184.116C54.3248 189.401 56.5664 193.629 63.4228 194.289Z" fill="url(#paint17_linear)"/>
<path opacity="0.74" fill-rule="evenodd" clip-rule="evenodd" d="M42.9853 180.68C42.9853 180.68 48.3913 180.548 51.2922 186.758C54.193 192.968 55.9071 198.121 61.0494 198.253C66.1918 198.385 67.6422 189.004 69.62 188.608C71.5979 188.211 90.1894 202.613 105.221 206.312C120.252 210.012 129.219 202.613 130.933 203.009C132.647 203.406 132.515 208.823 135.679 209.88C139.24 211.069 141.613 209.483 142.272 207.634C142.931 205.652 141.745 202.877 142.931 202.216C144.118 201.424 150.711 206.444 150.711 206.444V205.255C150.711 205.255 144.909 199.442 142.272 200.367C139.635 201.292 142.14 206.444 139.24 207.105C136.339 207.766 134.361 203.802 133.042 200.631C131.592 197.46 125.527 204.463 116.033 203.009C97.0459 200.235 71.7297 183.587 68.5652 183.719C65.4007 183.851 67.6422 191.911 60.3902 191.515C55.7752 191.25 51.8196 176.981 42.9853 180.68Z" fill="url(#paint18_linear)"/>
<path fill-rule="evenodd" clip-rule="evenodd" d="M107.066 200.894C107.066 200.894 114.714 203.537 120.384 203.008C126.054 202.48 128.691 200.498 128.691 200.498C128.691 200.498 126.317 201.291 119.197 201.819C112.209 202.348 107.066 200.894 107.066 200.894Z" fill="white"/>
<path fill-rule="evenodd" clip-rule="evenodd" d="M95.7272 196.667C95.7272 196.667 102.716 196.403 103.507 199.706C103.639 199.706 97.5732 197.46 95.7272 196.667Z" fill="white"/>
<path opacity="0.74" fill-rule="evenodd" clip-rule="evenodd" d="M42.9851 207.502H63.8182C63.8182 207.502 75.4214 214.504 103.507 215.033C131.592 215.561 150.579 206.312 150.579 206.312C150.579 206.312 128.691 217.147 97.5731 217.543C58.0165 218.071 42.9851 207.502 42.9851 207.502Z" fill="url(#paint19_linear)"/>
<path fill-rule="evenodd" clip-rule="evenodd" d="M52.2148 183.455C52.2148 183.455 55.7749 189.533 58.9395 190.986C58.9395 190.986 57.7527 185.173 52.2148 183.455Z" fill="white"/>
<path fill-rule="evenodd" clip-rule="evenodd" d="M142.272 142.762C142.272 142.762 130.01 137.874 118.011 142.762V141.177C118.011 141.177 130.801 132.325 142.14 141.573L142.272 142.762Z" fill="url(#paint20_radial)"/>
<path fill-rule="evenodd" clip-rule="evenodd" d="M97.8367 142.762C97.8367 142.762 85.5741 137.874 73.5753 142.762V141.177C73.5753 141.177 86.3653 132.325 97.7048 141.573L97.8367 142.762Z" fill="url(#paint21_radial)"/>
<path fill-rule="evenodd" clip-rule="evenodd" d="M120.384 150.554C122.757 152.932 116.956 163.634 108.781 163.634C99.551 163.634 96.1227 153.857 96.6502 150.554C97.1776 147.251 104.957 150.422 109.572 150.422C114.187 150.422 118.274 148.44 120.384 150.554Z" fill="url(#paint22_radial)"/>
<path fill-rule="evenodd" clip-rule="evenodd" d="M120.516 154.256C118.934 155.577 117.219 156.238 114.978 156.634C116.824 156.766 118.011 156.766 119.593 156.238C119.988 155.577 120.252 155.049 120.516 154.256Z" fill="url(#paint23_radial)"/>
<path fill-rule="evenodd" clip-rule="evenodd" d="M103.507 156.634C103.507 156.634 99.8149 156.37 97.0459 154.256C97.0459 154.256 97.1778 155.181 97.8371 156.37C99.8149 156.634 101.133 156.766 103.507 156.634Z" fill="url(#paint24_radial)"/>
<path fill-rule="evenodd" clip-rule="evenodd" d="M118.143 158.618C118.143 158.618 114.451 165.488 108.781 165.752C103.111 166.016 98.4962 157.561 98.4962 157.561C98.4962 157.561 102.847 164.299 108.781 163.638C114.582 162.978 118.143 158.618 118.143 158.618Z" fill="url(#paint25_radial)"/>
<path fill-rule="evenodd" clip-rule="evenodd" d="M54.9839 139.195C54.9839 139.195 58.8077 138.006 57.0936 145.14C57.0936 145.14 47.9956 158.22 36.3923 158.22C22.6794 158.22 12.6584 132.324 12.6584 132.324L18.5919 127.832C18.5919 127.832 24.3935 146.329 35.9968 149.104C46.1496 151.482 54.9839 139.195 54.9839 139.195Z" fill="url(#paint26_linear)"/>
<path fill-rule="evenodd" clip-rule="evenodd" d="M191.058 81.72L186.575 72.6035H200.288L214.001 73.2641L209.122 82.1164C209.122 82.1164 215.188 106.295 213.078 115.808C210.968 125.321 199.101 129.549 199.101 129.549C199.101 129.549 187.366 124.792 185.652 115.147C184.07 105.634 191.058 81.72 191.058 81.72Z" fill="url(#paint27_radial)"/>
<path fill-rule="evenodd" clip-rule="evenodd" d="M197.519 149.898L195.937 128.098L202.266 128.23L198.706 149.898L207.145 152.805L207.013 154.522L188.685 154.126V151.88L197.519 149.898Z" fill="url(#paint28_radial)"/>
<path fill-rule="evenodd" clip-rule="evenodd" d="M211.628 112.769C211.628 112.769 210.441 125.981 199.233 125.849C190.267 125.717 184.729 114.619 188.026 101.406C188.026 101.406 190.003 105.106 197.255 107.748C204.508 110.259 211.628 112.769 211.628 112.769Z" fill="url(#paint29_linear)"/>
<path fill-rule="evenodd" clip-rule="evenodd" d="M211.628 112.77C211.628 112.77 198.97 102.597 188.026 101.275C188.026 101.275 189.08 105.503 194.223 108.278C199.365 111.185 205.035 110.392 211.628 112.77Z" fill="#F64A13"/>
<path fill-rule="evenodd" clip-rule="evenodd" d="M207.672 81.1934C207.672 81.1934 214.792 105.372 211.759 116.867L204.507 118.32C204.507 118.32 206.353 91.2347 202.661 81.3255L207.672 81.1934Z" fill="white"/>
<path fill-rule="evenodd" clip-rule="evenodd" d="M191.586 117.925C191.586 117.925 190.267 114.357 189.74 107.883L186.18 106.826C186.18 106.826 185.52 115.811 188.421 119.378L191.586 117.925Z" fill="white"/>
<path fill-rule="evenodd" clip-rule="evenodd" d="M189.081 143.421L190.267 134.965C190.267 134.965 198.179 133.247 201.475 130.076C201.475 130.076 203.848 132.322 202.662 135.229C202.662 135.229 199.629 138.532 196.728 138.928C196.728 138.928 197.651 142.892 194.882 146.195C194.882 146.195 190.795 147.781 189.081 143.421Z" fill="url(#paint30_linear)"/>
<path fill-rule="evenodd" clip-rule="evenodd" d="M209.914 133.908C211.232 135.494 211.1 136.419 210.573 137.872L208.859 139.325L207.672 148.442L209.122 149.235C209.122 149.235 209.782 151.217 208.463 153.198C208.463 153.198 204.376 153.595 200.947 151.877C200.947 151.877 200.684 150.027 201.739 147.517L199.365 146.857C199.365 146.857 198.442 143.289 201.079 137.74L202.266 137.476C202.266 137.476 200.552 134.701 202.398 132.455L209.914 133.908Z" fill="url(#paint31_linear)"/>
<path opacity="0.74" fill-rule="evenodd" clip-rule="evenodd" d="M208.859 139.456L202.134 137.475L209.65 138.664L208.859 139.456Z" fill="url(#paint32_linear)"/>
<path opacity="0.74" fill-rule="evenodd" clip-rule="evenodd" d="M201.475 147.912L207.672 148.441L199.234 146.855L201.475 147.912Z" fill="url(#paint33_linear)"/>
<path opacity="0.55" fill-rule="evenodd" clip-rule="evenodd" d="M136.866 161.525C147.151 162.714 152.161 154.39 154.271 145.802C156.249 137.875 155.722 129.419 154.667 127.701C152.821 124.662 135.811 123.209 126.186 124.53C123.417 124.927 121.307 125.587 120.252 126.512C115.638 130.476 117.22 159.411 136.866 161.525Z" fill="url(#paint34_radial)"/>
<path opacity="0.55" fill-rule="evenodd" clip-rule="evenodd" d="M81.223 161.524C90.0573 162.449 95.3315 157.428 98.3641 151.086C102.715 141.97 102.188 129.947 100.738 127.701C98.6279 124.662 79.7726 123.076 69.2241 124.53C66.3233 124.926 64.0818 125.587 63.027 126.379C58.1483 130.475 59.8624 159.41 81.223 161.524Z" fill="url(#paint35_radial)"/>
<path fill-rule="evenodd" clip-rule="evenodd" d="M61.9722 127.834C61.9722 127.834 42.7213 132.326 40.3479 134.572C37.8427 136.818 37.9745 142.764 37.9745 142.764H39.9524C39.9524 142.764 39.2931 137.875 41.4028 136.158C43.3806 134.44 47.0725 136.158 47.0725 136.158L60.7855 133.251C60.7855 133.383 60.9173 129.419 61.9722 127.834Z" fill="url(#paint36_linear)"/>
<path fill-rule="evenodd" clip-rule="evenodd" d="M136.866 161.527C136.866 161.527 128.295 162.319 120.911 152.146C113.528 142.104 116.297 128.628 116.824 127.703C117.22 126.778 123.285 125.061 123.285 125.061C123.285 125.061 120.384 125.853 119.857 127.042C119.197 128.099 116.956 141.312 121.966 150.957C126.845 160.337 136.866 161.527 136.866 161.527Z" fill="url(#paint37_radial)"/>
<path fill-rule="evenodd" clip-rule="evenodd" d="M81.2229 161.523C81.2229 161.523 72.6523 162.316 65.2684 152.142C57.8845 142.101 60.6535 128.096 61.1809 127.171C61.5765 126.246 67.1144 124.793 67.1144 124.793C67.1144 124.793 64.4773 125.321 63.818 126.511C63.1587 127.568 61.4446 141.176 66.1914 150.821C71.5975 161.523 81.2229 161.523 81.2229 161.523Z" fill="url(#paint38_radial)"/>
<path fill-rule="evenodd" clip-rule="evenodd" d="M126.186 124.53L154.403 145.802C156.381 137.874 155.853 129.418 154.798 127.701C152.82 124.662 135.811 123.076 126.186 124.53Z" fill="white"/>
<path fill-rule="evenodd" clip-rule="evenodd" d="M69.2242 124.53L98.3641 151.086C102.715 141.97 102.188 129.947 100.738 127.701C98.6279 124.662 79.7726 123.076 69.2242 124.53Z" fill="white"/>
<path fill-rule="evenodd" clip-rule="evenodd" d="M121.307 130.343C121.307 130.343 110.627 127.304 100.342 130.343V132.457C100.342 132.457 108.913 129.682 121.044 132.457L121.307 130.343Z" fill="url(#paint39_linear)"/>
<path fill-rule="evenodd" clip-rule="evenodd" d="M201.475 106.295L207.672 39.4403L209.914 35.8729L226 26.0958L224.681 22L208.595 33.8911L204.771 38.2512L199.233 105.238L201.475 106.295Z" fill="url(#paint40_radial)"/>
<path fill-rule="evenodd" clip-rule="evenodd" d="M196.069 68.2422L204.376 102.858V106.822L202.134 103.387L193.696 68.9028L196.069 68.2422Z" fill="url(#paint41_linear)"/>
<path fill-rule="evenodd" clip-rule="evenodd" d="M185.653 49.6134C174.577 56.616 169.83 68.9034 174.972 76.8308C180.115 84.8903 193.168 85.551 204.112 78.5484C215.188 71.5459 219.935 59.2584 214.793 51.331C209.782 43.4036 196.728 42.6109 185.653 49.6134Z" fill="url(#paint42_radial)"/>
<path fill-rule="evenodd" clip-rule="evenodd" d="M212.815 70.3558L191.059 57.9362L214.924 51.3301C214.924 51.3301 220.462 58.3326 212.815 70.3558Z" fill="white"/>
<path fill-rule="evenodd" clip-rule="evenodd" d="M204.112 44.9883L191.058 57.9364L214.924 51.3302C214.924 51.3302 212.023 46.1774 204.112 44.9883Z" fill="#C2A9A9"/>
<path opacity="0.74" fill-rule="evenodd" clip-rule="evenodd" d="M176.159 78.4153L191.059 58.0684L173.786 65.5994C173.786 65.5994 171.28 71.9413 176.159 78.4153Z" fill="#D4A998"/>
<path fill-rule="evenodd" clip-rule="evenodd" d="M189.608 57.0094C188.553 57.67 188.026 58.8591 188.553 59.6518C189.081 60.4446 190.267 60.4446 191.322 59.784C192.377 59.1233 192.904 57.9342 192.377 57.1415C191.982 56.3488 190.663 56.3488 189.608 57.0094Z" fill="url(#paint43_radial)"/>
<defs>
<linearGradient id="paint0_linear" x1="170.632" y1="162.04" x2="170.632" y2="132.12" gradientUnits="userSpaceOnUse">
<stop offset="0.00558659" stop-color="#E4798B"/>
<stop offset="0.2466" stop-color="#ED877F"/>
<stop offset="0.7018" stop-color="#FA9C6D"/>
<stop offset="1" stop-color="#FFA466"/>
</linearGradient>
<linearGradient id="paint1_linear" x1="153.487" y1="160.287" x2="153.487" y2="132.12" gradientUnits="userSpaceOnUse">
<stop stop-color="#CA528D"/>
<stop offset="1" stop-color="#B3757C"/>
</linearGradient>
<linearGradient id="paint2_linear" x1="196.497" y1="151.788" x2="202.013" y2="133.884" gradientUnits="userSpaceOnUse">
<stop offset="0.00558659" stop-color="#E4798B"/>
<stop offset="0.2466" stop-color="#ED877F"/>
<stop offset="0.7018" stop-color="#FA9C6D"/>
<stop offset="1" stop-color="#FFA466"/>
</linearGradient>
<linearGradient id="paint3_linear" x1="42.6497" y1="126.522" x2="72.0457" y2="126.522" gradientUnits="userSpaceOnUse">
<stop stop-color="#1C0013"/>
<stop offset="0.9944" stop-color="#400A13"/>
</linearGradient>
<radialGradient id="paint4_radial" cx="0" cy="0" r="1" gradientUnits="userSpaceOnUse" gradientTransform="translate(133.224 82.2883) scale(87.7669 109.74)">
<stop offset="0.00558659" stop-color="#842A2C"/>
<stop offset="0.3173" stop-color="#81282D"/>
<stop offset="0.5593" stop-color="#77232F"/>
<stop offset="0.7779" stop-color="#671B32"/>
<stop offset="0.9816" stop-color="#4F0E36"/>
<stop offset="1" stop-color="#4D0D37"/>
</radialGradient>
<linearGradient id="paint5_linear" x1="94.9851" y1="247.296" x2="85.0112" y2="215.531" gradientUnits="userSpaceOnUse">
<stop stop-color="#C9635C"/>
<stop offset="0.9707" stop-color="#C95B57"/>
<stop offset="0.9944" stop-color="#C95B57"/>
</linearGradient>
<linearGradient id="paint6_linear" x1="108.948" y1="243.038" x2="98.8818" y2="210.978" gradientUnits="userSpaceOnUse">
<stop stop-color="#FFA466"/>
<stop offset="0.2982" stop-color="#FA9C6D"/>
<stop offset="0.7534" stop-color="#ED877F"/>
<stop offset="0.9944" stop-color="#E4798B"/>
</linearGradient>
<linearGradient id="paint7_linear" x1="73.7748" y1="57.9004" x2="73.7748" y2="45.4822" gradientUnits="userSpaceOnUse">
<stop stop-color="#934A38"/>
<stop offset="0.2541" stop-color="#9B4C3C"/>
<stop offset="0.6419" stop-color="#B05349"/>
<stop offset="0.9944" stop-color="#C95B57"/>
</linearGradient>
<linearGradient id="paint8_linear" x1="9.16194" y1="131.357" x2="16.4764" y2="101.232" gradientUnits="userSpaceOnUse">
<stop stop-color="#FFA466"/>
<stop offset="0.2982" stop-color="#FA9C6D"/>
<stop offset="0.7534" stop-color="#ED877F"/>
<stop offset="0.9944" stop-color="#E4798B"/>
</linearGradient>
<radialGradient id="paint9_radial" cx="0" cy="0" r="1" gradientUnits="userSpaceOnUse" gradientTransform="translate(64.945 56.1124) scale(42.8339 42.921)">
<stop offset="0.00558659" stop-color="#95452C"/>
<stop offset="0.36" stop-color="#92422D"/>
<stop offset="0.6352" stop-color="#883A30"/>
<stop offset="0.883" stop-color="#782B34"/>
<stop offset="1" stop-color="#6D2237"/>
</radialGradient>
<linearGradient id="paint10_linear" x1="81.2678" y1="223.33" x2="115.917" y2="212.495" gradientUnits="userSpaceOnUse">
<stop stop-color="#CA528D"/>
<stop offset="1" stop-color="#B3757C"/>
</linearGradient>
<linearGradient id="paint11_linear" x1="73.888" y1="108.072" x2="88.6421" y2="108.072" gradientUnits="userSpaceOnUse">
<stop offset="0.00558659" stop-color="#430900"/>
<stop offset="0.3754" stop-color="#410803"/>
<stop offset="0.6625" stop-color="#39060D"/>
<stop offset="0.921" stop-color="#2C021D"/>
<stop offset="1" stop-color="#270024"/>
</linearGradient>
<linearGradient id="paint12_linear" x1="135.186" y1="121.059" x2="122.311" y2="121.059" gradientUnits="userSpaceOnUse">
<stop offset="0.00558659" stop-color="#430900"/>
<stop offset="0.3754" stop-color="#410803"/>
<stop offset="0.6625" stop-color="#39060D"/>
<stop offset="0.921" stop-color="#2C021D"/>
<stop offset="1" stop-color="#270024"/>
</linearGradient>
<radialGradient id="paint13_radial" cx="0" cy="0" r="1" gradientUnits="userSpaceOnUse" gradientTransform="translate(105.343 55.9536) scale(44.4405 44.5308)">
<stop offset="0.00558659" stop-color="#A95C2C"/>
<stop offset="0.4036" stop-color="#A9592D"/>
<stop offset="0.7122" stop-color="#A84F31"/>
<stop offset="0.9905" stop-color="#A73F37"/>
<stop offset="1" stop-color="#A73E37"/>
</radialGradient>
<linearGradient id="paint14_linear" x1="42.8103" y1="132.452" x2="57.0849" y2="132.452" gradientUnits="userSpaceOnUse">
<stop stop-color="#512C2C"/>
<stop offset="0.1713" stop-color="#3D2121"/>
<stop offset="0.5899" stop-color="#110909"/>
<stop offset="0.8021"/>
</linearGradient>
<linearGradient id="paint15_linear" x1="10.2278" y1="123.165" x2="12.9413" y2="111.989" gradientUnits="userSpaceOnUse">
<stop stop-color="#CA528D"/>
<stop offset="1" stop-color="#B3757C"/>
</linearGradient>
<radialGradient id="paint16_radial" cx="0" cy="0" r="1" gradientUnits="userSpaceOnUse" gradientTransform="translate(77.0237 192.579) scale(57.5396 57.6566)">
<stop offset="0.00558659" stop-color="white"/>
<stop offset="0.1985" stop-color="#FDFCFC"/>
<stop offset="0.3629" stop-color="#F6F1F3"/>
<stop offset="0.5168" stop-color="#ECE0E5"/>
<stop offset="0.6643" stop-color="#DCC7D0"/>
<stop offset="0.8062" stop-color="#C9A7B6"/>
<stop offset="0.8184" stop-color="#C7A4B3"/>
<stop offset="0.8629" stop-color="#CEA4B4"/>
<stop offset="0.9271" stop-color="#E1A3B8"/>
<stop offset="1" stop-color="#FFA2BD"/>
</radialGradient>
<linearGradient id="paint17_linear" x1="42.6497" y1="198.965" x2="150.64" y2="198.965" gradientUnits="userSpaceOnUse">
<stop stop-color="#CA528D"/>
<stop offset="1" stop-color="#DDC2C5"/>
</linearGradient>
<linearGradient id="paint18_linear" x1="42.9346" y1="195.152" x2="150.64" y2="195.152" gradientUnits="userSpaceOnUse">
<stop stop-color="#CA528D"/>
<stop offset="1" stop-color="#B3757C"/>
</linearGradient>
<linearGradient id="paint19_linear" x1="43.0441" y1="211.981" x2="150.64" y2="211.981" gradientUnits="userSpaceOnUse">
<stop stop-color="#CA528D"/>
<stop offset="1" stop-color="#DDC2C5"/>
</linearGradient>
<radialGradient id="paint20_radial" cx="0" cy="0" r="1" gradientUnits="userSpaceOnUse" gradientTransform="translate(130.225 140.146) rotate(180) scale(8.7656 8.78342)">
<stop offset="0.00558659" stop-color="#3B1400"/>
<stop offset="0.3754" stop-color="#391203"/>
<stop offset="0.6625" stop-color="#340D0D"/>
<stop offset="0.921" stop-color="#2B041D"/>
<stop offset="1" stop-color="#270024"/>
</radialGradient>
<radialGradient id="paint21_radial" cx="0" cy="0" r="1" gradientUnits="userSpaceOnUse" gradientTransform="translate(85.764 140.146) rotate(180) scale(8.76559 8.78342)">
<stop offset="0.00558659" stop-color="#3B1400"/>
<stop offset="0.3754" stop-color="#391203"/>
<stop offset="0.6625" stop-color="#340D0D"/>
<stop offset="0.921" stop-color="#2B041D"/>
<stop offset="1" stop-color="#270024"/>
</radialGradient>
<radialGradient id="paint22_radial" cx="0" cy="0" r="1" gradientUnits="userSpaceOnUse" gradientTransform="translate(108.755 156.356) rotate(180) scale(9.90364 10.4947)">
<stop offset="0.00558659" stop-color="white"/>
<stop offset="0.2415" stop-color="#FDFCFC"/>
<stop offset="0.4427" stop-color="#F6F1F3"/>
<stop offset="0.631" stop-color="#ECE0E5"/>
<stop offset="0.8115" stop-color="#DCC7D0"/>
<stop offset="0.985" stop-color="#C9A7B6"/>
<stop offset="1" stop-color="#C7A4B3"/>
</radialGradient>
<radialGradient id="paint23_radial" cx="0" cy="0" r="1" gradientUnits="userSpaceOnUse" gradientTransform="translate(117.788 155.518) rotate(180) scale(2.1503 2.15467)">
<stop offset="0.00558659" stop-color="#3B1400"/>
<stop offset="0.3754" stop-color="#391203"/>
<stop offset="0.6625" stop-color="#340D0D"/>
<stop offset="0.921" stop-color="#2B041D"/>
<stop offset="1" stop-color="#270024"/>
</radialGradient>
<radialGradient id="paint24_radial" cx="0" cy="0" r="1" gradientUnits="userSpaceOnUse" gradientTransform="translate(100.248 155.475) rotate(180) scale(2.41928 2.42422)">
<stop offset="0.00558659" stop-color="#3B1400"/>
<stop offset="0.3754" stop-color="#391203"/>
<stop offset="0.6625" stop-color="#340D0D"/>
<stop offset="0.921" stop-color="#2B041D"/>
<stop offset="1" stop-color="#270024"/>
</radialGradient>
<radialGradient id="paint25_radial" cx="0" cy="0" r="1" gradientUnits="userSpaceOnUse" gradientTransform="translate(108.313 161.674) rotate(180) scale(7.51297 7.52824)">
<stop offset="0.00558659" stop-color="#95452C"/>
<stop offset="0.36" stop-color="#92422D"/>
<stop offset="0.6352" stop-color="#883A30"/>
<stop offset="0.883" stop-color="#782B34"/>
<stop offset="1" stop-color="#6D2237"/>
</radialGradient>
<linearGradient id="paint26_linear" x1="35.0721" y1="158.15" x2="35.0721" y2="127.732" gradientUnits="userSpaceOnUse">
<stop offset="0.00558659" stop-color="#E4798B"/>
<stop offset="0.2466" stop-color="#ED877F"/>
<stop offset="0.7018" stop-color="#FA9C6D"/>
<stop offset="1" stop-color="#FFA466"/>
</linearGradient>
<radialGradient id="paint27_radial" cx="0" cy="0" r="1" gradientUnits="userSpaceOnUse" gradientTransform="translate(199.683 101.163) rotate(-178.777) scale(22.4416 22.4872)">
<stop offset="0.00558659" stop-color="#E0E6FF"/>
<stop offset="0.2609" stop-color="#DFE3FC"/>
<stop offset="0.4784" stop-color="#DBDAF1"/>
<stop offset="0.6821" stop-color="#D6CBE0"/>
<stop offset="0.8762" stop-color="#CEB5C7"/>
<stop offset="1" stop-color="#C7A4B3"/>
</radialGradient>
<radialGradient id="paint28_radial" cx="0" cy="0" r="1" gradientUnits="userSpaceOnUse" gradientTransform="translate(198.121 141.24) rotate(-178.777) scale(11.3015 11.3244)">
<stop offset="0.00558659" stop-color="#E0E6FF"/>
<stop offset="0.2609" stop-color="#DFE3FC"/>
<stop offset="0.4784" stop-color="#DBDAF1"/>
<stop offset="0.6821" stop-color="#D6CBE0"/>
<stop offset="0.8762" stop-color="#CEB5C7"/>
<stop offset="1" stop-color="#C7A4B3"/>
</radialGradient>
<linearGradient id="paint29_linear" x1="198.99" y1="125.733" x2="199.507" y2="101.525" gradientUnits="userSpaceOnUse">
<stop offset="0.00558659" stop-color="#CE2E13"/>
<stop offset="0.3636" stop-color="#CB2E15"/>
<stop offset="0.6416" stop-color="#C1301C"/>
<stop offset="0.8919" stop-color="#B13227"/>
<stop offset="1" stop-color="#A7332D"/>
</linearGradient>
<linearGradient id="paint30_linear" x1="192.921" y1="146.619" x2="198.309" y2="129.132" gradientUnits="userSpaceOnUse">
<stop stop-color="#FFA466"/>
<stop offset="0.2982" stop-color="#FA9C6D"/>
<stop offset="0.7534" stop-color="#ED877F"/>
<stop offset="0.9944" stop-color="#E4798B"/>
</linearGradient>
<linearGradient id="paint31_linear" x1="210.964" y1="142.875" x2="199.091" y2="142.875" gradientUnits="userSpaceOnUse">
<stop offset="0.00558659" stop-color="#E4798B"/>
<stop offset="0.2466" stop-color="#ED877F"/>
<stop offset="0.7018" stop-color="#FA9C6D"/>
<stop offset="1" stop-color="#FFA466"/>
</linearGradient>
<linearGradient id="paint32_linear" x1="205.72" y1="138.633" x2="206.054" y2="137.55" gradientUnits="userSpaceOnUse">
<stop stop-color="#CA528D"/>
<stop offset="1" stop-color="#B3757C"/>
</linearGradient>
<linearGradient id="paint33_linear" x1="203.192" y1="148.431" x2="203.564" y2="147.226" gradientUnits="userSpaceOnUse">
<stop stop-color="#CA528D"/>
<stop offset="1" stop-color="#B3757C"/>
</linearGradient>
<radialGradient id="paint34_radial" cx="0" cy="0" r="1" gradientUnits="userSpaceOnUse" gradientTransform="translate(137.288 133.41) rotate(180) scale(25.1188 25.1699)">
<stop offset="0.00558659" stop-color="#FFD700"/>
<stop offset="0.1998" stop-color="#FED400"/>
<stop offset="0.3653" stop-color="#FBC900"/>
<stop offset="0.5203" stop-color="#F6B800"/>
<stop offset="0.6688" stop-color="#EF9F00"/>
<stop offset="0.8117" stop-color="#E67F00"/>
<stop offset="0.824" stop-color="#E57C00"/>
<stop offset="0.8533" stop-color="#E27504"/>
<stop offset="0.8956" stop-color="#DA620E"/>
<stop offset="0.9456" stop-color="#CE431F"/>
<stop offset="0.9589" stop-color="#CA3924"/>
</radialGradient>
<radialGradient id="paint35_radial" cx="0" cy="0" r="1" gradientUnits="userSpaceOnUse" gradientTransform="translate(81.6797 133.393) rotate(180) scale(25.8722 25.9248)">
<stop offset="0.00558659" stop-color="#FFD700"/>
<stop offset="0.1998" stop-color="#FED400"/>
<stop offset="0.3653" stop-color="#FBC900"/>
<stop offset="0.5203" stop-color="#F6B800"/>
<stop offset="0.6688" stop-color="#EF9F00"/>
<stop offset="0.8117" stop-color="#E67F00"/>
<stop offset="0.824" stop-color="#E57C00"/>
<stop offset="0.8533" stop-color="#E27504"/>
<stop offset="0.8956" stop-color="#DA620E"/>
<stop offset="0.9456" stop-color="#CE431F"/>
<stop offset="0.9589" stop-color="#CA3924"/>
</radialGradient>
<linearGradient id="paint36_linear" x1="61.9701" y1="135.35" x2="37.9768" y2="135.35" gradientUnits="userSpaceOnUse">
<stop offset="0.0337302" stop-color="#DFCCDC"/>
<stop offset="0.2718" stop-color="#9680B7"/>
<stop offset="1" stop-color="#CFCFCF"/>
</linearGradient>
<radialGradient id="paint37_radial" cx="0" cy="0" r="1" gradientUnits="userSpaceOnUse" gradientTransform="translate(126.614 134.172) rotate(180) scale(21.6318 21.6757)">
<stop offset="0.00558659" stop-color="#FFD700"/>
<stop offset="0.1998" stop-color="#FED400"/>
<stop offset="0.3653" stop-color="#FBC900"/>
<stop offset="0.5203" stop-color="#F6B800"/>
<stop offset="0.6688" stop-color="#EF9F00"/>
<stop offset="0.8117" stop-color="#E67F00"/>
<stop offset="0.824" stop-color="#E57C00"/>
<stop offset="0.8533" stop-color="#E27504"/>
<stop offset="0.8956" stop-color="#DA620E"/>
<stop offset="0.9456" stop-color="#CE431F"/>
<stop offset="0.9589" stop-color="#CA3924"/>
</radialGradient>
<radialGradient id="paint38_radial" cx="0" cy="0" r="1" gradientUnits="userSpaceOnUse" gradientTransform="translate(70.9593 134.045) rotate(180) scale(21.7159 21.76)">
<stop offset="0.00558659" stop-color="#FFD700"/>
<stop offset="0.1998" stop-color="#FED400"/>
<stop offset="0.3653" stop-color="#FBC900"/>
<stop offset="0.5203" stop-color="#F6B800"/>
<stop offset="0.6688" stop-color="#EF9F00"/>
<stop offset="0.8117" stop-color="#E67F00"/>
<stop offset="0.824" stop-color="#E57C00"/>
<stop offset="0.8533" stop-color="#E27504"/>
<stop offset="0.8956" stop-color="#DA620E"/>
<stop offset="0.9456" stop-color="#CE431F"/>
<stop offset="0.9589" stop-color="#CA3924"/>
</radialGradient>
<linearGradient id="paint39_linear" x1="121.255" y1="130.74" x2="100.248" y2="130.74" gradientUnits="userSpaceOnUse">
<stop offset="0.0337302" stop-color="#DFCCDC"/>
<stop offset="0.2718" stop-color="#9680B7"/>
<stop offset="1" stop-color="#CFCFCF"/>
</linearGradient>
<radialGradient id="paint40_radial" cx="0" cy="0" r="1" gradientUnits="userSpaceOnUse" gradientTransform="translate(217.461 49.4835) rotate(180) scale(44.0747 44.1643)">
<stop offset="0.00558659" stop-color="#DBE0FF"/>
<stop offset="0.2609" stop-color="#DADDFC"/>
<stop offset="0.4784" stop-color="#D7D5F1"/>
<stop offset="0.6821" stop-color="#D3C7E0"/>
<stop offset="0.8762" stop-color="#CCB4C7"/>
<stop offset="1" stop-color="#C7A4B3"/>
</radialGradient>
<linearGradient id="paint41_linear" x1="204.314" y1="87.5132" x2="193.758" y2="87.5132" gradientUnits="userSpaceOnUse">
<stop stop-color="#934A38"/>
<stop offset="0.2541" stop-color="#9B4C3C"/>
<stop offset="0.6419" stop-color="#B05349"/>
<stop offset="0.9944" stop-color="#C95B57"/>
</linearGradient>
<radialGradient id="paint42_radial" cx="0" cy="0" r="1" gradientUnits="userSpaceOnUse" gradientTransform="translate(191.031 54.6289) rotate(-122.48) scale(20.703 20.6853)">
<stop offset="0.00558659" stop-color="#FFD700"/>
<stop offset="0.258" stop-color="#FCD500"/>
<stop offset="0.4731" stop-color="#F1CE00"/>
<stop offset="0.6745" stop-color="#E0C200"/>
<stop offset="0.8664" stop-color="#C7B100"/>
<stop offset="1" stop-color="#B1A200"/>
</radialGradient>
<radialGradient id="paint43_radial" cx="0" cy="0" r="1" gradientUnits="userSpaceOnUse" gradientTransform="translate(190.512 58.3862) rotate(-122.48) scale(1.9942 1.99249)">
<stop offset="0.00558659" stop-color="#842A2C"/>
<stop offset="0.3173" stop-color="#81282D"/>
<stop offset="0.5593" stop-color="#77232F"/>
<stop offset="0.7779" stop-color="#671B32"/>
<stop offset="0.9816" stop-color="#4F0E36"/>
<stop offset="1" stop-color="#4D0D37"/>
</radialGradient>
</defs>
</svg>
