<svg width="464" height="493" viewBox="0 0 464 493" fill="none" xmlns="http://www.w3.org/2000/svg">
<g clip-path="url(#clip0)">
<path fill-rule="evenodd" clip-rule="evenodd" d="M425.476 243.959C425.476 243.959 385.425 283.641 354.371 272.344C352.92 271.765 351.469 271.186 350.018 270.607C320.995 257.573 318.674 228.029 318.674 228.029V208.912C318.674 208.912 329.702 237.877 347.406 250.621C352.049 254.097 357.273 256.414 363.078 256.704C389.488 257.862 416.769 230.346 416.769 230.346C416.769 230.346 426.637 229.477 425.476 243.959Z" fill="url(#paint0_linear)"/>
<path opacity="0.74" fill-rule="evenodd" clip-rule="evenodd" d="M350.308 270.607C321.286 257.573 318.964 228.029 318.964 228.029V208.912C318.964 208.912 329.992 237.877 347.696 250.621C347.406 250.911 347.696 259.6 350.308 270.607Z" fill="url(#paint1_linear)"/>
<path fill-rule="evenodd" clip-rule="evenodd" d="M139.315 382.411H93.46C93.46 382.411 87.6555 233.533 105.94 54.2423C105.94 54.2423 166.887 27.0156 216.225 27.0156L139.315 382.411Z" fill="url(#paint2_linear)"/>
<path fill-rule="evenodd" clip-rule="evenodd" d="M139.315 382.41C139.315 382.41 129.158 187.769 145.41 51.056C145.41 51.056 213.322 -5.13527 305.033 54.2421C305.033 54.2421 340.15 226.291 330.283 379.804C330.283 379.804 246.408 418.037 139.315 382.41Z" fill="url(#paint3_radial)"/>
<path fill-rule="evenodd" clip-rule="evenodd" d="M261.79 226.002C261.79 226.002 267.884 207.176 285.588 204.569C305.613 201.672 312.579 224.265 312.289 234.692C311.998 234.981 286.749 219.051 261.79 226.002Z" fill="url(#paint4_radial)"/>
<path fill-rule="evenodd" clip-rule="evenodd" d="M156.439 240.484C156.439 240.484 153.827 213.547 170.079 206.596C184.3 200.513 200.843 210.361 206.067 224.264L156.439 240.484Z" fill="url(#paint5_radial)"/>
<path fill-rule="evenodd" clip-rule="evenodd" d="M330.282 379.806C330.282 379.806 208.679 433.39 93.46 382.412H139.315C139.315 382.412 197.94 398.633 229.285 396.895C285.588 393.998 330.282 379.806 330.282 379.806Z" fill="#24000A"/>
<path fill-rule="evenodd" clip-rule="evenodd" d="M169.789 402.394C169.789 402.394 158.18 468.433 195.909 466.406L181.978 400.656L169.789 402.394Z" fill="url(#paint6_linear)"/>
<path fill-rule="evenodd" clip-rule="evenodd" d="M181.978 400.947C181.978 400.947 169.208 460.904 195.909 466.697C222.61 472.2 249.6 400.947 249.6 400.947C249.6 400.947 231.316 399.499 181.978 400.947Z" fill="url(#paint7_linear)"/>
<path fill-rule="evenodd" clip-rule="evenodd" d="M105.94 54.2423L145.41 51.0562C145.41 51.0562 170.66 28.7534 216.225 27.0156C216.225 27.0156 167.467 26.4363 105.94 54.2423Z" fill="url(#paint8_linear)"/>
<path d="M182.849 272.055C197.595 272.055 209.55 257.92 209.55 240.483C209.55 223.047 197.595 208.912 182.849 208.912C168.103 208.912 156.148 223.047 156.148 240.483C156.148 257.92 168.103 272.055 182.849 272.055Z" fill="url(#paint9_radial)"/>
<path fill-rule="evenodd" clip-rule="evenodd" d="M192.136 243.091C192.136 252.649 185.751 260.469 177.625 260.469C169.499 260.469 163.114 252.649 163.114 243.091C163.114 233.532 169.499 225.712 177.625 225.712C185.751 226.002 192.136 233.532 192.136 243.091Z" fill="url(#paint10_radial)"/>
<path d="M285.298 272.055C300.044 272.055 311.998 257.92 311.998 240.483C311.998 223.047 300.044 208.912 285.298 208.912C270.552 208.912 258.597 223.047 258.597 240.483C258.597 257.92 270.552 272.055 285.298 272.055Z" fill="url(#paint11_radial)"/>
<path fill-rule="evenodd" clip-rule="evenodd" d="M295.456 243.091C295.456 252.649 289.071 260.469 280.945 260.469C272.819 260.469 266.434 252.649 266.434 243.091C266.434 233.532 272.819 225.712 280.945 225.712C288.781 226.002 295.456 233.532 295.456 243.091Z" fill="url(#paint12_radial)"/>
<path fill-rule="evenodd" clip-rule="evenodd" d="M257.436 295.516C252.212 303.047 244.086 309.709 231.897 309.709C219.707 309.709 210.42 299.571 206.067 290.013C202.584 281.903 202.584 274.372 207.518 272.924C213.903 271.476 222.319 275.531 236.54 275.531C250.761 275.531 259.178 265.973 262.951 272.924C264.982 276.979 263.241 286.827 257.436 295.516Z" fill="url(#paint13_linear)"/>
<path fill-rule="evenodd" clip-rule="evenodd" d="M257.436 295.518C236.831 281.615 206.067 290.304 206.067 290.304C202.584 282.194 202.584 274.663 207.518 273.215C213.903 271.767 222.319 275.822 236.54 275.822C250.761 275.822 259.178 266.264 262.951 273.215C264.982 276.98 263.241 286.828 257.436 295.518Z" fill="url(#paint14_linear)"/>
<path fill-rule="evenodd" clip-rule="evenodd" d="M214.193 273.215C214.193 273.215 228.704 283.933 242.925 281.905C242.925 281.905 249.601 279.009 253.664 272.057C253.664 272.057 247.279 275.822 236.54 275.822C226.092 276.112 214.193 273.215 214.193 273.215Z" fill="url(#paint15_radial)"/>
<path fill-rule="evenodd" clip-rule="evenodd" d="M218.256 305.366C218.256 305.366 239.152 307.973 250.471 303.338C250.471 303.338 240.313 311.738 231.897 310C223.48 307.973 218.256 305.366 218.256 305.366Z" fill="url(#paint16_radial)"/>
<path d="M294.585 252.939C296.989 252.939 298.939 250.994 298.939 248.594C298.939 246.194 296.989 244.249 294.585 244.249C292.181 244.249 290.232 246.194 290.232 248.594C290.232 250.994 292.181 252.939 294.585 252.939Z" fill="white"/>
<path d="M190.105 254.967C192.509 254.967 194.458 253.022 194.458 250.622C194.458 248.223 192.509 246.277 190.105 246.277C187.7 246.277 185.751 248.223 185.751 250.622C185.751 253.022 187.7 254.967 190.105 254.967Z" fill="white"/>
<path fill-rule="evenodd" clip-rule="evenodd" d="M410.675 226.001C408.643 219.918 410.965 211.229 402.839 201.671C402.839 201.671 401.097 195.299 408.353 192.981C408.353 192.981 415.899 198.195 419.381 206.305C419.381 206.305 424.605 191.823 430.41 176.182C430.41 176.182 435.344 174.734 439.117 177.92L435.053 195.878L447.243 177.92C447.243 177.92 455.949 176.182 458.852 185.74L452.177 202.829L458.852 195.009C458.852 195.009 465.237 195.299 463.786 201.96L453.918 217.312C453.918 217.312 443.47 240.483 425.476 243.959C425.476 243.959 412.416 231.504 410.675 226.001Z" fill="url(#paint17_linear)"/>
<path fill-rule="evenodd" clip-rule="evenodd" d="M261.79 254.677C261.79 254.677 282.396 261.339 309.386 254.677C309.386 254.677 305.033 274.373 284.427 274.373C263.531 274.373 261.79 254.677 261.79 254.677Z" fill="url(#paint18_radial)"/>
<path fill-rule="evenodd" clip-rule="evenodd" d="M157.6 252.649C157.6 252.649 181.688 261.049 206.357 255.546C206.357 255.546 199.102 274.662 180.237 274.373C161.373 274.083 157.6 252.649 157.6 252.649Z" fill="url(#paint19_radial)"/>
<path fill-rule="evenodd" clip-rule="evenodd" d="M136.413 226.002C136.413 226.002 139.315 94.7927 154.407 56.5595C154.407 56.5595 172.981 31.9396 216.225 27.0156C216.225 27.0156 174.432 27.0156 145.41 51.0562C145.41 51.0562 130.899 132.157 136.413 226.002Z" fill="url(#paint20_radial)"/>
<path opacity="0.74" fill-rule="evenodd" clip-rule="evenodd" d="M168.048 421.223L179.657 415.72L240.313 421.223L249.31 400.948C226.673 400.079 208.098 400.369 181.688 400.948L169.499 402.396L168.048 421.223Z" fill="url(#paint21_linear)"/>
<path fill-rule="evenodd" clip-rule="evenodd" d="M161.372 172.706C161.372 172.706 172.691 155.327 193.877 154.458V163.727C193.877 163.727 179.656 164.596 166.887 174.444L161.372 172.706Z" fill="url(#paint22_linear)"/>
<path fill-rule="evenodd" clip-rule="evenodd" d="M298.938 169.521C298.938 169.521 291.683 157.356 270.496 156.197V165.466C270.496 165.466 285.298 164.307 295.165 172.417L298.938 169.521Z" fill="url(#paint23_linear)"/>
<path fill-rule="evenodd" clip-rule="evenodd" d="M145.41 51.0565L142.798 66.987L171.82 36.5742C159.921 39.4707 145.41 51.0565 145.41 51.0565Z" fill="white"/>
<path fill-rule="evenodd" clip-rule="evenodd" d="M222.029 27.0156C222.029 27.0156 270.496 27.0156 298.938 59.4559C298.938 59.4559 323.607 140.557 327.67 222.237C327.67 222.237 320.415 117.385 305.033 53.9527C305.033 54.2423 272.818 29.0431 222.029 27.0156Z" fill="url(#paint24_radial)"/>
<path fill-rule="evenodd" clip-rule="evenodd" d="M93.4602 382.41C93.4602 382.41 89.1068 193.561 105.94 54.2416L124.514 53.083C124.514 53.083 111.744 204.857 116.098 381.541L93.4602 382.41Z" fill="url(#paint25_linear)"/>
<path opacity="0.5" fill-rule="evenodd" clip-rule="evenodd" d="M253.664 32.2295L266.143 185.742H324.478C324.478 185.742 315.481 95.3722 305.033 54.2426C305.033 54.2426 285.298 37.4431 253.664 32.2295Z" fill="#81282D"/>
<path opacity="0.5" fill-rule="evenodd" clip-rule="evenodd" d="M136.994 306.522L331.443 360.686L330.573 379.803C330.573 379.803 240.603 421.512 139.606 382.41C139.315 382.41 134.672 347.073 136.994 306.522Z" fill="#81282D"/>
<path opacity="0.5" fill-rule="evenodd" clip-rule="evenodd" d="M419.091 206.305C419.091 206.305 427.217 213.257 429.249 222.525C429.249 222.525 437.085 225.711 442.889 226.001C448.694 226.001 451.306 216.153 451.306 216.153C451.306 216.153 446.372 202.25 425.476 200.802L419.091 206.305Z" fill="url(#paint26_linear)"/>
<path fill-rule="evenodd" clip-rule="evenodd" d="M110.873 240.483C97.5231 256.124 87.6555 275.82 80.3999 294.937C65.0181 335.777 60.9549 375.169 60.9549 375.169C48.7656 382.699 38.3175 375.748 38.3175 375.748C47.6047 336.066 61.8256 301.888 74.5954 275.82C91.1382 242.511 105.649 222.525 105.649 222.525C114.066 227.16 110.873 240.483 110.873 240.483Z" fill="url(#paint27_linear)"/>
<path fill-rule="evenodd" clip-rule="evenodd" d="M61.5356 372.272C61.5356 372.272 59.7942 386.755 80.6903 396.892C80.6903 396.892 80.6903 407.609 69.3716 405.002C69.3716 405.002 62.4062 399.789 54.8604 397.472C54.8604 397.472 48.4755 417.747 34.5448 425.857C34.5448 425.857 28.7403 426.147 25.8381 419.195C25.8381 419.195 30.7719 411.664 34.5448 404.423C34.5448 404.423 25.8381 415.14 17.4216 418.905C17.4216 418.905 10.4562 420.643 7.26375 414.271L11.3269 408.189L7.26375 409.926C7.26375 409.926 -0.282061 408.768 0.00816222 399.499C0.00816222 399.499 22.9358 397.472 38.6079 375.748C38.6079 375.748 54.5702 378.355 61.5356 372.272Z" fill="url(#paint28_linear)"/>
<path opacity="0.74" fill-rule="evenodd" clip-rule="evenodd" d="M110.874 240.483C97.5236 256.124 87.6559 275.82 80.4004 294.937C79.8199 285.378 77.2079 279.296 74.8861 275.82C91.4289 242.511 105.94 222.525 105.94 222.525C114.066 227.16 110.874 240.483 110.874 240.483Z" fill="url(#paint29_linear)"/>
<path fill-rule="evenodd" clip-rule="evenodd" d="M207.808 293.199C207.808 293.199 216.225 314.633 234.509 314.923C252.793 315.212 260.339 290.303 260.339 290.303C260.339 290.303 251.051 309.419 233.928 309.999C216.805 310.578 207.808 293.199 207.808 293.199Z" fill="url(#paint30_radial)"/>
<path fill-rule="evenodd" clip-rule="evenodd" d="M92.5895 323.324C92.5895 323.324 105.65 318.979 115.227 338.096C124.804 357.212 138.155 354.895 141.927 351.13C145.991 347.075 145.41 342.151 148.893 338.385C152.376 334.62 174.723 354.026 222.029 369.667C269.336 385.308 280.654 371.115 286.749 369.667C292.844 368.219 289.071 384.728 301.26 385.308C313.45 385.887 308.226 371.405 311.998 368.508C315.771 365.612 330.283 379.515 330.283 379.515C330.283 379.515 281.815 403.555 208.679 404.135C135.543 404.714 93.4602 382.122 93.4602 382.122L92.5895 323.324Z" fill="url(#paint31_radial)"/>
<path opacity="0.74" fill-rule="evenodd" clip-rule="evenodd" d="M138.155 353.157L139.315 382.411C139.315 382.411 218.256 421.513 330.283 379.804C330.283 379.804 287.039 404.424 202.874 404.424C118.71 404.424 93.4602 382.411 93.4602 382.411L92.5895 323.323C92.5895 323.323 103.038 319.268 110.583 330.854C118.419 342.73 123.353 351.998 138.155 353.157Z" fill="url(#paint32_linear)"/>
<path opacity="0.74" fill-rule="evenodd" clip-rule="evenodd" d="M93.1698 323.323C93.1698 323.323 105.069 323.034 111.454 336.647C117.839 350.26 121.612 361.556 132.93 361.846C144.249 362.136 147.442 341.571 151.795 340.702C156.148 339.833 197.07 371.404 230.155 379.514C263.241 387.624 282.976 371.404 286.749 372.273C290.522 373.142 290.232 385.018 297.197 387.335C305.033 389.942 310.257 386.466 311.708 382.411C313.159 378.066 310.547 371.984 313.159 370.535C315.771 368.797 330.282 379.804 330.282 379.804V377.197C330.282 377.197 317.513 364.453 311.708 366.48C305.904 368.508 311.418 379.804 305.033 381.252C298.648 382.7 294.295 374.011 291.393 367.06C288.2 360.108 274.85 375.459 253.954 372.273C212.161 366.191 156.439 329.695 149.473 329.985C142.508 330.275 147.442 347.943 131.479 347.074C121.612 346.495 112.615 315.213 93.1698 323.323Z" fill="url(#paint33_linear)"/>
<path fill-rule="evenodd" clip-rule="evenodd" d="M234.509 367.928C234.509 367.928 251.342 373.721 263.821 372.562C276.301 371.404 282.105 367.059 282.105 367.059C282.105 367.059 276.881 368.797 261.209 369.955C245.828 370.824 234.509 367.928 234.509 367.928Z" fill="white"/>
<path fill-rule="evenodd" clip-rule="evenodd" d="M209.549 358.37C209.549 358.37 224.931 357.791 226.673 365.033C226.673 365.322 213.613 360.108 209.549 358.37Z" fill="white"/>
<path opacity="0.74" fill-rule="evenodd" clip-rule="evenodd" d="M93.46 382.412H139.315C139.315 382.412 164.855 397.764 226.673 398.922C288.49 400.081 330.282 379.806 330.282 379.806C330.282 379.806 282.105 403.557 213.613 404.426C126.545 405.294 93.46 382.412 93.46 382.412Z" fill="url(#paint34_linear)"/>
<path fill-rule="evenodd" clip-rule="evenodd" d="M113.776 329.405C113.776 329.405 121.612 342.729 128.577 345.915C128.287 345.915 125.965 333.46 113.776 329.405Z" fill="white"/>
</g>
<defs>
<linearGradient id="paint0_linear" x1="372.265" y1="274.341" x2="372.265" y2="208.75" gradientUnits="userSpaceOnUse">
<stop offset="0.00558659" stop-color="#E4798B"/>
<stop offset="0.2466" stop-color="#ED877F"/>
<stop offset="0.7018" stop-color="#FA9C6D"/>
<stop offset="1" stop-color="#FFA466"/>
</linearGradient>
<linearGradient id="paint1_linear" x1="334.529" y1="270.497" x2="334.529" y2="208.75" gradientUnits="userSpaceOnUse">
<stop stop-color="#CA528D"/>
<stop offset="1" stop-color="#B3757C"/>
</linearGradient>
<linearGradient id="paint2_linear" x1="92.648" y1="204.67" x2="157.351" y2="204.67" gradientUnits="userSpaceOnUse">
<stop stop-color="#1C0013"/>
<stop offset="0.9944" stop-color="#400A13"/>
</linearGradient>
<radialGradient id="paint3_radial" cx="0" cy="0" r="1" gradientUnits="userSpaceOnUse" gradientTransform="translate(292.01 107.7) scale(193.182 240.575)">
<stop offset="0.00558659" stop-color="#842A2C"/>
<stop offset="0.3173" stop-color="#81282D"/>
<stop offset="0.5593" stop-color="#77232F"/>
<stop offset="0.7779" stop-color="#671B32"/>
<stop offset="0.9816" stop-color="#4F0E36"/>
<stop offset="1" stop-color="#4D0D37"/>
</radialGradient>
<radialGradient id="paint4_radial" cx="0" cy="0" r="1" gradientUnits="userSpaceOnUse" gradientTransform="translate(286.862 219.683) scale(20.8439 20.8023)">
<stop offset="0.00558659" stop-color="#3B1400"/>
<stop offset="0.3754" stop-color="#391203"/>
<stop offset="0.6625" stop-color="#340D0D"/>
<stop offset="0.921" stop-color="#2B041D"/>
<stop offset="1" stop-color="#270024"/>
</radialGradient>
<radialGradient id="paint5_radial" cx="0" cy="0" r="1" gradientUnits="userSpaceOnUse" gradientTransform="translate(180.943 222.473) scale(21.6533 21.6102)">
<stop offset="0.00558659" stop-color="#3B1400"/>
<stop offset="0.3754" stop-color="#391203"/>
<stop offset="0.6625" stop-color="#340D0D"/>
<stop offset="0.921" stop-color="#2B041D"/>
<stop offset="1" stop-color="#270024"/>
</radialGradient>
<linearGradient id="paint6_linear" x1="181.896" y1="466.629" x2="181.896" y2="400.973" gradientUnits="userSpaceOnUse">
<stop stop-color="#C9635C"/>
<stop offset="0.9707" stop-color="#C95B57"/>
<stop offset="0.9944" stop-color="#C95B57"/>
</linearGradient>
<linearGradient id="paint7_linear" x1="214.13" y1="466.889" x2="214.13" y2="400.368" gradientUnits="userSpaceOnUse">
<stop stop-color="#FFA466"/>
<stop offset="0.2982" stop-color="#FA9C6D"/>
<stop offset="0.7534" stop-color="#ED877F"/>
<stop offset="0.9944" stop-color="#E4798B"/>
</linearGradient>
<linearGradient id="paint8_linear" x1="161.157" y1="54.2391" x2="161.157" y2="27.0156" gradientUnits="userSpaceOnUse">
<stop stop-color="#934A38"/>
<stop offset="0.2541" stop-color="#9B4C3C"/>
<stop offset="0.6419" stop-color="#B05349"/>
<stop offset="0.9944" stop-color="#C95B57"/>
</linearGradient>
<radialGradient id="paint9_radial" cx="0" cy="0" r="1" gradientUnits="userSpaceOnUse" gradientTransform="translate(182.95 221.597) scale(49.0599 50.7131)">
<stop offset="0.00558659" stop-color="white"/>
<stop offset="0.2415" stop-color="#FDFCFC"/>
<stop offset="0.4427" stop-color="#F6F1F3"/>
<stop offset="0.631" stop-color="#ECE0E5"/>
<stop offset="0.8115" stop-color="#DCC7D0"/>
<stop offset="0.985" stop-color="#C9A7B6"/>
<stop offset="1" stop-color="#C7A4B3"/>
</radialGradient>
<radialGradient id="paint10_radial" cx="0" cy="0" r="1" gradientUnits="userSpaceOnUse" gradientTransform="translate(177.644 243.182) scale(15.6787 16.207)">
<stop offset="0.00558659" stop-color="#3B1400"/>
<stop offset="0.3754" stop-color="#391203"/>
<stop offset="0.6625" stop-color="#340D0D"/>
<stop offset="0.921" stop-color="#2B041D"/>
<stop offset="1" stop-color="#270024"/>
</radialGradient>
<radialGradient id="paint11_radial" cx="0" cy="0" r="1" gradientUnits="userSpaceOnUse" gradientTransform="translate(285.409 221.597) scale(49.0599 50.7131)">
<stop offset="0.00558659" stop-color="white"/>
<stop offset="0.2415" stop-color="#FDFCFC"/>
<stop offset="0.4427" stop-color="#F6F1F3"/>
<stop offset="0.631" stop-color="#ECE0E5"/>
<stop offset="0.8115" stop-color="#DCC7D0"/>
<stop offset="0.985" stop-color="#C9A7B6"/>
<stop offset="1" stop-color="#C7A4B3"/>
</radialGradient>
<radialGradient id="paint12_radial" cx="0" cy="0" r="1" gradientUnits="userSpaceOnUse" gradientTransform="translate(280.855 243.182) scale(15.6787 16.207)">
<stop offset="0.00558659" stop-color="#3B1400"/>
<stop offset="0.3754" stop-color="#391203"/>
<stop offset="0.6625" stop-color="#340D0D"/>
<stop offset="0.921" stop-color="#2B041D"/>
<stop offset="1" stop-color="#270024"/>
</radialGradient>
<linearGradient id="paint13_linear" x1="233.694" y1="309.789" x2="233.694" y2="270.662" gradientUnits="userSpaceOnUse">
<stop offset="0.00558659" stop-color="#CE2E13"/>
<stop offset="0.3636" stop-color="#CB2E15"/>
<stop offset="0.6416" stop-color="#C1301C"/>
<stop offset="0.8919" stop-color="#B13227"/>
<stop offset="1" stop-color="#A7332D"/>
</linearGradient>
<linearGradient id="paint14_linear" x1="203.637" y1="283.122" x2="263.752" y2="283.122" gradientUnits="userSpaceOnUse">
<stop stop-color="#CA528D"/>
<stop offset="1" stop-color="#B3757C"/>
</linearGradient>
<radialGradient id="paint15_radial" cx="0" cy="0" r="1" gradientUnits="userSpaceOnUse" gradientTransform="translate(233.95 277.001) scale(14.4398 14.4119)">
<stop offset="0.00558659" stop-color="white"/>
<stop offset="0.2415" stop-color="#FDFCFC"/>
<stop offset="0.4427" stop-color="#F6F1F3"/>
<stop offset="0.631" stop-color="#ECE0E5"/>
<stop offset="0.8115" stop-color="#DCC7D0"/>
<stop offset="0.985" stop-color="#C9A7B6"/>
<stop offset="1" stop-color="#C7A4B3"/>
</radialGradient>
<radialGradient id="paint16_radial" cx="0" cy="0" r="1" gradientUnits="userSpaceOnUse" gradientTransform="translate(234.524 306.575) scale(11.6838 11.6613)">
<stop offset="0.00558659" stop-color="white"/>
<stop offset="0.2415" stop-color="#FDFCFC"/>
<stop offset="0.4427" stop-color="#F6F1F3"/>
<stop offset="0.631" stop-color="#ECE0E5"/>
<stop offset="0.8115" stop-color="#DCC7D0"/>
<stop offset="0.985" stop-color="#C9A7B6"/>
<stop offset="1" stop-color="#C7A4B3"/>
</radialGradient>
<linearGradient id="paint17_linear" x1="433.349" y1="243.907" x2="433.349" y2="175.939" gradientUnits="userSpaceOnUse">
<stop stop-color="#FFA466"/>
<stop offset="0.2982" stop-color="#FA9C6D"/>
<stop offset="0.7534" stop-color="#ED877F"/>
<stop offset="0.9944" stop-color="#E4798B"/>
</linearGradient>
<radialGradient id="paint18_radial" cx="0" cy="0" r="1" gradientUnits="userSpaceOnUse" gradientTransform="translate(283.882 256.486) scale(19.3388 19.3002)">
<stop offset="0.00558659" stop-color="#86392C"/>
<stop offset="0.3531" stop-color="#83362D"/>
<stop offset="0.6229" stop-color="#792E2F"/>
<stop offset="0.8659" stop-color="#692034"/>
<stop offset="1" stop-color="#5C1537"/>
</radialGradient>
<radialGradient id="paint19_radial" cx="0" cy="0" r="1" gradientUnits="userSpaceOnUse" gradientTransform="translate(183.023 251.913) scale(24.3579 24.3094)">
<stop offset="0.00558659" stop-color="#86392C"/>
<stop offset="0.3531" stop-color="#83362D"/>
<stop offset="0.6229" stop-color="#792E2F"/>
<stop offset="0.8659" stop-color="#692034"/>
<stop offset="1" stop-color="#5C1537"/>
</radialGradient>
<radialGradient id="paint20_radial" cx="0" cy="0" r="1" gradientUnits="userSpaceOnUse" gradientTransform="translate(141.722 50.3153) scale(94.2808 94.0931)">
<stop offset="0.00558659" stop-color="#95452C"/>
<stop offset="0.36" stop-color="#92422D"/>
<stop offset="0.6352" stop-color="#883A30"/>
<stop offset="0.883" stop-color="#782B34"/>
<stop offset="1" stop-color="#6D2237"/>
</radialGradient>
<linearGradient id="paint21_linear" x1="168.041" y1="410.851" x2="249.405" y2="410.851" gradientUnits="userSpaceOnUse">
<stop stop-color="#CA528D"/>
<stop offset="1" stop-color="#B3757C"/>
</linearGradient>
<linearGradient id="paint22_linear" x1="161.406" y1="164.222" x2="193.881" y2="164.222" gradientUnits="userSpaceOnUse">
<stop offset="0.00558659" stop-color="#430900"/>
<stop offset="0.3754" stop-color="#410803"/>
<stop offset="0.6625" stop-color="#39060D"/>
<stop offset="0.921" stop-color="#2C021D"/>
<stop offset="1" stop-color="#270024"/>
</linearGradient>
<linearGradient id="paint23_linear" x1="298.964" y1="164.223" x2="270.625" y2="164.223" gradientUnits="userSpaceOnUse">
<stop offset="0.00558659" stop-color="#430900"/>
<stop offset="0.3754" stop-color="#410803"/>
<stop offset="0.6625" stop-color="#39060D"/>
<stop offset="0.921" stop-color="#2C021D"/>
<stop offset="1" stop-color="#270024"/>
</linearGradient>
<radialGradient id="paint24_radial" cx="0" cy="0" r="1" gradientUnits="userSpaceOnUse" gradientTransform="translate(230.642 49.97) scale(97.8169 97.6221)">
<stop offset="0.00558659" stop-color="#A95C2C"/>
<stop offset="0.4036" stop-color="#A9592D"/>
<stop offset="0.7122" stop-color="#A84F31"/>
<stop offset="0.9905" stop-color="#A73F37"/>
<stop offset="1" stop-color="#A73E37"/>
</radialGradient>
<linearGradient id="paint25_linear" x1="93.0025" y1="217.67" x2="124.422" y2="217.67" gradientUnits="userSpaceOnUse">
<stop stop-color="#512C2C"/>
<stop offset="0.1713" stop-color="#3D2121"/>
<stop offset="0.5899" stop-color="#110909"/>
<stop offset="0.8021"/>
</linearGradient>
<linearGradient id="paint26_linear" x1="435.308" y1="225.898" x2="435.308" y2="200.683" gradientUnits="userSpaceOnUse">
<stop stop-color="#CA528D"/>
<stop offset="1" stop-color="#B3757C"/>
</linearGradient>
<linearGradient id="paint27_linear" x1="75.1094" y1="378.689" x2="75.1094" y2="222.504" gradientUnits="userSpaceOnUse">
<stop stop-color="#FFA466"/>
<stop offset="0.2982" stop-color="#FA9C6D"/>
<stop offset="0.7534" stop-color="#ED877F"/>
<stop offset="0.9944" stop-color="#E4798B"/>
</linearGradient>
<linearGradient id="paint28_linear" x1="40.3919" y1="425.864" x2="40.3919" y2="372.319" gradientUnits="userSpaceOnUse">
<stop offset="0.00558659" stop-color="#E4798B"/>
<stop offset="0.2466" stop-color="#ED877F"/>
<stop offset="0.7018" stop-color="#FA9C6D"/>
<stop offset="1" stop-color="#FFA466"/>
</linearGradient>
<linearGradient id="paint29_linear" x1="93.2755" y1="294.954" x2="93.2755" y2="222.504" gradientUnits="userSpaceOnUse">
<stop stop-color="#CA528D"/>
<stop offset="1" stop-color="#B3757C"/>
</linearGradient>
<radialGradient id="paint30_radial" cx="0" cy="0" r="1" gradientUnits="userSpaceOnUse" gradientTransform="translate(211.939 293.108) scale(26.2269 26.1747)">
<stop offset="0.00558659" stop-color="#95452C"/>
<stop offset="0.36" stop-color="#92422D"/>
<stop offset="0.6352" stop-color="#883A30"/>
<stop offset="0.883" stop-color="#782B34"/>
<stop offset="1" stop-color="#6D2237"/>
</radialGradient>
<radialGradient id="paint31_radial" cx="0" cy="0" r="1" gradientUnits="userSpaceOnUse" gradientTransform="translate(168.309 349.485) scale(126.649 126.397)">
<stop offset="0.00558659" stop-color="white"/>
<stop offset="0.1985" stop-color="#FDFCFC"/>
<stop offset="0.3629" stop-color="#F6F1F3"/>
<stop offset="0.5168" stop-color="#ECE0E5"/>
<stop offset="0.6643" stop-color="#DCC7D0"/>
<stop offset="0.8062" stop-color="#C9A7B6"/>
<stop offset="0.8184" stop-color="#C7A4B3"/>
<stop offset="0.8629" stop-color="#CEA4B4"/>
<stop offset="0.9271" stop-color="#E1A3B8"/>
<stop offset="1" stop-color="#FFA2BD"/>
</radialGradient>
<linearGradient id="paint32_linear" x1="92.6481" y1="363.483" x2="330.343" y2="363.483" gradientUnits="userSpaceOnUse">
<stop stop-color="#CA528D"/>
<stop offset="1" stop-color="#DDC2C5"/>
</linearGradient>
<linearGradient id="paint33_linear" x1="93.2752" y1="355.124" x2="330.343" y2="355.124" gradientUnits="userSpaceOnUse">
<stop stop-color="#CA528D"/>
<stop offset="1" stop-color="#B3757C"/>
</linearGradient>
<linearGradient id="paint34_linear" x1="93.5168" y1="392.018" x2="330.342" y2="392.018" gradientUnits="userSpaceOnUse">
<stop stop-color="#CA528D"/>
<stop offset="1" stop-color="#DDC2C5"/>
</linearGradient>
<clipPath id="clip0">
<rect width="464" height="493" fill="white"/>
</clipPath>
</defs>
</svg>
