<svg width="475" height="446" viewBox="0 0 475 446" fill="none" xmlns="http://www.w3.org/2000/svg">
<path fill-rule="evenodd" clip-rule="evenodd" d="M133.146 141.842C133.146 141.842 99.6086 167.64 97.3154 189.426C96.7421 195.445 97.8887 201.178 100.182 206.051C105.915 218.95 117.667 227.55 117.667 227.55L114.228 243.029C114.228 243.029 94.7356 229.27 86.1361 209.204C84.1296 204.618 82.6964 199.745 82.1231 194.872C79.2566 167.354 127.413 128.656 127.413 128.656C127.413 128.656 135.726 133.243 133.146 141.842Z" fill="url(#paint0_linear)"/>
<path opacity="0.74" fill-rule="evenodd" clip-rule="evenodd" d="M117.954 227.835L114.514 243.314C114.514 243.314 95.0223 229.554 86.4229 209.489C89.8626 208.629 94.7356 207.483 100.182 206.336C106.202 219.235 117.954 227.835 117.954 227.835Z" fill="url(#paint1_linear)"/>
<path fill-rule="evenodd" clip-rule="evenodd" d="M121.107 140.691C121.107 140.691 120.821 123.779 111.648 112.026C111.648 112.026 117.668 103.714 123.687 106.293C123.974 106.293 121.681 135.818 121.107 140.691Z" fill="url(#paint2_linear)"/>
<path fill-rule="evenodd" clip-rule="evenodd" d="M357.305 355.393L312.301 353.386L203.088 41.7999L189.903 4.82233C200.509 2.52914 210.828 1.0959 220.574 0.522603C221.721 0.522603 222.58 0.522603 223.727 0.522603C228.027 0.235955 232.04 0.235955 236.053 0.522603C236.626 0.522603 237.2 0.522603 237.486 0.522603C238.919 0.522603 239.493 0.522603 239.493 0.522603C239.493 0.522603 240.639 3.10244 242.073 6.54221C245.226 13.9951 250.385 25.461 252.392 26.6076C255.258 28.3275 267.871 29.1874 267.871 29.1874C267.871 29.1874 269.304 50.1127 280.197 67.3116C283.063 71.898 290.229 76.771 298.542 81.3574C318.321 91.9634 345.553 100.849 345.553 100.849C372.784 242.454 357.305 355.393 357.305 355.393Z" fill="url(#paint3_linear)"/>
<path fill-rule="evenodd" clip-rule="evenodd" d="M272.744 382.05C272.744 382.05 257.551 445.399 224.3 445.399L260.705 380.33L272.744 382.05Z" fill="url(#paint4_linear)"/>
<path fill-rule="evenodd" clip-rule="evenodd" d="M260.705 380.33C260.705 380.33 246.946 445.399 224.301 445.399C197.356 445.399 193.916 380.33 193.916 380.33C193.916 380.33 211.975 379.183 260.705 380.33Z" fill="url(#paint5_linear)"/>
<path opacity="0.74" fill-rule="evenodd" clip-rule="evenodd" d="M268.157 397.532L262.998 395.239L195.349 390.653L194.202 380.62C216.561 379.76 234.906 380.047 260.991 380.62L273.03 382.053L268.157 397.532Z" fill="url(#paint6_linear)"/>
<path fill-rule="evenodd" clip-rule="evenodd" d="M312.015 353.103C312.015 353.103 213.408 412.44 115.088 351.957C115.088 351.957 109.068 199.46 125.407 50.1163C131.14 33.2041 153.212 14.2853 183.023 6.54579C185.317 5.9725 187.61 5.3992 189.903 4.8259C205.955 1.67277 223.727 1.67277 242.36 6.83244C245.513 14.2853 250.672 25.7512 252.679 26.8978C255.545 28.6177 268.158 29.4776 268.158 29.4776C268.158 29.4776 269.591 50.403 280.484 67.6018C283.35 72.1882 290.516 77.0612 298.829 81.6476C300.262 91.3936 301.982 102.286 303.702 114.325C311.442 173.662 314.595 263.096 312.015 353.103Z" fill="url(#paint7_radial)"/>
<path fill-rule="evenodd" clip-rule="evenodd" d="M115.088 351.956C115.088 351.956 190.19 427.058 357.306 355.396L312.302 353.389C312.302 353.389 267.871 374.315 201.082 374.315C146.906 374.315 115.088 351.956 115.088 351.956Z" fill="url(#paint8_linear)"/>
<path fill-rule="evenodd" clip-rule="evenodd" d="M241.499 196.301C241.499 196.301 247.519 177.669 265.004 175.089C284.783 172.223 291.663 194.582 291.376 204.901C291.089 204.901 266.151 189.422 241.499 196.301Z" fill="url(#paint9_radial)"/>
<path fill-rule="evenodd" clip-rule="evenodd" d="M137.447 210.349C137.447 210.349 134.867 183.69 150.919 176.811C164.965 170.791 181.304 180.537 186.463 194.296L137.447 210.349Z" fill="url(#paint10_radial)"/>
<path d="M163.818 241.594C178.383 241.594 190.19 227.605 190.19 210.349C190.19 193.093 178.383 179.104 163.818 179.104C149.253 179.104 137.446 193.093 137.446 210.349C137.446 227.605 149.253 241.594 163.818 241.594Z" fill="url(#paint11_radial)"/>
<path fill-rule="evenodd" clip-rule="evenodd" d="M183.023 199.171C183.023 208.63 176.717 216.369 168.691 216.369C160.665 216.369 154.358 208.63 154.358 199.171C154.358 189.711 160.665 181.972 168.691 181.972C176.717 181.972 183.023 189.711 183.023 199.171Z" fill="url(#paint12_radial)"/>
<path d="M265.004 241.594C279.569 241.594 291.376 227.605 291.376 210.349C291.376 193.093 279.569 179.104 265.004 179.104C250.44 179.104 238.633 193.093 238.633 210.349C238.633 227.605 250.44 241.594 265.004 241.594Z" fill="url(#paint13_radial)"/>
<path fill-rule="evenodd" clip-rule="evenodd" d="M283.35 198.598C283.35 208.058 277.044 215.797 269.017 215.797C260.991 215.797 254.685 208.058 254.685 198.598C254.685 189.139 260.991 181.399 269.017 181.399C277.044 181.686 283.35 189.139 283.35 198.598Z" fill="url(#paint14_radial)"/>
<path d="M277.33 217.231C279.705 217.231 281.63 215.306 281.63 212.932C281.63 210.557 279.705 208.632 277.33 208.632C274.956 208.632 273.031 210.557 273.031 212.932C273.031 215.306 274.956 217.231 277.33 217.231Z" fill="white"/>
<path fill-rule="evenodd" clip-rule="evenodd" d="M188.469 248.475C188.469 248.475 189.902 250.768 193.916 250.768C198.215 250.768 202.228 249.335 209.395 249.335C216.561 249.335 221.434 250.768 225.447 250.768C229.46 250.768 231.18 246.755 231.18 246.755C231.18 246.755 196.495 246.469 188.469 248.475Z" fill="url(#paint15_radial)"/>
<path d="M170.697 220.384C173.072 220.384 174.997 218.459 174.997 216.084C174.997 213.709 173.072 211.784 170.697 211.784C168.323 211.784 166.397 213.709 166.397 216.084C166.397 218.459 168.323 220.384 170.697 220.384Z" fill="white"/>
<path fill-rule="evenodd" clip-rule="evenodd" d="M145.186 158.466C145.186 158.466 157.225 153.019 166.971 140.693L170.698 149.579C170.698 149.579 160.665 161.332 145.186 163.625V158.466Z" fill="url(#paint16_linear)"/>
<path fill-rule="evenodd" clip-rule="evenodd" d="M283.35 158.753C283.35 158.753 268.444 153.307 256.118 138.975L252.679 149.294C252.679 149.294 265.005 162.48 283.637 164.2L283.35 158.753Z" fill="url(#paint17_linear)"/>
<path fill-rule="evenodd" clip-rule="evenodd" d="M231.466 246.751C231.18 251.911 220.287 246.464 209.394 246.751C199.075 247.038 188.756 253.057 187.323 246.751C187.036 246.178 187.323 245.031 187.609 243.885C189.616 237.578 198.502 225.539 209.108 224.393C222.007 223.533 231.753 236.718 231.466 246.751Z" fill="url(#paint18_linear)"/>
<path fill-rule="evenodd" clip-rule="evenodd" d="M231.467 246.751C231.467 246.751 228.027 236.432 209.395 237.005C190.763 237.578 187.323 246.751 187.323 246.751L187.609 243.885C189.616 237.578 198.502 225.539 209.108 224.393C222.007 223.533 231.753 236.718 231.467 246.751Z" fill="url(#paint19_linear)"/>
<path fill-rule="evenodd" clip-rule="evenodd" d="M345.84 100.848L303.702 114.034C303.702 114.034 270.451 117.187 254.685 100.275C240.353 84.796 223.727 49.5383 223.727 49.5383C223.727 49.5383 209.395 46.0985 203.089 41.7988L201.082 40.0789C195.063 35.7792 177.864 8.83428 177.577 7.97434L183.31 6.25445C193.916 2.24137 209.108 0.808132 220.861 0.521484C222.008 0.521484 222.868 0.521484 224.014 0.521484C229.174 0.521484 233.474 0.521484 236.34 0.521484C236.913 0.521484 237.487 0.521484 237.773 0.521484C239.206 0.521484 239.78 0.521484 239.78 0.521484C239.78 0.521484 240.926 3.10132 242.36 6.54109C245.513 13.9939 250.672 25.4599 252.679 26.6065C255.545 28.3264 268.158 29.1863 268.158 29.1863C268.158 29.1863 269.591 50.1116 280.484 67.3105C283.35 71.8969 290.517 76.7699 298.829 81.3563C318.608 91.9622 345.84 100.848 345.84 100.848Z" fill="url(#paint20_linear)"/>
<path fill-rule="evenodd" clip-rule="evenodd" d="M223.727 49.5422L232.9 43.5226L268.444 29.1902C268.444 29.1902 258.985 30.0501 252.965 26.6104L203.375 41.5161C203.088 41.8027 215.127 48.109 223.727 49.5422Z" fill="#FFD19F"/>
<path fill-rule="evenodd" clip-rule="evenodd" d="M266.438 108.59L299.116 81.3584C299.116 81.3584 333.8 97.6973 346.126 100.85L303.989 114.036C303.702 114.036 285.357 116.043 266.438 108.59Z" fill="#FFD19F"/>
<path fill-rule="evenodd" clip-rule="evenodd" d="M335.52 100.563L304.562 111.455C304.562 111.455 288.223 112.602 271.884 104.002C270.737 103.429 269.304 102.569 268.158 101.709C266.724 100.849 265.004 99.416 263.571 97.9828C248.092 83.0771 233.186 45.2395 232.9 44.0929C232.9 44.0929 219.141 42.9463 209.968 38.6466C208.821 38.0733 207.961 37.5 206.815 36.9267C199.935 31.7671 189.903 4.24884 189.903 4.24884C211.401 -2.05742 235.193 0.522416 235.193 0.522416C235.193 0.522416 244.939 27.4673 248.665 29.7605C252.392 32.0537 264.431 32.9137 264.431 32.9137C264.718 34.3469 269.304 56.1322 278.477 70.4646C281.917 75.6242 288.223 80.2106 295.389 84.5103C312.875 94.2564 335.52 100.563 335.52 100.563Z" fill="url(#paint21_radial)"/>
<path opacity="0.3" fill-rule="evenodd" clip-rule="evenodd" d="M295.389 84.2231L271.884 103.715L263.571 97.6956C248.092 82.7899 233.186 44.9523 232.9 43.8057L264.718 32.9131C265.004 34.3463 269.591 56.1316 278.763 70.464C281.916 75.6237 288.223 80.21 295.389 84.2231Z" fill="#8863A9"/>
<path opacity="0.3" fill-rule="evenodd" clip-rule="evenodd" d="M248.665 29.7605L209.681 38.36C208.535 37.7867 207.675 37.2134 206.528 36.6401C199.935 31.7671 189.903 4.24884 189.903 4.24884C211.401 -2.05742 235.193 0.522416 235.193 0.522416C235.193 0.522416 244.939 27.4673 248.665 29.7605Z" fill="#8863A9"/>
<path fill-rule="evenodd" clip-rule="evenodd" d="M291.089 114.324C291.089 114.324 315.741 207.771 312.875 301.792C312.875 301.792 315.168 181.686 303.702 114.037L291.089 114.324Z" fill="url(#paint22_radial)"/>
<path fill-rule="evenodd" clip-rule="evenodd" d="M345.84 100.848C345.84 100.848 373.931 267.39 357.306 355.391L320.901 353.671C320.901 353.671 336.667 236.146 320.901 108.874L345.84 100.848Z" fill="url(#paint23_linear)"/>
<path fill-rule="evenodd" clip-rule="evenodd" d="M352.719 329.594C352.719 329.594 361.318 298.636 354.439 246.753L352.719 329.594Z" fill="white"/>
<path fill-rule="evenodd" clip-rule="evenodd" d="M198.502 229.554C198.502 229.554 202.228 231.56 210.828 231.847C219.141 232.133 223.154 229.554 223.154 229.554C223.154 229.554 210.255 218.948 198.502 229.554Z" fill="url(#paint24_radial)"/>
<path opacity="0.5" fill-rule="evenodd" clip-rule="evenodd" d="M117.954 141.842L177.577 132.096L187.61 23.456L177.577 8.26367C177.577 8.26367 144.612 12.5634 125.694 50.1143L117.954 141.842Z" fill="#671B32"/>
<path opacity="0.5" fill-rule="evenodd" clip-rule="evenodd" d="M113.941 301.788L313.161 282.869L312.015 353.385C312.015 353.385 266.724 374.31 206.815 374.31C146.905 374.31 115.087 351.951 115.087 351.951L113.941 301.788Z" fill="#81282D"/>
<path fill-rule="evenodd" clip-rule="evenodd" d="M120.248 111.457L132.287 49.8277C132.287 49.8277 146.333 19.1563 177.577 8.26367C177.577 8.26367 138.306 19.1563 125.694 50.1143L120.248 111.457Z" fill="url(#paint25_radial)"/>
<path fill-rule="evenodd" clip-rule="evenodd" d="M345.839 153.305C345.839 153.305 335.52 151.299 331.22 145.852C324.914 137.826 324.914 124.067 324.914 124.067C324.914 124.067 324.914 118.334 330.074 119.481L332.654 126.073L330.647 113.748C330.647 113.748 335.52 105.435 344.693 108.588L349.566 123.494L347.846 110.881C347.846 110.881 353.866 109.161 356.732 112.314C356.732 112.314 356.445 124.067 356.732 128.367C357.019 132.666 359.598 135.82 359.598 135.82C359.598 135.82 359.025 129.8 359.885 126.36C360.458 122.92 363.038 121.774 363.038 121.774C363.038 121.774 368.771 122.347 369.631 124.927C369.631 124.927 365.618 128.653 365.331 132.093C365.045 135.533 365.905 143.272 365.905 143.272C365.905 143.272 360.172 147.859 357.879 148.719C355.299 149.865 345.839 153.305 345.839 153.305Z" fill="url(#paint26_linear)"/>
<path fill-rule="evenodd" clip-rule="evenodd" d="M392.849 192.579C390.843 202.325 381.384 212.357 371.351 220.67C357.305 232.136 341.826 240.162 341.826 240.162C329.214 235.576 336.666 222.677 336.666 222.677C336.666 222.677 342.399 220.097 349.566 216.084C362.751 208.631 381.384 196.592 381.097 186.846C380.81 164.2 346.126 153.594 346.126 153.594C349.279 139.262 356.445 141.842 356.445 141.842C356.445 141.842 398.869 163.914 392.849 192.579Z" fill="url(#paint27_linear)"/>
<path opacity="0.74" fill-rule="evenodd" clip-rule="evenodd" d="M371.351 220.666C357.305 232.132 341.826 240.159 341.826 240.159C329.214 235.572 336.666 222.673 336.666 222.673C336.666 222.673 342.399 220.093 349.566 216.08C349.279 215.793 358.452 220.093 371.351 220.666Z" fill="url(#paint28_linear)"/>
<defs>
<linearGradient id="paint0_linear" x1="108.058" y1="243.193" x2="108.058" y2="128.591" gradientUnits="userSpaceOnUse">
<stop offset="0.00558659" stop-color="#E4798B"/>
<stop offset="0.2466" stop-color="#ED877F"/>
<stop offset="0.7018" stop-color="#FA9C6D"/>
<stop offset="1" stop-color="#FFA466"/>
</linearGradient>
<linearGradient id="paint1_linear" x1="102.209" y1="243.191" x2="102.209" y2="206.197" gradientUnits="userSpaceOnUse">
<stop stop-color="#CA528D"/>
<stop offset="1" stop-color="#B3757C"/>
</linearGradient>
<linearGradient id="paint2_linear" x1="117.957" y1="140.664" x2="117.957" y2="105.912" gradientUnits="userSpaceOnUse">
<stop stop-color="#FFA466"/>
<stop offset="0.2982" stop-color="#FA9C6D"/>
<stop offset="0.7534" stop-color="#ED877F"/>
<stop offset="0.9944" stop-color="#E4798B"/>
</linearGradient>
<linearGradient id="paint3_linear" x1="189.997" y1="177.857" x2="279.838" y2="177.857" gradientUnits="userSpaceOnUse">
<stop stop-color="#1C0013"/>
<stop offset="0.9944" stop-color="#400A13"/>
</linearGradient>
<linearGradient id="paint4_linear" x1="248.68" y1="445.369" x2="248.68" y2="380.392" gradientUnits="userSpaceOnUse">
<stop stop-color="#C9635C"/>
<stop offset="0.9707" stop-color="#C95B57"/>
<stop offset="0.9944" stop-color="#C95B57"/>
</linearGradient>
<linearGradient id="paint5_linear" x1="227.477" y1="445.368" x2="227.477" y2="379.792" gradientUnits="userSpaceOnUse">
<stop stop-color="#FFA466"/>
<stop offset="0.2982" stop-color="#FA9C6D"/>
<stop offset="0.7534" stop-color="#ED877F"/>
<stop offset="0.9944" stop-color="#E4798B"/>
</linearGradient>
<linearGradient id="paint6_linear" x1="272.834" y1="388.596" x2="194.153" y2="388.596" gradientUnits="userSpaceOnUse">
<stop stop-color="#CA528D"/>
<stop offset="1" stop-color="#B3757C"/>
</linearGradient>
<radialGradient id="paint7_radial" cx="0" cy="0" r="1" gradientUnits="userSpaceOnUse" gradientTransform="translate(272.256 84.7099) scale(243.147)">
<stop offset="0.00558659" stop-color="#842A2C"/>
<stop offset="0.3173" stop-color="#81282D"/>
<stop offset="0.5593" stop-color="#77232F"/>
<stop offset="0.7779" stop-color="#671B32"/>
<stop offset="0.9816" stop-color="#4F0E36"/>
<stop offset="1" stop-color="#4D0D37"/>
</radialGradient>
<linearGradient id="paint8_linear" x1="115.166" y1="369.115" x2="241.809" y2="369.115" gradientUnits="userSpaceOnUse">
<stop stop-color="#1C0013"/>
<stop offset="0.9944" stop-color="#400A13"/>
</linearGradient>
<radialGradient id="paint9_radial" cx="0" cy="0" r="1" gradientUnits="userSpaceOnUse" gradientTransform="translate(266.314 189.909) scale(20.5871)">
<stop offset="0.00558659" stop-color="#3B1400"/>
<stop offset="0.3754" stop-color="#391203"/>
<stop offset="0.6625" stop-color="#340D0D"/>
<stop offset="0.921" stop-color="#2B041D"/>
<stop offset="1" stop-color="#270024"/>
</radialGradient>
<radialGradient id="paint10_radial" cx="0" cy="0" r="1" gradientUnits="userSpaceOnUse" gradientTransform="translate(161.7 192.672) scale(21.3862)">
<stop offset="0.00558659" stop-color="#3B1400"/>
<stop offset="0.3754" stop-color="#391203"/>
<stop offset="0.6625" stop-color="#340D0D"/>
<stop offset="0.921" stop-color="#2B041D"/>
<stop offset="1" stop-color="#270024"/>
</radialGradient>
<radialGradient id="paint11_radial" cx="0" cy="0" r="1" gradientUnits="userSpaceOnUse" gradientTransform="translate(163.682 191.806) scale(48.4555 50.1883)">
<stop offset="0.00558659" stop-color="white"/>
<stop offset="0.2415" stop-color="#FDFCFC"/>
<stop offset="0.4427" stop-color="#F6F1F3"/>
<stop offset="0.631" stop-color="#ECE0E5"/>
<stop offset="0.8115" stop-color="#DCC7D0"/>
<stop offset="0.985" stop-color="#C9A7B6"/>
<stop offset="1" stop-color="#C7A4B3"/>
</radialGradient>
<radialGradient id="paint12_radial" cx="0" cy="0" r="1" gradientUnits="userSpaceOnUse" gradientTransform="translate(168.711 199.088) scale(15.4856 16.0393)">
<stop offset="0.00558659" stop-color="#3B1400"/>
<stop offset="0.3754" stop-color="#391203"/>
<stop offset="0.6625" stop-color="#340D0D"/>
<stop offset="0.921" stop-color="#2B041D"/>
<stop offset="1" stop-color="#270024"/>
</radialGradient>
<radialGradient id="paint13_radial" cx="0" cy="0" r="1" gradientUnits="userSpaceOnUse" gradientTransform="translate(264.878 191.806) scale(48.4555 50.1883)">
<stop offset="0.00558659" stop-color="white"/>
<stop offset="0.2415" stop-color="#FDFCFC"/>
<stop offset="0.4427" stop-color="#F6F1F3"/>
<stop offset="0.631" stop-color="#ECE0E5"/>
<stop offset="0.8115" stop-color="#DCC7D0"/>
<stop offset="0.985" stop-color="#C9A7B6"/>
<stop offset="1" stop-color="#C7A4B3"/>
</radialGradient>
<radialGradient id="paint14_radial" cx="0" cy="0" r="1" gradientUnits="userSpaceOnUse" gradientTransform="translate(269.041 198.705) scale(15.4856 16.0393)">
<stop offset="0.00558659" stop-color="#3B1400"/>
<stop offset="0.3754" stop-color="#391203"/>
<stop offset="0.6625" stop-color="#340D0D"/>
<stop offset="0.921" stop-color="#2B041D"/>
<stop offset="1" stop-color="#270024"/>
</radialGradient>
<radialGradient id="paint15_radial" cx="0" cy="0" r="1" gradientUnits="userSpaceOnUse" gradientTransform="translate(191.882 247.268) scale(19.6133)">
<stop offset="0.00558659" stop-color="#95452C"/>
<stop offset="0.6019" stop-color="#95422F"/>
<stop offset="1" stop-color="#953B37"/>
</radialGradient>
<linearGradient id="paint16_linear" x1="145.145" y1="152.075" x2="170.679" y2="152.075" gradientUnits="userSpaceOnUse">
<stop offset="0.00558659" stop-color="#430900"/>
<stop offset="0.3754" stop-color="#410803"/>
<stop offset="0.6625" stop-color="#39060D"/>
<stop offset="0.921" stop-color="#2C021D"/>
<stop offset="1" stop-color="#270024"/>
</linearGradient>
<linearGradient id="paint17_linear" x1="282.991" y1="150.766" x2="252.834" y2="152.449" gradientUnits="userSpaceOnUse">
<stop offset="0.00558659" stop-color="#430900"/>
<stop offset="0.3754" stop-color="#410803"/>
<stop offset="0.6625" stop-color="#39060D"/>
<stop offset="0.921" stop-color="#2C021D"/>
<stop offset="1" stop-color="#270024"/>
</linearGradient>
<linearGradient id="paint18_linear" x1="209.479" y1="249.634" x2="209.479" y2="224.511" gradientUnits="userSpaceOnUse">
<stop offset="0.00558659" stop-color="#CE2E13"/>
<stop offset="0.3636" stop-color="#CB2E15"/>
<stop offset="0.6416" stop-color="#C1301C"/>
<stop offset="0.8919" stop-color="#B13227"/>
<stop offset="1" stop-color="#A7332D"/>
</linearGradient>
<linearGradient id="paint19_linear" x1="187.539" y1="235.656" x2="231.479" y2="235.656" gradientUnits="userSpaceOnUse">
<stop stop-color="#CA528D"/>
<stop offset="1" stop-color="#B3757C"/>
</linearGradient>
<linearGradient id="paint20_linear" x1="177.439" y1="57.3893" x2="345.923" y2="57.3893" gradientUnits="userSpaceOnUse">
<stop stop-color="#9F3438"/>
<stop offset="0.3032" stop-color="#A73B3E"/>
<stop offset="0.7659" stop-color="#BC4F4D"/>
<stop offset="0.9944" stop-color="#C95B57"/>
</linearGradient>
<radialGradient id="paint21_radial" cx="0" cy="0" r="1" gradientUnits="userSpaceOnUse" gradientTransform="translate(236.329 36.3027) scale(92.1144)">
<stop offset="0.00558659" stop-color="white"/>
<stop offset="0.2866" stop-color="#FDFCFC"/>
<stop offset="0.526" stop-color="#F6F1F3"/>
<stop offset="0.7502" stop-color="#EBE0E5"/>
<stop offset="0.9639" stop-color="#DCC7D0"/>
<stop offset="1" stop-color="#D9C2CC"/>
</radialGradient>
<radialGradient id="paint22_radial" cx="0" cy="0" r="1" gradientUnits="userSpaceOnUse" gradientTransform="translate(292.97 136.043) scale(82.3663)">
<stop offset="0.00558659" stop-color="#9D452C"/>
<stop offset="0.3349" stop-color="#9A432D"/>
<stop offset="0.5906" stop-color="#903C2F"/>
<stop offset="0.8207" stop-color="#803033"/>
<stop offset="1" stop-color="#6D2237"/>
</radialGradient>
<linearGradient id="paint23_linear" x1="320.9" y1="228.103" x2="362.57" y2="228.103" gradientUnits="userSpaceOnUse">
<stop offset="0.1979"/>
<stop offset="0.4101" stop-color="#110909"/>
<stop offset="0.8287" stop-color="#3D2121"/>
<stop offset="1" stop-color="#512C2C"/>
</linearGradient>
<radialGradient id="paint24_radial" cx="0" cy="0" r="1" gradientUnits="userSpaceOnUse" gradientTransform="translate(210.755 228.205) scale(9.05779)">
<stop offset="0.00558659" stop-color="white"/>
<stop offset="0.2415" stop-color="#FDFCFC"/>
<stop offset="0.4427" stop-color="#F6F1F3"/>
<stop offset="0.631" stop-color="#ECE0E5"/>
<stop offset="0.8115" stop-color="#DCC7D0"/>
<stop offset="0.985" stop-color="#C9A7B6"/>
<stop offset="1" stop-color="#C7A4B3"/>
</radialGradient>
<radialGradient id="paint25_radial" cx="0" cy="0" r="1" gradientUnits="userSpaceOnUse" gradientTransform="translate(124.911 20.2416) scale(51.9105)">
<stop offset="0.00558659" stop-color="#A95C2C"/>
<stop offset="0.4036" stop-color="#A9592D"/>
<stop offset="0.7122" stop-color="#A84F31"/>
<stop offset="0.9905" stop-color="#A73F37"/>
<stop offset="1" stop-color="#A73E37"/>
</radialGradient>
<linearGradient id="paint26_linear" x1="346.985" y1="153.422" x2="346.985" y2="108.498" gradientUnits="userSpaceOnUse">
<stop stop-color="#FFA466"/>
<stop offset="0.2982" stop-color="#FA9C6D"/>
<stop offset="0.7534" stop-color="#ED877F"/>
<stop offset="0.9944" stop-color="#E4798B"/>
</linearGradient>
<linearGradient id="paint27_linear" x1="363.878" y1="240.106" x2="363.878" y2="141.418" gradientUnits="userSpaceOnUse">
<stop offset="0.00558659" stop-color="#E4798B"/>
<stop offset="0.2466" stop-color="#ED877F"/>
<stop offset="0.7018" stop-color="#FA9C6D"/>
<stop offset="1" stop-color="#FFA466"/>
</linearGradient>
<linearGradient id="paint28_linear" x1="352.789" y1="240.102" x2="352.789" y2="215.81" gradientUnits="userSpaceOnUse">
<stop stop-color="#CA528D"/>
<stop offset="1" stop-color="#B3757C"/>
</linearGradient>
</defs>
</svg>
