<svg width="315" height="313" viewBox="0 0 315 313" fill="none" xmlns="http://www.w3.org/2000/svg">
<path fill-rule="evenodd" clip-rule="evenodd" d="M288.882 154.941C288.882 154.941 261.783 181.818 240.771 174.167C239.789 173.775 238.807 173.382 237.825 172.99C218.188 164.162 216.617 144.151 216.617 144.151V131.203C216.617 131.203 224.079 150.821 236.058 159.453C239.2 161.807 242.735 163.377 246.662 163.573C264.532 164.358 282.991 145.721 282.991 145.721C282.991 145.721 289.668 145.132 288.882 154.941Z" fill="url(#paint0_linear)"/>
<path opacity="0.74" fill-rule="evenodd" clip-rule="evenodd" d="M238.022 172.99C218.384 164.162 216.813 144.151 216.813 144.151V131.203C216.813 131.203 224.276 150.821 236.254 159.453C236.058 159.649 236.254 165.535 238.022 172.99Z" fill="url(#paint1_linear)"/>
<path fill-rule="evenodd" clip-rule="evenodd" d="M95.2589 248.715H64.232C64.232 248.715 60.3045 147.878 72.676 26.4411C72.676 26.4411 113.914 8 147.298 8L95.2589 248.715Z" fill="url(#paint2_linear)"/>
<path fill-rule="evenodd" clip-rule="evenodd" d="M95.2588 248.716C95.2588 248.716 88.3857 116.881 99.3826 24.2837C99.3826 24.2837 145.334 -13.7755 207.388 26.4417C207.388 26.4417 231.149 142.974 224.472 246.95C224.472 246.95 167.72 272.846 95.2588 248.716Z" fill="url(#paint3_radial)"/>
<path fill-rule="evenodd" clip-rule="evenodd" d="M178.128 142.778C178.128 142.778 182.252 130.026 194.231 128.26C207.78 126.298 212.493 141.6 212.297 148.663C212.101 148.859 195.016 138.069 178.128 142.778Z" fill="url(#paint4_radial)"/>
<path fill-rule="evenodd" clip-rule="evenodd" d="M106.845 152.587C106.845 152.587 105.077 134.342 116.074 129.633C125.697 125.514 136.89 132.184 140.425 141.6L106.845 152.587Z" fill="url(#paint5_radial)"/>
<path fill-rule="evenodd" clip-rule="evenodd" d="M224.472 246.95C224.472 246.95 142.192 283.244 64.2319 248.716H95.2588C95.2588 248.716 134.926 259.702 156.134 258.525C194.231 256.563 224.472 246.95 224.472 246.95Z" fill="#24000A"/>
<path fill-rule="evenodd" clip-rule="evenodd" d="M115.878 262.251C115.878 262.251 108.023 306.981 133.552 305.607L124.126 261.074L115.878 262.251Z" fill="url(#paint6_linear)"/>
<path fill-rule="evenodd" clip-rule="evenodd" d="M124.125 261.271C124.125 261.271 115.485 301.88 133.551 305.804C151.618 309.532 169.88 261.271 169.88 261.271C169.88 261.271 157.509 260.29 124.125 261.271Z" fill="url(#paint7_linear)"/>
<path fill-rule="evenodd" clip-rule="evenodd" d="M72.676 26.4417L99.3827 24.2837C99.3827 24.2837 116.467 9.17772 147.298 8.00063C147.298 8.00063 114.307 7.60826 72.676 26.4417Z" fill="url(#paint8_linear)"/>
<path d="M124.715 173.971C134.692 173.971 142.781 164.397 142.781 152.587C142.781 140.777 134.692 131.203 124.715 131.203C114.737 131.203 106.648 140.777 106.648 152.587C106.648 164.397 114.737 173.971 124.715 173.971Z" fill="url(#paint9_radial)"/>
<path fill-rule="evenodd" clip-rule="evenodd" d="M130.999 154.352C130.999 160.826 126.679 166.123 121.18 166.123C115.682 166.123 111.362 160.826 111.362 154.352C111.362 147.878 115.682 142.581 121.18 142.581C126.679 142.777 130.999 147.878 130.999 154.352Z" fill="url(#paint10_radial)"/>
<path d="M194.034 173.971C204.012 173.971 212.101 164.397 212.101 152.587C212.101 140.777 204.012 131.203 194.034 131.203C184.057 131.203 175.968 140.777 175.968 152.587C175.968 164.397 184.057 173.971 194.034 173.971Z" fill="url(#paint11_radial)"/>
<path fill-rule="evenodd" clip-rule="evenodd" d="M200.907 154.352C200.907 160.826 196.587 166.123 191.089 166.123C185.59 166.123 181.27 160.826 181.27 154.352C181.27 147.878 185.59 142.581 191.089 142.581C196.391 142.777 200.907 147.878 200.907 154.352Z" fill="url(#paint12_radial)"/>
<path fill-rule="evenodd" clip-rule="evenodd" d="M175.183 189.861C171.648 194.962 166.15 199.474 157.902 199.474C149.654 199.474 143.37 192.607 140.425 186.133C138.068 180.64 138.068 175.54 141.407 174.559C145.727 173.578 151.422 176.324 161.044 176.324C170.666 176.324 176.361 169.85 178.914 174.559C180.288 177.305 179.11 183.975 175.183 189.861Z" fill="url(#paint13_linear)"/>
<path fill-rule="evenodd" clip-rule="evenodd" d="M175.183 189.861C161.24 180.444 140.425 186.33 140.425 186.33C138.068 180.837 138.068 175.736 141.407 174.755C145.727 173.774 151.422 176.521 161.044 176.521C170.666 176.521 176.361 170.047 178.914 174.755C180.288 177.305 179.11 183.976 175.183 189.861Z" fill="url(#paint14_linear)"/>
<path fill-rule="evenodd" clip-rule="evenodd" d="M145.923 174.755C145.923 174.755 155.741 182.014 165.364 180.641C165.364 180.641 169.88 178.679 172.63 173.971C172.63 173.971 168.309 176.521 161.044 176.521C153.974 176.717 145.923 174.755 145.923 174.755Z" fill="url(#paint15_radial)"/>
<path fill-rule="evenodd" clip-rule="evenodd" d="M148.672 196.531C148.672 196.531 162.811 198.297 170.47 195.158C170.47 195.158 163.597 200.847 157.902 199.67C152.207 198.297 148.672 196.531 148.672 196.531Z" fill="url(#paint16_radial)"/>
<path d="M200.318 161.022C201.945 161.022 203.264 159.705 203.264 158.079C203.264 156.454 201.945 155.137 200.318 155.137C198.692 155.137 197.373 156.454 197.373 158.079C197.373 159.705 198.692 161.022 200.318 161.022Z" fill="white"/>
<path d="M129.624 162.395C131.251 162.395 132.57 161.078 132.57 159.452C132.57 157.827 131.251 156.51 129.624 156.51C127.997 156.51 126.679 157.827 126.679 159.452C126.679 161.078 127.997 162.395 129.624 162.395Z" fill="white"/>
<path fill-rule="evenodd" clip-rule="evenodd" d="M278.867 142.777C277.493 138.657 279.064 132.772 273.565 126.298C273.565 126.298 272.387 121.982 277.296 120.412C277.296 120.412 282.402 123.944 284.759 129.437C284.759 129.437 288.293 119.628 292.221 109.034C292.221 109.034 295.559 108.053 298.112 110.211L295.363 122.374L303.61 110.211C303.61 110.211 309.502 109.034 311.465 115.508L306.949 127.083L311.465 121.786C311.465 121.786 315.785 121.982 314.804 126.494L308.127 136.892C308.127 136.892 301.058 152.586 288.882 154.94C288.882 154.94 280.046 146.505 278.867 142.777Z" fill="url(#paint17_linear)"/>
<path fill-rule="evenodd" clip-rule="evenodd" d="M178.128 162.199C178.128 162.199 192.071 166.711 210.333 162.199C210.333 162.199 207.388 175.54 193.445 175.54C179.306 175.54 178.128 162.199 178.128 162.199Z" fill="url(#paint18_radial)"/>
<path fill-rule="evenodd" clip-rule="evenodd" d="M107.63 160.826C107.63 160.826 123.929 166.515 140.621 162.788C140.621 162.788 135.711 175.736 122.947 175.54C110.183 175.344 107.63 160.826 107.63 160.826Z" fill="url(#paint19_radial)"/>
<path fill-rule="evenodd" clip-rule="evenodd" d="M93.2952 142.777C93.2952 142.777 95.259 53.9065 105.47 28.0105C105.47 28.0105 118.038 11.3351 147.298 8C147.298 8 119.02 8 99.3828 24.2831C99.3828 24.2831 89.5642 79.214 93.2952 142.777Z" fill="url(#paint20_radial)"/>
<path opacity="0.74" fill-rule="evenodd" clip-rule="evenodd" d="M114.7 275.004L122.555 271.276L163.597 275.004L169.684 261.271C154.367 260.682 141.799 260.878 123.929 261.271L115.682 262.252L114.7 275.004Z" fill="url(#paint21_linear)"/>
<path fill-rule="evenodd" clip-rule="evenodd" d="M110.183 106.68C110.183 106.68 117.842 94.9089 132.177 94.3203V100.598C132.177 100.598 122.555 101.187 113.914 107.857L110.183 106.68Z" fill="url(#paint22_linear)"/>
<path fill-rule="evenodd" clip-rule="evenodd" d="M203.264 104.522C203.264 104.522 198.355 96.2828 184.019 95.498V101.776C184.019 101.776 194.034 100.991 200.711 106.484L203.264 104.522Z" fill="url(#paint23_linear)"/>
<path fill-rule="evenodd" clip-rule="evenodd" d="M99.3828 24.2837L97.6155 35.0737L117.253 14.4746C109.201 16.4364 99.3828 24.2837 99.3828 24.2837Z" fill="white"/>
<path fill-rule="evenodd" clip-rule="evenodd" d="M151.225 8C151.225 8 184.019 8 203.264 29.9724C203.264 29.9724 219.956 84.9032 222.705 140.226C222.705 140.226 217.795 69.2087 207.388 26.2449C207.388 26.4411 185.59 9.37327 151.225 8Z" fill="url(#paint24_radial)"/>
<path fill-rule="evenodd" clip-rule="evenodd" d="M64.232 248.715C64.232 248.715 61.2864 120.804 72.676 26.441L85.2439 25.6562C85.2439 25.6562 76.6035 128.455 79.5491 248.126L64.232 248.715Z" fill="url(#paint25_linear)"/>
<path opacity="0.5" fill-rule="evenodd" clip-rule="evenodd" d="M172.63 11.5322L181.074 115.509H220.545C220.545 115.509 214.457 54.2998 207.388 26.442C207.388 26.442 194.034 15.0635 172.63 11.5322Z" fill="#81282D"/>
<path opacity="0.5" fill-rule="evenodd" clip-rule="evenodd" d="M93.6878 197.315L225.258 234.001L224.668 246.949C224.668 246.949 163.793 275.2 95.4552 248.715C95.2588 248.715 92.1168 224.781 93.6878 197.315Z" fill="#81282D"/>
<path opacity="0.5" fill-rule="evenodd" clip-rule="evenodd" d="M284.562 129.436C284.562 129.436 290.061 134.145 291.435 140.423C291.435 140.423 296.737 142.581 300.665 142.777C304.592 142.777 306.36 136.107 306.36 136.107C306.36 136.107 303.021 126.69 288.882 125.709L284.562 129.436Z" fill="url(#paint26_linear)"/>
<path fill-rule="evenodd" clip-rule="evenodd" d="M76.0143 152.586C66.9812 163.18 60.3045 176.52 55.3952 189.468C44.9874 217.13 42.2382 243.811 42.2382 243.811C33.9906 248.911 26.9211 244.203 26.9211 244.203C33.2051 217.326 42.8273 194.177 51.4677 176.52C62.661 153.959 72.4796 140.423 72.4796 140.423C78.1744 143.562 76.0143 152.586 76.0143 152.586Z" fill="url(#paint27_linear)"/>
<path fill-rule="evenodd" clip-rule="evenodd" d="M42.6309 241.849C42.6309 241.849 41.4527 251.658 55.5915 258.524C55.5915 258.524 55.5915 265.783 47.933 264.017C47.933 264.017 43.22 260.486 38.1144 258.916C38.1144 258.916 33.7942 272.649 24.3683 278.142C24.3683 278.142 20.4408 278.338 18.4771 273.63C18.4771 273.63 21.8154 268.529 24.3683 263.625C24.3683 263.625 18.4771 270.884 12.7823 273.434C12.7823 273.434 8.06933 274.611 5.90923 270.295L8.65844 266.175L5.90923 267.352C5.90923 267.352 0.803535 266.568 0.999908 260.29C0.999908 260.29 16.5134 258.916 27.1175 244.203C27.1175 244.203 37.918 245.968 42.6309 241.849Z" fill="url(#paint28_linear)"/>
<path opacity="0.74" fill-rule="evenodd" clip-rule="evenodd" d="M76.0143 152.586C66.9811 163.18 60.3045 176.52 55.3951 189.468C55.0024 182.994 53.235 178.874 51.6641 176.52C62.8573 153.959 72.6759 140.423 72.6759 140.423C78.1744 143.562 76.0143 152.586 76.0143 152.586Z" fill="url(#paint29_linear)"/>
<path fill-rule="evenodd" clip-rule="evenodd" d="M141.603 188.292C141.603 188.292 147.298 202.809 159.669 203.006C172.041 203.202 177.146 186.33 177.146 186.33C177.146 186.33 170.862 199.278 159.276 199.67C147.69 200.063 141.603 188.292 141.603 188.292Z" fill="url(#paint30_radial)"/>
<path fill-rule="evenodd" clip-rule="evenodd" d="M63.6428 208.695C63.6428 208.695 72.4796 205.752 78.9599 218.7C85.4402 231.648 94.4734 230.078 97.0262 227.528C99.7754 224.781 99.3827 221.446 101.739 218.896C104.096 216.346 119.216 229.49 151.225 240.084C183.234 250.677 190.892 241.065 195.016 240.084C199.14 239.103 196.587 250.285 204.835 250.677C213.083 251.07 209.548 241.261 212.101 239.299C214.653 237.337 224.472 246.754 224.472 246.754C224.472 246.754 191.678 263.037 142.192 263.429C92.706 263.822 64.2319 248.519 64.2319 248.519L63.6428 208.695Z" fill="url(#paint31_radial)"/>
<path opacity="0.74" fill-rule="evenodd" clip-rule="evenodd" d="M94.4733 228.902L95.2588 248.716C95.2588 248.716 148.672 275.201 224.472 246.951C224.472 246.951 195.213 263.626 138.264 263.626C81.3164 263.626 64.2319 248.716 64.2319 248.716L63.6428 208.695C63.6428 208.695 70.7122 205.949 75.8179 213.796C81.12 221.839 84.4583 228.117 94.4733 228.902Z" fill="url(#paint32_linear)"/>
<path opacity="0.74" fill-rule="evenodd" clip-rule="evenodd" d="M64.0354 208.694C64.0354 208.694 72.0867 208.498 76.4069 217.718C80.7271 226.939 83.2799 234.59 90.9385 234.786C98.597 234.982 100.757 221.053 103.703 220.465C106.648 219.876 134.337 241.26 156.723 246.753C179.11 252.246 192.463 241.26 195.016 241.849C197.569 242.437 197.373 250.481 202.085 252.05C207.388 253.816 210.922 251.461 211.904 248.715C212.886 245.772 211.119 241.652 212.886 240.672C214.653 239.494 224.472 246.949 224.472 246.949V245.184C224.472 245.184 215.832 236.552 211.904 237.925C207.977 239.298 211.708 246.949 207.388 247.93C203.067 248.911 200.122 243.026 198.158 238.317C195.998 233.609 186.965 244.007 172.826 241.849C144.548 237.729 106.845 213.01 102.132 213.206C97.4188 213.402 100.757 225.369 89.9566 224.781C83.2799 224.388 77.1924 203.201 64.0354 208.694Z" fill="url(#paint33_linear)"/>
<path fill-rule="evenodd" clip-rule="evenodd" d="M159.669 238.907C159.669 238.907 171.059 242.831 179.503 242.046C187.947 241.261 191.874 238.318 191.874 238.318C191.874 238.318 188.339 239.495 177.735 240.28C167.327 240.869 159.669 238.907 159.669 238.907Z" fill="white"/>
<path fill-rule="evenodd" clip-rule="evenodd" d="M142.781 232.432C142.781 232.432 153.189 232.04 154.367 236.944C154.367 237.141 145.53 233.609 142.781 232.432Z" fill="white"/>
<path opacity="0.74" fill-rule="evenodd" clip-rule="evenodd" d="M64.2319 248.716H95.2588C95.2588 248.716 112.54 259.113 154.367 259.898C196.194 260.683 224.472 246.95 224.472 246.95C224.472 246.95 191.874 263.037 145.53 263.626C86.6184 264.214 64.2319 248.716 64.2319 248.716Z" fill="url(#paint34_linear)"/>
<path fill-rule="evenodd" clip-rule="evenodd" d="M77.978 212.814C77.978 212.814 83.2801 221.839 87.993 223.997C87.7966 223.997 86.2257 215.561 77.978 212.814Z" fill="white"/>
<defs>
<linearGradient id="paint0_linear" x1="252.879" y1="175.519" x2="252.879" y2="131.093" gradientUnits="userSpaceOnUse">
<stop offset="0.00558659" stop-color="#E4798B"/>
<stop offset="0.2466" stop-color="#ED877F"/>
<stop offset="0.7018" stop-color="#FA9C6D"/>
<stop offset="1" stop-color="#FFA466"/>
</linearGradient>
<linearGradient id="paint1_linear" x1="227.345" y1="172.916" x2="227.345" y2="131.093" gradientUnits="userSpaceOnUse">
<stop stop-color="#CA528D"/>
<stop offset="1" stop-color="#B3757C"/>
</linearGradient>
<linearGradient id="paint2_linear" x1="63.6825" y1="128.328" x2="107.462" y2="128.328" gradientUnits="userSpaceOnUse">
<stop stop-color="#1C0013"/>
<stop offset="0.9944" stop-color="#400A13"/>
</linearGradient>
<radialGradient id="paint3_radial" cx="0" cy="0" r="1" gradientUnits="userSpaceOnUse" gradientTransform="translate(198.576 62.65) scale(130.712 162.946)">
<stop offset="0.00558659" stop-color="#842A2C"/>
<stop offset="0.3173" stop-color="#81282D"/>
<stop offset="0.5593" stop-color="#77232F"/>
<stop offset="0.7779" stop-color="#671B32"/>
<stop offset="0.9816" stop-color="#4F0E36"/>
<stop offset="1" stop-color="#4D0D37"/>
</radialGradient>
<radialGradient id="paint4_radial" cx="0" cy="0" r="1" gradientUnits="userSpaceOnUse" gradientTransform="translate(195.093 138.497) scale(14.1035 14.0898)">
<stop offset="0.00558659" stop-color="#3B1400"/>
<stop offset="0.3754" stop-color="#391203"/>
<stop offset="0.6625" stop-color="#340D0D"/>
<stop offset="0.921" stop-color="#2B041D"/>
<stop offset="1" stop-color="#270024"/>
</radialGradient>
<radialGradient id="paint5_radial" cx="0" cy="0" r="1" gradientUnits="userSpaceOnUse" gradientTransform="translate(123.425 140.387) scale(14.6512 14.6369)">
<stop offset="0.00558659" stop-color="#3B1400"/>
<stop offset="0.3754" stop-color="#391203"/>
<stop offset="0.6625" stop-color="#340D0D"/>
<stop offset="0.921" stop-color="#2B041D"/>
<stop offset="1" stop-color="#270024"/>
</radialGradient>
<linearGradient id="paint6_linear" x1="124.07" y1="305.758" x2="124.07" y2="261.289" gradientUnits="userSpaceOnUse">
<stop stop-color="#C9635C"/>
<stop offset="0.9707" stop-color="#C95B57"/>
<stop offset="0.9944" stop-color="#C95B57"/>
</linearGradient>
<linearGradient id="paint7_linear" x1="145.88" y1="305.934" x2="145.88" y2="260.878" gradientUnits="userSpaceOnUse">
<stop stop-color="#FFA466"/>
<stop offset="0.2982" stop-color="#FA9C6D"/>
<stop offset="0.7534" stop-color="#ED877F"/>
<stop offset="0.9944" stop-color="#E4798B"/>
</linearGradient>
<linearGradient id="paint8_linear" x1="110.038" y1="26.4396" x2="110.038" y2="8.00063" gradientUnits="userSpaceOnUse">
<stop stop-color="#934A38"/>
<stop offset="0.2541" stop-color="#9B4C3C"/>
<stop offset="0.6419" stop-color="#B05349"/>
<stop offset="0.9944" stop-color="#C95B57"/>
</linearGradient>
<radialGradient id="paint9_radial" cx="0" cy="0" r="1" gradientUnits="userSpaceOnUse" gradientTransform="translate(124.783 139.795) scale(33.1952 34.3488)">
<stop offset="0.00558659" stop-color="white"/>
<stop offset="0.2415" stop-color="#FDFCFC"/>
<stop offset="0.4427" stop-color="#F6F1F3"/>
<stop offset="0.631" stop-color="#ECE0E5"/>
<stop offset="0.8115" stop-color="#DCC7D0"/>
<stop offset="0.985" stop-color="#C9A7B6"/>
<stop offset="1" stop-color="#C7A4B3"/>
</radialGradient>
<radialGradient id="paint10_radial" cx="0" cy="0" r="1" gradientUnits="userSpaceOnUse" gradientTransform="translate(121.193 154.414) scale(10.6086 10.9773)">
<stop offset="0.00558659" stop-color="#3B1400"/>
<stop offset="0.3754" stop-color="#391203"/>
<stop offset="0.6625" stop-color="#340D0D"/>
<stop offset="0.921" stop-color="#2B041D"/>
<stop offset="1" stop-color="#270024"/>
</radialGradient>
<radialGradient id="paint11_radial" cx="0" cy="0" r="1" gradientUnits="userSpaceOnUse" gradientTransform="translate(194.109 139.795) scale(33.1952 34.3488)">
<stop offset="0.00558659" stop-color="white"/>
<stop offset="0.2415" stop-color="#FDFCFC"/>
<stop offset="0.4427" stop-color="#F6F1F3"/>
<stop offset="0.631" stop-color="#ECE0E5"/>
<stop offset="0.8115" stop-color="#DCC7D0"/>
<stop offset="0.985" stop-color="#C9A7B6"/>
<stop offset="1" stop-color="#C7A4B3"/>
</radialGradient>
<radialGradient id="paint12_radial" cx="0" cy="0" r="1" gradientUnits="userSpaceOnUse" gradientTransform="translate(191.028 154.414) scale(10.6086 10.9773)">
<stop offset="0.00558659" stop-color="#3B1400"/>
<stop offset="0.3754" stop-color="#391203"/>
<stop offset="0.6625" stop-color="#340D0D"/>
<stop offset="0.921" stop-color="#2B041D"/>
<stop offset="1" stop-color="#270024"/>
</radialGradient>
<linearGradient id="paint13_linear" x1="159.118" y1="199.528" x2="159.118" y2="173.027" gradientUnits="userSpaceOnUse">
<stop offset="0.00558659" stop-color="#CE2E13"/>
<stop offset="0.3636" stop-color="#CB2E15"/>
<stop offset="0.6416" stop-color="#C1301C"/>
<stop offset="0.8919" stop-color="#B13227"/>
<stop offset="1" stop-color="#A7332D"/>
</linearGradient>
<linearGradient id="paint14_linear" x1="138.781" y1="181.465" x2="179.456" y2="181.465" gradientUnits="userSpaceOnUse">
<stop stop-color="#CA528D"/>
<stop offset="1" stop-color="#B3757C"/>
</linearGradient>
<radialGradient id="paint15_radial" cx="0" cy="0" r="1" gradientUnits="userSpaceOnUse" gradientTransform="translate(159.291 177.32) scale(9.77033 9.7608)">
<stop offset="0.00558659" stop-color="white"/>
<stop offset="0.2415" stop-color="#FDFCFC"/>
<stop offset="0.4427" stop-color="#F6F1F3"/>
<stop offset="0.631" stop-color="#ECE0E5"/>
<stop offset="0.8115" stop-color="#DCC7D0"/>
<stop offset="0.985" stop-color="#C9A7B6"/>
<stop offset="1" stop-color="#C7A4B3"/>
</radialGradient>
<radialGradient id="paint16_radial" cx="0" cy="0" r="1" gradientUnits="userSpaceOnUse" gradientTransform="translate(159.68 197.35) scale(7.90557 7.8978)">
<stop offset="0.00558659" stop-color="white"/>
<stop offset="0.2415" stop-color="#FDFCFC"/>
<stop offset="0.4427" stop-color="#F6F1F3"/>
<stop offset="0.631" stop-color="#ECE0E5"/>
<stop offset="0.8115" stop-color="#DCC7D0"/>
<stop offset="0.985" stop-color="#C9A7B6"/>
<stop offset="1" stop-color="#C7A4B3"/>
</radialGradient>
<linearGradient id="paint17_linear" x1="294.209" y1="154.906" x2="294.209" y2="108.869" gradientUnits="userSpaceOnUse">
<stop stop-color="#FFA466"/>
<stop offset="0.2982" stop-color="#FA9C6D"/>
<stop offset="0.7534" stop-color="#ED877F"/>
<stop offset="0.9944" stop-color="#E4798B"/>
</linearGradient>
<radialGradient id="paint18_radial" cx="0" cy="0" r="1" gradientUnits="userSpaceOnUse" gradientTransform="translate(193.077 163.425) scale(13.0851 13.0724)">
<stop offset="0.00558659" stop-color="#86392C"/>
<stop offset="0.3531" stop-color="#83362D"/>
<stop offset="0.6229" stop-color="#792E2F"/>
<stop offset="0.8659" stop-color="#692034"/>
<stop offset="1" stop-color="#5C1537"/>
</radialGradient>
<radialGradient id="paint19_radial" cx="0" cy="0" r="1" gradientUnits="userSpaceOnUse" gradientTransform="translate(124.832 160.327) scale(16.4812 16.4652)">
<stop offset="0.00558659" stop-color="#86392C"/>
<stop offset="0.3531" stop-color="#83362D"/>
<stop offset="0.6229" stop-color="#792E2F"/>
<stop offset="0.8659" stop-color="#692034"/>
<stop offset="1" stop-color="#5C1537"/>
</radialGradient>
<radialGradient id="paint20_radial" cx="0" cy="0" r="1" gradientUnits="userSpaceOnUse" gradientTransform="translate(96.8871 23.7813) scale(63.7929 63.7308)">
<stop offset="0.00558659" stop-color="#95452C"/>
<stop offset="0.36" stop-color="#92422D"/>
<stop offset="0.6352" stop-color="#883A30"/>
<stop offset="0.883" stop-color="#782B34"/>
<stop offset="1" stop-color="#6D2237"/>
</radialGradient>
<linearGradient id="paint21_linear" x1="114.695" y1="267.979" x2="169.748" y2="267.979" gradientUnits="userSpaceOnUse">
<stop stop-color="#CA528D"/>
<stop offset="1" stop-color="#B3757C"/>
</linearGradient>
<linearGradient id="paint22_linear" x1="110.206" y1="100.934" x2="132.179" y2="100.934" gradientUnits="userSpaceOnUse">
<stop offset="0.00558659" stop-color="#430900"/>
<stop offset="0.3754" stop-color="#410803"/>
<stop offset="0.6625" stop-color="#39060D"/>
<stop offset="0.921" stop-color="#2C021D"/>
<stop offset="1" stop-color="#270024"/>
</linearGradient>
<linearGradient id="paint23_linear" x1="203.281" y1="100.934" x2="184.106" y2="100.934" gradientUnits="userSpaceOnUse">
<stop offset="0.00558659" stop-color="#430900"/>
<stop offset="0.3754" stop-color="#410803"/>
<stop offset="0.6625" stop-color="#39060D"/>
<stop offset="0.921" stop-color="#2C021D"/>
<stop offset="1" stop-color="#270024"/>
</linearGradient>
<radialGradient id="paint24_radial" cx="0" cy="0" r="1" gradientUnits="userSpaceOnUse" gradientTransform="translate(157.053 23.5474) scale(66.1855 66.1211)">
<stop offset="0.00558659" stop-color="#A95C2C"/>
<stop offset="0.4036" stop-color="#A9592D"/>
<stop offset="0.7122" stop-color="#A84F31"/>
<stop offset="0.9905" stop-color="#A73F37"/>
<stop offset="1" stop-color="#A73E37"/>
</radialGradient>
<linearGradient id="paint25_linear" x1="63.9223" y1="137.134" x2="85.1814" y2="137.134" gradientUnits="userSpaceOnUse">
<stop stop-color="#512C2C"/>
<stop offset="0.1713" stop-color="#3D2121"/>
<stop offset="0.5899" stop-color="#110909"/>
<stop offset="0.8021"/>
</linearGradient>
<linearGradient id="paint26_linear" x1="295.535" y1="142.707" x2="295.535" y2="125.629" gradientUnits="userSpaceOnUse">
<stop stop-color="#CA528D"/>
<stop offset="1" stop-color="#B3757C"/>
</linearGradient>
<linearGradient id="paint27_linear" x1="51.8155" y1="246.195" x2="51.8155" y2="140.408" gradientUnits="userSpaceOnUse">
<stop stop-color="#FFA466"/>
<stop offset="0.2982" stop-color="#FA9C6D"/>
<stop offset="0.7534" stop-color="#ED877F"/>
<stop offset="0.9944" stop-color="#E4798B"/>
</linearGradient>
<linearGradient id="paint28_linear" x1="28.3246" y1="278.147" x2="28.3246" y2="241.88" gradientUnits="userSpaceOnUse">
<stop offset="0.00558659" stop-color="#E4798B"/>
<stop offset="0.2466" stop-color="#ED877F"/>
<stop offset="0.7018" stop-color="#FA9C6D"/>
<stop offset="1" stop-color="#FFA466"/>
</linearGradient>
<linearGradient id="paint29_linear" x1="64.1068" y1="189.48" x2="64.1068" y2="140.408" gradientUnits="userSpaceOnUse">
<stop stop-color="#CA528D"/>
<stop offset="1" stop-color="#B3757C"/>
</linearGradient>
<radialGradient id="paint30_radial" cx="0" cy="0" r="1" gradientUnits="userSpaceOnUse" gradientTransform="translate(144.398 188.23) scale(17.7458 17.7286)">
<stop offset="0.00558659" stop-color="#95452C"/>
<stop offset="0.36" stop-color="#92422D"/>
<stop offset="0.6352" stop-color="#883A30"/>
<stop offset="0.883" stop-color="#782B34"/>
<stop offset="1" stop-color="#6D2237"/>
</radialGradient>
<radialGradient id="paint31_radial" cx="0" cy="0" r="1" gradientUnits="userSpaceOnUse" gradientTransform="translate(114.876 226.414) scale(85.6941 85.6107)">
<stop offset="0.00558659" stop-color="white"/>
<stop offset="0.1985" stop-color="#FDFCFC"/>
<stop offset="0.3629" stop-color="#F6F1F3"/>
<stop offset="0.5168" stop-color="#ECE0E5"/>
<stop offset="0.6643" stop-color="#DCC7D0"/>
<stop offset="0.8062" stop-color="#C9A7B6"/>
<stop offset="0.8184" stop-color="#C7A4B3"/>
<stop offset="0.8629" stop-color="#CEA4B4"/>
<stop offset="0.9271" stop-color="#E1A3B8"/>
<stop offset="1" stop-color="#FFA2BD"/>
</radialGradient>
<linearGradient id="paint32_linear" x1="63.6825" y1="235.896" x2="224.513" y2="235.896" gradientUnits="userSpaceOnUse">
<stop stop-color="#CA528D"/>
<stop offset="1" stop-color="#DDC2C5"/>
</linearGradient>
<linearGradient id="paint33_linear" x1="64.1067" y1="230.233" x2="224.513" y2="230.233" gradientUnits="userSpaceOnUse">
<stop stop-color="#CA528D"/>
<stop offset="1" stop-color="#B3757C"/>
</linearGradient>
<linearGradient id="paint34_linear" x1="64.2704" y1="255.222" x2="224.513" y2="255.222" gradientUnits="userSpaceOnUse">
<stop stop-color="#CA528D"/>
<stop offset="1" stop-color="#DDC2C5"/>
</linearGradient>
</defs>
</svg>
