<svg width="353" height="315" viewBox="0 0 353 315" fill="none" xmlns="http://www.w3.org/2000/svg">
<g clip-path="url(#clip0)">
<path fill-rule="evenodd" clip-rule="evenodd" d="M102.333 99.7594C102.333 99.7594 78.5087 118.086 76.8796 133.561C76.4724 137.838 77.2869 141.91 78.9159 145.372C82.9884 154.535 91.3371 160.644 91.3371 160.644L88.8936 171.64C88.8936 171.64 75.047 161.866 68.9382 147.612C67.5128 144.354 66.4947 140.892 66.0874 137.43C64.0512 117.882 98.2605 90.3926 98.2605 90.3926C98.2605 90.3926 104.166 93.6506 102.333 99.7594Z" fill="url(#paint0_linear)"/>
<path opacity="0.74" fill-rule="evenodd" clip-rule="evenodd" d="M91.5408 160.848L89.0973 171.844C89.0973 171.844 75.2506 162.07 69.1418 147.816C71.5854 147.205 75.047 146.391 78.9159 145.576C83.1921 154.739 91.5408 160.848 91.5408 160.848Z" fill="url(#paint1_linear)"/>
<path fill-rule="evenodd" clip-rule="evenodd" d="M93.7807 98.9422C93.7807 98.9422 93.5771 86.9283 87.061 78.5796C87.061 78.5796 91.3372 72.6744 95.6134 74.507C95.817 74.507 94.188 95.4806 93.7807 98.9422Z" fill="url(#paint2_linear)"/>
<path fill-rule="evenodd" clip-rule="evenodd" d="M261.569 251.461L229.599 250.036L152.018 28.6937L142.651 2.42587C150.185 0.796857 157.516 -0.221276 164.439 -0.62853C165.253 -0.62853 165.864 -0.62853 166.679 -0.62853C169.733 -0.832157 172.584 -0.832157 175.435 -0.62853C175.842 -0.62853 176.249 -0.62853 176.453 -0.62853C177.471 -0.62853 177.878 -0.62853 177.878 -0.62853C177.878 -0.62853 178.693 1.20411 179.711 3.64763C181.951 8.94193 185.616 17.087 187.042 17.9015C189.078 19.1233 198.037 19.7341 198.037 19.7341C198.037 19.7341 199.055 34.5989 206.793 46.8165C208.83 50.0745 213.92 53.5362 219.825 56.7942C233.876 64.3284 253.22 70.6408 253.22 70.6408C272.565 171.232 261.569 251.461 261.569 251.461Z" fill="url(#paint3_linear)"/>
<path fill-rule="evenodd" clip-rule="evenodd" d="M201.499 270.398C201.499 270.398 190.707 315.399 167.086 315.399L192.947 269.176L201.499 270.398Z" fill="url(#paint4_linear)"/>
<path fill-rule="evenodd" clip-rule="evenodd" d="M192.947 269.175C192.947 269.175 183.173 315.398 167.086 315.398C147.945 315.398 145.502 269.175 145.502 269.175C145.502 269.175 158.33 268.36 192.947 269.175Z" fill="url(#paint5_linear)"/>
<path opacity="0.74" fill-rule="evenodd" clip-rule="evenodd" d="M198.241 281.396L194.576 279.767L146.52 276.509L145.705 269.382C161.588 268.771 174.62 268.974 193.15 269.382L201.703 270.4L198.241 281.396Z" fill="url(#paint6_linear)"/>
<path fill-rule="evenodd" clip-rule="evenodd" d="M229.396 249.833C229.396 249.833 159.349 291.984 89.5047 249.019C89.5047 249.019 85.2286 140.689 96.8353 34.5999C100.908 22.5859 116.587 9.14658 137.764 3.64866C139.393 3.24141 141.022 2.83415 142.651 2.4269C154.054 0.187007 166.679 0.187007 179.915 3.85229C182.155 9.14658 185.82 17.2917 187.246 18.1062C189.282 19.3279 198.241 19.9388 198.241 19.9388C198.241 19.9388 199.26 34.8036 206.997 47.0212C209.034 50.2792 214.124 53.7408 220.029 56.9989C221.048 63.9222 222.269 71.66 223.491 80.2123C228.989 122.363 231.229 185.895 229.396 249.833Z" fill="url(#paint7_radial)"/>
<path fill-rule="evenodd" clip-rule="evenodd" d="M89.5046 249.02C89.5046 249.02 142.855 302.37 261.569 251.463L229.6 250.038C229.6 250.038 198.038 264.902 150.593 264.902C112.107 264.902 89.5046 249.02 89.5046 249.02Z" fill="url(#paint8_linear)"/>
<path fill-rule="evenodd" clip-rule="evenodd" d="M179.304 138.448C179.304 138.448 183.58 125.213 196.001 123.38C210.051 121.344 214.938 137.227 214.735 144.557C214.531 144.557 196.816 133.561 179.304 138.448Z" fill="url(#paint9_radial)"/>
<path fill-rule="evenodd" clip-rule="evenodd" d="M105.388 148.427C105.388 148.427 103.555 129.489 114.958 124.602C124.936 120.326 136.543 127.25 140.208 137.024L105.388 148.427Z" fill="url(#paint10_radial)"/>
<path d="M124.121 170.621C134.467 170.621 142.855 160.684 142.855 148.426C142.855 136.168 134.467 126.23 124.121 126.23C113.775 126.23 105.387 136.168 105.387 148.426C105.387 160.684 113.775 170.621 124.121 170.621Z" fill="url(#paint11_radial)"/>
<path fill-rule="evenodd" clip-rule="evenodd" d="M137.764 140.485C137.764 147.205 133.284 152.703 127.583 152.703C121.881 152.703 117.401 147.205 117.401 140.485C117.401 133.766 121.881 128.268 127.583 128.268C133.284 128.268 137.764 133.766 137.764 140.485Z" fill="url(#paint12_radial)"/>
<path d="M196.001 170.621C206.347 170.621 214.735 160.684 214.735 148.426C214.735 136.168 206.347 126.23 196.001 126.23C185.655 126.23 177.267 136.168 177.267 148.426C177.267 160.684 185.655 170.621 196.001 170.621Z" fill="url(#paint13_radial)"/>
<path fill-rule="evenodd" clip-rule="evenodd" d="M209.033 140.079C209.033 146.799 204.554 152.297 198.852 152.297C193.15 152.297 188.671 146.799 188.671 140.079C188.671 133.359 193.15 127.861 198.852 127.861C204.554 128.065 209.033 133.359 209.033 140.079Z" fill="url(#paint14_radial)"/>
<path d="M204.757 153.316C206.444 153.316 207.811 151.948 207.811 150.261C207.811 148.575 206.444 147.207 204.757 147.207C203.07 147.207 201.703 148.575 201.703 150.261C201.703 151.948 203.07 153.316 204.757 153.316Z" fill="white"/>
<path fill-rule="evenodd" clip-rule="evenodd" d="M141.633 175.509C141.633 175.509 142.651 177.138 145.502 177.138C148.556 177.138 151.407 176.12 156.498 176.12C161.588 176.12 165.05 177.138 167.901 177.138C170.751 177.138 171.973 174.287 171.973 174.287C171.973 174.287 147.334 174.084 141.633 175.509Z" fill="url(#paint15_radial)"/>
<path d="M129.008 155.554C130.695 155.554 132.062 154.187 132.062 152.5C132.062 150.813 130.695 149.445 129.008 149.445C127.321 149.445 125.954 150.813 125.954 152.5C125.954 154.187 127.321 155.554 129.008 155.554Z" fill="white"/>
<path fill-rule="evenodd" clip-rule="evenodd" d="M110.885 111.568C110.885 111.568 119.438 107.699 126.361 98.9434L129.008 105.256C129.008 105.256 121.881 113.604 110.885 115.233V111.568Z" fill="url(#paint16_linear)"/>
<path fill-rule="evenodd" clip-rule="evenodd" d="M209.033 111.773C209.033 111.773 198.445 107.904 189.689 97.7227L187.245 105.053C187.245 105.053 196.001 114.42 209.237 115.642L209.033 111.773Z" fill="url(#paint17_linear)"/>
<path fill-rule="evenodd" clip-rule="evenodd" d="M172.177 174.284C171.973 177.95 164.235 174.081 156.497 174.284C149.167 174.488 141.836 178.764 140.818 174.284C140.615 173.877 140.818 173.063 141.022 172.248C142.447 167.768 148.76 159.216 156.294 158.401C165.457 157.791 172.38 167.157 172.177 174.284Z" fill="url(#paint18_linear)"/>
<path fill-rule="evenodd" clip-rule="evenodd" d="M172.177 174.284C172.177 174.284 169.733 166.954 156.498 167.361C143.262 167.768 140.818 174.284 140.818 174.284L141.022 172.248C142.447 167.768 148.76 159.216 156.294 158.401C165.457 157.791 172.381 167.157 172.177 174.284Z" fill="url(#paint19_linear)"/>
<path fill-rule="evenodd" clip-rule="evenodd" d="M253.424 70.6385L223.491 80.0053C223.491 80.0053 199.87 82.2452 188.671 70.2312C178.49 59.2354 166.679 34.1893 166.679 34.1893C166.679 34.1893 156.498 31.7458 152.018 28.6914L150.593 27.4696C146.316 24.4152 134.099 5.27432 133.895 4.66344L137.968 3.44168C145.502 0.590901 156.294 -0.427233 164.643 -0.630859C165.457 -0.630859 166.068 -0.630859 166.883 -0.630859C170.548 -0.630859 173.602 -0.630859 175.639 -0.630859C176.046 -0.630859 176.453 -0.630859 176.657 -0.630859C177.675 -0.630859 178.082 -0.630859 178.082 -0.630859C178.082 -0.630859 178.897 1.20178 179.915 3.6453C182.155 8.9396 185.82 17.0847 187.245 17.8992C189.282 19.1209 198.241 19.7318 198.241 19.7318C198.241 19.7318 199.259 34.5966 206.997 46.8142C209.034 50.0722 214.124 53.5339 220.029 56.7919C234.08 64.3261 253.424 70.6385 253.424 70.6385Z" fill="url(#paint20_linear)"/>
<path fill-rule="evenodd" clip-rule="evenodd" d="M166.679 34.1925L173.195 29.9163L198.445 19.735C198.445 19.735 191.725 20.3459 187.449 17.9023L152.221 28.4909C152.018 28.6946 160.57 33.1743 166.679 34.1925Z" fill="#FFD19F"/>
<path fill-rule="evenodd" clip-rule="evenodd" d="M197.02 76.1395L220.233 56.7949C220.233 56.7949 244.872 68.4016 253.628 70.6415L223.695 80.0084C223.491 80.0084 210.459 81.4338 197.02 76.1395Z" fill="#FFD19F"/>
<path fill-rule="evenodd" clip-rule="evenodd" d="M246.093 70.4368L224.102 78.1747C224.102 78.1747 212.495 78.9892 200.888 72.8804C200.074 72.4731 199.055 71.8622 198.241 71.2514C197.223 70.6405 196.001 69.6223 194.983 68.6042C183.987 58.0156 173.399 31.1369 173.195 30.3224C173.195 30.3224 163.421 29.5079 156.905 26.4535C156.09 26.0462 155.479 25.639 154.665 25.2317C149.778 21.5664 142.651 2.01826 142.651 2.01826C157.923 -2.46153 174.824 -0.62889 174.824 -0.62889C174.824 -0.62889 181.747 18.512 184.394 20.141C187.042 21.7701 195.594 22.3809 195.594 22.3809C195.797 23.3991 199.055 38.8747 205.572 49.056C208.015 52.7213 212.495 55.9793 217.586 59.0337C230.007 65.9571 246.093 70.4368 246.093 70.4368Z" fill="url(#paint21_radial)"/>
<path opacity="0.3" fill-rule="evenodd" clip-rule="evenodd" d="M217.585 58.83L200.888 72.6767L194.983 68.4005C183.987 57.8119 173.398 30.9332 173.195 30.1187L195.797 22.3809C196.001 23.399 199.259 38.8746 205.775 49.056C208.015 52.7212 212.495 55.9793 217.585 58.83Z" fill="#8863A9"/>
<path opacity="0.3" fill-rule="evenodd" clip-rule="evenodd" d="M184.394 20.141L156.701 26.2498C155.887 25.8426 155.276 25.4353 154.461 25.0281C149.778 21.5664 142.651 2.01826 142.651 2.01826C157.923 -2.46153 174.824 -0.62889 174.824 -0.62889C174.824 -0.62889 181.747 18.512 184.394 20.141Z" fill="#8863A9"/>
<path fill-rule="evenodd" clip-rule="evenodd" d="M214.531 80.2134C214.531 80.2134 232.043 146.596 230.007 213.385C230.007 213.385 231.636 128.066 223.491 80.0098L214.531 80.2134Z" fill="url(#paint22_radial)"/>
<path fill-rule="evenodd" clip-rule="evenodd" d="M253.424 70.6387C253.424 70.6387 273.38 188.946 261.569 251.459L235.709 250.237C235.709 250.237 246.908 166.751 235.709 76.3402L253.424 70.6387Z" fill="url(#paint23_linear)"/>
<path fill-rule="evenodd" clip-rule="evenodd" d="M258.311 233.133C258.311 233.133 264.42 211.142 259.533 174.285L258.311 233.133Z" fill="white"/>
<path fill-rule="evenodd" clip-rule="evenodd" d="M148.76 162.069C148.76 162.069 151.407 163.495 157.516 163.698C163.421 163.902 166.272 162.069 166.272 162.069C166.272 162.069 157.108 154.535 148.76 162.069Z" fill="url(#paint24_radial)"/>
<path opacity="0.5" fill-rule="evenodd" clip-rule="evenodd" d="M91.5408 99.7612L133.895 92.8378L141.022 15.6633L133.895 4.87109C133.895 4.87109 110.478 7.9255 97.0387 34.6006L91.5408 99.7612Z" fill="#81282D"/>
<path opacity="0.5" fill-rule="evenodd" clip-rule="evenodd" d="M88.6897 213.381L230.21 199.941L229.396 250.034C229.396 250.034 197.223 264.898 154.665 264.898C112.107 264.898 89.5042 249.015 89.5042 249.015L88.6897 213.381Z" fill="#81282D"/>
<path fill-rule="evenodd" clip-rule="evenodd" d="M93.1699 78.1767L101.722 34.397C101.722 34.397 111.7 12.6089 133.895 4.87109C133.895 4.87109 105.998 12.6089 97.0388 34.6006L93.1699 78.1767Z" fill="url(#paint25_radial)"/>
<path fill-rule="evenodd" clip-rule="evenodd" d="M253.424 107.904C253.424 107.904 246.094 106.478 243.039 102.61C238.559 96.908 238.559 87.1339 238.559 87.1339C238.559 87.1339 238.559 83.0613 242.225 83.8758L244.057 88.5593L242.632 79.8033C242.632 79.8033 246.094 73.8981 252.61 76.138L256.071 86.7266L254.849 77.767C254.849 77.767 259.126 76.5453 261.162 78.7852C261.162 78.7852 260.958 87.1339 261.162 90.1883C261.366 93.2427 263.198 95.4826 263.198 95.4826C263.198 95.4826 262.791 91.2064 263.402 88.7629C263.809 86.3194 265.642 85.5049 265.642 85.5049C265.642 85.5049 269.714 85.9121 270.325 87.7447C270.325 87.7447 267.474 90.3919 267.271 92.8354C267.067 95.2789 267.678 100.777 267.678 100.777C267.678 100.777 263.605 104.035 261.976 104.646C260.144 105.46 253.424 107.904 253.424 107.904Z" fill="url(#paint26_linear)"/>
<path fill-rule="evenodd" clip-rule="evenodd" d="M286.819 135.803C285.393 142.726 278.674 149.853 271.547 155.759C261.569 163.904 250.573 169.605 250.573 169.605C241.614 166.347 246.908 157.184 246.908 157.184C246.908 157.184 250.98 155.351 256.071 152.501C265.438 147.206 278.674 138.654 278.47 131.731C278.266 115.644 253.628 108.11 253.628 108.11C255.867 97.9286 260.958 99.7612 260.958 99.7612C260.958 99.7612 291.095 115.44 286.819 135.803Z" fill="url(#paint27_linear)"/>
<path opacity="0.74" fill-rule="evenodd" clip-rule="evenodd" d="M271.547 155.756C261.569 163.901 250.573 169.603 250.573 169.603C241.614 166.345 246.908 157.181 246.908 157.181C246.908 157.181 250.98 155.349 256.071 152.498C255.867 152.294 262.383 155.349 271.547 155.756Z" fill="url(#paint28_linear)"/>
</g>
<defs>
<linearGradient id="paint0_linear" x1="84.5112" y1="171.756" x2="84.5112" y2="90.3466" gradientUnits="userSpaceOnUse">
<stop offset="0.00558659" stop-color="#E4798B"/>
<stop offset="0.2466" stop-color="#ED877F"/>
<stop offset="0.7018" stop-color="#FA9C6D"/>
<stop offset="1" stop-color="#FFA466"/>
</linearGradient>
<linearGradient id="paint1_linear" x1="80.3556" y1="171.757" x2="80.3556" y2="145.477" gradientUnits="userSpaceOnUse">
<stop stop-color="#CA528D"/>
<stop offset="1" stop-color="#B3757C"/>
</linearGradient>
<linearGradient id="paint2_linear" x1="91.5431" y1="98.9231" x2="91.5431" y2="74.236" gradientUnits="userSpaceOnUse">
<stop stop-color="#FFA466"/>
<stop offset="0.2982" stop-color="#FA9C6D"/>
<stop offset="0.7534" stop-color="#ED877F"/>
<stop offset="0.9944" stop-color="#E4798B"/>
</linearGradient>
<linearGradient id="paint3_linear" x1="142.718" y1="125.345" x2="206.539" y2="125.345" gradientUnits="userSpaceOnUse">
<stop stop-color="#1C0013"/>
<stop offset="0.9944" stop-color="#400A13"/>
</linearGradient>
<linearGradient id="paint4_linear" x1="184.405" y1="315.377" x2="184.405" y2="269.22" gradientUnits="userSpaceOnUse">
<stop stop-color="#C9635C"/>
<stop offset="0.9707" stop-color="#C95B57"/>
<stop offset="0.9944" stop-color="#C95B57"/>
</linearGradient>
<linearGradient id="paint5_linear" x1="169.343" y1="315.376" x2="169.343" y2="268.792" gradientUnits="userSpaceOnUse">
<stop stop-color="#FFA466"/>
<stop offset="0.2982" stop-color="#FA9C6D"/>
<stop offset="0.7534" stop-color="#ED877F"/>
<stop offset="0.9944" stop-color="#E4798B"/>
</linearGradient>
<linearGradient id="paint6_linear" x1="201.563" y1="275.047" x2="145.671" y2="275.047" gradientUnits="userSpaceOnUse">
<stop stop-color="#CA528D"/>
<stop offset="1" stop-color="#B3757C"/>
</linearGradient>
<radialGradient id="paint7_radial" cx="0" cy="0" r="1" gradientUnits="userSpaceOnUse" gradientTransform="translate(201.152 59.1742) scale(172.725)">
<stop offset="0.00558659" stop-color="#842A2C"/>
<stop offset="0.3173" stop-color="#81282D"/>
<stop offset="0.5593" stop-color="#77232F"/>
<stop offset="0.7779" stop-color="#671B32"/>
<stop offset="0.9816" stop-color="#4F0E36"/>
<stop offset="1" stop-color="#4D0D37"/>
</radialGradient>
<linearGradient id="paint8_linear" x1="89.5604" y1="261.208" x2="179.524" y2="261.208" gradientUnits="userSpaceOnUse">
<stop stop-color="#1C0013"/>
<stop offset="0.9944" stop-color="#400A13"/>
</linearGradient>
<radialGradient id="paint9_radial" cx="0" cy="0" r="1" gradientUnits="userSpaceOnUse" gradientTransform="translate(196.931 133.907) scale(14.6245)">
<stop offset="0.00558659" stop-color="#3B1400"/>
<stop offset="0.3754" stop-color="#391203"/>
<stop offset="0.6625" stop-color="#340D0D"/>
<stop offset="0.921" stop-color="#2B041D"/>
<stop offset="1" stop-color="#270024"/>
</radialGradient>
<radialGradient id="paint10_radial" cx="0" cy="0" r="1" gradientUnits="userSpaceOnUse" gradientTransform="translate(122.617 135.87) scale(15.1922)">
<stop offset="0.00558659" stop-color="#3B1400"/>
<stop offset="0.3754" stop-color="#391203"/>
<stop offset="0.6625" stop-color="#340D0D"/>
<stop offset="0.921" stop-color="#2B041D"/>
<stop offset="1" stop-color="#270024"/>
</radialGradient>
<radialGradient id="paint11_radial" cx="0" cy="0" r="1" gradientUnits="userSpaceOnUse" gradientTransform="translate(124.025 135.253) scale(34.4214 35.6524)">
<stop offset="0.00558659" stop-color="white"/>
<stop offset="0.2415" stop-color="#FDFCFC"/>
<stop offset="0.4427" stop-color="#F6F1F3"/>
<stop offset="0.631" stop-color="#ECE0E5"/>
<stop offset="0.8115" stop-color="#DCC7D0"/>
<stop offset="0.985" stop-color="#C9A7B6"/>
<stop offset="1" stop-color="#C7A4B3"/>
</radialGradient>
<radialGradient id="paint12_radial" cx="0" cy="0" r="1" gradientUnits="userSpaceOnUse" gradientTransform="translate(127.597 140.427) scale(11.0005 11.3939)">
<stop offset="0.00558659" stop-color="#3B1400"/>
<stop offset="0.3754" stop-color="#391203"/>
<stop offset="0.6625" stop-color="#340D0D"/>
<stop offset="0.921" stop-color="#2B041D"/>
<stop offset="1" stop-color="#270024"/>
</radialGradient>
<radialGradient id="paint13_radial" cx="0" cy="0" r="1" gradientUnits="userSpaceOnUse" gradientTransform="translate(195.911 135.253) scale(34.4214 35.6524)">
<stop offset="0.00558659" stop-color="white"/>
<stop offset="0.2415" stop-color="#FDFCFC"/>
<stop offset="0.4427" stop-color="#F6F1F3"/>
<stop offset="0.631" stop-color="#ECE0E5"/>
<stop offset="0.8115" stop-color="#DCC7D0"/>
<stop offset="0.985" stop-color="#C9A7B6"/>
<stop offset="1" stop-color="#C7A4B3"/>
</radialGradient>
<radialGradient id="paint14_radial" cx="0" cy="0" r="1" gradientUnits="userSpaceOnUse" gradientTransform="translate(198.868 140.155) scale(11.0005 11.3939)">
<stop offset="0.00558659" stop-color="#3B1400"/>
<stop offset="0.3754" stop-color="#391203"/>
<stop offset="0.6625" stop-color="#340D0D"/>
<stop offset="0.921" stop-color="#2B041D"/>
<stop offset="1" stop-color="#270024"/>
</radialGradient>
<radialGradient id="paint15_radial" cx="0" cy="0" r="1" gradientUnits="userSpaceOnUse" gradientTransform="translate(144.057 174.651) scale(13.9328)">
<stop offset="0.00558659" stop-color="#95452C"/>
<stop offset="0.6019" stop-color="#95422F"/>
<stop offset="1" stop-color="#953B37"/>
</radialGradient>
<linearGradient id="paint16_linear" x1="110.856" y1="107.028" x2="128.995" y2="107.028" gradientUnits="userSpaceOnUse">
<stop offset="0.00558659" stop-color="#430900"/>
<stop offset="0.3754" stop-color="#410803"/>
<stop offset="0.6625" stop-color="#39060D"/>
<stop offset="0.921" stop-color="#2C021D"/>
<stop offset="1" stop-color="#270024"/>
</linearGradient>
<linearGradient id="paint17_linear" x1="208.778" y1="106.099" x2="187.355" y2="107.294" gradientUnits="userSpaceOnUse">
<stop offset="0.00558659" stop-color="#430900"/>
<stop offset="0.3754" stop-color="#410803"/>
<stop offset="0.6625" stop-color="#39060D"/>
<stop offset="0.921" stop-color="#2C021D"/>
<stop offset="1" stop-color="#270024"/>
</linearGradient>
<linearGradient id="paint18_linear" x1="156.558" y1="176.332" x2="156.558" y2="158.486" gradientUnits="userSpaceOnUse">
<stop offset="0.00558659" stop-color="#CE2E13"/>
<stop offset="0.3636" stop-color="#CB2E15"/>
<stop offset="0.6416" stop-color="#C1301C"/>
<stop offset="0.8919" stop-color="#B13227"/>
<stop offset="1" stop-color="#A7332D"/>
</linearGradient>
<linearGradient id="paint19_linear" x1="140.972" y1="166.403" x2="172.186" y2="166.403" gradientUnits="userSpaceOnUse">
<stop stop-color="#CA528D"/>
<stop offset="1" stop-color="#B3757C"/>
</linearGradient>
<linearGradient id="paint20_linear" x1="133.797" y1="39.7664" x2="253.483" y2="39.7664" gradientUnits="userSpaceOnUse">
<stop stop-color="#9F3438"/>
<stop offset="0.3032" stop-color="#A73B3E"/>
<stop offset="0.7659" stop-color="#BC4F4D"/>
<stop offset="0.9944" stop-color="#C95B57"/>
</linearGradient>
<radialGradient id="paint21_radial" cx="0" cy="0" r="1" gradientUnits="userSpaceOnUse" gradientTransform="translate(175.631 24.7884) scale(65.4355)">
<stop offset="0.00558659" stop-color="white"/>
<stop offset="0.2866" stop-color="#FDFCFC"/>
<stop offset="0.526" stop-color="#F6F1F3"/>
<stop offset="0.7502" stop-color="#EBE0E5"/>
<stop offset="0.9639" stop-color="#DCC7D0"/>
<stop offset="1" stop-color="#D9C2CC"/>
</radialGradient>
<radialGradient id="paint22_radial" cx="0" cy="0" r="1" gradientUnits="userSpaceOnUse" gradientTransform="translate(215.867 95.6418) scale(58.5107)">
<stop offset="0.00558659" stop-color="#9D452C"/>
<stop offset="0.3349" stop-color="#9A432D"/>
<stop offset="0.5906" stop-color="#903C2F"/>
<stop offset="0.8207" stop-color="#803033"/>
<stop offset="1" stop-color="#6D2237"/>
</radialGradient>
<linearGradient id="paint23_linear" x1="235.708" y1="161.038" x2="265.309" y2="161.038" gradientUnits="userSpaceOnUse">
<stop offset="0.1979"/>
<stop offset="0.4101" stop-color="#110909"/>
<stop offset="0.8287" stop-color="#3D2121"/>
<stop offset="1" stop-color="#512C2C"/>
</linearGradient>
<radialGradient id="paint24_radial" cx="0" cy="0" r="1" gradientUnits="userSpaceOnUse" gradientTransform="translate(157.464 161.111) scale(6.4344)">
<stop offset="0.00558659" stop-color="white"/>
<stop offset="0.2415" stop-color="#FDFCFC"/>
<stop offset="0.4427" stop-color="#F6F1F3"/>
<stop offset="0.631" stop-color="#ECE0E5"/>
<stop offset="0.8115" stop-color="#DCC7D0"/>
<stop offset="0.985" stop-color="#C9A7B6"/>
<stop offset="1" stop-color="#C7A4B3"/>
</radialGradient>
<radialGradient id="paint25_radial" cx="0" cy="0" r="1" gradientUnits="userSpaceOnUse" gradientTransform="translate(96.4829 13.3798) scale(36.8758)">
<stop offset="0.00558659" stop-color="#A95C2C"/>
<stop offset="0.4036" stop-color="#A9592D"/>
<stop offset="0.7122" stop-color="#A84F31"/>
<stop offset="0.9905" stop-color="#A73F37"/>
<stop offset="1" stop-color="#A73E37"/>
</radialGradient>
<linearGradient id="paint26_linear" x1="254.238" y1="107.987" x2="254.238" y2="76.0743" gradientUnits="userSpaceOnUse">
<stop stop-color="#FFA466"/>
<stop offset="0.2982" stop-color="#FA9C6D"/>
<stop offset="0.7534" stop-color="#ED877F"/>
<stop offset="0.9944" stop-color="#E4798B"/>
</linearGradient>
<linearGradient id="paint27_linear" x1="266.238" y1="169.565" x2="266.238" y2="99.4601" gradientUnits="userSpaceOnUse">
<stop offset="0.00558659" stop-color="#E4798B"/>
<stop offset="0.2466" stop-color="#ED877F"/>
<stop offset="0.7018" stop-color="#FA9C6D"/>
<stop offset="1" stop-color="#FFA466"/>
</linearGradient>
<linearGradient id="paint28_linear" x1="258.361" y1="169.563" x2="258.361" y2="152.306" gradientUnits="userSpaceOnUse">
<stop stop-color="#CA528D"/>
<stop offset="1" stop-color="#B3757C"/>
</linearGradient>
<clipPath id="clip0">
<rect width="353" height="315" fill="white"/>
</clipPath>
</defs>
</svg>
