<svg width="53" height="22" viewBox="0 0 53 22" fill="none" xmlns="http://www.w3.org/2000/svg">
<ellipse cx="5.06214" cy="5.48345" rx="5.06214" ry="5.48345" fill="#373737"/>
<ellipse cx="5.06214" cy="16.4505" rx="5.06214" ry="5.48345" fill="#373737"/>
<path d="M12.2753 10.8146C12.1822 10.8146 12.103 10.7841 12.0378 10.7232C11.9819 10.6521 11.954 10.5658 11.954 10.4643V0.517881C11.954 0.406182 11.9819 0.319868 12.0378 0.258941C12.103 0.187859 12.1822 0.152318 12.2753 0.152318H12.974C13.1231 0.152318 13.2442 0.233555 13.3373 0.396028L16.2858 6.54968L19.2622 0.396028C19.2808 0.3351 19.318 0.27925 19.3739 0.228477C19.4391 0.177704 19.5183 0.152318 19.6115 0.152318H20.2962C20.3987 0.152318 20.4779 0.187859 20.5337 0.258941C20.599 0.319868 20.6316 0.406182 20.6316 0.517881V10.4643C20.6316 10.5658 20.599 10.6521 20.5337 10.7232C20.4685 10.7841 20.3894 10.8146 20.2962 10.8146H19.6115C19.5183 10.8146 19.4391 10.7841 19.3739 10.7232C19.318 10.6521 19.2901 10.5658 19.2901 10.4643V2.9702L16.9565 7.93578C16.8633 8.14902 16.7143 8.25564 16.5094 8.25564H16.0762C15.8712 8.25564 15.7222 8.14902 15.629 7.93578L13.2814 2.9702V10.4643C13.2814 10.5658 13.2488 10.6521 13.1836 10.7232C13.1277 10.7841 13.0532 10.8146 12.9601 10.8146H12.2753Z" fill="#373737"/>
<path d="M22.3915 10.8146C22.3169 10.8146 22.2517 10.7841 22.1958 10.7232C22.1399 10.6623 22.112 10.5912 22.112 10.51C22.112 10.4287 22.1167 10.3729 22.126 10.3424L25.5914 0.487418C25.666 0.264018 25.815 0.152318 26.0386 0.152318H26.9888C27.2124 0.152318 27.3614 0.264018 27.4359 0.487418L30.8874 10.3424L30.9154 10.51C30.9154 10.5912 30.8874 10.6623 30.8315 10.7232C30.7756 10.7841 30.7104 10.8146 30.6359 10.8146H29.9232C29.8208 10.8146 29.7416 10.7892 29.6857 10.7384C29.6298 10.6775 29.5925 10.6166 29.5739 10.5556L28.8054 8.39273H24.222L23.4535 10.5556C23.4348 10.6166 23.3929 10.6775 23.3277 10.7384C23.2718 10.7892 23.1973 10.8146 23.1041 10.8146H22.3915ZM28.4001 7.08279L26.5137 1.6755L24.6273 7.08279H28.4001Z" fill="#373737"/>
<path d="M35.7953 10.9669C34.575 10.9669 33.6248 10.6064 32.9447 9.88545C32.274 9.15432 31.9153 8.15918 31.8687 6.90001C31.8594 6.59538 31.8548 6.11811 31.8548 5.46822C31.8548 4.80818 31.8594 4.33091 31.8687 4.03643C31.9153 2.78742 32.2786 1.80243 32.9587 1.08146C33.6387 0.360486 34.5843 0 35.7953 0C36.6151 0 37.3091 0.162473 37.8774 0.487418C38.455 0.802209 38.8882 1.18808 39.1769 1.64504C39.4657 2.10199 39.6194 2.52848 39.6381 2.92451V2.95497C39.6381 3.03621 39.6101 3.10221 39.5542 3.15299C39.4983 3.20376 39.4285 3.22915 39.3446 3.22915H38.5202C38.427 3.22915 38.3572 3.21391 38.3106 3.18345C38.2733 3.14283 38.236 3.06667 38.1988 2.95497C38.059 2.49802 37.7889 2.10707 37.3883 1.78212C36.9971 1.45718 36.4661 1.2947 35.7953 1.2947C35.0221 1.2947 34.4166 1.52318 33.9788 1.98014C33.5409 2.43709 33.3034 3.14791 33.2661 4.11259C33.2568 4.40707 33.2521 4.85895 33.2521 5.46822C33.2521 6.06734 33.2568 6.51922 33.2661 6.82385C33.3034 7.79869 33.5409 8.51966 33.9788 8.98677C34.4166 9.44373 35.0221 9.6722 35.7953 9.6722C36.5778 9.6722 37.202 9.43865 37.6678 8.97154C38.1336 8.50443 38.3665 7.80377 38.3665 6.86955V6.22981H36.2704C36.1773 6.22981 36.0981 6.19935 36.0329 6.13842C35.977 6.06734 35.949 5.97595 35.949 5.86425V5.37683C35.949 5.27529 35.977 5.18897 36.0329 5.11789C36.0981 5.04681 36.1773 5.01127 36.2704 5.01127H39.4285C39.5216 5.01127 39.5961 5.04681 39.652 5.11789C39.7173 5.17882 39.7499 5.26513 39.7499 5.37683V6.83909C39.7499 7.67176 39.5915 8.39781 39.2748 9.01723C38.958 9.63666 38.5015 10.119 37.9053 10.4643C37.3091 10.7994 36.6058 10.9669 35.7953 10.9669Z" fill="#373737"/>
<path d="M42.0648 10.8146C41.9716 10.8146 41.8924 10.7841 41.8272 10.7232C41.7713 10.6521 41.7434 10.5658 41.7434 10.4643V0.50265C41.7434 0.401104 41.7713 0.319868 41.8272 0.258941C41.8924 0.187859 41.9716 0.152318 42.0648 0.152318H42.8054C42.8985 0.152318 42.9731 0.187859 43.029 0.258941C43.0942 0.319868 43.1268 0.401104 43.1268 0.50265V10.4643C43.1268 10.5658 43.0942 10.6521 43.029 10.7232C42.9731 10.7841 42.8985 10.8146 42.8054 10.8146H42.0648Z" fill="#373737"/>
<path d="M49.0856 10.9669C47.8373 10.9669 46.8871 10.6013 46.235 9.87022C45.5922 9.13909 45.2476 8.12871 45.201 6.83909C45.1917 6.56491 45.187 6.11811 45.187 5.49869C45.187 4.8691 45.1917 4.41215 45.201 4.12782C45.2476 2.84835 45.5969 1.84305 46.249 1.11192C46.9011 0.370641 47.8467 0 49.0856 0C49.9147 0 50.6181 0.162473 51.1957 0.487418C51.7732 0.802209 52.2111 1.21855 52.5092 1.73643C52.8073 2.25431 52.9703 2.80773 52.9983 3.3967V3.42716C52.9983 3.5084 52.9657 3.57948 52.9004 3.6404C52.8445 3.69118 52.7793 3.71656 52.7048 3.71656H51.9363C51.7499 3.71656 51.6335 3.59979 51.5869 3.36623C51.4286 2.60464 51.1444 2.07153 50.7345 1.76689C50.3246 1.4521 49.775 1.2947 49.0856 1.2947C47.4833 1.2947 46.6542 2.26446 46.5983 4.20398C46.589 4.47815 46.5844 4.89957 46.5844 5.46822C46.5844 6.03688 46.589 6.46844 46.5983 6.76293C46.6542 8.70245 47.4833 9.6722 49.0856 9.6722C49.775 9.6722 50.3246 9.51989 50.7345 9.21525C51.1537 8.90046 51.4379 8.36227 51.5869 7.60068C51.6149 7.46867 51.6568 7.37728 51.7127 7.3265C51.7686 7.27573 51.8431 7.25034 51.9363 7.25034H52.7048C52.7887 7.25034 52.8585 7.28081 52.9144 7.34174C52.9796 7.39251 53.0076 7.46359 52.9983 7.55498C52.9703 8.1541 52.8073 8.7126 52.5092 9.23048C52.2111 9.74836 51.7732 10.1698 51.1957 10.4947C50.6181 10.8095 49.9147 10.9669 49.0856 10.9669Z" fill="#373737"/>
<path d="M12.2803 21.8468C12.1857 21.8468 12.1053 21.8161 12.0391 21.7548C11.9823 21.6833 11.954 21.5965 11.954 21.4943V11.488C11.954 11.3757 11.9823 11.2888 12.0391 11.2275C12.1053 11.156 12.1857 11.1203 12.2803 11.1203H16.1674C17.1794 11.1203 17.9408 11.3808 18.4515 11.9018C18.9622 12.4228 19.2176 13.1072 19.2176 13.9551C19.2176 14.5272 19.0946 15.0022 18.8487 15.3802C18.6123 15.7582 18.3286 16.034 17.9975 16.2077C18.3948 16.4222 18.7305 16.7542 19.0048 17.2037C19.2791 17.6532 19.4162 18.1691 19.4162 18.7514C19.4162 19.3235 19.2933 19.8445 19.0474 20.3144C18.8109 20.7843 18.4562 21.1572 17.9833 21.433C17.5105 21.7089 16.943 21.8468 16.2809 21.8468H12.2803ZM15.9546 15.6561C16.5505 15.6561 17.0045 15.5079 17.3166 15.2117C17.6381 14.9154 17.7989 14.5017 17.7989 13.9705C17.7989 13.4495 17.6429 13.051 17.3308 12.7752C17.0186 12.4994 16.5599 12.3615 15.9546 12.3615H13.3443V15.6561H15.9546ZM16.0965 20.6056C16.6923 20.6056 17.1558 20.4319 17.4868 20.0846C17.8273 19.7372 17.9975 19.2929 17.9975 18.7514C17.9975 18.1896 17.8273 17.7401 17.4868 17.4029C17.1558 17.0556 16.6923 16.8819 16.0965 16.8819H13.3443V20.6056H16.0965Z" fill="#373737"/>
<path d="M25.0054 22C23.7664 22 22.8064 21.6527 22.1255 20.958C21.4539 20.2531 21.0993 19.1958 21.0614 17.786C21.052 17.4796 21.0473 17.0454 21.0473 16.4835C21.0473 15.9217 21.052 15.4926 21.0614 15.1963C21.0993 13.8172 21.4681 12.7701 22.168 12.055C22.8679 11.3297 23.8137 10.967 25.0054 10.967C26.1876 10.967 27.1287 11.3297 27.8285 12.055C28.5284 12.7701 28.8973 13.8172 28.9351 15.1963C28.954 15.7889 28.9635 16.2179 28.9635 16.4835C28.9635 16.7389 28.954 17.1731 28.9351 17.786C28.8973 19.1958 28.5379 20.2531 27.8569 20.958C27.1854 21.6527 26.2349 22 25.0054 22ZM25.0054 20.6975C25.7525 20.6975 26.3484 20.4523 26.7929 19.962C27.2374 19.4716 27.4786 18.7208 27.5164 17.7094C27.5354 17.0965 27.5448 16.6878 27.5448 16.4835C27.5448 16.2588 27.5354 15.8502 27.5164 15.2576C27.4786 14.2463 27.2327 13.4954 26.7787 13.0051C26.3342 12.5147 25.7431 12.2695 25.0054 12.2695C24.2582 12.2695 23.6576 12.5147 23.2036 13.0051C22.7591 13.4954 22.518 14.2463 22.4801 15.2576C22.4707 15.5539 22.4659 15.9625 22.4659 16.4835C22.4659 16.9943 22.4707 17.4029 22.4801 17.7094C22.518 18.7208 22.7591 19.4716 23.2036 19.962C23.6576 20.4523 24.2582 20.6975 25.0054 20.6975Z" fill="#373737"/>
<path d="M30.103 21.8468C30.0273 21.8468 29.9564 21.8161 29.8902 21.7548C29.8334 21.6935 29.8051 21.622 29.8051 21.5403C29.8051 21.4688 29.824 21.4024 29.8618 21.3411L33.1106 16.3916L30.0179 11.626C29.9895 11.5749 29.9753 11.5085 29.9753 11.4267C29.9753 11.345 30.0037 11.2735 30.0604 11.2122C30.1172 11.1509 30.1834 11.1203 30.259 11.1203H31.1102C31.2521 11.1203 31.3798 11.2071 31.4933 11.3808L33.9902 15.2117L36.4729 11.3808C36.5674 11.2071 36.6904 11.1203 36.8417 11.1203H37.6504C37.726 11.1203 37.7922 11.1509 37.849 11.2122C37.9057 11.2735 37.9341 11.345 37.9341 11.4267C37.9341 11.5187 37.9152 11.5851 37.8773 11.626L34.8272 16.4069L38.0618 21.3411C38.0996 21.4024 38.1185 21.4688 38.1185 21.5403C38.1185 21.622 38.0902 21.6935 38.0334 21.7548C37.9767 21.8161 37.9057 21.8468 37.8206 21.8468H36.9552C36.8133 21.8468 36.6857 21.7599 36.5722 21.5863L33.9334 17.6175L31.3089 21.5863C31.2143 21.7599 31.0913 21.8468 30.94 21.8468H30.103Z" fill="#373737"/>
</svg>
